%TF.GenerationSoftware,KiCad,Pcbnew,7.0.10+dfsg-1*%
%TF.CreationDate,2024-02-28T21:18:20+08:00*%
%TF.ProjectId,eink_digit_clk,65696e6b-5f64-4696-9769-745f636c6b2e,rev?*%
%TF.SameCoordinates,Original*%
%TF.FileFunction,Legend,Top*%
%TF.FilePolarity,Positive*%
%FSLAX46Y46*%
G04 Gerber Fmt 4.6, Leading zero omitted, Abs format (unit mm)*
G04 Created by KiCad (PCBNEW 7.0.10+dfsg-1) date 2024-02-28 21:18:20*
%MOMM*%
%LPD*%
G01*
G04 APERTURE LIST*
%ADD10C,0.150000*%
%ADD11C,0.120000*%
G04 APERTURE END LIST*
D10*
X99670112Y-119346009D02*
X99812969Y-119393628D01*
X99812969Y-119393628D02*
X99860588Y-119441247D01*
X99860588Y-119441247D02*
X99908207Y-119536485D01*
X99908207Y-119536485D02*
X99908207Y-119679342D01*
X99908207Y-119679342D02*
X99860588Y-119774580D01*
X99860588Y-119774580D02*
X99812969Y-119822200D01*
X99812969Y-119822200D02*
X99717731Y-119869819D01*
X99717731Y-119869819D02*
X99336779Y-119869819D01*
X99336779Y-119869819D02*
X99336779Y-118869819D01*
X99336779Y-118869819D02*
X99670112Y-118869819D01*
X99670112Y-118869819D02*
X99765350Y-118917438D01*
X99765350Y-118917438D02*
X99812969Y-118965057D01*
X99812969Y-118965057D02*
X99860588Y-119060295D01*
X99860588Y-119060295D02*
X99860588Y-119155533D01*
X99860588Y-119155533D02*
X99812969Y-119250771D01*
X99812969Y-119250771D02*
X99765350Y-119298390D01*
X99765350Y-119298390D02*
X99670112Y-119346009D01*
X99670112Y-119346009D02*
X99336779Y-119346009D01*
X100527255Y-118869819D02*
X100717731Y-118869819D01*
X100717731Y-118869819D02*
X100812969Y-118917438D01*
X100812969Y-118917438D02*
X100908207Y-119012676D01*
X100908207Y-119012676D02*
X100955826Y-119203152D01*
X100955826Y-119203152D02*
X100955826Y-119536485D01*
X100955826Y-119536485D02*
X100908207Y-119726961D01*
X100908207Y-119726961D02*
X100812969Y-119822200D01*
X100812969Y-119822200D02*
X100717731Y-119869819D01*
X100717731Y-119869819D02*
X100527255Y-119869819D01*
X100527255Y-119869819D02*
X100432017Y-119822200D01*
X100432017Y-119822200D02*
X100336779Y-119726961D01*
X100336779Y-119726961D02*
X100289160Y-119536485D01*
X100289160Y-119536485D02*
X100289160Y-119203152D01*
X100289160Y-119203152D02*
X100336779Y-119012676D01*
X100336779Y-119012676D02*
X100432017Y-118917438D01*
X100432017Y-118917438D02*
X100527255Y-118869819D01*
X101574874Y-118869819D02*
X101765350Y-118869819D01*
X101765350Y-118869819D02*
X101860588Y-118917438D01*
X101860588Y-118917438D02*
X101955826Y-119012676D01*
X101955826Y-119012676D02*
X102003445Y-119203152D01*
X102003445Y-119203152D02*
X102003445Y-119536485D01*
X102003445Y-119536485D02*
X101955826Y-119726961D01*
X101955826Y-119726961D02*
X101860588Y-119822200D01*
X101860588Y-119822200D02*
X101765350Y-119869819D01*
X101765350Y-119869819D02*
X101574874Y-119869819D01*
X101574874Y-119869819D02*
X101479636Y-119822200D01*
X101479636Y-119822200D02*
X101384398Y-119726961D01*
X101384398Y-119726961D02*
X101336779Y-119536485D01*
X101336779Y-119536485D02*
X101336779Y-119203152D01*
X101336779Y-119203152D02*
X101384398Y-119012676D01*
X101384398Y-119012676D02*
X101479636Y-118917438D01*
X101479636Y-118917438D02*
X101574874Y-118869819D01*
X102289160Y-118869819D02*
X102860588Y-118869819D01*
X102574874Y-119869819D02*
X102574874Y-118869819D01*
X136346009Y-95663220D02*
X136346009Y-95329887D01*
X136869819Y-95187030D02*
X136869819Y-95663220D01*
X136869819Y-95663220D02*
X135869819Y-95663220D01*
X135869819Y-95663220D02*
X135869819Y-95187030D01*
X136869819Y-94758458D02*
X135869819Y-94758458D01*
X136869819Y-94282268D02*
X135869819Y-94282268D01*
X135869819Y-94282268D02*
X136869819Y-93710840D01*
X136869819Y-93710840D02*
X135869819Y-93710840D01*
X136869819Y-93234649D02*
X135869819Y-93234649D01*
X136869819Y-92663221D02*
X136298390Y-93091792D01*
X135869819Y-92663221D02*
X136441247Y-93234649D01*
X136774580Y-90901316D02*
X136822200Y-90948935D01*
X136822200Y-90948935D02*
X136869819Y-91091792D01*
X136869819Y-91091792D02*
X136869819Y-91187030D01*
X136869819Y-91187030D02*
X136822200Y-91329887D01*
X136822200Y-91329887D02*
X136726961Y-91425125D01*
X136726961Y-91425125D02*
X136631723Y-91472744D01*
X136631723Y-91472744D02*
X136441247Y-91520363D01*
X136441247Y-91520363D02*
X136298390Y-91520363D01*
X136298390Y-91520363D02*
X136107914Y-91472744D01*
X136107914Y-91472744D02*
X136012676Y-91425125D01*
X136012676Y-91425125D02*
X135917438Y-91329887D01*
X135917438Y-91329887D02*
X135869819Y-91187030D01*
X135869819Y-91187030D02*
X135869819Y-91091792D01*
X135869819Y-91091792D02*
X135917438Y-90948935D01*
X135917438Y-90948935D02*
X135965057Y-90901316D01*
X136869819Y-89996554D02*
X136869819Y-90472744D01*
X136869819Y-90472744D02*
X135869819Y-90472744D01*
X135869819Y-89472744D02*
X135869819Y-89282268D01*
X135869819Y-89282268D02*
X135917438Y-89187030D01*
X135917438Y-89187030D02*
X136012676Y-89091792D01*
X136012676Y-89091792D02*
X136203152Y-89044173D01*
X136203152Y-89044173D02*
X136536485Y-89044173D01*
X136536485Y-89044173D02*
X136726961Y-89091792D01*
X136726961Y-89091792D02*
X136822200Y-89187030D01*
X136822200Y-89187030D02*
X136869819Y-89282268D01*
X136869819Y-89282268D02*
X136869819Y-89472744D01*
X136869819Y-89472744D02*
X136822200Y-89567982D01*
X136822200Y-89567982D02*
X136726961Y-89663220D01*
X136726961Y-89663220D02*
X136536485Y-89710839D01*
X136536485Y-89710839D02*
X136203152Y-89710839D01*
X136203152Y-89710839D02*
X136012676Y-89663220D01*
X136012676Y-89663220D02*
X135917438Y-89567982D01*
X135917438Y-89567982D02*
X135869819Y-89472744D01*
X136774580Y-88044173D02*
X136822200Y-88091792D01*
X136822200Y-88091792D02*
X136869819Y-88234649D01*
X136869819Y-88234649D02*
X136869819Y-88329887D01*
X136869819Y-88329887D02*
X136822200Y-88472744D01*
X136822200Y-88472744D02*
X136726961Y-88567982D01*
X136726961Y-88567982D02*
X136631723Y-88615601D01*
X136631723Y-88615601D02*
X136441247Y-88663220D01*
X136441247Y-88663220D02*
X136298390Y-88663220D01*
X136298390Y-88663220D02*
X136107914Y-88615601D01*
X136107914Y-88615601D02*
X136012676Y-88567982D01*
X136012676Y-88567982D02*
X135917438Y-88472744D01*
X135917438Y-88472744D02*
X135869819Y-88329887D01*
X135869819Y-88329887D02*
X135869819Y-88234649D01*
X135869819Y-88234649D02*
X135917438Y-88091792D01*
X135917438Y-88091792D02*
X135965057Y-88044173D01*
X136869819Y-87615601D02*
X135869819Y-87615601D01*
X136869819Y-87044173D02*
X136298390Y-87472744D01*
X135869819Y-87044173D02*
X136441247Y-87615601D01*
X136869819Y-85853696D02*
X135869819Y-85853696D01*
X135869819Y-85853696D02*
X135869819Y-85615601D01*
X135869819Y-85615601D02*
X135917438Y-85472744D01*
X135917438Y-85472744D02*
X136012676Y-85377506D01*
X136012676Y-85377506D02*
X136107914Y-85329887D01*
X136107914Y-85329887D02*
X136298390Y-85282268D01*
X136298390Y-85282268D02*
X136441247Y-85282268D01*
X136441247Y-85282268D02*
X136631723Y-85329887D01*
X136631723Y-85329887D02*
X136726961Y-85377506D01*
X136726961Y-85377506D02*
X136822200Y-85472744D01*
X136822200Y-85472744D02*
X136869819Y-85615601D01*
X136869819Y-85615601D02*
X136869819Y-85853696D01*
X136869819Y-84853696D02*
X135869819Y-84853696D01*
X135917438Y-83853697D02*
X135869819Y-83948935D01*
X135869819Y-83948935D02*
X135869819Y-84091792D01*
X135869819Y-84091792D02*
X135917438Y-84234649D01*
X135917438Y-84234649D02*
X136012676Y-84329887D01*
X136012676Y-84329887D02*
X136107914Y-84377506D01*
X136107914Y-84377506D02*
X136298390Y-84425125D01*
X136298390Y-84425125D02*
X136441247Y-84425125D01*
X136441247Y-84425125D02*
X136631723Y-84377506D01*
X136631723Y-84377506D02*
X136726961Y-84329887D01*
X136726961Y-84329887D02*
X136822200Y-84234649D01*
X136822200Y-84234649D02*
X136869819Y-84091792D01*
X136869819Y-84091792D02*
X136869819Y-83996554D01*
X136869819Y-83996554D02*
X136822200Y-83853697D01*
X136822200Y-83853697D02*
X136774580Y-83806078D01*
X136774580Y-83806078D02*
X136441247Y-83806078D01*
X136441247Y-83806078D02*
X136441247Y-83996554D01*
X136869819Y-83377506D02*
X135869819Y-83377506D01*
X135869819Y-83044173D02*
X135869819Y-82472745D01*
X136869819Y-82758459D02*
X135869819Y-82758459D01*
X135869819Y-81520363D02*
X136869819Y-81187030D01*
X136869819Y-81187030D02*
X135869819Y-80853697D01*
X136869819Y-79996554D02*
X136869819Y-80567982D01*
X136869819Y-80282268D02*
X135869819Y-80282268D01*
X135869819Y-80282268D02*
X136012676Y-80377506D01*
X136012676Y-80377506D02*
X136107914Y-80472744D01*
X136107914Y-80472744D02*
X136155533Y-80567982D01*
X136774580Y-79567982D02*
X136822200Y-79520363D01*
X136822200Y-79520363D02*
X136869819Y-79567982D01*
X136869819Y-79567982D02*
X136822200Y-79615601D01*
X136822200Y-79615601D02*
X136774580Y-79567982D01*
X136774580Y-79567982D02*
X136869819Y-79567982D01*
X135869819Y-78901316D02*
X135869819Y-78806078D01*
X135869819Y-78806078D02*
X135917438Y-78710840D01*
X135917438Y-78710840D02*
X135965057Y-78663221D01*
X135965057Y-78663221D02*
X136060295Y-78615602D01*
X136060295Y-78615602D02*
X136250771Y-78567983D01*
X136250771Y-78567983D02*
X136488866Y-78567983D01*
X136488866Y-78567983D02*
X136679342Y-78615602D01*
X136679342Y-78615602D02*
X136774580Y-78663221D01*
X136774580Y-78663221D02*
X136822200Y-78710840D01*
X136822200Y-78710840D02*
X136869819Y-78806078D01*
X136869819Y-78806078D02*
X136869819Y-78901316D01*
X136869819Y-78901316D02*
X136822200Y-78996554D01*
X136822200Y-78996554D02*
X136774580Y-79044173D01*
X136774580Y-79044173D02*
X136679342Y-79091792D01*
X136679342Y-79091792D02*
X136488866Y-79139411D01*
X136488866Y-79139411D02*
X136250771Y-79139411D01*
X136250771Y-79139411D02*
X136060295Y-79091792D01*
X136060295Y-79091792D02*
X135965057Y-79044173D01*
X135965057Y-79044173D02*
X135917438Y-78996554D01*
X135917438Y-78996554D02*
X135869819Y-78901316D01*
X137250771Y-77091792D02*
X137203152Y-77139411D01*
X137203152Y-77139411D02*
X137060295Y-77234649D01*
X137060295Y-77234649D02*
X136965057Y-77282268D01*
X136965057Y-77282268D02*
X136822200Y-77329887D01*
X136822200Y-77329887D02*
X136584104Y-77377506D01*
X136584104Y-77377506D02*
X136393628Y-77377506D01*
X136393628Y-77377506D02*
X136155533Y-77329887D01*
X136155533Y-77329887D02*
X136012676Y-77282268D01*
X136012676Y-77282268D02*
X135917438Y-77234649D01*
X135917438Y-77234649D02*
X135774580Y-77139411D01*
X135774580Y-77139411D02*
X135726961Y-77091792D01*
X136774580Y-76139411D02*
X136822200Y-76187030D01*
X136822200Y-76187030D02*
X136869819Y-76329887D01*
X136869819Y-76329887D02*
X136869819Y-76425125D01*
X136869819Y-76425125D02*
X136822200Y-76567982D01*
X136822200Y-76567982D02*
X136726961Y-76663220D01*
X136726961Y-76663220D02*
X136631723Y-76710839D01*
X136631723Y-76710839D02*
X136441247Y-76758458D01*
X136441247Y-76758458D02*
X136298390Y-76758458D01*
X136298390Y-76758458D02*
X136107914Y-76710839D01*
X136107914Y-76710839D02*
X136012676Y-76663220D01*
X136012676Y-76663220D02*
X135917438Y-76567982D01*
X135917438Y-76567982D02*
X135869819Y-76425125D01*
X135869819Y-76425125D02*
X135869819Y-76329887D01*
X135869819Y-76329887D02*
X135917438Y-76187030D01*
X135917438Y-76187030D02*
X135965057Y-76139411D01*
X137250771Y-75806077D02*
X137203152Y-75758458D01*
X137203152Y-75758458D02*
X137060295Y-75663220D01*
X137060295Y-75663220D02*
X136965057Y-75615601D01*
X136965057Y-75615601D02*
X136822200Y-75567982D01*
X136822200Y-75567982D02*
X136584104Y-75520363D01*
X136584104Y-75520363D02*
X136393628Y-75520363D01*
X136393628Y-75520363D02*
X136155533Y-75567982D01*
X136155533Y-75567982D02*
X136012676Y-75615601D01*
X136012676Y-75615601D02*
X135917438Y-75663220D01*
X135917438Y-75663220D02*
X135774580Y-75758458D01*
X135774580Y-75758458D02*
X135726961Y-75806077D01*
X136822200Y-74329886D02*
X136869819Y-74187029D01*
X136869819Y-74187029D02*
X136869819Y-73948934D01*
X136869819Y-73948934D02*
X136822200Y-73853696D01*
X136822200Y-73853696D02*
X136774580Y-73806077D01*
X136774580Y-73806077D02*
X136679342Y-73758458D01*
X136679342Y-73758458D02*
X136584104Y-73758458D01*
X136584104Y-73758458D02*
X136488866Y-73806077D01*
X136488866Y-73806077D02*
X136441247Y-73853696D01*
X136441247Y-73853696D02*
X136393628Y-73948934D01*
X136393628Y-73948934D02*
X136346009Y-74139410D01*
X136346009Y-74139410D02*
X136298390Y-74234648D01*
X136298390Y-74234648D02*
X136250771Y-74282267D01*
X136250771Y-74282267D02*
X136155533Y-74329886D01*
X136155533Y-74329886D02*
X136060295Y-74329886D01*
X136060295Y-74329886D02*
X135965057Y-74282267D01*
X135965057Y-74282267D02*
X135917438Y-74234648D01*
X135917438Y-74234648D02*
X135869819Y-74139410D01*
X135869819Y-74139410D02*
X135869819Y-73901315D01*
X135869819Y-73901315D02*
X135917438Y-73758458D01*
X136869819Y-73329886D02*
X135869819Y-73329886D01*
X135869819Y-73329886D02*
X135869819Y-72948934D01*
X135869819Y-72948934D02*
X135917438Y-72853696D01*
X135917438Y-72853696D02*
X135965057Y-72806077D01*
X135965057Y-72806077D02*
X136060295Y-72758458D01*
X136060295Y-72758458D02*
X136203152Y-72758458D01*
X136203152Y-72758458D02*
X136298390Y-72806077D01*
X136298390Y-72806077D02*
X136346009Y-72853696D01*
X136346009Y-72853696D02*
X136393628Y-72948934D01*
X136393628Y-72948934D02*
X136393628Y-73329886D01*
X136869819Y-71758458D02*
X136393628Y-72091791D01*
X136869819Y-72329886D02*
X135869819Y-72329886D01*
X135869819Y-72329886D02*
X135869819Y-71948934D01*
X135869819Y-71948934D02*
X135917438Y-71853696D01*
X135917438Y-71853696D02*
X135965057Y-71806077D01*
X135965057Y-71806077D02*
X136060295Y-71758458D01*
X136060295Y-71758458D02*
X136203152Y-71758458D01*
X136203152Y-71758458D02*
X136298390Y-71806077D01*
X136298390Y-71806077D02*
X136346009Y-71853696D01*
X136346009Y-71853696D02*
X136393628Y-71948934D01*
X136393628Y-71948934D02*
X136393628Y-72329886D01*
X136869819Y-71329886D02*
X135869819Y-71329886D01*
X135869819Y-70996553D02*
X135869819Y-70425125D01*
X136869819Y-70710839D02*
X135869819Y-70710839D01*
X136346009Y-70091791D02*
X136346009Y-69758458D01*
X136869819Y-69615601D02*
X136869819Y-70091791D01*
X136869819Y-70091791D02*
X135869819Y-70091791D01*
X135869819Y-70091791D02*
X135869819Y-69615601D01*
X136822200Y-69234648D02*
X136869819Y-69091791D01*
X136869819Y-69091791D02*
X136869819Y-68853696D01*
X136869819Y-68853696D02*
X136822200Y-68758458D01*
X136822200Y-68758458D02*
X136774580Y-68710839D01*
X136774580Y-68710839D02*
X136679342Y-68663220D01*
X136679342Y-68663220D02*
X136584104Y-68663220D01*
X136584104Y-68663220D02*
X136488866Y-68710839D01*
X136488866Y-68710839D02*
X136441247Y-68758458D01*
X136441247Y-68758458D02*
X136393628Y-68853696D01*
X136393628Y-68853696D02*
X136346009Y-69044172D01*
X136346009Y-69044172D02*
X136298390Y-69139410D01*
X136298390Y-69139410D02*
X136250771Y-69187029D01*
X136250771Y-69187029D02*
X136155533Y-69234648D01*
X136155533Y-69234648D02*
X136060295Y-69234648D01*
X136060295Y-69234648D02*
X135965057Y-69187029D01*
X135965057Y-69187029D02*
X135917438Y-69139410D01*
X135917438Y-69139410D02*
X135869819Y-69044172D01*
X135869819Y-69044172D02*
X135869819Y-68806077D01*
X135869819Y-68806077D02*
X135917438Y-68663220D01*
X136869819Y-68234648D02*
X135869819Y-68234648D01*
X135869819Y-68234648D02*
X136584104Y-67901315D01*
X136584104Y-67901315D02*
X135869819Y-67567982D01*
X135869819Y-67567982D02*
X136869819Y-67567982D01*
X135869819Y-66901315D02*
X135869819Y-66710839D01*
X135869819Y-66710839D02*
X135917438Y-66615601D01*
X135917438Y-66615601D02*
X136012676Y-66520363D01*
X136012676Y-66520363D02*
X136203152Y-66472744D01*
X136203152Y-66472744D02*
X136536485Y-66472744D01*
X136536485Y-66472744D02*
X136726961Y-66520363D01*
X136726961Y-66520363D02*
X136822200Y-66615601D01*
X136822200Y-66615601D02*
X136869819Y-66710839D01*
X136869819Y-66710839D02*
X136869819Y-66901315D01*
X136869819Y-66901315D02*
X136822200Y-66996553D01*
X136822200Y-66996553D02*
X136726961Y-67091791D01*
X136726961Y-67091791D02*
X136536485Y-67139410D01*
X136536485Y-67139410D02*
X136203152Y-67139410D01*
X136203152Y-67139410D02*
X136012676Y-67091791D01*
X136012676Y-67091791D02*
X135917438Y-66996553D01*
X135917438Y-66996553D02*
X135869819Y-66901315D01*
X136869819Y-66044172D02*
X135869819Y-66044172D01*
X135869819Y-66044172D02*
X135869819Y-65806077D01*
X135869819Y-65806077D02*
X135917438Y-65663220D01*
X135917438Y-65663220D02*
X136012676Y-65567982D01*
X136012676Y-65567982D02*
X136107914Y-65520363D01*
X136107914Y-65520363D02*
X136298390Y-65472744D01*
X136298390Y-65472744D02*
X136441247Y-65472744D01*
X136441247Y-65472744D02*
X136631723Y-65520363D01*
X136631723Y-65520363D02*
X136726961Y-65567982D01*
X136726961Y-65567982D02*
X136822200Y-65663220D01*
X136822200Y-65663220D02*
X136869819Y-65806077D01*
X136869819Y-65806077D02*
X136869819Y-66044172D01*
X136822200Y-65091791D02*
X136869819Y-64948934D01*
X136869819Y-64948934D02*
X136869819Y-64710839D01*
X136869819Y-64710839D02*
X136822200Y-64615601D01*
X136822200Y-64615601D02*
X136774580Y-64567982D01*
X136774580Y-64567982D02*
X136679342Y-64520363D01*
X136679342Y-64520363D02*
X136584104Y-64520363D01*
X136584104Y-64520363D02*
X136488866Y-64567982D01*
X136488866Y-64567982D02*
X136441247Y-64615601D01*
X136441247Y-64615601D02*
X136393628Y-64710839D01*
X136393628Y-64710839D02*
X136346009Y-64901315D01*
X136346009Y-64901315D02*
X136298390Y-64996553D01*
X136298390Y-64996553D02*
X136250771Y-65044172D01*
X136250771Y-65044172D02*
X136155533Y-65091791D01*
X136155533Y-65091791D02*
X136060295Y-65091791D01*
X136060295Y-65091791D02*
X135965057Y-65044172D01*
X135965057Y-65044172D02*
X135917438Y-64996553D01*
X135917438Y-64996553D02*
X135869819Y-64901315D01*
X135869819Y-64901315D02*
X135869819Y-64663220D01*
X135869819Y-64663220D02*
X135917438Y-64520363D01*
X135965057Y-63377505D02*
X135917438Y-63329886D01*
X135917438Y-63329886D02*
X135869819Y-63234648D01*
X135869819Y-63234648D02*
X135869819Y-62996553D01*
X135869819Y-62996553D02*
X135917438Y-62901315D01*
X135917438Y-62901315D02*
X135965057Y-62853696D01*
X135965057Y-62853696D02*
X136060295Y-62806077D01*
X136060295Y-62806077D02*
X136155533Y-62806077D01*
X136155533Y-62806077D02*
X136298390Y-62853696D01*
X136298390Y-62853696D02*
X136869819Y-63425124D01*
X136869819Y-63425124D02*
X136869819Y-62806077D01*
X135869819Y-62187029D02*
X135869819Y-62091791D01*
X135869819Y-62091791D02*
X135917438Y-61996553D01*
X135917438Y-61996553D02*
X135965057Y-61948934D01*
X135965057Y-61948934D02*
X136060295Y-61901315D01*
X136060295Y-61901315D02*
X136250771Y-61853696D01*
X136250771Y-61853696D02*
X136488866Y-61853696D01*
X136488866Y-61853696D02*
X136679342Y-61901315D01*
X136679342Y-61901315D02*
X136774580Y-61948934D01*
X136774580Y-61948934D02*
X136822200Y-61996553D01*
X136822200Y-61996553D02*
X136869819Y-62091791D01*
X136869819Y-62091791D02*
X136869819Y-62187029D01*
X136869819Y-62187029D02*
X136822200Y-62282267D01*
X136822200Y-62282267D02*
X136774580Y-62329886D01*
X136774580Y-62329886D02*
X136679342Y-62377505D01*
X136679342Y-62377505D02*
X136488866Y-62425124D01*
X136488866Y-62425124D02*
X136250771Y-62425124D01*
X136250771Y-62425124D02*
X136060295Y-62377505D01*
X136060295Y-62377505D02*
X135965057Y-62329886D01*
X135965057Y-62329886D02*
X135917438Y-62282267D01*
X135917438Y-62282267D02*
X135869819Y-62187029D01*
X135965057Y-61472743D02*
X135917438Y-61425124D01*
X135917438Y-61425124D02*
X135869819Y-61329886D01*
X135869819Y-61329886D02*
X135869819Y-61091791D01*
X135869819Y-61091791D02*
X135917438Y-60996553D01*
X135917438Y-60996553D02*
X135965057Y-60948934D01*
X135965057Y-60948934D02*
X136060295Y-60901315D01*
X136060295Y-60901315D02*
X136155533Y-60901315D01*
X136155533Y-60901315D02*
X136298390Y-60948934D01*
X136298390Y-60948934D02*
X136869819Y-61520362D01*
X136869819Y-61520362D02*
X136869819Y-60901315D01*
X136203152Y-60044172D02*
X136869819Y-60044172D01*
X135822200Y-60282267D02*
X136536485Y-60520362D01*
X136536485Y-60520362D02*
X136536485Y-59901315D01*
X99908207Y-101869819D02*
X99574874Y-101393628D01*
X99336779Y-101869819D02*
X99336779Y-100869819D01*
X99336779Y-100869819D02*
X99717731Y-100869819D01*
X99717731Y-100869819D02*
X99812969Y-100917438D01*
X99812969Y-100917438D02*
X99860588Y-100965057D01*
X99860588Y-100965057D02*
X99908207Y-101060295D01*
X99908207Y-101060295D02*
X99908207Y-101203152D01*
X99908207Y-101203152D02*
X99860588Y-101298390D01*
X99860588Y-101298390D02*
X99812969Y-101346009D01*
X99812969Y-101346009D02*
X99717731Y-101393628D01*
X99717731Y-101393628D02*
X99336779Y-101393628D01*
X100336779Y-101346009D02*
X100670112Y-101346009D01*
X100812969Y-101869819D02*
X100336779Y-101869819D01*
X100336779Y-101869819D02*
X100336779Y-100869819D01*
X100336779Y-100869819D02*
X100812969Y-100869819D01*
X101193922Y-101822200D02*
X101336779Y-101869819D01*
X101336779Y-101869819D02*
X101574874Y-101869819D01*
X101574874Y-101869819D02*
X101670112Y-101822200D01*
X101670112Y-101822200D02*
X101717731Y-101774580D01*
X101717731Y-101774580D02*
X101765350Y-101679342D01*
X101765350Y-101679342D02*
X101765350Y-101584104D01*
X101765350Y-101584104D02*
X101717731Y-101488866D01*
X101717731Y-101488866D02*
X101670112Y-101441247D01*
X101670112Y-101441247D02*
X101574874Y-101393628D01*
X101574874Y-101393628D02*
X101384398Y-101346009D01*
X101384398Y-101346009D02*
X101289160Y-101298390D01*
X101289160Y-101298390D02*
X101241541Y-101250771D01*
X101241541Y-101250771D02*
X101193922Y-101155533D01*
X101193922Y-101155533D02*
X101193922Y-101060295D01*
X101193922Y-101060295D02*
X101241541Y-100965057D01*
X101241541Y-100965057D02*
X101289160Y-100917438D01*
X101289160Y-100917438D02*
X101384398Y-100869819D01*
X101384398Y-100869819D02*
X101622493Y-100869819D01*
X101622493Y-100869819D02*
X101765350Y-100917438D01*
X102193922Y-101346009D02*
X102527255Y-101346009D01*
X102670112Y-101869819D02*
X102193922Y-101869819D01*
X102193922Y-101869819D02*
X102193922Y-100869819D01*
X102193922Y-100869819D02*
X102670112Y-100869819D01*
X102955827Y-100869819D02*
X103527255Y-100869819D01*
X103241541Y-101869819D02*
X103241541Y-100869819D01*
X98359580Y-116167857D02*
X98407200Y-116215476D01*
X98407200Y-116215476D02*
X98454819Y-116358333D01*
X98454819Y-116358333D02*
X98454819Y-116453571D01*
X98454819Y-116453571D02*
X98407200Y-116596428D01*
X98407200Y-116596428D02*
X98311961Y-116691666D01*
X98311961Y-116691666D02*
X98216723Y-116739285D01*
X98216723Y-116739285D02*
X98026247Y-116786904D01*
X98026247Y-116786904D02*
X97883390Y-116786904D01*
X97883390Y-116786904D02*
X97692914Y-116739285D01*
X97692914Y-116739285D02*
X97597676Y-116691666D01*
X97597676Y-116691666D02*
X97502438Y-116596428D01*
X97502438Y-116596428D02*
X97454819Y-116453571D01*
X97454819Y-116453571D02*
X97454819Y-116358333D01*
X97454819Y-116358333D02*
X97502438Y-116215476D01*
X97502438Y-116215476D02*
X97550057Y-116167857D01*
X98454819Y-115215476D02*
X98454819Y-115786904D01*
X98454819Y-115501190D02*
X97454819Y-115501190D01*
X97454819Y-115501190D02*
X97597676Y-115596428D01*
X97597676Y-115596428D02*
X97692914Y-115691666D01*
X97692914Y-115691666D02*
X97740533Y-115786904D01*
X97454819Y-114310714D02*
X97454819Y-114786904D01*
X97454819Y-114786904D02*
X97931009Y-114834523D01*
X97931009Y-114834523D02*
X97883390Y-114786904D01*
X97883390Y-114786904D02*
X97835771Y-114691666D01*
X97835771Y-114691666D02*
X97835771Y-114453571D01*
X97835771Y-114453571D02*
X97883390Y-114358333D01*
X97883390Y-114358333D02*
X97931009Y-114310714D01*
X97931009Y-114310714D02*
X98026247Y-114263095D01*
X98026247Y-114263095D02*
X98264342Y-114263095D01*
X98264342Y-114263095D02*
X98359580Y-114310714D01*
X98359580Y-114310714D02*
X98407200Y-114358333D01*
X98407200Y-114358333D02*
X98454819Y-114453571D01*
X98454819Y-114453571D02*
X98454819Y-114691666D01*
X98454819Y-114691666D02*
X98407200Y-114786904D01*
X98407200Y-114786904D02*
X98359580Y-114834523D01*
X119399580Y-133539166D02*
X119447200Y-133586785D01*
X119447200Y-133586785D02*
X119494819Y-133729642D01*
X119494819Y-133729642D02*
X119494819Y-133824880D01*
X119494819Y-133824880D02*
X119447200Y-133967737D01*
X119447200Y-133967737D02*
X119351961Y-134062975D01*
X119351961Y-134062975D02*
X119256723Y-134110594D01*
X119256723Y-134110594D02*
X119066247Y-134158213D01*
X119066247Y-134158213D02*
X118923390Y-134158213D01*
X118923390Y-134158213D02*
X118732914Y-134110594D01*
X118732914Y-134110594D02*
X118637676Y-134062975D01*
X118637676Y-134062975D02*
X118542438Y-133967737D01*
X118542438Y-133967737D02*
X118494819Y-133824880D01*
X118494819Y-133824880D02*
X118494819Y-133729642D01*
X118494819Y-133729642D02*
X118542438Y-133586785D01*
X118542438Y-133586785D02*
X118590057Y-133539166D01*
X118923390Y-132967737D02*
X118875771Y-133062975D01*
X118875771Y-133062975D02*
X118828152Y-133110594D01*
X118828152Y-133110594D02*
X118732914Y-133158213D01*
X118732914Y-133158213D02*
X118685295Y-133158213D01*
X118685295Y-133158213D02*
X118590057Y-133110594D01*
X118590057Y-133110594D02*
X118542438Y-133062975D01*
X118542438Y-133062975D02*
X118494819Y-132967737D01*
X118494819Y-132967737D02*
X118494819Y-132777261D01*
X118494819Y-132777261D02*
X118542438Y-132682023D01*
X118542438Y-132682023D02*
X118590057Y-132634404D01*
X118590057Y-132634404D02*
X118685295Y-132586785D01*
X118685295Y-132586785D02*
X118732914Y-132586785D01*
X118732914Y-132586785D02*
X118828152Y-132634404D01*
X118828152Y-132634404D02*
X118875771Y-132682023D01*
X118875771Y-132682023D02*
X118923390Y-132777261D01*
X118923390Y-132777261D02*
X118923390Y-132967737D01*
X118923390Y-132967737D02*
X118971009Y-133062975D01*
X118971009Y-133062975D02*
X119018628Y-133110594D01*
X119018628Y-133110594D02*
X119113866Y-133158213D01*
X119113866Y-133158213D02*
X119304342Y-133158213D01*
X119304342Y-133158213D02*
X119399580Y-133110594D01*
X119399580Y-133110594D02*
X119447200Y-133062975D01*
X119447200Y-133062975D02*
X119494819Y-132967737D01*
X119494819Y-132967737D02*
X119494819Y-132777261D01*
X119494819Y-132777261D02*
X119447200Y-132682023D01*
X119447200Y-132682023D02*
X119399580Y-132634404D01*
X119399580Y-132634404D02*
X119304342Y-132586785D01*
X119304342Y-132586785D02*
X119113866Y-132586785D01*
X119113866Y-132586785D02*
X119018628Y-132634404D01*
X119018628Y-132634404D02*
X118971009Y-132682023D01*
X118971009Y-132682023D02*
X118923390Y-132777261D01*
X109082142Y-128674819D02*
X108748809Y-128198628D01*
X108510714Y-128674819D02*
X108510714Y-127674819D01*
X108510714Y-127674819D02*
X108891666Y-127674819D01*
X108891666Y-127674819D02*
X108986904Y-127722438D01*
X108986904Y-127722438D02*
X109034523Y-127770057D01*
X109034523Y-127770057D02*
X109082142Y-127865295D01*
X109082142Y-127865295D02*
X109082142Y-128008152D01*
X109082142Y-128008152D02*
X109034523Y-128103390D01*
X109034523Y-128103390D02*
X108986904Y-128151009D01*
X108986904Y-128151009D02*
X108891666Y-128198628D01*
X108891666Y-128198628D02*
X108510714Y-128198628D01*
X110034523Y-128674819D02*
X109463095Y-128674819D01*
X109748809Y-128674819D02*
X109748809Y-127674819D01*
X109748809Y-127674819D02*
X109653571Y-127817676D01*
X109653571Y-127817676D02*
X109558333Y-127912914D01*
X109558333Y-127912914D02*
X109463095Y-127960533D01*
X110605952Y-128103390D02*
X110510714Y-128055771D01*
X110510714Y-128055771D02*
X110463095Y-128008152D01*
X110463095Y-128008152D02*
X110415476Y-127912914D01*
X110415476Y-127912914D02*
X110415476Y-127865295D01*
X110415476Y-127865295D02*
X110463095Y-127770057D01*
X110463095Y-127770057D02*
X110510714Y-127722438D01*
X110510714Y-127722438D02*
X110605952Y-127674819D01*
X110605952Y-127674819D02*
X110796428Y-127674819D01*
X110796428Y-127674819D02*
X110891666Y-127722438D01*
X110891666Y-127722438D02*
X110939285Y-127770057D01*
X110939285Y-127770057D02*
X110986904Y-127865295D01*
X110986904Y-127865295D02*
X110986904Y-127912914D01*
X110986904Y-127912914D02*
X110939285Y-128008152D01*
X110939285Y-128008152D02*
X110891666Y-128055771D01*
X110891666Y-128055771D02*
X110796428Y-128103390D01*
X110796428Y-128103390D02*
X110605952Y-128103390D01*
X110605952Y-128103390D02*
X110510714Y-128151009D01*
X110510714Y-128151009D02*
X110463095Y-128198628D01*
X110463095Y-128198628D02*
X110415476Y-128293866D01*
X110415476Y-128293866D02*
X110415476Y-128484342D01*
X110415476Y-128484342D02*
X110463095Y-128579580D01*
X110463095Y-128579580D02*
X110510714Y-128627200D01*
X110510714Y-128627200D02*
X110605952Y-128674819D01*
X110605952Y-128674819D02*
X110796428Y-128674819D01*
X110796428Y-128674819D02*
X110891666Y-128627200D01*
X110891666Y-128627200D02*
X110939285Y-128579580D01*
X110939285Y-128579580D02*
X110986904Y-128484342D01*
X110986904Y-128484342D02*
X110986904Y-128293866D01*
X110986904Y-128293866D02*
X110939285Y-128198628D01*
X110939285Y-128198628D02*
X110891666Y-128151009D01*
X110891666Y-128151009D02*
X110796428Y-128103390D01*
X129279761Y-135025057D02*
X129184523Y-134977438D01*
X129184523Y-134977438D02*
X129089285Y-134882200D01*
X129089285Y-134882200D02*
X128946428Y-134739342D01*
X128946428Y-134739342D02*
X128851190Y-134691723D01*
X128851190Y-134691723D02*
X128755952Y-134691723D01*
X128803571Y-134929819D02*
X128708333Y-134882200D01*
X128708333Y-134882200D02*
X128613095Y-134786961D01*
X128613095Y-134786961D02*
X128565476Y-134596485D01*
X128565476Y-134596485D02*
X128565476Y-134263152D01*
X128565476Y-134263152D02*
X128613095Y-134072676D01*
X128613095Y-134072676D02*
X128708333Y-133977438D01*
X128708333Y-133977438D02*
X128803571Y-133929819D01*
X128803571Y-133929819D02*
X128994047Y-133929819D01*
X128994047Y-133929819D02*
X129089285Y-133977438D01*
X129089285Y-133977438D02*
X129184523Y-134072676D01*
X129184523Y-134072676D02*
X129232142Y-134263152D01*
X129232142Y-134263152D02*
X129232142Y-134596485D01*
X129232142Y-134596485D02*
X129184523Y-134786961D01*
X129184523Y-134786961D02*
X129089285Y-134882200D01*
X129089285Y-134882200D02*
X128994047Y-134929819D01*
X128994047Y-134929819D02*
X128803571Y-134929819D01*
X130184523Y-134929819D02*
X129613095Y-134929819D01*
X129898809Y-134929819D02*
X129898809Y-133929819D01*
X129898809Y-133929819D02*
X129803571Y-134072676D01*
X129803571Y-134072676D02*
X129708333Y-134167914D01*
X129708333Y-134167914D02*
X129613095Y-134215533D01*
X93624819Y-138666666D02*
X93148628Y-138999999D01*
X93624819Y-139238094D02*
X92624819Y-139238094D01*
X92624819Y-139238094D02*
X92624819Y-138857142D01*
X92624819Y-138857142D02*
X92672438Y-138761904D01*
X92672438Y-138761904D02*
X92720057Y-138714285D01*
X92720057Y-138714285D02*
X92815295Y-138666666D01*
X92815295Y-138666666D02*
X92958152Y-138666666D01*
X92958152Y-138666666D02*
X93053390Y-138714285D01*
X93053390Y-138714285D02*
X93101009Y-138761904D01*
X93101009Y-138761904D02*
X93148628Y-138857142D01*
X93148628Y-138857142D02*
X93148628Y-139238094D01*
X92624819Y-138333332D02*
X92624819Y-137666666D01*
X92624819Y-137666666D02*
X93624819Y-138095237D01*
X87754819Y-110738094D02*
X86754819Y-110738094D01*
X86754819Y-110738094D02*
X86754819Y-110499999D01*
X86754819Y-110499999D02*
X86802438Y-110357142D01*
X86802438Y-110357142D02*
X86897676Y-110261904D01*
X86897676Y-110261904D02*
X86992914Y-110214285D01*
X86992914Y-110214285D02*
X87183390Y-110166666D01*
X87183390Y-110166666D02*
X87326247Y-110166666D01*
X87326247Y-110166666D02*
X87516723Y-110214285D01*
X87516723Y-110214285D02*
X87611961Y-110261904D01*
X87611961Y-110261904D02*
X87707200Y-110357142D01*
X87707200Y-110357142D02*
X87754819Y-110499999D01*
X87754819Y-110499999D02*
X87754819Y-110738094D01*
X86754819Y-109261904D02*
X86754819Y-109738094D01*
X86754819Y-109738094D02*
X87231009Y-109785713D01*
X87231009Y-109785713D02*
X87183390Y-109738094D01*
X87183390Y-109738094D02*
X87135771Y-109642856D01*
X87135771Y-109642856D02*
X87135771Y-109404761D01*
X87135771Y-109404761D02*
X87183390Y-109309523D01*
X87183390Y-109309523D02*
X87231009Y-109261904D01*
X87231009Y-109261904D02*
X87326247Y-109214285D01*
X87326247Y-109214285D02*
X87564342Y-109214285D01*
X87564342Y-109214285D02*
X87659580Y-109261904D01*
X87659580Y-109261904D02*
X87707200Y-109309523D01*
X87707200Y-109309523D02*
X87754819Y-109404761D01*
X87754819Y-109404761D02*
X87754819Y-109642856D01*
X87754819Y-109642856D02*
X87707200Y-109738094D01*
X87707200Y-109738094D02*
X87659580Y-109785713D01*
X90124819Y-138666666D02*
X89648628Y-138999999D01*
X90124819Y-139238094D02*
X89124819Y-139238094D01*
X89124819Y-139238094D02*
X89124819Y-138857142D01*
X89124819Y-138857142D02*
X89172438Y-138761904D01*
X89172438Y-138761904D02*
X89220057Y-138714285D01*
X89220057Y-138714285D02*
X89315295Y-138666666D01*
X89315295Y-138666666D02*
X89458152Y-138666666D01*
X89458152Y-138666666D02*
X89553390Y-138714285D01*
X89553390Y-138714285D02*
X89601009Y-138761904D01*
X89601009Y-138761904D02*
X89648628Y-138857142D01*
X89648628Y-138857142D02*
X89648628Y-139238094D01*
X89124819Y-137809523D02*
X89124819Y-137999999D01*
X89124819Y-137999999D02*
X89172438Y-138095237D01*
X89172438Y-138095237D02*
X89220057Y-138142856D01*
X89220057Y-138142856D02*
X89362914Y-138238094D01*
X89362914Y-138238094D02*
X89553390Y-138285713D01*
X89553390Y-138285713D02*
X89934342Y-138285713D01*
X89934342Y-138285713D02*
X90029580Y-138238094D01*
X90029580Y-138238094D02*
X90077200Y-138190475D01*
X90077200Y-138190475D02*
X90124819Y-138095237D01*
X90124819Y-138095237D02*
X90124819Y-137904761D01*
X90124819Y-137904761D02*
X90077200Y-137809523D01*
X90077200Y-137809523D02*
X90029580Y-137761904D01*
X90029580Y-137761904D02*
X89934342Y-137714285D01*
X89934342Y-137714285D02*
X89696247Y-137714285D01*
X89696247Y-137714285D02*
X89601009Y-137761904D01*
X89601009Y-137761904D02*
X89553390Y-137809523D01*
X89553390Y-137809523D02*
X89505771Y-137904761D01*
X89505771Y-137904761D02*
X89505771Y-138095237D01*
X89505771Y-138095237D02*
X89553390Y-138190475D01*
X89553390Y-138190475D02*
X89601009Y-138238094D01*
X89601009Y-138238094D02*
X89696247Y-138285713D01*
X133283333Y-142284580D02*
X133235714Y-142332200D01*
X133235714Y-142332200D02*
X133092857Y-142379819D01*
X133092857Y-142379819D02*
X132997619Y-142379819D01*
X132997619Y-142379819D02*
X132854762Y-142332200D01*
X132854762Y-142332200D02*
X132759524Y-142236961D01*
X132759524Y-142236961D02*
X132711905Y-142141723D01*
X132711905Y-142141723D02*
X132664286Y-141951247D01*
X132664286Y-141951247D02*
X132664286Y-141808390D01*
X132664286Y-141808390D02*
X132711905Y-141617914D01*
X132711905Y-141617914D02*
X132759524Y-141522676D01*
X132759524Y-141522676D02*
X132854762Y-141427438D01*
X132854762Y-141427438D02*
X132997619Y-141379819D01*
X132997619Y-141379819D02*
X133092857Y-141379819D01*
X133092857Y-141379819D02*
X133235714Y-141427438D01*
X133235714Y-141427438D02*
X133283333Y-141475057D01*
X133616667Y-141379819D02*
X134235714Y-141379819D01*
X134235714Y-141379819D02*
X133902381Y-141760771D01*
X133902381Y-141760771D02*
X134045238Y-141760771D01*
X134045238Y-141760771D02*
X134140476Y-141808390D01*
X134140476Y-141808390D02*
X134188095Y-141856009D01*
X134188095Y-141856009D02*
X134235714Y-141951247D01*
X134235714Y-141951247D02*
X134235714Y-142189342D01*
X134235714Y-142189342D02*
X134188095Y-142284580D01*
X134188095Y-142284580D02*
X134140476Y-142332200D01*
X134140476Y-142332200D02*
X134045238Y-142379819D01*
X134045238Y-142379819D02*
X133759524Y-142379819D01*
X133759524Y-142379819D02*
X133664286Y-142332200D01*
X133664286Y-142332200D02*
X133616667Y-142284580D01*
X87854819Y-107066666D02*
X87378628Y-107399999D01*
X87854819Y-107638094D02*
X86854819Y-107638094D01*
X86854819Y-107638094D02*
X86854819Y-107257142D01*
X86854819Y-107257142D02*
X86902438Y-107161904D01*
X86902438Y-107161904D02*
X86950057Y-107114285D01*
X86950057Y-107114285D02*
X87045295Y-107066666D01*
X87045295Y-107066666D02*
X87188152Y-107066666D01*
X87188152Y-107066666D02*
X87283390Y-107114285D01*
X87283390Y-107114285D02*
X87331009Y-107161904D01*
X87331009Y-107161904D02*
X87378628Y-107257142D01*
X87378628Y-107257142D02*
X87378628Y-107638094D01*
X86854819Y-106733332D02*
X86854819Y-106114285D01*
X86854819Y-106114285D02*
X87235771Y-106447618D01*
X87235771Y-106447618D02*
X87235771Y-106304761D01*
X87235771Y-106304761D02*
X87283390Y-106209523D01*
X87283390Y-106209523D02*
X87331009Y-106161904D01*
X87331009Y-106161904D02*
X87426247Y-106114285D01*
X87426247Y-106114285D02*
X87664342Y-106114285D01*
X87664342Y-106114285D02*
X87759580Y-106161904D01*
X87759580Y-106161904D02*
X87807200Y-106209523D01*
X87807200Y-106209523D02*
X87854819Y-106304761D01*
X87854819Y-106304761D02*
X87854819Y-106590475D01*
X87854819Y-106590475D02*
X87807200Y-106685713D01*
X87807200Y-106685713D02*
X87759580Y-106733332D01*
X88661905Y-113829819D02*
X88661905Y-112829819D01*
X88661905Y-112829819D02*
X88900000Y-112829819D01*
X88900000Y-112829819D02*
X89042857Y-112877438D01*
X89042857Y-112877438D02*
X89138095Y-112972676D01*
X89138095Y-112972676D02*
X89185714Y-113067914D01*
X89185714Y-113067914D02*
X89233333Y-113258390D01*
X89233333Y-113258390D02*
X89233333Y-113401247D01*
X89233333Y-113401247D02*
X89185714Y-113591723D01*
X89185714Y-113591723D02*
X89138095Y-113686961D01*
X89138095Y-113686961D02*
X89042857Y-113782200D01*
X89042857Y-113782200D02*
X88900000Y-113829819D01*
X88900000Y-113829819D02*
X88661905Y-113829819D01*
X90090476Y-113163152D02*
X90090476Y-113829819D01*
X89852381Y-112782200D02*
X89614286Y-113496485D01*
X89614286Y-113496485D02*
X90233333Y-113496485D01*
X129032142Y-101429819D02*
X128698809Y-100953628D01*
X128460714Y-101429819D02*
X128460714Y-100429819D01*
X128460714Y-100429819D02*
X128841666Y-100429819D01*
X128841666Y-100429819D02*
X128936904Y-100477438D01*
X128936904Y-100477438D02*
X128984523Y-100525057D01*
X128984523Y-100525057D02*
X129032142Y-100620295D01*
X129032142Y-100620295D02*
X129032142Y-100763152D01*
X129032142Y-100763152D02*
X128984523Y-100858390D01*
X128984523Y-100858390D02*
X128936904Y-100906009D01*
X128936904Y-100906009D02*
X128841666Y-100953628D01*
X128841666Y-100953628D02*
X128460714Y-100953628D01*
X129984523Y-101429819D02*
X129413095Y-101429819D01*
X129698809Y-101429819D02*
X129698809Y-100429819D01*
X129698809Y-100429819D02*
X129603571Y-100572676D01*
X129603571Y-100572676D02*
X129508333Y-100667914D01*
X129508333Y-100667914D02*
X129413095Y-100715533D01*
X130889285Y-100429819D02*
X130413095Y-100429819D01*
X130413095Y-100429819D02*
X130365476Y-100906009D01*
X130365476Y-100906009D02*
X130413095Y-100858390D01*
X130413095Y-100858390D02*
X130508333Y-100810771D01*
X130508333Y-100810771D02*
X130746428Y-100810771D01*
X130746428Y-100810771D02*
X130841666Y-100858390D01*
X130841666Y-100858390D02*
X130889285Y-100906009D01*
X130889285Y-100906009D02*
X130936904Y-101001247D01*
X130936904Y-101001247D02*
X130936904Y-101239342D01*
X130936904Y-101239342D02*
X130889285Y-101334580D01*
X130889285Y-101334580D02*
X130841666Y-101382200D01*
X130841666Y-101382200D02*
X130746428Y-101429819D01*
X130746428Y-101429819D02*
X130508333Y-101429819D01*
X130508333Y-101429819D02*
X130413095Y-101382200D01*
X130413095Y-101382200D02*
X130365476Y-101334580D01*
X112166666Y-137604819D02*
X112166666Y-138319104D01*
X112166666Y-138319104D02*
X112119047Y-138461961D01*
X112119047Y-138461961D02*
X112023809Y-138557200D01*
X112023809Y-138557200D02*
X111880952Y-138604819D01*
X111880952Y-138604819D02*
X111785714Y-138604819D01*
X113166666Y-138604819D02*
X112595238Y-138604819D01*
X112880952Y-138604819D02*
X112880952Y-137604819D01*
X112880952Y-137604819D02*
X112785714Y-137747676D01*
X112785714Y-137747676D02*
X112690476Y-137842914D01*
X112690476Y-137842914D02*
X112595238Y-137890533D01*
X92379819Y-113088094D02*
X91379819Y-113088094D01*
X91379819Y-113088094D02*
X91379819Y-112849999D01*
X91379819Y-112849999D02*
X91427438Y-112707142D01*
X91427438Y-112707142D02*
X91522676Y-112611904D01*
X91522676Y-112611904D02*
X91617914Y-112564285D01*
X91617914Y-112564285D02*
X91808390Y-112516666D01*
X91808390Y-112516666D02*
X91951247Y-112516666D01*
X91951247Y-112516666D02*
X92141723Y-112564285D01*
X92141723Y-112564285D02*
X92236961Y-112611904D01*
X92236961Y-112611904D02*
X92332200Y-112707142D01*
X92332200Y-112707142D02*
X92379819Y-112849999D01*
X92379819Y-112849999D02*
X92379819Y-113088094D01*
X91379819Y-111659523D02*
X91379819Y-111849999D01*
X91379819Y-111849999D02*
X91427438Y-111945237D01*
X91427438Y-111945237D02*
X91475057Y-111992856D01*
X91475057Y-111992856D02*
X91617914Y-112088094D01*
X91617914Y-112088094D02*
X91808390Y-112135713D01*
X91808390Y-112135713D02*
X92189342Y-112135713D01*
X92189342Y-112135713D02*
X92284580Y-112088094D01*
X92284580Y-112088094D02*
X92332200Y-112040475D01*
X92332200Y-112040475D02*
X92379819Y-111945237D01*
X92379819Y-111945237D02*
X92379819Y-111754761D01*
X92379819Y-111754761D02*
X92332200Y-111659523D01*
X92332200Y-111659523D02*
X92284580Y-111611904D01*
X92284580Y-111611904D02*
X92189342Y-111564285D01*
X92189342Y-111564285D02*
X91951247Y-111564285D01*
X91951247Y-111564285D02*
X91856009Y-111611904D01*
X91856009Y-111611904D02*
X91808390Y-111659523D01*
X91808390Y-111659523D02*
X91760771Y-111754761D01*
X91760771Y-111754761D02*
X91760771Y-111945237D01*
X91760771Y-111945237D02*
X91808390Y-112040475D01*
X91808390Y-112040475D02*
X91856009Y-112088094D01*
X91856009Y-112088094D02*
X91951247Y-112135713D01*
X125499819Y-135266666D02*
X125023628Y-135599999D01*
X125499819Y-135838094D02*
X124499819Y-135838094D01*
X124499819Y-135838094D02*
X124499819Y-135457142D01*
X124499819Y-135457142D02*
X124547438Y-135361904D01*
X124547438Y-135361904D02*
X124595057Y-135314285D01*
X124595057Y-135314285D02*
X124690295Y-135266666D01*
X124690295Y-135266666D02*
X124833152Y-135266666D01*
X124833152Y-135266666D02*
X124928390Y-135314285D01*
X124928390Y-135314285D02*
X124976009Y-135361904D01*
X124976009Y-135361904D02*
X125023628Y-135457142D01*
X125023628Y-135457142D02*
X125023628Y-135838094D01*
X125499819Y-134314285D02*
X125499819Y-134885713D01*
X125499819Y-134599999D02*
X124499819Y-134599999D01*
X124499819Y-134599999D02*
X124642676Y-134695237D01*
X124642676Y-134695237D02*
X124737914Y-134790475D01*
X124737914Y-134790475D02*
X124785533Y-134885713D01*
X105182142Y-125404819D02*
X104848809Y-124928628D01*
X104610714Y-125404819D02*
X104610714Y-124404819D01*
X104610714Y-124404819D02*
X104991666Y-124404819D01*
X104991666Y-124404819D02*
X105086904Y-124452438D01*
X105086904Y-124452438D02*
X105134523Y-124500057D01*
X105134523Y-124500057D02*
X105182142Y-124595295D01*
X105182142Y-124595295D02*
X105182142Y-124738152D01*
X105182142Y-124738152D02*
X105134523Y-124833390D01*
X105134523Y-124833390D02*
X105086904Y-124881009D01*
X105086904Y-124881009D02*
X104991666Y-124928628D01*
X104991666Y-124928628D02*
X104610714Y-124928628D01*
X106134523Y-125404819D02*
X105563095Y-125404819D01*
X105848809Y-125404819D02*
X105848809Y-124404819D01*
X105848809Y-124404819D02*
X105753571Y-124547676D01*
X105753571Y-124547676D02*
X105658333Y-124642914D01*
X105658333Y-124642914D02*
X105563095Y-124690533D01*
X106515476Y-124500057D02*
X106563095Y-124452438D01*
X106563095Y-124452438D02*
X106658333Y-124404819D01*
X106658333Y-124404819D02*
X106896428Y-124404819D01*
X106896428Y-124404819D02*
X106991666Y-124452438D01*
X106991666Y-124452438D02*
X107039285Y-124500057D01*
X107039285Y-124500057D02*
X107086904Y-124595295D01*
X107086904Y-124595295D02*
X107086904Y-124690533D01*
X107086904Y-124690533D02*
X107039285Y-124833390D01*
X107039285Y-124833390D02*
X106467857Y-125404819D01*
X106467857Y-125404819D02*
X107086904Y-125404819D01*
X133029819Y-135191666D02*
X133029819Y-135667856D01*
X133029819Y-135667856D02*
X132029819Y-135667856D01*
X133029819Y-134334523D02*
X133029819Y-134905951D01*
X133029819Y-134620237D02*
X132029819Y-134620237D01*
X132029819Y-134620237D02*
X132172676Y-134715475D01*
X132172676Y-134715475D02*
X132267914Y-134810713D01*
X132267914Y-134810713D02*
X132315533Y-134905951D01*
X117682142Y-107389580D02*
X117634523Y-107437200D01*
X117634523Y-107437200D02*
X117491666Y-107484819D01*
X117491666Y-107484819D02*
X117396428Y-107484819D01*
X117396428Y-107484819D02*
X117253571Y-107437200D01*
X117253571Y-107437200D02*
X117158333Y-107341961D01*
X117158333Y-107341961D02*
X117110714Y-107246723D01*
X117110714Y-107246723D02*
X117063095Y-107056247D01*
X117063095Y-107056247D02*
X117063095Y-106913390D01*
X117063095Y-106913390D02*
X117110714Y-106722914D01*
X117110714Y-106722914D02*
X117158333Y-106627676D01*
X117158333Y-106627676D02*
X117253571Y-106532438D01*
X117253571Y-106532438D02*
X117396428Y-106484819D01*
X117396428Y-106484819D02*
X117491666Y-106484819D01*
X117491666Y-106484819D02*
X117634523Y-106532438D01*
X117634523Y-106532438D02*
X117682142Y-106580057D01*
X118634523Y-107484819D02*
X118063095Y-107484819D01*
X118348809Y-107484819D02*
X118348809Y-106484819D01*
X118348809Y-106484819D02*
X118253571Y-106627676D01*
X118253571Y-106627676D02*
X118158333Y-106722914D01*
X118158333Y-106722914D02*
X118063095Y-106770533D01*
X118967857Y-106484819D02*
X119634523Y-106484819D01*
X119634523Y-106484819D02*
X119205952Y-107484819D01*
X110459580Y-133616666D02*
X110507200Y-133664285D01*
X110507200Y-133664285D02*
X110554819Y-133807142D01*
X110554819Y-133807142D02*
X110554819Y-133902380D01*
X110554819Y-133902380D02*
X110507200Y-134045237D01*
X110507200Y-134045237D02*
X110411961Y-134140475D01*
X110411961Y-134140475D02*
X110316723Y-134188094D01*
X110316723Y-134188094D02*
X110126247Y-134235713D01*
X110126247Y-134235713D02*
X109983390Y-134235713D01*
X109983390Y-134235713D02*
X109792914Y-134188094D01*
X109792914Y-134188094D02*
X109697676Y-134140475D01*
X109697676Y-134140475D02*
X109602438Y-134045237D01*
X109602438Y-134045237D02*
X109554819Y-133902380D01*
X109554819Y-133902380D02*
X109554819Y-133807142D01*
X109554819Y-133807142D02*
X109602438Y-133664285D01*
X109602438Y-133664285D02*
X109650057Y-133616666D01*
X110554819Y-133140475D02*
X110554819Y-132949999D01*
X110554819Y-132949999D02*
X110507200Y-132854761D01*
X110507200Y-132854761D02*
X110459580Y-132807142D01*
X110459580Y-132807142D02*
X110316723Y-132711904D01*
X110316723Y-132711904D02*
X110126247Y-132664285D01*
X110126247Y-132664285D02*
X109745295Y-132664285D01*
X109745295Y-132664285D02*
X109650057Y-132711904D01*
X109650057Y-132711904D02*
X109602438Y-132759523D01*
X109602438Y-132759523D02*
X109554819Y-132854761D01*
X109554819Y-132854761D02*
X109554819Y-133045237D01*
X109554819Y-133045237D02*
X109602438Y-133140475D01*
X109602438Y-133140475D02*
X109650057Y-133188094D01*
X109650057Y-133188094D02*
X109745295Y-133235713D01*
X109745295Y-133235713D02*
X109983390Y-133235713D01*
X109983390Y-133235713D02*
X110078628Y-133188094D01*
X110078628Y-133188094D02*
X110126247Y-133140475D01*
X110126247Y-133140475D02*
X110173866Y-133045237D01*
X110173866Y-133045237D02*
X110173866Y-132854761D01*
X110173866Y-132854761D02*
X110126247Y-132759523D01*
X110126247Y-132759523D02*
X110078628Y-132711904D01*
X110078628Y-132711904D02*
X109983390Y-132664285D01*
X129357142Y-105359580D02*
X129309523Y-105407200D01*
X129309523Y-105407200D02*
X129166666Y-105454819D01*
X129166666Y-105454819D02*
X129071428Y-105454819D01*
X129071428Y-105454819D02*
X128928571Y-105407200D01*
X128928571Y-105407200D02*
X128833333Y-105311961D01*
X128833333Y-105311961D02*
X128785714Y-105216723D01*
X128785714Y-105216723D02*
X128738095Y-105026247D01*
X128738095Y-105026247D02*
X128738095Y-104883390D01*
X128738095Y-104883390D02*
X128785714Y-104692914D01*
X128785714Y-104692914D02*
X128833333Y-104597676D01*
X128833333Y-104597676D02*
X128928571Y-104502438D01*
X128928571Y-104502438D02*
X129071428Y-104454819D01*
X129071428Y-104454819D02*
X129166666Y-104454819D01*
X129166666Y-104454819D02*
X129309523Y-104502438D01*
X129309523Y-104502438D02*
X129357142Y-104550057D01*
X130309523Y-105454819D02*
X129738095Y-105454819D01*
X130023809Y-105454819D02*
X130023809Y-104454819D01*
X130023809Y-104454819D02*
X129928571Y-104597676D01*
X129928571Y-104597676D02*
X129833333Y-104692914D01*
X129833333Y-104692914D02*
X129738095Y-104740533D01*
X131166666Y-104454819D02*
X130976190Y-104454819D01*
X130976190Y-104454819D02*
X130880952Y-104502438D01*
X130880952Y-104502438D02*
X130833333Y-104550057D01*
X130833333Y-104550057D02*
X130738095Y-104692914D01*
X130738095Y-104692914D02*
X130690476Y-104883390D01*
X130690476Y-104883390D02*
X130690476Y-105264342D01*
X130690476Y-105264342D02*
X130738095Y-105359580D01*
X130738095Y-105359580D02*
X130785714Y-105407200D01*
X130785714Y-105407200D02*
X130880952Y-105454819D01*
X130880952Y-105454819D02*
X131071428Y-105454819D01*
X131071428Y-105454819D02*
X131166666Y-105407200D01*
X131166666Y-105407200D02*
X131214285Y-105359580D01*
X131214285Y-105359580D02*
X131261904Y-105264342D01*
X131261904Y-105264342D02*
X131261904Y-105026247D01*
X131261904Y-105026247D02*
X131214285Y-104931009D01*
X131214285Y-104931009D02*
X131166666Y-104883390D01*
X131166666Y-104883390D02*
X131071428Y-104835771D01*
X131071428Y-104835771D02*
X130880952Y-104835771D01*
X130880952Y-104835771D02*
X130785714Y-104883390D01*
X130785714Y-104883390D02*
X130738095Y-104931009D01*
X130738095Y-104931009D02*
X130690476Y-105026247D01*
X109666667Y-104407200D02*
X109809524Y-104454819D01*
X109809524Y-104454819D02*
X110047619Y-104454819D01*
X110047619Y-104454819D02*
X110142857Y-104407200D01*
X110142857Y-104407200D02*
X110190476Y-104359580D01*
X110190476Y-104359580D02*
X110238095Y-104264342D01*
X110238095Y-104264342D02*
X110238095Y-104169104D01*
X110238095Y-104169104D02*
X110190476Y-104073866D01*
X110190476Y-104073866D02*
X110142857Y-104026247D01*
X110142857Y-104026247D02*
X110047619Y-103978628D01*
X110047619Y-103978628D02*
X109857143Y-103931009D01*
X109857143Y-103931009D02*
X109761905Y-103883390D01*
X109761905Y-103883390D02*
X109714286Y-103835771D01*
X109714286Y-103835771D02*
X109666667Y-103740533D01*
X109666667Y-103740533D02*
X109666667Y-103645295D01*
X109666667Y-103645295D02*
X109714286Y-103550057D01*
X109714286Y-103550057D02*
X109761905Y-103502438D01*
X109761905Y-103502438D02*
X109857143Y-103454819D01*
X109857143Y-103454819D02*
X110095238Y-103454819D01*
X110095238Y-103454819D02*
X110238095Y-103502438D01*
X110571429Y-103454819D02*
X110809524Y-104454819D01*
X110809524Y-104454819D02*
X111000000Y-103740533D01*
X111000000Y-103740533D02*
X111190476Y-104454819D01*
X111190476Y-104454819D02*
X111428572Y-103454819D01*
X111761905Y-103550057D02*
X111809524Y-103502438D01*
X111809524Y-103502438D02*
X111904762Y-103454819D01*
X111904762Y-103454819D02*
X112142857Y-103454819D01*
X112142857Y-103454819D02*
X112238095Y-103502438D01*
X112238095Y-103502438D02*
X112285714Y-103550057D01*
X112285714Y-103550057D02*
X112333333Y-103645295D01*
X112333333Y-103645295D02*
X112333333Y-103740533D01*
X112333333Y-103740533D02*
X112285714Y-103883390D01*
X112285714Y-103883390D02*
X111714286Y-104454819D01*
X111714286Y-104454819D02*
X112333333Y-104454819D01*
X88479580Y-91992857D02*
X88527200Y-92040476D01*
X88527200Y-92040476D02*
X88574819Y-92183333D01*
X88574819Y-92183333D02*
X88574819Y-92278571D01*
X88574819Y-92278571D02*
X88527200Y-92421428D01*
X88527200Y-92421428D02*
X88431961Y-92516666D01*
X88431961Y-92516666D02*
X88336723Y-92564285D01*
X88336723Y-92564285D02*
X88146247Y-92611904D01*
X88146247Y-92611904D02*
X88003390Y-92611904D01*
X88003390Y-92611904D02*
X87812914Y-92564285D01*
X87812914Y-92564285D02*
X87717676Y-92516666D01*
X87717676Y-92516666D02*
X87622438Y-92421428D01*
X87622438Y-92421428D02*
X87574819Y-92278571D01*
X87574819Y-92278571D02*
X87574819Y-92183333D01*
X87574819Y-92183333D02*
X87622438Y-92040476D01*
X87622438Y-92040476D02*
X87670057Y-91992857D01*
X88574819Y-91040476D02*
X88574819Y-91611904D01*
X88574819Y-91326190D02*
X87574819Y-91326190D01*
X87574819Y-91326190D02*
X87717676Y-91421428D01*
X87717676Y-91421428D02*
X87812914Y-91516666D01*
X87812914Y-91516666D02*
X87860533Y-91611904D01*
X87908152Y-90183333D02*
X88574819Y-90183333D01*
X87527200Y-90421428D02*
X88241485Y-90659523D01*
X88241485Y-90659523D02*
X88241485Y-90040476D01*
X105732142Y-127054819D02*
X105398809Y-126578628D01*
X105160714Y-127054819D02*
X105160714Y-126054819D01*
X105160714Y-126054819D02*
X105541666Y-126054819D01*
X105541666Y-126054819D02*
X105636904Y-126102438D01*
X105636904Y-126102438D02*
X105684523Y-126150057D01*
X105684523Y-126150057D02*
X105732142Y-126245295D01*
X105732142Y-126245295D02*
X105732142Y-126388152D01*
X105732142Y-126388152D02*
X105684523Y-126483390D01*
X105684523Y-126483390D02*
X105636904Y-126531009D01*
X105636904Y-126531009D02*
X105541666Y-126578628D01*
X105541666Y-126578628D02*
X105160714Y-126578628D01*
X106684523Y-127054819D02*
X106113095Y-127054819D01*
X106398809Y-127054819D02*
X106398809Y-126054819D01*
X106398809Y-126054819D02*
X106303571Y-126197676D01*
X106303571Y-126197676D02*
X106208333Y-126292914D01*
X106208333Y-126292914D02*
X106113095Y-126340533D01*
X107541666Y-126388152D02*
X107541666Y-127054819D01*
X107303571Y-126007200D02*
X107065476Y-126721485D01*
X107065476Y-126721485D02*
X107684523Y-126721485D01*
X134063095Y-106479819D02*
X134063095Y-107289342D01*
X134063095Y-107289342D02*
X134110714Y-107384580D01*
X134110714Y-107384580D02*
X134158333Y-107432200D01*
X134158333Y-107432200D02*
X134253571Y-107479819D01*
X134253571Y-107479819D02*
X134444047Y-107479819D01*
X134444047Y-107479819D02*
X134539285Y-107432200D01*
X134539285Y-107432200D02*
X134586904Y-107384580D01*
X134586904Y-107384580D02*
X134634523Y-107289342D01*
X134634523Y-107289342D02*
X134634523Y-106479819D01*
X135634523Y-107479819D02*
X135063095Y-107479819D01*
X135348809Y-107479819D02*
X135348809Y-106479819D01*
X135348809Y-106479819D02*
X135253571Y-106622676D01*
X135253571Y-106622676D02*
X135158333Y-106717914D01*
X135158333Y-106717914D02*
X135063095Y-106765533D01*
X136269104Y-123411905D02*
X136269104Y-122935715D01*
X136554819Y-123507143D02*
X135554819Y-123173810D01*
X135554819Y-123173810D02*
X136554819Y-122840477D01*
X135888152Y-122507143D02*
X136554819Y-122507143D01*
X135983390Y-122507143D02*
X135935771Y-122459524D01*
X135935771Y-122459524D02*
X135888152Y-122364286D01*
X135888152Y-122364286D02*
X135888152Y-122221429D01*
X135888152Y-122221429D02*
X135935771Y-122126191D01*
X135935771Y-122126191D02*
X136031009Y-122078572D01*
X136031009Y-122078572D02*
X136554819Y-122078572D01*
X135888152Y-121745238D02*
X135888152Y-121364286D01*
X135554819Y-121602381D02*
X136411961Y-121602381D01*
X136411961Y-121602381D02*
X136507200Y-121554762D01*
X136507200Y-121554762D02*
X136554819Y-121459524D01*
X136554819Y-121459524D02*
X136554819Y-121364286D01*
X136507200Y-120650000D02*
X136554819Y-120745238D01*
X136554819Y-120745238D02*
X136554819Y-120935714D01*
X136554819Y-120935714D02*
X136507200Y-121030952D01*
X136507200Y-121030952D02*
X136411961Y-121078571D01*
X136411961Y-121078571D02*
X136031009Y-121078571D01*
X136031009Y-121078571D02*
X135935771Y-121030952D01*
X135935771Y-121030952D02*
X135888152Y-120935714D01*
X135888152Y-120935714D02*
X135888152Y-120745238D01*
X135888152Y-120745238D02*
X135935771Y-120650000D01*
X135935771Y-120650000D02*
X136031009Y-120602381D01*
X136031009Y-120602381D02*
X136126247Y-120602381D01*
X136126247Y-120602381D02*
X136221485Y-121078571D01*
X135888152Y-120173809D02*
X136554819Y-120173809D01*
X135983390Y-120173809D02*
X135935771Y-120126190D01*
X135935771Y-120126190D02*
X135888152Y-120030952D01*
X135888152Y-120030952D02*
X135888152Y-119888095D01*
X135888152Y-119888095D02*
X135935771Y-119792857D01*
X135935771Y-119792857D02*
X136031009Y-119745238D01*
X136031009Y-119745238D02*
X136554819Y-119745238D01*
X135888152Y-119269047D02*
X136554819Y-119269047D01*
X135983390Y-119269047D02*
X135935771Y-119221428D01*
X135935771Y-119221428D02*
X135888152Y-119126190D01*
X135888152Y-119126190D02*
X135888152Y-118983333D01*
X135888152Y-118983333D02*
X135935771Y-118888095D01*
X135935771Y-118888095D02*
X136031009Y-118840476D01*
X136031009Y-118840476D02*
X136554819Y-118840476D01*
X136554819Y-117935714D02*
X136031009Y-117935714D01*
X136031009Y-117935714D02*
X135935771Y-117983333D01*
X135935771Y-117983333D02*
X135888152Y-118078571D01*
X135888152Y-118078571D02*
X135888152Y-118269047D01*
X135888152Y-118269047D02*
X135935771Y-118364285D01*
X136507200Y-117935714D02*
X136554819Y-118030952D01*
X136554819Y-118030952D02*
X136554819Y-118269047D01*
X136554819Y-118269047D02*
X136507200Y-118364285D01*
X136507200Y-118364285D02*
X136411961Y-118411904D01*
X136411961Y-118411904D02*
X136316723Y-118411904D01*
X136316723Y-118411904D02*
X136221485Y-118364285D01*
X136221485Y-118364285D02*
X136173866Y-118269047D01*
X136173866Y-118269047D02*
X136173866Y-118030952D01*
X136173866Y-118030952D02*
X136126247Y-117935714D01*
X136269104Y-116745237D02*
X136269104Y-116269047D01*
X136554819Y-116840475D02*
X135554819Y-116507142D01*
X135554819Y-116507142D02*
X136554819Y-116173809D01*
X136554819Y-115840475D02*
X135888152Y-115840475D01*
X136078628Y-115840475D02*
X135983390Y-115792856D01*
X135983390Y-115792856D02*
X135935771Y-115745237D01*
X135935771Y-115745237D02*
X135888152Y-115649999D01*
X135888152Y-115649999D02*
X135888152Y-115554761D01*
X136507200Y-114840475D02*
X136554819Y-114935713D01*
X136554819Y-114935713D02*
X136554819Y-115126189D01*
X136554819Y-115126189D02*
X136507200Y-115221427D01*
X136507200Y-115221427D02*
X136411961Y-115269046D01*
X136411961Y-115269046D02*
X136031009Y-115269046D01*
X136031009Y-115269046D02*
X135935771Y-115221427D01*
X135935771Y-115221427D02*
X135888152Y-115126189D01*
X135888152Y-115126189D02*
X135888152Y-114935713D01*
X135888152Y-114935713D02*
X135935771Y-114840475D01*
X135935771Y-114840475D02*
X136031009Y-114792856D01*
X136031009Y-114792856D02*
X136126247Y-114792856D01*
X136126247Y-114792856D02*
X136221485Y-115269046D01*
X136554819Y-113935713D02*
X136031009Y-113935713D01*
X136031009Y-113935713D02*
X135935771Y-113983332D01*
X135935771Y-113983332D02*
X135888152Y-114078570D01*
X135888152Y-114078570D02*
X135888152Y-114269046D01*
X135888152Y-114269046D02*
X135935771Y-114364284D01*
X136507200Y-113935713D02*
X136554819Y-114030951D01*
X136554819Y-114030951D02*
X136554819Y-114269046D01*
X136554819Y-114269046D02*
X136507200Y-114364284D01*
X136507200Y-114364284D02*
X136411961Y-114411903D01*
X136411961Y-114411903D02*
X136316723Y-114411903D01*
X136316723Y-114411903D02*
X136221485Y-114364284D01*
X136221485Y-114364284D02*
X136173866Y-114269046D01*
X136173866Y-114269046D02*
X136173866Y-114030951D01*
X136173866Y-114030951D02*
X136126247Y-113935713D01*
X109666667Y-113407200D02*
X109809524Y-113454819D01*
X109809524Y-113454819D02*
X110047619Y-113454819D01*
X110047619Y-113454819D02*
X110142857Y-113407200D01*
X110142857Y-113407200D02*
X110190476Y-113359580D01*
X110190476Y-113359580D02*
X110238095Y-113264342D01*
X110238095Y-113264342D02*
X110238095Y-113169104D01*
X110238095Y-113169104D02*
X110190476Y-113073866D01*
X110190476Y-113073866D02*
X110142857Y-113026247D01*
X110142857Y-113026247D02*
X110047619Y-112978628D01*
X110047619Y-112978628D02*
X109857143Y-112931009D01*
X109857143Y-112931009D02*
X109761905Y-112883390D01*
X109761905Y-112883390D02*
X109714286Y-112835771D01*
X109714286Y-112835771D02*
X109666667Y-112740533D01*
X109666667Y-112740533D02*
X109666667Y-112645295D01*
X109666667Y-112645295D02*
X109714286Y-112550057D01*
X109714286Y-112550057D02*
X109761905Y-112502438D01*
X109761905Y-112502438D02*
X109857143Y-112454819D01*
X109857143Y-112454819D02*
X110095238Y-112454819D01*
X110095238Y-112454819D02*
X110238095Y-112502438D01*
X110571429Y-112454819D02*
X110809524Y-113454819D01*
X110809524Y-113454819D02*
X111000000Y-112740533D01*
X111000000Y-112740533D02*
X111190476Y-113454819D01*
X111190476Y-113454819D02*
X111428572Y-112454819D01*
X112333333Y-113454819D02*
X111761905Y-113454819D01*
X112047619Y-113454819D02*
X112047619Y-112454819D01*
X112047619Y-112454819D02*
X111952381Y-112597676D01*
X111952381Y-112597676D02*
X111857143Y-112692914D01*
X111857143Y-112692914D02*
X111761905Y-112740533D01*
X124458333Y-108554819D02*
X124125000Y-108078628D01*
X123886905Y-108554819D02*
X123886905Y-107554819D01*
X123886905Y-107554819D02*
X124267857Y-107554819D01*
X124267857Y-107554819D02*
X124363095Y-107602438D01*
X124363095Y-107602438D02*
X124410714Y-107650057D01*
X124410714Y-107650057D02*
X124458333Y-107745295D01*
X124458333Y-107745295D02*
X124458333Y-107888152D01*
X124458333Y-107888152D02*
X124410714Y-107983390D01*
X124410714Y-107983390D02*
X124363095Y-108031009D01*
X124363095Y-108031009D02*
X124267857Y-108078628D01*
X124267857Y-108078628D02*
X123886905Y-108078628D01*
X124934524Y-108554819D02*
X125125000Y-108554819D01*
X125125000Y-108554819D02*
X125220238Y-108507200D01*
X125220238Y-108507200D02*
X125267857Y-108459580D01*
X125267857Y-108459580D02*
X125363095Y-108316723D01*
X125363095Y-108316723D02*
X125410714Y-108126247D01*
X125410714Y-108126247D02*
X125410714Y-107745295D01*
X125410714Y-107745295D02*
X125363095Y-107650057D01*
X125363095Y-107650057D02*
X125315476Y-107602438D01*
X125315476Y-107602438D02*
X125220238Y-107554819D01*
X125220238Y-107554819D02*
X125029762Y-107554819D01*
X125029762Y-107554819D02*
X124934524Y-107602438D01*
X124934524Y-107602438D02*
X124886905Y-107650057D01*
X124886905Y-107650057D02*
X124839286Y-107745295D01*
X124839286Y-107745295D02*
X124839286Y-107983390D01*
X124839286Y-107983390D02*
X124886905Y-108078628D01*
X124886905Y-108078628D02*
X124934524Y-108126247D01*
X124934524Y-108126247D02*
X125029762Y-108173866D01*
X125029762Y-108173866D02*
X125220238Y-108173866D01*
X125220238Y-108173866D02*
X125315476Y-108126247D01*
X125315476Y-108126247D02*
X125363095Y-108078628D01*
X125363095Y-108078628D02*
X125410714Y-107983390D01*
X95639580Y-126992857D02*
X95687200Y-127040476D01*
X95687200Y-127040476D02*
X95734819Y-127183333D01*
X95734819Y-127183333D02*
X95734819Y-127278571D01*
X95734819Y-127278571D02*
X95687200Y-127421428D01*
X95687200Y-127421428D02*
X95591961Y-127516666D01*
X95591961Y-127516666D02*
X95496723Y-127564285D01*
X95496723Y-127564285D02*
X95306247Y-127611904D01*
X95306247Y-127611904D02*
X95163390Y-127611904D01*
X95163390Y-127611904D02*
X94972914Y-127564285D01*
X94972914Y-127564285D02*
X94877676Y-127516666D01*
X94877676Y-127516666D02*
X94782438Y-127421428D01*
X94782438Y-127421428D02*
X94734819Y-127278571D01*
X94734819Y-127278571D02*
X94734819Y-127183333D01*
X94734819Y-127183333D02*
X94782438Y-127040476D01*
X94782438Y-127040476D02*
X94830057Y-126992857D01*
X95734819Y-126040476D02*
X95734819Y-126611904D01*
X95734819Y-126326190D02*
X94734819Y-126326190D01*
X94734819Y-126326190D02*
X94877676Y-126421428D01*
X94877676Y-126421428D02*
X94972914Y-126516666D01*
X94972914Y-126516666D02*
X95020533Y-126611904D01*
X95734819Y-125564285D02*
X95734819Y-125373809D01*
X95734819Y-125373809D02*
X95687200Y-125278571D01*
X95687200Y-125278571D02*
X95639580Y-125230952D01*
X95639580Y-125230952D02*
X95496723Y-125135714D01*
X95496723Y-125135714D02*
X95306247Y-125088095D01*
X95306247Y-125088095D02*
X94925295Y-125088095D01*
X94925295Y-125088095D02*
X94830057Y-125135714D01*
X94830057Y-125135714D02*
X94782438Y-125183333D01*
X94782438Y-125183333D02*
X94734819Y-125278571D01*
X94734819Y-125278571D02*
X94734819Y-125469047D01*
X94734819Y-125469047D02*
X94782438Y-125564285D01*
X94782438Y-125564285D02*
X94830057Y-125611904D01*
X94830057Y-125611904D02*
X94925295Y-125659523D01*
X94925295Y-125659523D02*
X95163390Y-125659523D01*
X95163390Y-125659523D02*
X95258628Y-125611904D01*
X95258628Y-125611904D02*
X95306247Y-125564285D01*
X95306247Y-125564285D02*
X95353866Y-125469047D01*
X95353866Y-125469047D02*
X95353866Y-125278571D01*
X95353866Y-125278571D02*
X95306247Y-125183333D01*
X95306247Y-125183333D02*
X95258628Y-125135714D01*
X95258628Y-125135714D02*
X95163390Y-125088095D01*
X108959580Y-133717857D02*
X109007200Y-133765476D01*
X109007200Y-133765476D02*
X109054819Y-133908333D01*
X109054819Y-133908333D02*
X109054819Y-134003571D01*
X109054819Y-134003571D02*
X109007200Y-134146428D01*
X109007200Y-134146428D02*
X108911961Y-134241666D01*
X108911961Y-134241666D02*
X108816723Y-134289285D01*
X108816723Y-134289285D02*
X108626247Y-134336904D01*
X108626247Y-134336904D02*
X108483390Y-134336904D01*
X108483390Y-134336904D02*
X108292914Y-134289285D01*
X108292914Y-134289285D02*
X108197676Y-134241666D01*
X108197676Y-134241666D02*
X108102438Y-134146428D01*
X108102438Y-134146428D02*
X108054819Y-134003571D01*
X108054819Y-134003571D02*
X108054819Y-133908333D01*
X108054819Y-133908333D02*
X108102438Y-133765476D01*
X108102438Y-133765476D02*
X108150057Y-133717857D01*
X109054819Y-132765476D02*
X109054819Y-133336904D01*
X109054819Y-133051190D02*
X108054819Y-133051190D01*
X108054819Y-133051190D02*
X108197676Y-133146428D01*
X108197676Y-133146428D02*
X108292914Y-133241666D01*
X108292914Y-133241666D02*
X108340533Y-133336904D01*
X108054819Y-132146428D02*
X108054819Y-132051190D01*
X108054819Y-132051190D02*
X108102438Y-131955952D01*
X108102438Y-131955952D02*
X108150057Y-131908333D01*
X108150057Y-131908333D02*
X108245295Y-131860714D01*
X108245295Y-131860714D02*
X108435771Y-131813095D01*
X108435771Y-131813095D02*
X108673866Y-131813095D01*
X108673866Y-131813095D02*
X108864342Y-131860714D01*
X108864342Y-131860714D02*
X108959580Y-131908333D01*
X108959580Y-131908333D02*
X109007200Y-131955952D01*
X109007200Y-131955952D02*
X109054819Y-132051190D01*
X109054819Y-132051190D02*
X109054819Y-132146428D01*
X109054819Y-132146428D02*
X109007200Y-132241666D01*
X109007200Y-132241666D02*
X108959580Y-132289285D01*
X108959580Y-132289285D02*
X108864342Y-132336904D01*
X108864342Y-132336904D02*
X108673866Y-132384523D01*
X108673866Y-132384523D02*
X108435771Y-132384523D01*
X108435771Y-132384523D02*
X108245295Y-132336904D01*
X108245295Y-132336904D02*
X108150057Y-132289285D01*
X108150057Y-132289285D02*
X108102438Y-132241666D01*
X108102438Y-132241666D02*
X108054819Y-132146428D01*
X117869580Y-133439166D02*
X117917200Y-133486785D01*
X117917200Y-133486785D02*
X117964819Y-133629642D01*
X117964819Y-133629642D02*
X117964819Y-133724880D01*
X117964819Y-133724880D02*
X117917200Y-133867737D01*
X117917200Y-133867737D02*
X117821961Y-133962975D01*
X117821961Y-133962975D02*
X117726723Y-134010594D01*
X117726723Y-134010594D02*
X117536247Y-134058213D01*
X117536247Y-134058213D02*
X117393390Y-134058213D01*
X117393390Y-134058213D02*
X117202914Y-134010594D01*
X117202914Y-134010594D02*
X117107676Y-133962975D01*
X117107676Y-133962975D02*
X117012438Y-133867737D01*
X117012438Y-133867737D02*
X116964819Y-133724880D01*
X116964819Y-133724880D02*
X116964819Y-133629642D01*
X116964819Y-133629642D02*
X117012438Y-133486785D01*
X117012438Y-133486785D02*
X117060057Y-133439166D01*
X116964819Y-132534404D02*
X116964819Y-133010594D01*
X116964819Y-133010594D02*
X117441009Y-133058213D01*
X117441009Y-133058213D02*
X117393390Y-133010594D01*
X117393390Y-133010594D02*
X117345771Y-132915356D01*
X117345771Y-132915356D02*
X117345771Y-132677261D01*
X117345771Y-132677261D02*
X117393390Y-132582023D01*
X117393390Y-132582023D02*
X117441009Y-132534404D01*
X117441009Y-132534404D02*
X117536247Y-132486785D01*
X117536247Y-132486785D02*
X117774342Y-132486785D01*
X117774342Y-132486785D02*
X117869580Y-132534404D01*
X117869580Y-132534404D02*
X117917200Y-132582023D01*
X117917200Y-132582023D02*
X117964819Y-132677261D01*
X117964819Y-132677261D02*
X117964819Y-132915356D01*
X117964819Y-132915356D02*
X117917200Y-133010594D01*
X117917200Y-133010594D02*
X117869580Y-133058213D01*
X92300057Y-118932738D02*
X92252438Y-119027976D01*
X92252438Y-119027976D02*
X92157200Y-119123214D01*
X92157200Y-119123214D02*
X92014342Y-119266071D01*
X92014342Y-119266071D02*
X91966723Y-119361309D01*
X91966723Y-119361309D02*
X91966723Y-119456547D01*
X92204819Y-119408928D02*
X92157200Y-119504166D01*
X92157200Y-119504166D02*
X92061961Y-119599404D01*
X92061961Y-119599404D02*
X91871485Y-119647023D01*
X91871485Y-119647023D02*
X91538152Y-119647023D01*
X91538152Y-119647023D02*
X91347676Y-119599404D01*
X91347676Y-119599404D02*
X91252438Y-119504166D01*
X91252438Y-119504166D02*
X91204819Y-119408928D01*
X91204819Y-119408928D02*
X91204819Y-119218452D01*
X91204819Y-119218452D02*
X91252438Y-119123214D01*
X91252438Y-119123214D02*
X91347676Y-119027976D01*
X91347676Y-119027976D02*
X91538152Y-118980357D01*
X91538152Y-118980357D02*
X91871485Y-118980357D01*
X91871485Y-118980357D02*
X92061961Y-119027976D01*
X92061961Y-119027976D02*
X92157200Y-119123214D01*
X92157200Y-119123214D02*
X92204819Y-119218452D01*
X92204819Y-119218452D02*
X92204819Y-119408928D01*
X91300057Y-118599404D02*
X91252438Y-118551785D01*
X91252438Y-118551785D02*
X91204819Y-118456547D01*
X91204819Y-118456547D02*
X91204819Y-118218452D01*
X91204819Y-118218452D02*
X91252438Y-118123214D01*
X91252438Y-118123214D02*
X91300057Y-118075595D01*
X91300057Y-118075595D02*
X91395295Y-118027976D01*
X91395295Y-118027976D02*
X91490533Y-118027976D01*
X91490533Y-118027976D02*
X91633390Y-118075595D01*
X91633390Y-118075595D02*
X92204819Y-118647023D01*
X92204819Y-118647023D02*
X92204819Y-118027976D01*
X126154819Y-143188094D02*
X125154819Y-143188094D01*
X125154819Y-143188094D02*
X125154819Y-142949999D01*
X125154819Y-142949999D02*
X125202438Y-142807142D01*
X125202438Y-142807142D02*
X125297676Y-142711904D01*
X125297676Y-142711904D02*
X125392914Y-142664285D01*
X125392914Y-142664285D02*
X125583390Y-142616666D01*
X125583390Y-142616666D02*
X125726247Y-142616666D01*
X125726247Y-142616666D02*
X125916723Y-142664285D01*
X125916723Y-142664285D02*
X126011961Y-142711904D01*
X126011961Y-142711904D02*
X126107200Y-142807142D01*
X126107200Y-142807142D02*
X126154819Y-142949999D01*
X126154819Y-142949999D02*
X126154819Y-143188094D01*
X125250057Y-142235713D02*
X125202438Y-142188094D01*
X125202438Y-142188094D02*
X125154819Y-142092856D01*
X125154819Y-142092856D02*
X125154819Y-141854761D01*
X125154819Y-141854761D02*
X125202438Y-141759523D01*
X125202438Y-141759523D02*
X125250057Y-141711904D01*
X125250057Y-141711904D02*
X125345295Y-141664285D01*
X125345295Y-141664285D02*
X125440533Y-141664285D01*
X125440533Y-141664285D02*
X125583390Y-141711904D01*
X125583390Y-141711904D02*
X126154819Y-142283332D01*
X126154819Y-142283332D02*
X126154819Y-141664285D01*
X106259580Y-133717857D02*
X106307200Y-133765476D01*
X106307200Y-133765476D02*
X106354819Y-133908333D01*
X106354819Y-133908333D02*
X106354819Y-134003571D01*
X106354819Y-134003571D02*
X106307200Y-134146428D01*
X106307200Y-134146428D02*
X106211961Y-134241666D01*
X106211961Y-134241666D02*
X106116723Y-134289285D01*
X106116723Y-134289285D02*
X105926247Y-134336904D01*
X105926247Y-134336904D02*
X105783390Y-134336904D01*
X105783390Y-134336904D02*
X105592914Y-134289285D01*
X105592914Y-134289285D02*
X105497676Y-134241666D01*
X105497676Y-134241666D02*
X105402438Y-134146428D01*
X105402438Y-134146428D02*
X105354819Y-134003571D01*
X105354819Y-134003571D02*
X105354819Y-133908333D01*
X105354819Y-133908333D02*
X105402438Y-133765476D01*
X105402438Y-133765476D02*
X105450057Y-133717857D01*
X106354819Y-132765476D02*
X106354819Y-133336904D01*
X106354819Y-133051190D02*
X105354819Y-133051190D01*
X105354819Y-133051190D02*
X105497676Y-133146428D01*
X105497676Y-133146428D02*
X105592914Y-133241666D01*
X105592914Y-133241666D02*
X105640533Y-133336904D01*
X105450057Y-132384523D02*
X105402438Y-132336904D01*
X105402438Y-132336904D02*
X105354819Y-132241666D01*
X105354819Y-132241666D02*
X105354819Y-132003571D01*
X105354819Y-132003571D02*
X105402438Y-131908333D01*
X105402438Y-131908333D02*
X105450057Y-131860714D01*
X105450057Y-131860714D02*
X105545295Y-131813095D01*
X105545295Y-131813095D02*
X105640533Y-131813095D01*
X105640533Y-131813095D02*
X105783390Y-131860714D01*
X105783390Y-131860714D02*
X106354819Y-132432142D01*
X106354819Y-132432142D02*
X106354819Y-131813095D01*
X88538095Y-130054819D02*
X88538095Y-130864342D01*
X88538095Y-130864342D02*
X88585714Y-130959580D01*
X88585714Y-130959580D02*
X88633333Y-131007200D01*
X88633333Y-131007200D02*
X88728571Y-131054819D01*
X88728571Y-131054819D02*
X88919047Y-131054819D01*
X88919047Y-131054819D02*
X89014285Y-131007200D01*
X89014285Y-131007200D02*
X89061904Y-130959580D01*
X89061904Y-130959580D02*
X89109523Y-130864342D01*
X89109523Y-130864342D02*
X89109523Y-130054819D01*
X89490476Y-130054819D02*
X90109523Y-130054819D01*
X90109523Y-130054819D02*
X89776190Y-130435771D01*
X89776190Y-130435771D02*
X89919047Y-130435771D01*
X89919047Y-130435771D02*
X90014285Y-130483390D01*
X90014285Y-130483390D02*
X90061904Y-130531009D01*
X90061904Y-130531009D02*
X90109523Y-130626247D01*
X90109523Y-130626247D02*
X90109523Y-130864342D01*
X90109523Y-130864342D02*
X90061904Y-130959580D01*
X90061904Y-130959580D02*
X90014285Y-131007200D01*
X90014285Y-131007200D02*
X89919047Y-131054819D01*
X89919047Y-131054819D02*
X89633333Y-131054819D01*
X89633333Y-131054819D02*
X89538095Y-131007200D01*
X89538095Y-131007200D02*
X89490476Y-130959580D01*
X128008333Y-141909580D02*
X127960714Y-141957200D01*
X127960714Y-141957200D02*
X127817857Y-142004819D01*
X127817857Y-142004819D02*
X127722619Y-142004819D01*
X127722619Y-142004819D02*
X127579762Y-141957200D01*
X127579762Y-141957200D02*
X127484524Y-141861961D01*
X127484524Y-141861961D02*
X127436905Y-141766723D01*
X127436905Y-141766723D02*
X127389286Y-141576247D01*
X127389286Y-141576247D02*
X127389286Y-141433390D01*
X127389286Y-141433390D02*
X127436905Y-141242914D01*
X127436905Y-141242914D02*
X127484524Y-141147676D01*
X127484524Y-141147676D02*
X127579762Y-141052438D01*
X127579762Y-141052438D02*
X127722619Y-141004819D01*
X127722619Y-141004819D02*
X127817857Y-141004819D01*
X127817857Y-141004819D02*
X127960714Y-141052438D01*
X127960714Y-141052438D02*
X128008333Y-141100057D01*
X128389286Y-141100057D02*
X128436905Y-141052438D01*
X128436905Y-141052438D02*
X128532143Y-141004819D01*
X128532143Y-141004819D02*
X128770238Y-141004819D01*
X128770238Y-141004819D02*
X128865476Y-141052438D01*
X128865476Y-141052438D02*
X128913095Y-141100057D01*
X128913095Y-141100057D02*
X128960714Y-141195295D01*
X128960714Y-141195295D02*
X128960714Y-141290533D01*
X128960714Y-141290533D02*
X128913095Y-141433390D01*
X128913095Y-141433390D02*
X128341667Y-142004819D01*
X128341667Y-142004819D02*
X128960714Y-142004819D01*
X136629819Y-145988094D02*
X135629819Y-145988094D01*
X135629819Y-145988094D02*
X135629819Y-145749999D01*
X135629819Y-145749999D02*
X135677438Y-145607142D01*
X135677438Y-145607142D02*
X135772676Y-145511904D01*
X135772676Y-145511904D02*
X135867914Y-145464285D01*
X135867914Y-145464285D02*
X136058390Y-145416666D01*
X136058390Y-145416666D02*
X136201247Y-145416666D01*
X136201247Y-145416666D02*
X136391723Y-145464285D01*
X136391723Y-145464285D02*
X136486961Y-145511904D01*
X136486961Y-145511904D02*
X136582200Y-145607142D01*
X136582200Y-145607142D02*
X136629819Y-145749999D01*
X136629819Y-145749999D02*
X136629819Y-145988094D01*
X136629819Y-144464285D02*
X136629819Y-145035713D01*
X136629819Y-144749999D02*
X135629819Y-144749999D01*
X135629819Y-144749999D02*
X135772676Y-144845237D01*
X135772676Y-144845237D02*
X135867914Y-144940475D01*
X135867914Y-144940475D02*
X135915533Y-145035713D01*
X125142319Y-139141666D02*
X124666128Y-139474999D01*
X125142319Y-139713094D02*
X124142319Y-139713094D01*
X124142319Y-139713094D02*
X124142319Y-139332142D01*
X124142319Y-139332142D02*
X124189938Y-139236904D01*
X124189938Y-139236904D02*
X124237557Y-139189285D01*
X124237557Y-139189285D02*
X124332795Y-139141666D01*
X124332795Y-139141666D02*
X124475652Y-139141666D01*
X124475652Y-139141666D02*
X124570890Y-139189285D01*
X124570890Y-139189285D02*
X124618509Y-139236904D01*
X124618509Y-139236904D02*
X124666128Y-139332142D01*
X124666128Y-139332142D02*
X124666128Y-139713094D01*
X124237557Y-138760713D02*
X124189938Y-138713094D01*
X124189938Y-138713094D02*
X124142319Y-138617856D01*
X124142319Y-138617856D02*
X124142319Y-138379761D01*
X124142319Y-138379761D02*
X124189938Y-138284523D01*
X124189938Y-138284523D02*
X124237557Y-138236904D01*
X124237557Y-138236904D02*
X124332795Y-138189285D01*
X124332795Y-138189285D02*
X124428033Y-138189285D01*
X124428033Y-138189285D02*
X124570890Y-138236904D01*
X124570890Y-138236904D02*
X125142319Y-138808332D01*
X125142319Y-138808332D02*
X125142319Y-138189285D01*
X114004819Y-133667857D02*
X113528628Y-134001190D01*
X114004819Y-134239285D02*
X113004819Y-134239285D01*
X113004819Y-134239285D02*
X113004819Y-133858333D01*
X113004819Y-133858333D02*
X113052438Y-133763095D01*
X113052438Y-133763095D02*
X113100057Y-133715476D01*
X113100057Y-133715476D02*
X113195295Y-133667857D01*
X113195295Y-133667857D02*
X113338152Y-133667857D01*
X113338152Y-133667857D02*
X113433390Y-133715476D01*
X113433390Y-133715476D02*
X113481009Y-133763095D01*
X113481009Y-133763095D02*
X113528628Y-133858333D01*
X113528628Y-133858333D02*
X113528628Y-134239285D01*
X114004819Y-132715476D02*
X114004819Y-133286904D01*
X114004819Y-133001190D02*
X113004819Y-133001190D01*
X113004819Y-133001190D02*
X113147676Y-133096428D01*
X113147676Y-133096428D02*
X113242914Y-133191666D01*
X113242914Y-133191666D02*
X113290533Y-133286904D01*
X114004819Y-131763095D02*
X114004819Y-132334523D01*
X114004819Y-132048809D02*
X113004819Y-132048809D01*
X113004819Y-132048809D02*
X113147676Y-132144047D01*
X113147676Y-132144047D02*
X113242914Y-132239285D01*
X113242914Y-132239285D02*
X113290533Y-132334523D01*
X116354819Y-133716666D02*
X115878628Y-134049999D01*
X116354819Y-134288094D02*
X115354819Y-134288094D01*
X115354819Y-134288094D02*
X115354819Y-133907142D01*
X115354819Y-133907142D02*
X115402438Y-133811904D01*
X115402438Y-133811904D02*
X115450057Y-133764285D01*
X115450057Y-133764285D02*
X115545295Y-133716666D01*
X115545295Y-133716666D02*
X115688152Y-133716666D01*
X115688152Y-133716666D02*
X115783390Y-133764285D01*
X115783390Y-133764285D02*
X115831009Y-133811904D01*
X115831009Y-133811904D02*
X115878628Y-133907142D01*
X115878628Y-133907142D02*
X115878628Y-134288094D01*
X115688152Y-132859523D02*
X116354819Y-132859523D01*
X115307200Y-133097618D02*
X116021485Y-133335713D01*
X116021485Y-133335713D02*
X116021485Y-132716666D01*
X86854819Y-103424404D02*
X87664342Y-103424404D01*
X87664342Y-103424404D02*
X87759580Y-103376785D01*
X87759580Y-103376785D02*
X87807200Y-103329166D01*
X87807200Y-103329166D02*
X87854819Y-103233928D01*
X87854819Y-103233928D02*
X87854819Y-103043452D01*
X87854819Y-103043452D02*
X87807200Y-102948214D01*
X87807200Y-102948214D02*
X87759580Y-102900595D01*
X87759580Y-102900595D02*
X87664342Y-102852976D01*
X87664342Y-102852976D02*
X86854819Y-102852976D01*
X86950057Y-102424404D02*
X86902438Y-102376785D01*
X86902438Y-102376785D02*
X86854819Y-102281547D01*
X86854819Y-102281547D02*
X86854819Y-102043452D01*
X86854819Y-102043452D02*
X86902438Y-101948214D01*
X86902438Y-101948214D02*
X86950057Y-101900595D01*
X86950057Y-101900595D02*
X87045295Y-101852976D01*
X87045295Y-101852976D02*
X87140533Y-101852976D01*
X87140533Y-101852976D02*
X87283390Y-101900595D01*
X87283390Y-101900595D02*
X87854819Y-102472023D01*
X87854819Y-102472023D02*
X87854819Y-101852976D01*
X130104819Y-146038094D02*
X129104819Y-146038094D01*
X129104819Y-146038094D02*
X129104819Y-145799999D01*
X129104819Y-145799999D02*
X129152438Y-145657142D01*
X129152438Y-145657142D02*
X129247676Y-145561904D01*
X129247676Y-145561904D02*
X129342914Y-145514285D01*
X129342914Y-145514285D02*
X129533390Y-145466666D01*
X129533390Y-145466666D02*
X129676247Y-145466666D01*
X129676247Y-145466666D02*
X129866723Y-145514285D01*
X129866723Y-145514285D02*
X129961961Y-145561904D01*
X129961961Y-145561904D02*
X130057200Y-145657142D01*
X130057200Y-145657142D02*
X130104819Y-145799999D01*
X130104819Y-145799999D02*
X130104819Y-146038094D01*
X129104819Y-145133332D02*
X129104819Y-144514285D01*
X129104819Y-144514285D02*
X129485771Y-144847618D01*
X129485771Y-144847618D02*
X129485771Y-144704761D01*
X129485771Y-144704761D02*
X129533390Y-144609523D01*
X129533390Y-144609523D02*
X129581009Y-144561904D01*
X129581009Y-144561904D02*
X129676247Y-144514285D01*
X129676247Y-144514285D02*
X129914342Y-144514285D01*
X129914342Y-144514285D02*
X130009580Y-144561904D01*
X130009580Y-144561904D02*
X130057200Y-144609523D01*
X130057200Y-144609523D02*
X130104819Y-144704761D01*
X130104819Y-144704761D02*
X130104819Y-144990475D01*
X130104819Y-144990475D02*
X130057200Y-145085713D01*
X130057200Y-145085713D02*
X130009580Y-145133332D01*
X138159580Y-147591666D02*
X138207200Y-147639285D01*
X138207200Y-147639285D02*
X138254819Y-147782142D01*
X138254819Y-147782142D02*
X138254819Y-147877380D01*
X138254819Y-147877380D02*
X138207200Y-148020237D01*
X138207200Y-148020237D02*
X138111961Y-148115475D01*
X138111961Y-148115475D02*
X138016723Y-148163094D01*
X138016723Y-148163094D02*
X137826247Y-148210713D01*
X137826247Y-148210713D02*
X137683390Y-148210713D01*
X137683390Y-148210713D02*
X137492914Y-148163094D01*
X137492914Y-148163094D02*
X137397676Y-148115475D01*
X137397676Y-148115475D02*
X137302438Y-148020237D01*
X137302438Y-148020237D02*
X137254819Y-147877380D01*
X137254819Y-147877380D02*
X137254819Y-147782142D01*
X137254819Y-147782142D02*
X137302438Y-147639285D01*
X137302438Y-147639285D02*
X137350057Y-147591666D01*
X137254819Y-147258332D02*
X137254819Y-146591666D01*
X137254819Y-146591666D02*
X138254819Y-147020237D01*
X93604819Y-110767857D02*
X93128628Y-111101190D01*
X93604819Y-111339285D02*
X92604819Y-111339285D01*
X92604819Y-111339285D02*
X92604819Y-110958333D01*
X92604819Y-110958333D02*
X92652438Y-110863095D01*
X92652438Y-110863095D02*
X92700057Y-110815476D01*
X92700057Y-110815476D02*
X92795295Y-110767857D01*
X92795295Y-110767857D02*
X92938152Y-110767857D01*
X92938152Y-110767857D02*
X93033390Y-110815476D01*
X93033390Y-110815476D02*
X93081009Y-110863095D01*
X93081009Y-110863095D02*
X93128628Y-110958333D01*
X93128628Y-110958333D02*
X93128628Y-111339285D01*
X93604819Y-109815476D02*
X93604819Y-110386904D01*
X93604819Y-110101190D02*
X92604819Y-110101190D01*
X92604819Y-110101190D02*
X92747676Y-110196428D01*
X92747676Y-110196428D02*
X92842914Y-110291666D01*
X92842914Y-110291666D02*
X92890533Y-110386904D01*
X92604819Y-109196428D02*
X92604819Y-109101190D01*
X92604819Y-109101190D02*
X92652438Y-109005952D01*
X92652438Y-109005952D02*
X92700057Y-108958333D01*
X92700057Y-108958333D02*
X92795295Y-108910714D01*
X92795295Y-108910714D02*
X92985771Y-108863095D01*
X92985771Y-108863095D02*
X93223866Y-108863095D01*
X93223866Y-108863095D02*
X93414342Y-108910714D01*
X93414342Y-108910714D02*
X93509580Y-108958333D01*
X93509580Y-108958333D02*
X93557200Y-109005952D01*
X93557200Y-109005952D02*
X93604819Y-109101190D01*
X93604819Y-109101190D02*
X93604819Y-109196428D01*
X93604819Y-109196428D02*
X93557200Y-109291666D01*
X93557200Y-109291666D02*
X93509580Y-109339285D01*
X93509580Y-109339285D02*
X93414342Y-109386904D01*
X93414342Y-109386904D02*
X93223866Y-109434523D01*
X93223866Y-109434523D02*
X92985771Y-109434523D01*
X92985771Y-109434523D02*
X92795295Y-109386904D01*
X92795295Y-109386904D02*
X92700057Y-109339285D01*
X92700057Y-109339285D02*
X92652438Y-109291666D01*
X92652438Y-109291666D02*
X92604819Y-109196428D01*
X124384580Y-145616666D02*
X124432200Y-145664285D01*
X124432200Y-145664285D02*
X124479819Y-145807142D01*
X124479819Y-145807142D02*
X124479819Y-145902380D01*
X124479819Y-145902380D02*
X124432200Y-146045237D01*
X124432200Y-146045237D02*
X124336961Y-146140475D01*
X124336961Y-146140475D02*
X124241723Y-146188094D01*
X124241723Y-146188094D02*
X124051247Y-146235713D01*
X124051247Y-146235713D02*
X123908390Y-146235713D01*
X123908390Y-146235713D02*
X123717914Y-146188094D01*
X123717914Y-146188094D02*
X123622676Y-146140475D01*
X123622676Y-146140475D02*
X123527438Y-146045237D01*
X123527438Y-146045237D02*
X123479819Y-145902380D01*
X123479819Y-145902380D02*
X123479819Y-145807142D01*
X123479819Y-145807142D02*
X123527438Y-145664285D01*
X123527438Y-145664285D02*
X123575057Y-145616666D01*
X123479819Y-144759523D02*
X123479819Y-144949999D01*
X123479819Y-144949999D02*
X123527438Y-145045237D01*
X123527438Y-145045237D02*
X123575057Y-145092856D01*
X123575057Y-145092856D02*
X123717914Y-145188094D01*
X123717914Y-145188094D02*
X123908390Y-145235713D01*
X123908390Y-145235713D02*
X124289342Y-145235713D01*
X124289342Y-145235713D02*
X124384580Y-145188094D01*
X124384580Y-145188094D02*
X124432200Y-145140475D01*
X124432200Y-145140475D02*
X124479819Y-145045237D01*
X124479819Y-145045237D02*
X124479819Y-144854761D01*
X124479819Y-144854761D02*
X124432200Y-144759523D01*
X124432200Y-144759523D02*
X124384580Y-144711904D01*
X124384580Y-144711904D02*
X124289342Y-144664285D01*
X124289342Y-144664285D02*
X124051247Y-144664285D01*
X124051247Y-144664285D02*
X123956009Y-144711904D01*
X123956009Y-144711904D02*
X123908390Y-144759523D01*
X123908390Y-144759523D02*
X123860771Y-144854761D01*
X123860771Y-144854761D02*
X123860771Y-145045237D01*
X123860771Y-145045237D02*
X123908390Y-145140475D01*
X123908390Y-145140475D02*
X123956009Y-145188094D01*
X123956009Y-145188094D02*
X124051247Y-145235713D01*
X107534580Y-133692857D02*
X107582200Y-133740476D01*
X107582200Y-133740476D02*
X107629819Y-133883333D01*
X107629819Y-133883333D02*
X107629819Y-133978571D01*
X107629819Y-133978571D02*
X107582200Y-134121428D01*
X107582200Y-134121428D02*
X107486961Y-134216666D01*
X107486961Y-134216666D02*
X107391723Y-134264285D01*
X107391723Y-134264285D02*
X107201247Y-134311904D01*
X107201247Y-134311904D02*
X107058390Y-134311904D01*
X107058390Y-134311904D02*
X106867914Y-134264285D01*
X106867914Y-134264285D02*
X106772676Y-134216666D01*
X106772676Y-134216666D02*
X106677438Y-134121428D01*
X106677438Y-134121428D02*
X106629819Y-133978571D01*
X106629819Y-133978571D02*
X106629819Y-133883333D01*
X106629819Y-133883333D02*
X106677438Y-133740476D01*
X106677438Y-133740476D02*
X106725057Y-133692857D01*
X107629819Y-132740476D02*
X107629819Y-133311904D01*
X107629819Y-133026190D02*
X106629819Y-133026190D01*
X106629819Y-133026190D02*
X106772676Y-133121428D01*
X106772676Y-133121428D02*
X106867914Y-133216666D01*
X106867914Y-133216666D02*
X106915533Y-133311904D01*
X107629819Y-131788095D02*
X107629819Y-132359523D01*
X107629819Y-132073809D02*
X106629819Y-132073809D01*
X106629819Y-132073809D02*
X106772676Y-132169047D01*
X106772676Y-132169047D02*
X106867914Y-132264285D01*
X106867914Y-132264285D02*
X106915533Y-132359523D01*
X95354819Y-119442857D02*
X94878628Y-119776190D01*
X95354819Y-120014285D02*
X94354819Y-120014285D01*
X94354819Y-120014285D02*
X94354819Y-119633333D01*
X94354819Y-119633333D02*
X94402438Y-119538095D01*
X94402438Y-119538095D02*
X94450057Y-119490476D01*
X94450057Y-119490476D02*
X94545295Y-119442857D01*
X94545295Y-119442857D02*
X94688152Y-119442857D01*
X94688152Y-119442857D02*
X94783390Y-119490476D01*
X94783390Y-119490476D02*
X94831009Y-119538095D01*
X94831009Y-119538095D02*
X94878628Y-119633333D01*
X94878628Y-119633333D02*
X94878628Y-120014285D01*
X95354819Y-118490476D02*
X95354819Y-119061904D01*
X95354819Y-118776190D02*
X94354819Y-118776190D01*
X94354819Y-118776190D02*
X94497676Y-118871428D01*
X94497676Y-118871428D02*
X94592914Y-118966666D01*
X94592914Y-118966666D02*
X94640533Y-119061904D01*
X94354819Y-117633333D02*
X94354819Y-117823809D01*
X94354819Y-117823809D02*
X94402438Y-117919047D01*
X94402438Y-117919047D02*
X94450057Y-117966666D01*
X94450057Y-117966666D02*
X94592914Y-118061904D01*
X94592914Y-118061904D02*
X94783390Y-118109523D01*
X94783390Y-118109523D02*
X95164342Y-118109523D01*
X95164342Y-118109523D02*
X95259580Y-118061904D01*
X95259580Y-118061904D02*
X95307200Y-118014285D01*
X95307200Y-118014285D02*
X95354819Y-117919047D01*
X95354819Y-117919047D02*
X95354819Y-117728571D01*
X95354819Y-117728571D02*
X95307200Y-117633333D01*
X95307200Y-117633333D02*
X95259580Y-117585714D01*
X95259580Y-117585714D02*
X95164342Y-117538095D01*
X95164342Y-117538095D02*
X94926247Y-117538095D01*
X94926247Y-117538095D02*
X94831009Y-117585714D01*
X94831009Y-117585714D02*
X94783390Y-117633333D01*
X94783390Y-117633333D02*
X94735771Y-117728571D01*
X94735771Y-117728571D02*
X94735771Y-117919047D01*
X94735771Y-117919047D02*
X94783390Y-118014285D01*
X94783390Y-118014285D02*
X94831009Y-118061904D01*
X94831009Y-118061904D02*
X94926247Y-118109523D01*
X105882142Y-123869819D02*
X105548809Y-123393628D01*
X105310714Y-123869819D02*
X105310714Y-122869819D01*
X105310714Y-122869819D02*
X105691666Y-122869819D01*
X105691666Y-122869819D02*
X105786904Y-122917438D01*
X105786904Y-122917438D02*
X105834523Y-122965057D01*
X105834523Y-122965057D02*
X105882142Y-123060295D01*
X105882142Y-123060295D02*
X105882142Y-123203152D01*
X105882142Y-123203152D02*
X105834523Y-123298390D01*
X105834523Y-123298390D02*
X105786904Y-123346009D01*
X105786904Y-123346009D02*
X105691666Y-123393628D01*
X105691666Y-123393628D02*
X105310714Y-123393628D01*
X106834523Y-123869819D02*
X106263095Y-123869819D01*
X106548809Y-123869819D02*
X106548809Y-122869819D01*
X106548809Y-122869819D02*
X106453571Y-123012676D01*
X106453571Y-123012676D02*
X106358333Y-123107914D01*
X106358333Y-123107914D02*
X106263095Y-123155533D01*
X107167857Y-122869819D02*
X107786904Y-122869819D01*
X107786904Y-122869819D02*
X107453571Y-123250771D01*
X107453571Y-123250771D02*
X107596428Y-123250771D01*
X107596428Y-123250771D02*
X107691666Y-123298390D01*
X107691666Y-123298390D02*
X107739285Y-123346009D01*
X107739285Y-123346009D02*
X107786904Y-123441247D01*
X107786904Y-123441247D02*
X107786904Y-123679342D01*
X107786904Y-123679342D02*
X107739285Y-123774580D01*
X107739285Y-123774580D02*
X107691666Y-123822200D01*
X107691666Y-123822200D02*
X107596428Y-123869819D01*
X107596428Y-123869819D02*
X107310714Y-123869819D01*
X107310714Y-123869819D02*
X107215476Y-123822200D01*
X107215476Y-123822200D02*
X107167857Y-123774580D01*
X96182142Y-106459580D02*
X96134523Y-106507200D01*
X96134523Y-106507200D02*
X95991666Y-106554819D01*
X95991666Y-106554819D02*
X95896428Y-106554819D01*
X95896428Y-106554819D02*
X95753571Y-106507200D01*
X95753571Y-106507200D02*
X95658333Y-106411961D01*
X95658333Y-106411961D02*
X95610714Y-106316723D01*
X95610714Y-106316723D02*
X95563095Y-106126247D01*
X95563095Y-106126247D02*
X95563095Y-105983390D01*
X95563095Y-105983390D02*
X95610714Y-105792914D01*
X95610714Y-105792914D02*
X95658333Y-105697676D01*
X95658333Y-105697676D02*
X95753571Y-105602438D01*
X95753571Y-105602438D02*
X95896428Y-105554819D01*
X95896428Y-105554819D02*
X95991666Y-105554819D01*
X95991666Y-105554819D02*
X96134523Y-105602438D01*
X96134523Y-105602438D02*
X96182142Y-105650057D01*
X97134523Y-106554819D02*
X96563095Y-106554819D01*
X96848809Y-106554819D02*
X96848809Y-105554819D01*
X96848809Y-105554819D02*
X96753571Y-105697676D01*
X96753571Y-105697676D02*
X96658333Y-105792914D01*
X96658333Y-105792914D02*
X96563095Y-105840533D01*
X97467857Y-105554819D02*
X98086904Y-105554819D01*
X98086904Y-105554819D02*
X97753571Y-105935771D01*
X97753571Y-105935771D02*
X97896428Y-105935771D01*
X97896428Y-105935771D02*
X97991666Y-105983390D01*
X97991666Y-105983390D02*
X98039285Y-106031009D01*
X98039285Y-106031009D02*
X98086904Y-106126247D01*
X98086904Y-106126247D02*
X98086904Y-106364342D01*
X98086904Y-106364342D02*
X98039285Y-106459580D01*
X98039285Y-106459580D02*
X97991666Y-106507200D01*
X97991666Y-106507200D02*
X97896428Y-106554819D01*
X97896428Y-106554819D02*
X97610714Y-106554819D01*
X97610714Y-106554819D02*
X97515476Y-106507200D01*
X97515476Y-106507200D02*
X97467857Y-106459580D01*
X121573809Y-103578628D02*
X121573809Y-104054819D01*
X121240476Y-103054819D02*
X121573809Y-103578628D01*
X121573809Y-103578628D02*
X121907142Y-103054819D01*
X122764285Y-104054819D02*
X122192857Y-104054819D01*
X122478571Y-104054819D02*
X122478571Y-103054819D01*
X122478571Y-103054819D02*
X122383333Y-103197676D01*
X122383333Y-103197676D02*
X122288095Y-103292914D01*
X122288095Y-103292914D02*
X122192857Y-103340533D01*
X97154819Y-116267857D02*
X96678628Y-116601190D01*
X97154819Y-116839285D02*
X96154819Y-116839285D01*
X96154819Y-116839285D02*
X96154819Y-116458333D01*
X96154819Y-116458333D02*
X96202438Y-116363095D01*
X96202438Y-116363095D02*
X96250057Y-116315476D01*
X96250057Y-116315476D02*
X96345295Y-116267857D01*
X96345295Y-116267857D02*
X96488152Y-116267857D01*
X96488152Y-116267857D02*
X96583390Y-116315476D01*
X96583390Y-116315476D02*
X96631009Y-116363095D01*
X96631009Y-116363095D02*
X96678628Y-116458333D01*
X96678628Y-116458333D02*
X96678628Y-116839285D01*
X97154819Y-115315476D02*
X97154819Y-115886904D01*
X97154819Y-115601190D02*
X96154819Y-115601190D01*
X96154819Y-115601190D02*
X96297676Y-115696428D01*
X96297676Y-115696428D02*
X96392914Y-115791666D01*
X96392914Y-115791666D02*
X96440533Y-115886904D01*
X96154819Y-114982142D02*
X96154819Y-114315476D01*
X96154819Y-114315476D02*
X97154819Y-114744047D01*
X125132142Y-104529580D02*
X125084523Y-104577200D01*
X125084523Y-104577200D02*
X124941666Y-104624819D01*
X124941666Y-104624819D02*
X124846428Y-104624819D01*
X124846428Y-104624819D02*
X124703571Y-104577200D01*
X124703571Y-104577200D02*
X124608333Y-104481961D01*
X124608333Y-104481961D02*
X124560714Y-104386723D01*
X124560714Y-104386723D02*
X124513095Y-104196247D01*
X124513095Y-104196247D02*
X124513095Y-104053390D01*
X124513095Y-104053390D02*
X124560714Y-103862914D01*
X124560714Y-103862914D02*
X124608333Y-103767676D01*
X124608333Y-103767676D02*
X124703571Y-103672438D01*
X124703571Y-103672438D02*
X124846428Y-103624819D01*
X124846428Y-103624819D02*
X124941666Y-103624819D01*
X124941666Y-103624819D02*
X125084523Y-103672438D01*
X125084523Y-103672438D02*
X125132142Y-103720057D01*
X126084523Y-104624819D02*
X125513095Y-104624819D01*
X125798809Y-104624819D02*
X125798809Y-103624819D01*
X125798809Y-103624819D02*
X125703571Y-103767676D01*
X125703571Y-103767676D02*
X125608333Y-103862914D01*
X125608333Y-103862914D02*
X125513095Y-103910533D01*
X126655952Y-104053390D02*
X126560714Y-104005771D01*
X126560714Y-104005771D02*
X126513095Y-103958152D01*
X126513095Y-103958152D02*
X126465476Y-103862914D01*
X126465476Y-103862914D02*
X126465476Y-103815295D01*
X126465476Y-103815295D02*
X126513095Y-103720057D01*
X126513095Y-103720057D02*
X126560714Y-103672438D01*
X126560714Y-103672438D02*
X126655952Y-103624819D01*
X126655952Y-103624819D02*
X126846428Y-103624819D01*
X126846428Y-103624819D02*
X126941666Y-103672438D01*
X126941666Y-103672438D02*
X126989285Y-103720057D01*
X126989285Y-103720057D02*
X127036904Y-103815295D01*
X127036904Y-103815295D02*
X127036904Y-103862914D01*
X127036904Y-103862914D02*
X126989285Y-103958152D01*
X126989285Y-103958152D02*
X126941666Y-104005771D01*
X126941666Y-104005771D02*
X126846428Y-104053390D01*
X126846428Y-104053390D02*
X126655952Y-104053390D01*
X126655952Y-104053390D02*
X126560714Y-104101009D01*
X126560714Y-104101009D02*
X126513095Y-104148628D01*
X126513095Y-104148628D02*
X126465476Y-104243866D01*
X126465476Y-104243866D02*
X126465476Y-104434342D01*
X126465476Y-104434342D02*
X126513095Y-104529580D01*
X126513095Y-104529580D02*
X126560714Y-104577200D01*
X126560714Y-104577200D02*
X126655952Y-104624819D01*
X126655952Y-104624819D02*
X126846428Y-104624819D01*
X126846428Y-104624819D02*
X126941666Y-104577200D01*
X126941666Y-104577200D02*
X126989285Y-104529580D01*
X126989285Y-104529580D02*
X127036904Y-104434342D01*
X127036904Y-104434342D02*
X127036904Y-104243866D01*
X127036904Y-104243866D02*
X126989285Y-104148628D01*
X126989285Y-104148628D02*
X126941666Y-104101009D01*
X126941666Y-104101009D02*
X126846428Y-104053390D01*
X96433333Y-104454819D02*
X96100000Y-103978628D01*
X95861905Y-104454819D02*
X95861905Y-103454819D01*
X95861905Y-103454819D02*
X96242857Y-103454819D01*
X96242857Y-103454819D02*
X96338095Y-103502438D01*
X96338095Y-103502438D02*
X96385714Y-103550057D01*
X96385714Y-103550057D02*
X96433333Y-103645295D01*
X96433333Y-103645295D02*
X96433333Y-103788152D01*
X96433333Y-103788152D02*
X96385714Y-103883390D01*
X96385714Y-103883390D02*
X96338095Y-103931009D01*
X96338095Y-103931009D02*
X96242857Y-103978628D01*
X96242857Y-103978628D02*
X95861905Y-103978628D01*
X97004762Y-103883390D02*
X96909524Y-103835771D01*
X96909524Y-103835771D02*
X96861905Y-103788152D01*
X96861905Y-103788152D02*
X96814286Y-103692914D01*
X96814286Y-103692914D02*
X96814286Y-103645295D01*
X96814286Y-103645295D02*
X96861905Y-103550057D01*
X96861905Y-103550057D02*
X96909524Y-103502438D01*
X96909524Y-103502438D02*
X97004762Y-103454819D01*
X97004762Y-103454819D02*
X97195238Y-103454819D01*
X97195238Y-103454819D02*
X97290476Y-103502438D01*
X97290476Y-103502438D02*
X97338095Y-103550057D01*
X97338095Y-103550057D02*
X97385714Y-103645295D01*
X97385714Y-103645295D02*
X97385714Y-103692914D01*
X97385714Y-103692914D02*
X97338095Y-103788152D01*
X97338095Y-103788152D02*
X97290476Y-103835771D01*
X97290476Y-103835771D02*
X97195238Y-103883390D01*
X97195238Y-103883390D02*
X97004762Y-103883390D01*
X97004762Y-103883390D02*
X96909524Y-103931009D01*
X96909524Y-103931009D02*
X96861905Y-103978628D01*
X96861905Y-103978628D02*
X96814286Y-104073866D01*
X96814286Y-104073866D02*
X96814286Y-104264342D01*
X96814286Y-104264342D02*
X96861905Y-104359580D01*
X96861905Y-104359580D02*
X96909524Y-104407200D01*
X96909524Y-104407200D02*
X97004762Y-104454819D01*
X97004762Y-104454819D02*
X97195238Y-104454819D01*
X97195238Y-104454819D02*
X97290476Y-104407200D01*
X97290476Y-104407200D02*
X97338095Y-104359580D01*
X97338095Y-104359580D02*
X97385714Y-104264342D01*
X97385714Y-104264342D02*
X97385714Y-104073866D01*
X97385714Y-104073866D02*
X97338095Y-103978628D01*
X97338095Y-103978628D02*
X97290476Y-103931009D01*
X97290476Y-103931009D02*
X97195238Y-103883390D01*
X126283333Y-101384580D02*
X126235714Y-101432200D01*
X126235714Y-101432200D02*
X126092857Y-101479819D01*
X126092857Y-101479819D02*
X125997619Y-101479819D01*
X125997619Y-101479819D02*
X125854762Y-101432200D01*
X125854762Y-101432200D02*
X125759524Y-101336961D01*
X125759524Y-101336961D02*
X125711905Y-101241723D01*
X125711905Y-101241723D02*
X125664286Y-101051247D01*
X125664286Y-101051247D02*
X125664286Y-100908390D01*
X125664286Y-100908390D02*
X125711905Y-100717914D01*
X125711905Y-100717914D02*
X125759524Y-100622676D01*
X125759524Y-100622676D02*
X125854762Y-100527438D01*
X125854762Y-100527438D02*
X125997619Y-100479819D01*
X125997619Y-100479819D02*
X126092857Y-100479819D01*
X126092857Y-100479819D02*
X126235714Y-100527438D01*
X126235714Y-100527438D02*
X126283333Y-100575057D01*
X127140476Y-100813152D02*
X127140476Y-101479819D01*
X126902381Y-100432200D02*
X126664286Y-101146485D01*
X126664286Y-101146485D02*
X127283333Y-101146485D01*
X102007142Y-133359580D02*
X101959523Y-133407200D01*
X101959523Y-133407200D02*
X101816666Y-133454819D01*
X101816666Y-133454819D02*
X101721428Y-133454819D01*
X101721428Y-133454819D02*
X101578571Y-133407200D01*
X101578571Y-133407200D02*
X101483333Y-133311961D01*
X101483333Y-133311961D02*
X101435714Y-133216723D01*
X101435714Y-133216723D02*
X101388095Y-133026247D01*
X101388095Y-133026247D02*
X101388095Y-132883390D01*
X101388095Y-132883390D02*
X101435714Y-132692914D01*
X101435714Y-132692914D02*
X101483333Y-132597676D01*
X101483333Y-132597676D02*
X101578571Y-132502438D01*
X101578571Y-132502438D02*
X101721428Y-132454819D01*
X101721428Y-132454819D02*
X101816666Y-132454819D01*
X101816666Y-132454819D02*
X101959523Y-132502438D01*
X101959523Y-132502438D02*
X102007142Y-132550057D01*
X102388095Y-132550057D02*
X102435714Y-132502438D01*
X102435714Y-132502438D02*
X102530952Y-132454819D01*
X102530952Y-132454819D02*
X102769047Y-132454819D01*
X102769047Y-132454819D02*
X102864285Y-132502438D01*
X102864285Y-132502438D02*
X102911904Y-132550057D01*
X102911904Y-132550057D02*
X102959523Y-132645295D01*
X102959523Y-132645295D02*
X102959523Y-132740533D01*
X102959523Y-132740533D02*
X102911904Y-132883390D01*
X102911904Y-132883390D02*
X102340476Y-133454819D01*
X102340476Y-133454819D02*
X102959523Y-133454819D01*
X103578571Y-132454819D02*
X103673809Y-132454819D01*
X103673809Y-132454819D02*
X103769047Y-132502438D01*
X103769047Y-132502438D02*
X103816666Y-132550057D01*
X103816666Y-132550057D02*
X103864285Y-132645295D01*
X103864285Y-132645295D02*
X103911904Y-132835771D01*
X103911904Y-132835771D02*
X103911904Y-133073866D01*
X103911904Y-133073866D02*
X103864285Y-133264342D01*
X103864285Y-133264342D02*
X103816666Y-133359580D01*
X103816666Y-133359580D02*
X103769047Y-133407200D01*
X103769047Y-133407200D02*
X103673809Y-133454819D01*
X103673809Y-133454819D02*
X103578571Y-133454819D01*
X103578571Y-133454819D02*
X103483333Y-133407200D01*
X103483333Y-133407200D02*
X103435714Y-133359580D01*
X103435714Y-133359580D02*
X103388095Y-133264342D01*
X103388095Y-133264342D02*
X103340476Y-133073866D01*
X103340476Y-133073866D02*
X103340476Y-132835771D01*
X103340476Y-132835771D02*
X103388095Y-132645295D01*
X103388095Y-132645295D02*
X103435714Y-132550057D01*
X103435714Y-132550057D02*
X103483333Y-132502438D01*
X103483333Y-132502438D02*
X103578571Y-132454819D01*
X92108333Y-122334580D02*
X92060714Y-122382200D01*
X92060714Y-122382200D02*
X91917857Y-122429819D01*
X91917857Y-122429819D02*
X91822619Y-122429819D01*
X91822619Y-122429819D02*
X91679762Y-122382200D01*
X91679762Y-122382200D02*
X91584524Y-122286961D01*
X91584524Y-122286961D02*
X91536905Y-122191723D01*
X91536905Y-122191723D02*
X91489286Y-122001247D01*
X91489286Y-122001247D02*
X91489286Y-121858390D01*
X91489286Y-121858390D02*
X91536905Y-121667914D01*
X91536905Y-121667914D02*
X91584524Y-121572676D01*
X91584524Y-121572676D02*
X91679762Y-121477438D01*
X91679762Y-121477438D02*
X91822619Y-121429819D01*
X91822619Y-121429819D02*
X91917857Y-121429819D01*
X91917857Y-121429819D02*
X92060714Y-121477438D01*
X92060714Y-121477438D02*
X92108333Y-121525057D01*
X93060714Y-122429819D02*
X92489286Y-122429819D01*
X92775000Y-122429819D02*
X92775000Y-121429819D01*
X92775000Y-121429819D02*
X92679762Y-121572676D01*
X92679762Y-121572676D02*
X92584524Y-121667914D01*
X92584524Y-121667914D02*
X92489286Y-121715533D01*
X96333333Y-108554819D02*
X96000000Y-108078628D01*
X95761905Y-108554819D02*
X95761905Y-107554819D01*
X95761905Y-107554819D02*
X96142857Y-107554819D01*
X96142857Y-107554819D02*
X96238095Y-107602438D01*
X96238095Y-107602438D02*
X96285714Y-107650057D01*
X96285714Y-107650057D02*
X96333333Y-107745295D01*
X96333333Y-107745295D02*
X96333333Y-107888152D01*
X96333333Y-107888152D02*
X96285714Y-107983390D01*
X96285714Y-107983390D02*
X96238095Y-108031009D01*
X96238095Y-108031009D02*
X96142857Y-108078628D01*
X96142857Y-108078628D02*
X95761905Y-108078628D01*
X97238095Y-107554819D02*
X96761905Y-107554819D01*
X96761905Y-107554819D02*
X96714286Y-108031009D01*
X96714286Y-108031009D02*
X96761905Y-107983390D01*
X96761905Y-107983390D02*
X96857143Y-107935771D01*
X96857143Y-107935771D02*
X97095238Y-107935771D01*
X97095238Y-107935771D02*
X97190476Y-107983390D01*
X97190476Y-107983390D02*
X97238095Y-108031009D01*
X97238095Y-108031009D02*
X97285714Y-108126247D01*
X97285714Y-108126247D02*
X97285714Y-108364342D01*
X97285714Y-108364342D02*
X97238095Y-108459580D01*
X97238095Y-108459580D02*
X97190476Y-108507200D01*
X97190476Y-108507200D02*
X97095238Y-108554819D01*
X97095238Y-108554819D02*
X96857143Y-108554819D01*
X96857143Y-108554819D02*
X96761905Y-108507200D01*
X96761905Y-108507200D02*
X96714286Y-108459580D01*
X92466666Y-139784819D02*
X92466666Y-140499104D01*
X92466666Y-140499104D02*
X92419047Y-140641961D01*
X92419047Y-140641961D02*
X92323809Y-140737200D01*
X92323809Y-140737200D02*
X92180952Y-140784819D01*
X92180952Y-140784819D02*
X92085714Y-140784819D01*
X92895238Y-139880057D02*
X92942857Y-139832438D01*
X92942857Y-139832438D02*
X93038095Y-139784819D01*
X93038095Y-139784819D02*
X93276190Y-139784819D01*
X93276190Y-139784819D02*
X93371428Y-139832438D01*
X93371428Y-139832438D02*
X93419047Y-139880057D01*
X93419047Y-139880057D02*
X93466666Y-139975295D01*
X93466666Y-139975295D02*
X93466666Y-140070533D01*
X93466666Y-140070533D02*
X93419047Y-140213390D01*
X93419047Y-140213390D02*
X92847619Y-140784819D01*
X92847619Y-140784819D02*
X93466666Y-140784819D01*
X89566666Y-99359819D02*
X89566666Y-100074104D01*
X89566666Y-100074104D02*
X89519047Y-100216961D01*
X89519047Y-100216961D02*
X89423809Y-100312200D01*
X89423809Y-100312200D02*
X89280952Y-100359819D01*
X89280952Y-100359819D02*
X89185714Y-100359819D01*
X89947619Y-99359819D02*
X90566666Y-99359819D01*
X90566666Y-99359819D02*
X90233333Y-99740771D01*
X90233333Y-99740771D02*
X90376190Y-99740771D01*
X90376190Y-99740771D02*
X90471428Y-99788390D01*
X90471428Y-99788390D02*
X90519047Y-99836009D01*
X90519047Y-99836009D02*
X90566666Y-99931247D01*
X90566666Y-99931247D02*
X90566666Y-100169342D01*
X90566666Y-100169342D02*
X90519047Y-100264580D01*
X90519047Y-100264580D02*
X90471428Y-100312200D01*
X90471428Y-100312200D02*
X90376190Y-100359819D01*
X90376190Y-100359819D02*
X90090476Y-100359819D01*
X90090476Y-100359819D02*
X89995238Y-100312200D01*
X89995238Y-100312200D02*
X89947619Y-100264580D01*
D11*
%TO.C,C15*%
X94590000Y-115740580D02*
X94590000Y-115459420D01*
X95610000Y-115740580D02*
X95610000Y-115459420D01*
%TO.C,C8*%
X119610000Y-135884420D02*
X119610000Y-136165580D01*
X118590000Y-135884420D02*
X118590000Y-136165580D01*
%TO.C,R18*%
X109487742Y-129127500D02*
X109962258Y-129127500D01*
X109487742Y-130172500D02*
X109962258Y-130172500D01*
%TO.C,Q1*%
X129375000Y-135315000D02*
X127700000Y-135315000D01*
X129375000Y-135315000D02*
X130025000Y-135315000D01*
X129375000Y-138435000D02*
X128725000Y-138435000D01*
X129375000Y-138435000D02*
X130025000Y-138435000D01*
%TO.C,R7*%
X94077500Y-138737258D02*
X94077500Y-138262742D01*
X95122500Y-138737258D02*
X95122500Y-138262742D01*
%TO.C,D5*%
X88065000Y-111572500D02*
X89535000Y-111572500D01*
X89535000Y-111572500D02*
X89535000Y-109287500D01*
X88065000Y-109287500D02*
X88065000Y-111572500D01*
%TO.C,R6*%
X90577500Y-138737258D02*
X90577500Y-138262742D01*
X91622500Y-138737258D02*
X91622500Y-138262742D01*
%TO.C,C3*%
X130684420Y-141390000D02*
X130965580Y-141390000D01*
X130684420Y-142410000D02*
X130965580Y-142410000D01*
%TO.C,R3*%
X89322500Y-106637742D02*
X89322500Y-107112258D01*
X88277500Y-106637742D02*
X88277500Y-107112258D01*
%TO.C,D4*%
X87040000Y-114375000D02*
X87040000Y-116375000D01*
X87040000Y-114375000D02*
X91050000Y-114375000D01*
X87040000Y-116375000D02*
X91050000Y-116375000D01*
%TO.C,R15*%
X130087258Y-102847500D02*
X129612742Y-102847500D01*
X130087258Y-101802500D02*
X129612742Y-101802500D01*
%TO.C,J1*%
X104850000Y-140550000D02*
X104850000Y-141890000D01*
X104850000Y-144610000D02*
X104850000Y-146350000D01*
X104850000Y-146350000D02*
X120150000Y-146350000D01*
X106340000Y-140550000D02*
X104850000Y-140550000D01*
X106340000Y-140550000D02*
X106340000Y-139350000D01*
X118660000Y-140550000D02*
X120150000Y-140550000D01*
X120150000Y-140550000D02*
X120150000Y-141890000D01*
X120150000Y-146350000D02*
X120150000Y-144610000D01*
%TO.C,D6*%
X89765000Y-111572500D02*
X91235000Y-111572500D01*
X91235000Y-111572500D02*
X91235000Y-109287500D01*
X89765000Y-109287500D02*
X89765000Y-111572500D01*
%TO.C,R1*%
X125952500Y-135337258D02*
X125952500Y-134862742D01*
X126997500Y-135337258D02*
X126997500Y-134862742D01*
%TO.C,R12*%
X109937258Y-125572500D02*
X109462742Y-125572500D01*
X109937258Y-124527500D02*
X109462742Y-124527500D01*
%TO.C,L1*%
X131865000Y-140510000D02*
X132015000Y-140510000D01*
X131865000Y-140510000D02*
X131865000Y-135990000D01*
X136385000Y-140510000D02*
X136235000Y-140510000D01*
X136385000Y-140510000D02*
X136385000Y-135990000D01*
X131865000Y-135990000D02*
X132015000Y-135990000D01*
X136385000Y-135990000D02*
X136235000Y-135990000D01*
%TO.C,C17*%
X118465580Y-106110000D02*
X118184420Y-106110000D01*
X118465580Y-105090000D02*
X118184420Y-105090000D01*
%TO.C,C9*%
X110510000Y-135884420D02*
X110510000Y-136165580D01*
X109490000Y-135884420D02*
X109490000Y-136165580D01*
%TO.C,C16*%
X130763748Y-106015000D02*
X131286252Y-106015000D01*
X130763748Y-107485000D02*
X131286252Y-107485000D01*
%TO.C,SW2*%
X100475000Y-102350000D02*
X106775000Y-102350000D01*
X100475000Y-102600000D02*
X100475000Y-102350000D01*
X100475000Y-107100000D02*
X100475000Y-104500000D01*
X100475000Y-109250000D02*
X100475000Y-109000000D01*
X106775000Y-102350000D02*
X106775000Y-102600000D01*
X106775000Y-104500000D02*
X106775000Y-107100000D01*
X106775000Y-109000000D02*
X106775000Y-109250000D01*
X106775000Y-109250000D02*
X100475000Y-109250000D01*
%TO.C,C14*%
X89065000Y-91611252D02*
X89065000Y-91088748D01*
X90535000Y-91611252D02*
X90535000Y-91088748D01*
%TO.C,R14*%
X109937258Y-127222500D02*
X109462742Y-127222500D01*
X109937258Y-126177500D02*
X109462742Y-126177500D01*
%TO.C,U1*%
X139100000Y-109650000D02*
X132350000Y-109650000D01*
X139100000Y-109650000D02*
X139100000Y-127650000D01*
X114350000Y-109650000D02*
X113600000Y-109650000D01*
X113600000Y-109650000D02*
X113600000Y-110650000D01*
X139100000Y-127650000D02*
X132350000Y-127650000D01*
X133100000Y-127650000D02*
X133100000Y-109650000D01*
X114350000Y-127650000D02*
X113600000Y-127650000D01*
X113600000Y-127650000D02*
X113600000Y-126650000D01*
%TO.C,SW1*%
X100475000Y-110750000D02*
X106775000Y-110750000D01*
X100475000Y-111000000D02*
X100475000Y-110750000D01*
X100475000Y-115500000D02*
X100475000Y-112900000D01*
X100475000Y-117650000D02*
X100475000Y-117400000D01*
X106775000Y-110750000D02*
X106775000Y-111000000D01*
X106775000Y-112900000D02*
X106775000Y-115500000D01*
X106775000Y-117400000D02*
X106775000Y-117650000D01*
X106775000Y-117650000D02*
X100475000Y-117650000D01*
%TO.C,R9*%
X122337258Y-108222500D02*
X121862742Y-108222500D01*
X122337258Y-107177500D02*
X121862742Y-107177500D01*
%TO.C,C19*%
X94335000Y-126088748D02*
X94335000Y-126611252D01*
X92865000Y-126088748D02*
X92865000Y-126611252D01*
%TO.C,C10*%
X108910000Y-135884420D02*
X108910000Y-136165580D01*
X107890000Y-135884420D02*
X107890000Y-136165580D01*
%TO.C,C5*%
X117910000Y-135884420D02*
X117910000Y-136165580D01*
X116890000Y-135884420D02*
X116890000Y-136165580D01*
%TO.C,Q2*%
X90910000Y-118837500D02*
X90910000Y-117162500D01*
X90910000Y-118837500D02*
X90910000Y-119487500D01*
X87790000Y-118837500D02*
X87790000Y-118187500D01*
X87790000Y-118837500D02*
X87790000Y-119487500D01*
%TO.C,D2*%
X126675000Y-147285000D02*
X128675000Y-147285000D01*
X126675000Y-147285000D02*
X126675000Y-143275000D01*
X128675000Y-147285000D02*
X128675000Y-143275000D01*
%TO.C,C12*%
X105710000Y-135909420D02*
X105710000Y-136190580D01*
X104690000Y-135909420D02*
X104690000Y-136190580D01*
%TO.C,U3*%
X91800000Y-129230000D02*
X90660000Y-129230000D01*
X90660000Y-129460000D02*
X90660000Y-129230000D01*
X90660000Y-129460000D02*
X87940000Y-129460000D01*
X90660000Y-124740000D02*
X90660000Y-124970000D01*
X87940000Y-129460000D02*
X87940000Y-128150000D01*
X87940000Y-126050000D02*
X87940000Y-124740000D01*
X87940000Y-124740000D02*
X90660000Y-124740000D01*
%TO.C,C2*%
X130161252Y-140485000D02*
X129638748Y-140485000D01*
X130161252Y-139015000D02*
X129638748Y-139015000D01*
%TO.C,D1*%
X133200000Y-147735000D02*
X135200000Y-147735000D01*
X133200000Y-147735000D02*
X133200000Y-143725000D01*
X135200000Y-147735000D02*
X135200000Y-143725000D01*
%TO.C,R2*%
X127010000Y-138637742D02*
X127010000Y-139112258D01*
X125965000Y-138637742D02*
X125965000Y-139112258D01*
%TO.C,R11*%
X114072500Y-135762742D02*
X114072500Y-136237258D01*
X113027500Y-135762742D02*
X113027500Y-136237258D01*
%TO.C,R4*%
X116322500Y-135787742D02*
X116322500Y-136262258D01*
X115277500Y-135787742D02*
X115277500Y-136262258D01*
%TO.C,U2*%
X91460000Y-102662500D02*
X91460000Y-100862500D01*
X91460000Y-102662500D02*
X91460000Y-103462500D01*
X88340000Y-102662500D02*
X88340000Y-101862500D01*
X88340000Y-102662500D02*
X88340000Y-103462500D01*
%TO.C,D3*%
X132575000Y-143015000D02*
X130575000Y-143015000D01*
X132575000Y-143015000D02*
X132575000Y-147025000D01*
X130575000Y-143015000D02*
X130575000Y-147025000D01*
%TO.C,C7*%
X136760000Y-147634420D02*
X136760000Y-147915580D01*
X135740000Y-147634420D02*
X135740000Y-147915580D01*
%TO.C,R10*%
X91022500Y-106662742D02*
X91022500Y-107137258D01*
X89977500Y-106662742D02*
X89977500Y-107137258D01*
%TO.C,C6*%
X126010000Y-145559420D02*
X126010000Y-145840580D01*
X124990000Y-145559420D02*
X124990000Y-145840580D01*
%TO.C,C11*%
X107310000Y-135884420D02*
X107310000Y-136165580D01*
X106290000Y-135884420D02*
X106290000Y-136165580D01*
%TO.C,R16*%
X92877500Y-119037258D02*
X92877500Y-118562742D01*
X93922500Y-119037258D02*
X93922500Y-118562742D01*
%TO.C,R13*%
X109937258Y-123947500D02*
X109462742Y-123947500D01*
X109937258Y-122902500D02*
X109462742Y-122902500D01*
%TO.C,C13*%
X93359420Y-105490000D02*
X93640580Y-105490000D01*
X93359420Y-106510000D02*
X93640580Y-106510000D01*
%TO.C,Y1*%
X121375000Y-104725000D02*
X122725000Y-104725000D01*
X121375000Y-106475000D02*
X122725000Y-106475000D01*
%TO.C,R17*%
X92877500Y-115837258D02*
X92877500Y-115362742D01*
X93922500Y-115837258D02*
X93922500Y-115362742D01*
%TO.C,C18*%
X125634420Y-105090000D02*
X125915580Y-105090000D01*
X125634420Y-106110000D02*
X125915580Y-106110000D01*
%TO.C,R8*%
X93262742Y-103377500D02*
X93737258Y-103377500D01*
X93262742Y-104422500D02*
X93737258Y-104422500D01*
%TO.C,C4*%
X126765580Y-102860000D02*
X126484420Y-102860000D01*
X126765580Y-101840000D02*
X126484420Y-101840000D01*
%TO.C,C20*%
X103736252Y-131910000D02*
X103213748Y-131910000D01*
X103736252Y-130440000D02*
X103213748Y-130440000D01*
%TO.C,C1*%
X89088748Y-121365000D02*
X89611252Y-121365000D01*
X89088748Y-122835000D02*
X89611252Y-122835000D01*
%TO.C,R5*%
X93262742Y-107277500D02*
X93737258Y-107277500D01*
X93262742Y-108322500D02*
X93737258Y-108322500D01*
%TO.C,J2*%
X88100000Y-144075000D02*
X88100000Y-146075000D01*
X88100000Y-147975000D02*
X88100000Y-149875000D01*
X88100000Y-149875000D02*
X97500000Y-149875000D01*
X97500000Y-144075000D02*
X97500000Y-146075000D01*
X97500000Y-147975000D02*
X97500000Y-149875000D01*
%TO.C,J3*%
X91230000Y-98905000D02*
X89900000Y-98905000D01*
X91230000Y-97575000D02*
X91230000Y-98905000D01*
X91230000Y-96305000D02*
X91230000Y-93705000D01*
X91230000Y-96305000D02*
X88570000Y-96305000D01*
X91230000Y-93705000D02*
X88570000Y-93705000D01*
X88570000Y-96305000D02*
X88570000Y-93705000D01*
%TD*%
M02*
