%TF.GenerationSoftware,KiCad,Pcbnew,7.0.10+dfsg-1*%
%TF.CreationDate,2024-02-28T21:18:20+08:00*%
%TF.ProjectId,eink_digit_clk,65696e6b-5f64-4696-9769-745f636c6b2e,rev?*%
%TF.SameCoordinates,Original*%
%TF.FileFunction,Copper,L1,Top*%
%TF.FilePolarity,Positive*%
%FSLAX46Y46*%
G04 Gerber Fmt 4.6, Leading zero omitted, Abs format (unit mm)*
G04 Created by KiCad (PCBNEW 7.0.10+dfsg-1) date 2024-02-28 21:18:20*
%MOMM*%
%LPD*%
G01*
G04 APERTURE LIST*
G04 Aperture macros list*
%AMRoundRect*
0 Rectangle with rounded corners*
0 $1 Rounding radius*
0 $2 $3 $4 $5 $6 $7 $8 $9 X,Y pos of 4 corners*
0 Add a 4 corners polygon primitive as box body*
4,1,4,$2,$3,$4,$5,$6,$7,$8,$9,$2,$3,0*
0 Add four circle primitives for the rounded corners*
1,1,$1+$1,$2,$3*
1,1,$1+$1,$4,$5*
1,1,$1+$1,$6,$7*
1,1,$1+$1,$8,$9*
0 Add four rect primitives between the rounded corners*
20,1,$1+$1,$2,$3,$4,$5,0*
20,1,$1+$1,$4,$5,$6,$7,0*
20,1,$1+$1,$6,$7,$8,$9,0*
20,1,$1+$1,$8,$9,$2,$3,0*%
%AMFreePoly0*
4,1,9,3.862500,-0.866500,0.737500,-0.866500,0.737500,-0.450000,-0.737500,-0.450000,-0.737500,0.450000,0.737500,0.450000,0.737500,0.866500,3.862500,0.866500,3.862500,-0.866500,3.862500,-0.866500,$1*%
G04 Aperture macros list end*
%TA.AperFunction,SMDPad,CuDef*%
%ADD10RoundRect,0.225000X0.250000X-0.225000X0.250000X0.225000X-0.250000X0.225000X-0.250000X-0.225000X0*%
%TD*%
%TA.AperFunction,SMDPad,CuDef*%
%ADD11RoundRect,0.225000X-0.250000X0.225000X-0.250000X-0.225000X0.250000X-0.225000X0.250000X0.225000X0*%
%TD*%
%TA.AperFunction,SMDPad,CuDef*%
%ADD12RoundRect,0.200000X-0.200000X-0.275000X0.200000X-0.275000X0.200000X0.275000X-0.200000X0.275000X0*%
%TD*%
%TA.AperFunction,SMDPad,CuDef*%
%ADD13RoundRect,0.150000X-0.587500X-0.150000X0.587500X-0.150000X0.587500X0.150000X-0.587500X0.150000X0*%
%TD*%
%TA.AperFunction,SMDPad,CuDef*%
%ADD14RoundRect,0.200000X0.275000X-0.200000X0.275000X0.200000X-0.275000X0.200000X-0.275000X-0.200000X0*%
%TD*%
%TA.AperFunction,SMDPad,CuDef*%
%ADD15RoundRect,0.218750X0.256250X-0.218750X0.256250X0.218750X-0.256250X0.218750X-0.256250X-0.218750X0*%
%TD*%
%TA.AperFunction,SMDPad,CuDef*%
%ADD16RoundRect,0.225000X-0.225000X-0.250000X0.225000X-0.250000X0.225000X0.250000X-0.225000X0.250000X0*%
%TD*%
%TA.AperFunction,SMDPad,CuDef*%
%ADD17RoundRect,0.200000X-0.275000X0.200000X-0.275000X-0.200000X0.275000X-0.200000X0.275000X0.200000X0*%
%TD*%
%TA.AperFunction,SMDPad,CuDef*%
%ADD18RoundRect,0.225000X-0.225000X-0.375000X0.225000X-0.375000X0.225000X0.375000X-0.225000X0.375000X0*%
%TD*%
%TA.AperFunction,SMDPad,CuDef*%
%ADD19RoundRect,0.200000X0.200000X0.275000X-0.200000X0.275000X-0.200000X-0.275000X0.200000X-0.275000X0*%
%TD*%
%TA.AperFunction,SMDPad,CuDef*%
%ADD20R,0.300000X1.300000*%
%TD*%
%TA.AperFunction,SMDPad,CuDef*%
%ADD21R,1.800000X2.200000*%
%TD*%
%TA.AperFunction,SMDPad,CuDef*%
%ADD22R,3.700000X1.100000*%
%TD*%
%TA.AperFunction,SMDPad,CuDef*%
%ADD23RoundRect,0.225000X0.225000X0.250000X-0.225000X0.250000X-0.225000X-0.250000X0.225000X-0.250000X0*%
%TD*%
%TA.AperFunction,SMDPad,CuDef*%
%ADD24RoundRect,0.250000X-0.250000X-0.475000X0.250000X-0.475000X0.250000X0.475000X-0.250000X0.475000X0*%
%TD*%
%TA.AperFunction,SMDPad,CuDef*%
%ADD25R,1.550000X1.300000*%
%TD*%
%TA.AperFunction,SMDPad,CuDef*%
%ADD26RoundRect,0.250000X0.475000X-0.250000X0.475000X0.250000X-0.475000X0.250000X-0.475000X-0.250000X0*%
%TD*%
%TA.AperFunction,SMDPad,CuDef*%
%ADD27R,0.900000X1.500000*%
%TD*%
%TA.AperFunction,SMDPad,CuDef*%
%ADD28R,0.800000X0.800000*%
%TD*%
%TA.AperFunction,SMDPad,CuDef*%
%ADD29RoundRect,0.250000X-0.475000X0.250000X-0.475000X-0.250000X0.475000X-0.250000X0.475000X0.250000X0*%
%TD*%
%TA.AperFunction,SMDPad,CuDef*%
%ADD30RoundRect,0.150000X-0.150000X0.587500X-0.150000X-0.587500X0.150000X-0.587500X0.150000X0.587500X0*%
%TD*%
%TA.AperFunction,SMDPad,CuDef*%
%ADD31RoundRect,0.225000X0.375000X-0.225000X0.375000X0.225000X-0.375000X0.225000X-0.375000X-0.225000X0*%
%TD*%
%TA.AperFunction,SMDPad,CuDef*%
%ADD32R,1.300000X0.900000*%
%TD*%
%TA.AperFunction,SMDPad,CuDef*%
%ADD33FreePoly0,180.000000*%
%TD*%
%TA.AperFunction,SMDPad,CuDef*%
%ADD34RoundRect,0.250000X0.250000X0.475000X-0.250000X0.475000X-0.250000X-0.475000X0.250000X-0.475000X0*%
%TD*%
%TA.AperFunction,SMDPad,CuDef*%
%ADD35RoundRect,0.150000X-0.150000X0.512500X-0.150000X-0.512500X0.150000X-0.512500X0.150000X0.512500X0*%
%TD*%
%TA.AperFunction,SMDPad,CuDef*%
%ADD36RoundRect,0.225000X-0.375000X0.225000X-0.375000X-0.225000X0.375000X-0.225000X0.375000X0.225000X0*%
%TD*%
%TA.AperFunction,SMDPad,CuDef*%
%ADD37R,1.000000X1.800000*%
%TD*%
%TA.AperFunction,SMDPad,CuDef*%
%ADD38R,0.600000X1.450000*%
%TD*%
%TA.AperFunction,SMDPad,CuDef*%
%ADD39R,0.300000X1.450000*%
%TD*%
%TA.AperFunction,ComponentPad*%
%ADD40O,1.000000X2.100000*%
%TD*%
%TA.AperFunction,ComponentPad*%
%ADD41O,1.000000X1.600000*%
%TD*%
%TA.AperFunction,ComponentPad*%
%ADD42R,1.700000X1.700000*%
%TD*%
%TA.AperFunction,ComponentPad*%
%ADD43O,1.700000X1.700000*%
%TD*%
%TA.AperFunction,ViaPad*%
%ADD44C,0.800000*%
%TD*%
%TA.AperFunction,Conductor*%
%ADD45C,0.400000*%
%TD*%
%TA.AperFunction,Conductor*%
%ADD46C,0.250000*%
%TD*%
G04 APERTURE END LIST*
D10*
%TO.P,C15,1*%
%TO.N,Net-(U1-MTDI{slash}GPIO5{slash}ADC1_CH5)*%
X95100000Y-116375000D03*
%TO.P,C15,2*%
%TO.N,GND*%
X95100000Y-114825000D03*
%TD*%
D11*
%TO.P,C8,1*%
%TO.N,GND*%
X119100000Y-135250000D03*
%TO.P,C8,2*%
%TO.N,Net-(J1-VSL_LV)*%
X119100000Y-136800000D03*
%TD*%
D12*
%TO.P,R18,1*%
%TO.N,+3V3*%
X108900000Y-129650000D03*
%TO.P,R18,2*%
%TO.N,Net-(U1-GPIO9)*%
X110550000Y-129650000D03*
%TD*%
D13*
%TO.P,Q1,1,G*%
%TO.N,EPD_GDR*%
X128437500Y-135925000D03*
%TO.P,Q1,2,S*%
%TO.N,EPD_RESE*%
X128437500Y-137825000D03*
%TO.P,Q1,3,D*%
%TO.N,Net-(D2-A)*%
X130312500Y-136875000D03*
%TD*%
D14*
%TO.P,R7,1*%
%TO.N,Net-(J2-CC2)*%
X94600000Y-139325000D03*
%TO.P,R7,2*%
%TO.N,GND*%
X94600000Y-137675000D03*
%TD*%
D15*
%TO.P,D5,1,K*%
%TO.N,Net-(D5-K)*%
X88800000Y-110875000D03*
%TO.P,D5,2,A*%
%TO.N,Net-(D5-A)*%
X88800000Y-109300000D03*
%TD*%
D14*
%TO.P,R6,1*%
%TO.N,Net-(J2-CC1)*%
X91100000Y-139325000D03*
%TO.P,R6,2*%
%TO.N,GND*%
X91100000Y-137675000D03*
%TD*%
D16*
%TO.P,C3,1*%
%TO.N,Net-(D2-A)*%
X130050000Y-141900000D03*
%TO.P,C3,2*%
%TO.N,Net-(D1-A)*%
X131600000Y-141900000D03*
%TD*%
D17*
%TO.P,R3,1*%
%TO.N,VBUS*%
X88800000Y-106050000D03*
%TO.P,R3,2*%
%TO.N,Net-(D5-A)*%
X88800000Y-107700000D03*
%TD*%
D18*
%TO.P,D4,1,K*%
%TO.N,Net-(D4-K)*%
X87750000Y-115375000D03*
%TO.P,D4,2,A*%
%TO.N,VBUS*%
X91050000Y-115375000D03*
%TD*%
D19*
%TO.P,R15,1*%
%TO.N,+3V3*%
X130675000Y-102325000D03*
%TO.P,R15,2*%
%TO.N,Net-(U1-EN{slash}CHIP_PU)*%
X129025000Y-102325000D03*
%TD*%
D20*
%TO.P,J1,1,MFCSB*%
%TO.N,unconnected-(J1-MFCSB-Pad1)*%
X118250000Y-140000000D03*
%TO.P,J1,2,GDR*%
%TO.N,EPD_GDR*%
X117750000Y-140000000D03*
%TO.P,J1,3,RESE*%
%TO.N,EPD_RESE*%
X117250000Y-140000000D03*
%TO.P,J1,4,VSL_LV*%
%TO.N,Net-(J1-VSL_LV)*%
X116750000Y-140000000D03*
%TO.P,J1,5,VSH_LV*%
%TO.N,Net-(J1-VSH_LV)*%
X116250000Y-140000000D03*
%TO.P,J1,6,TSCL*%
%TO.N,unconnected-(J1-TSCL-Pad6)*%
X115750000Y-140000000D03*
%TO.P,J1,7,TSDA*%
%TO.N,unconnected-(J1-TSDA-Pad7)*%
X115250000Y-140000000D03*
%TO.P,J1,8,BS*%
%TO.N,Net-(J1-BS)*%
X114750000Y-140000000D03*
%TO.P,J1,9,BUSY*%
%TO.N,EPD_BUSY*%
X114250000Y-140000000D03*
%TO.P,J1,10,RESET*%
%TO.N,EPD_RESET*%
X113750000Y-140000000D03*
%TO.P,J1,11,DC*%
%TO.N,Net-(J1-DC)*%
X113250000Y-140000000D03*
%TO.P,J1,12,CS*%
%TO.N,EPD_CS*%
X112750000Y-140000000D03*
%TO.P,J1,13,SCL*%
%TO.N,SCLK*%
X112250000Y-140000000D03*
%TO.P,J1,14,SDA*%
%TO.N,MOSI*%
X111750000Y-140000000D03*
%TO.P,J1,15,VDD_IO*%
%TO.N,+3V3*%
X111250000Y-140000000D03*
%TO.P,J1,16,VCI*%
X110750000Y-140000000D03*
%TO.P,J1,17,VSS*%
%TO.N,GND*%
X110250000Y-140000000D03*
%TO.P,J1,18,VDD*%
%TO.N,Net-(J1-VDD)*%
X109750000Y-140000000D03*
%TO.P,J1,19,FMSDO*%
%TO.N,unconnected-(J1-FMSDO-Pad19)*%
X109250000Y-140000000D03*
%TO.P,J1,20,VSH*%
%TO.N,Net-(J1-VSH)*%
X108750000Y-140000000D03*
%TO.P,J1,21,VGH*%
%TO.N,EPD_VGH*%
X108250000Y-140000000D03*
%TO.P,J1,22,VSL*%
%TO.N,Net-(J1-VSL)*%
X107750000Y-140000000D03*
%TO.P,J1,23,VGL*%
%TO.N,EPD_VGL*%
X107250000Y-140000000D03*
%TO.P,J1,24,VCOM*%
%TO.N,Net-(J1-VCOM)*%
X106750000Y-140000000D03*
D21*
%TO.P,J1,MP,MP*%
%TO.N,unconnected-(J1-PadMP)*%
X104850000Y-143250000D03*
X120150000Y-143250000D03*
%TD*%
D15*
%TO.P,D6,1,K*%
%TO.N,Net-(D6-K)*%
X90500000Y-110875000D03*
%TO.P,D6,2,A*%
%TO.N,Net-(D6-A)*%
X90500000Y-109300000D03*
%TD*%
D14*
%TO.P,R1,1*%
%TO.N,EPD_GDR*%
X126475000Y-135925000D03*
%TO.P,R1,2*%
%TO.N,GND*%
X126475000Y-134275000D03*
%TD*%
D19*
%TO.P,R12,1*%
%TO.N,Net-(U1-GPIO22)*%
X110525000Y-125050000D03*
%TO.P,R12,2*%
%TO.N,GND*%
X108875000Y-125050000D03*
%TD*%
D22*
%TO.P,L1,1,1*%
%TO.N,+3V3*%
X134125000Y-139750000D03*
%TO.P,L1,2,2*%
%TO.N,Net-(D2-A)*%
X134125000Y-136750000D03*
%TD*%
D23*
%TO.P,C17,1*%
%TO.N,Net-(U1-GPIO1{slash}ADC1_CH1{slash}XTAL_32K_N)*%
X119100000Y-105600000D03*
%TO.P,C17,2*%
%TO.N,GND*%
X117550000Y-105600000D03*
%TD*%
D11*
%TO.P,C9,1*%
%TO.N,GND*%
X110000000Y-135250000D03*
%TO.P,C9,2*%
%TO.N,Net-(J1-VDD)*%
X110000000Y-136800000D03*
%TD*%
D24*
%TO.P,C16,1*%
%TO.N,+3V3*%
X130075000Y-106750000D03*
%TO.P,C16,2*%
%TO.N,GND*%
X131975000Y-106750000D03*
%TD*%
D25*
%TO.P,SW2,1,1*%
%TO.N,GND*%
X99650000Y-103550000D03*
X107600000Y-103550000D03*
%TO.P,SW2,2,2*%
%TO.N,Net-(U1-EN{slash}CHIP_PU)*%
X99650000Y-108050000D03*
X107600000Y-108050000D03*
%TD*%
D26*
%TO.P,C14,1*%
%TO.N,VBAT*%
X89800000Y-92300000D03*
%TO.P,C14,2*%
%TO.N,GND*%
X89800000Y-90400000D03*
%TD*%
D19*
%TO.P,R14,1*%
%TO.N,Net-(U1-GPIO21)*%
X110525000Y-126700000D03*
%TO.P,R14,2*%
%TO.N,GND*%
X108875000Y-126700000D03*
%TD*%
D27*
%TO.P,U1,1,GND*%
%TO.N,GND*%
X131610000Y-109900000D03*
%TO.P,U1,2,3V3*%
%TO.N,+3V3*%
X130340000Y-109900000D03*
%TO.P,U1,3,EN/CHIP_PU*%
%TO.N,Net-(U1-EN{slash}CHIP_PU)*%
X129070000Y-109900000D03*
%TO.P,U1,4,MTMS/GPIO4/ADC1_CH4*%
%TO.N,EPD_CS*%
X127800000Y-109900000D03*
%TO.P,U1,5,MTDI/GPIO5/ADC1_CH5*%
%TO.N,Net-(U1-MTDI{slash}GPIO5{slash}ADC1_CH5)*%
X126530000Y-109900000D03*
%TO.P,U1,6,MTCK/GPIO6/ADC1_CH6*%
%TO.N,SCLK*%
X125260000Y-109900000D03*
%TO.P,U1,7,MTDO/GPIO7*%
%TO.N,MOSI*%
X123990000Y-109900000D03*
%TO.P,U1,8,GPIO0/ADC1_CH0/XTAL_32K_P*%
%TO.N,Net-(U1-GPIO0{slash}ADC1_CH0{slash}XTAL_32K_P)*%
X122720000Y-109900000D03*
%TO.P,U1,9,GPIO1/ADC1_CH1/XTAL_32K_N*%
%TO.N,Net-(U1-GPIO1{slash}ADC1_CH1{slash}XTAL_32K_N)*%
X121450000Y-109900000D03*
%TO.P,U1,10,GPIO8*%
%TO.N,unconnected-(U1-GPIO8-Pad10)*%
X120180000Y-109900000D03*
%TO.P,U1,11,GPIO10*%
%TO.N,unconnected-(U1-GPIO10-Pad11)*%
X118910000Y-109900000D03*
%TO.P,U1,12,GPIO11*%
%TO.N,unconnected-(U1-GPIO11-Pad12)*%
X117640000Y-109900000D03*
%TO.P,U1,13,GPIO12/USB_D-*%
%TO.N,USB_DM*%
X116370000Y-109900000D03*
%TO.P,U1,14,GPIO13/USB_D+*%
%TO.N,USB_DP*%
X115100000Y-109900000D03*
%TO.P,U1,15,GPIO9*%
%TO.N,Net-(U1-GPIO9)*%
X115100000Y-127400000D03*
%TO.P,U1,16,GPIO18*%
%TO.N,unconnected-(U1-GPIO18-Pad16)*%
X116370000Y-127400000D03*
%TO.P,U1,17,GPIO19*%
%TO.N,unconnected-(U1-GPIO19-Pad17)*%
X117640000Y-127400000D03*
%TO.P,U1,18,GPIO20*%
%TO.N,unconnected-(U1-GPIO20-Pad18)*%
X118910000Y-127400000D03*
%TO.P,U1,19,GPIO21*%
%TO.N,Net-(U1-GPIO21)*%
X120180000Y-127400000D03*
%TO.P,U1,20,GPIO22*%
%TO.N,Net-(U1-GPIO22)*%
X121450000Y-127400000D03*
%TO.P,U1,21,GPIO23*%
%TO.N,Net-(U1-GPIO23)*%
X122720000Y-127400000D03*
%TO.P,U1,22,NC*%
%TO.N,unconnected-(U1-NC-Pad22)*%
X123990000Y-127400000D03*
%TO.P,U1,23,GPIO15*%
%TO.N,unconnected-(U1-GPIO15-Pad23)*%
X125260000Y-127400000D03*
%TO.P,U1,24,U0RXD/GPIO17*%
%TO.N,unconnected-(U1-U0RXD{slash}GPIO17-Pad24)*%
X126530000Y-127400000D03*
%TO.P,U1,25,U0TXD/GPIO16*%
%TO.N,unconnected-(U1-U0TXD{slash}GPIO16-Pad25)*%
X127800000Y-127400000D03*
%TO.P,U1,26,GPIO3/ADC1_CH3*%
%TO.N,EPD_RESET*%
X129070000Y-127400000D03*
%TO.P,U1,27,GPIO2/ADC1_CH2*%
%TO.N,EPD_BUSY*%
X130340000Y-127400000D03*
%TO.P,U1,28,GND*%
%TO.N,GND*%
X131610000Y-127400000D03*
D28*
%TO.P,U1,29,GND*%
X127140000Y-115895000D03*
X125890000Y-115895000D03*
X124640000Y-115895000D03*
X127140000Y-117145000D03*
X125890000Y-117145000D03*
X124640000Y-117145000D03*
X127140000Y-118395000D03*
X125890000Y-118395000D03*
X124640000Y-118395000D03*
%TD*%
D25*
%TO.P,SW1,1,1*%
%TO.N,GND*%
X99650000Y-111950000D03*
X107600000Y-111950000D03*
%TO.P,SW1,2,2*%
%TO.N,Net-(U1-GPIO9)*%
X99650000Y-116450000D03*
X107600000Y-116450000D03*
%TD*%
D19*
%TO.P,R9,1*%
%TO.N,Net-(U1-GPIO0{slash}ADC1_CH0{slash}XTAL_32K_P)*%
X122925000Y-107700000D03*
%TO.P,R9,2*%
%TO.N,Net-(U1-GPIO1{slash}ADC1_CH1{slash}XTAL_32K_N)*%
X121275000Y-107700000D03*
%TD*%
D29*
%TO.P,C19,1*%
%TO.N,+3V3*%
X93600000Y-125400000D03*
%TO.P,C19,2*%
%TO.N,GND*%
X93600000Y-127300000D03*
%TD*%
D11*
%TO.P,C10,1*%
%TO.N,GND*%
X108400000Y-135250000D03*
%TO.P,C10,2*%
%TO.N,Net-(J1-VSH)*%
X108400000Y-136800000D03*
%TD*%
%TO.P,C5,1*%
%TO.N,GND*%
X117400000Y-135250000D03*
%TO.P,C5,2*%
%TO.N,Net-(J1-VSH_LV)*%
X117400000Y-136800000D03*
%TD*%
D30*
%TO.P,Q2,1,G*%
%TO.N,VBUS*%
X90300000Y-117900000D03*
%TO.P,Q2,2,S*%
%TO.N,Net-(D4-K)*%
X88400000Y-117900000D03*
%TO.P,Q2,3,D*%
%TO.N,VBAT*%
X89350000Y-119775000D03*
%TD*%
D31*
%TO.P,D2,1,K*%
%TO.N,EPD_VGH*%
X127675000Y-146575000D03*
%TO.P,D2,2,A*%
%TO.N,Net-(D2-A)*%
X127675000Y-143275000D03*
%TD*%
D11*
%TO.P,C12,1*%
%TO.N,GND*%
X105200000Y-135275000D03*
%TO.P,C12,2*%
%TO.N,Net-(J1-VCOM)*%
X105200000Y-136825000D03*
%TD*%
D32*
%TO.P,U3,1,GND*%
%TO.N,GND*%
X91250000Y-128600000D03*
D33*
%TO.P,U3,2,VIN*%
%TO.N,Net-(D4-K)*%
X91162500Y-127100000D03*
D32*
%TO.P,U3,3,VOUT*%
%TO.N,+3V3*%
X91250000Y-125600000D03*
%TD*%
D34*
%TO.P,C2,1*%
%TO.N,+3V3*%
X130850000Y-139750000D03*
%TO.P,C2,2*%
%TO.N,GND*%
X128950000Y-139750000D03*
%TD*%
D31*
%TO.P,D1,1,K*%
%TO.N,GND*%
X134200000Y-147025000D03*
%TO.P,D1,2,A*%
%TO.N,Net-(D1-A)*%
X134200000Y-143725000D03*
%TD*%
D17*
%TO.P,R2,1*%
%TO.N,EPD_RESE*%
X126487500Y-138050000D03*
%TO.P,R2,2*%
%TO.N,GND*%
X126487500Y-139700000D03*
%TD*%
%TO.P,R11,1*%
%TO.N,+3V3*%
X113550000Y-135175000D03*
%TO.P,R11,2*%
%TO.N,Net-(J1-DC)*%
X113550000Y-136825000D03*
%TD*%
%TO.P,R4,1*%
%TO.N,+3V3*%
X115800000Y-135200000D03*
%TO.P,R4,2*%
%TO.N,Net-(J1-BS)*%
X115800000Y-136850000D03*
%TD*%
D35*
%TO.P,U2,1,nCHRG*%
%TO.N,Net-(D5-K)*%
X90850000Y-101525000D03*
%TO.P,U2,2,GND*%
%TO.N,GND*%
X89900000Y-101525000D03*
%TO.P,U2,3,BAT*%
%TO.N,VBAT*%
X88950000Y-101525000D03*
%TO.P,U2,4,Vcc*%
%TO.N,VBUS*%
X88950000Y-103800000D03*
%TO.P,U2,5,nSTDBY*%
%TO.N,Net-(D6-K)*%
X89900000Y-103800000D03*
%TO.P,U2,6,PROG*%
%TO.N,Net-(U2-PROG)*%
X90850000Y-103800000D03*
%TD*%
D36*
%TO.P,D3,1,K*%
%TO.N,Net-(D1-A)*%
X131575000Y-143725000D03*
%TO.P,D3,2,A*%
%TO.N,EPD_VGL*%
X131575000Y-147025000D03*
%TD*%
D11*
%TO.P,C7,1*%
%TO.N,GND*%
X136250000Y-147000000D03*
%TO.P,C7,2*%
%TO.N,EPD_VGL*%
X136250000Y-148550000D03*
%TD*%
D17*
%TO.P,R10,1*%
%TO.N,VBUS*%
X90500000Y-106075000D03*
%TO.P,R10,2*%
%TO.N,Net-(D6-A)*%
X90500000Y-107725000D03*
%TD*%
D11*
%TO.P,C6,1*%
%TO.N,GND*%
X125500000Y-144925000D03*
%TO.P,C6,2*%
%TO.N,EPD_VGH*%
X125500000Y-146475000D03*
%TD*%
%TO.P,C11,1*%
%TO.N,GND*%
X106800000Y-135250000D03*
%TO.P,C11,2*%
%TO.N,Net-(J1-VSL)*%
X106800000Y-136800000D03*
%TD*%
D14*
%TO.P,R16,1*%
%TO.N,VBAT*%
X93400000Y-119625000D03*
%TO.P,R16,2*%
%TO.N,Net-(U1-MTDI{slash}GPIO5{slash}ADC1_CH5)*%
X93400000Y-117975000D03*
%TD*%
D19*
%TO.P,R13,1*%
%TO.N,Net-(U1-GPIO23)*%
X110525000Y-123425000D03*
%TO.P,R13,2*%
%TO.N,GND*%
X108875000Y-123425000D03*
%TD*%
D16*
%TO.P,C13,1*%
%TO.N,VBUS*%
X92725000Y-106000000D03*
%TO.P,C13,2*%
%TO.N,GND*%
X94275000Y-106000000D03*
%TD*%
D37*
%TO.P,Y1,1,1*%
%TO.N,Net-(U1-GPIO0{slash}ADC1_CH0{slash}XTAL_32K_P)*%
X123300000Y-105600000D03*
%TO.P,Y1,2,2*%
%TO.N,Net-(U1-GPIO1{slash}ADC1_CH1{slash}XTAL_32K_N)*%
X120800000Y-105600000D03*
%TD*%
D14*
%TO.P,R17,1*%
%TO.N,Net-(U1-MTDI{slash}GPIO5{slash}ADC1_CH5)*%
X93400000Y-116425000D03*
%TO.P,R17,2*%
%TO.N,GND*%
X93400000Y-114775000D03*
%TD*%
D16*
%TO.P,C18,1*%
%TO.N,Net-(U1-GPIO0{slash}ADC1_CH0{slash}XTAL_32K_P)*%
X125000000Y-105600000D03*
%TO.P,C18,2*%
%TO.N,GND*%
X126550000Y-105600000D03*
%TD*%
D12*
%TO.P,R8,1*%
%TO.N,Net-(U2-PROG)*%
X92675000Y-103900000D03*
%TO.P,R8,2*%
%TO.N,GND*%
X94325000Y-103900000D03*
%TD*%
D23*
%TO.P,C4,1*%
%TO.N,Net-(U1-EN{slash}CHIP_PU)*%
X127400000Y-102350000D03*
%TO.P,C4,2*%
%TO.N,GND*%
X125850000Y-102350000D03*
%TD*%
D34*
%TO.P,C20,1*%
%TO.N,+3V3*%
X104425000Y-131175000D03*
%TO.P,C20,2*%
%TO.N,GND*%
X102525000Y-131175000D03*
%TD*%
D24*
%TO.P,C1,1*%
%TO.N,Net-(D4-K)*%
X88400000Y-122100000D03*
%TO.P,C1,2*%
%TO.N,GND*%
X90300000Y-122100000D03*
%TD*%
D12*
%TO.P,R5,1*%
%TO.N,VBUS*%
X92675000Y-107800000D03*
%TO.P,R5,2*%
%TO.N,GND*%
X94325000Y-107800000D03*
%TD*%
D38*
%TO.P,J2,A1,GND*%
%TO.N,GND*%
X89550000Y-141930000D03*
%TO.P,J2,A4,VBUS*%
%TO.N,VBUS*%
X90350000Y-141930000D03*
D39*
%TO.P,J2,A5,CC1*%
%TO.N,Net-(J2-CC1)*%
X91550000Y-141930000D03*
%TO.P,J2,A6,D+*%
%TO.N,USB_DP*%
X92550000Y-141930000D03*
%TO.P,J2,A7,D-*%
%TO.N,USB_DM*%
X93050000Y-141930000D03*
%TO.P,J2,A8,SBU1*%
%TO.N,unconnected-(J2-SBU1-PadA8)*%
X94050000Y-141930000D03*
D38*
%TO.P,J2,A9,VBUS*%
%TO.N,VBUS*%
X95250000Y-141930000D03*
%TO.P,J2,A12,GND*%
%TO.N,GND*%
X96050000Y-141930000D03*
%TO.P,J2,B1,GND*%
X96050000Y-141930000D03*
%TO.P,J2,B4,VBUS*%
%TO.N,VBUS*%
X95250000Y-141930000D03*
D39*
%TO.P,J2,B5,CC2*%
%TO.N,Net-(J2-CC2)*%
X94550000Y-141930000D03*
%TO.P,J2,B6,D+*%
%TO.N,USB_DP*%
X93550000Y-141930000D03*
%TO.P,J2,B7,D-*%
%TO.N,USB_DM*%
X92050000Y-141930000D03*
%TO.P,J2,B8,SBU2*%
%TO.N,unconnected-(J2-SBU2-PadB8)*%
X91050000Y-141930000D03*
D38*
%TO.P,J2,B9,VBUS*%
%TO.N,VBUS*%
X90350000Y-141930000D03*
%TO.P,J2,B12,GND*%
%TO.N,GND*%
X89550000Y-141930000D03*
D40*
%TO.P,J2,S1,SHIELD*%
X88480000Y-142845000D03*
D41*
X88480000Y-147025000D03*
D40*
X97120000Y-142845000D03*
D41*
X97120000Y-147025000D03*
%TD*%
D42*
%TO.P,J3,1,Pin_1*%
%TO.N,GND*%
X89900000Y-97575000D03*
D43*
%TO.P,J3,2,Pin_2*%
%TO.N,VBAT*%
X89900000Y-95035000D03*
%TD*%
D44*
%TO.N,GND*%
X120400000Y-135175000D03*
X92700000Y-128600000D03*
X124575000Y-102025000D03*
X132000000Y-105000000D03*
X103500000Y-111900000D03*
X117600000Y-107900000D03*
X110300000Y-141400000D03*
X94400000Y-109100000D03*
X131600000Y-129200000D03*
X109550000Y-122125000D03*
X103250000Y-103575000D03*
X137225000Y-145850000D03*
X89700000Y-88900000D03*
X128100000Y-117100000D03*
X91100000Y-136400000D03*
X92300000Y-114200000D03*
X89800000Y-100000000D03*
X127725000Y-134325000D03*
X91100000Y-120500000D03*
X94900000Y-136600000D03*
X125525000Y-143750000D03*
X101375000Y-131175000D03*
X127650000Y-139650000D03*
X103950000Y-135250000D03*
X126475000Y-107150000D03*
%TO.N,VBUS*%
X87200000Y-130900000D03*
X95800000Y-140300000D03*
X89700000Y-140200000D03*
X91600000Y-118000000D03*
%TO.N,Net-(U1-GPIO9)*%
X105275000Y-119775000D03*
X107625000Y-124125000D03*
%TO.N,+3V3*%
X97962500Y-127237500D03*
X107653673Y-129421000D03*
X104400000Y-129725000D03*
X115875000Y-133525000D03*
X99457371Y-128732371D03*
X113550000Y-133525000D03*
%TO.N,Net-(D6-K)*%
X91800000Y-110800000D03*
X91500000Y-105000000D03*
%TD*%
D45*
%TO.N,GND*%
X124640000Y-118395000D02*
X125890000Y-118395000D01*
D46*
X136225000Y-147025000D02*
X136250000Y-147000000D01*
D45*
X99650000Y-111950000D02*
X103450000Y-111950000D01*
X125890000Y-118395000D02*
X127140000Y-118395000D01*
X90300000Y-122100000D02*
X90300000Y-121300000D01*
X92700000Y-128200000D02*
X93600000Y-127300000D01*
X125890000Y-115895000D02*
X127140000Y-115895000D01*
X124640000Y-115895000D02*
X125890000Y-115895000D01*
D46*
X120325000Y-135250000D02*
X120400000Y-135175000D01*
D45*
X127140000Y-118395000D02*
X127140000Y-117145000D01*
D46*
X108400000Y-135250000D02*
X110000000Y-135250000D01*
D45*
X94275000Y-107750000D02*
X94325000Y-107800000D01*
D46*
X126550000Y-107075000D02*
X126475000Y-107150000D01*
D45*
X103500000Y-111900000D02*
X103550000Y-111950000D01*
X131610000Y-107115000D02*
X131975000Y-106750000D01*
X124640000Y-117145000D02*
X125890000Y-117145000D01*
D46*
X136250000Y-147000000D02*
X136250000Y-146825000D01*
D45*
X125890000Y-117145000D02*
X127140000Y-117145000D01*
D46*
X128850000Y-139650000D02*
X128950000Y-139750000D01*
D45*
X91250000Y-128600000D02*
X92700000Y-128600000D01*
D46*
X124900000Y-102350000D02*
X124575000Y-102025000D01*
D45*
X94325000Y-107800000D02*
X94325000Y-109025000D01*
X131975000Y-106750000D02*
X131975000Y-105025000D01*
X127140000Y-117145000D02*
X128055000Y-117145000D01*
D46*
X93400000Y-114775000D02*
X92875000Y-114775000D01*
D45*
X131610000Y-127400000D02*
X131610000Y-129190000D01*
D46*
X96205000Y-142015000D02*
X97120000Y-142930000D01*
X93450000Y-114825000D02*
X93400000Y-114775000D01*
X91100000Y-137675000D02*
X91100000Y-136400000D01*
X127650000Y-139650000D02*
X128850000Y-139650000D01*
D45*
X94325000Y-105950000D02*
X94275000Y-106000000D01*
D46*
X110250000Y-140000000D02*
X110250000Y-141350000D01*
D45*
X102525000Y-131175000D02*
X101375000Y-131175000D01*
D46*
X126487500Y-139700000D02*
X127600000Y-139700000D01*
D45*
X94325000Y-109025000D02*
X94400000Y-109100000D01*
D46*
X108875000Y-123425000D02*
X108875000Y-122800000D01*
D45*
X131975000Y-105025000D02*
X132000000Y-105000000D01*
D46*
X126475000Y-134275000D02*
X127675000Y-134275000D01*
X127675000Y-134275000D02*
X127725000Y-134325000D01*
D45*
X99650000Y-103550000D02*
X103225000Y-103550000D01*
D46*
X134200000Y-147025000D02*
X136225000Y-147025000D01*
X117550000Y-107850000D02*
X117600000Y-107900000D01*
X125850000Y-102350000D02*
X124900000Y-102350000D01*
D45*
X103550000Y-111950000D02*
X107600000Y-111950000D01*
X127140000Y-117145000D02*
X127140000Y-115895000D01*
D46*
X117400000Y-135250000D02*
X119100000Y-135250000D01*
X105200000Y-135275000D02*
X106775000Y-135275000D01*
X125500000Y-144925000D02*
X125500000Y-143775000D01*
X103975000Y-135275000D02*
X103950000Y-135250000D01*
D45*
X103225000Y-103550000D02*
X103250000Y-103575000D01*
X92700000Y-128600000D02*
X92700000Y-128200000D01*
X103250000Y-103575000D02*
X103275000Y-103550000D01*
D46*
X117550000Y-105600000D02*
X117550000Y-107850000D01*
X127600000Y-139700000D02*
X127650000Y-139650000D01*
X92875000Y-114775000D02*
X92300000Y-114200000D01*
X94600000Y-137675000D02*
X94600000Y-136900000D01*
X108875000Y-122800000D02*
X109550000Y-122125000D01*
X94600000Y-136900000D02*
X94900000Y-136600000D01*
D45*
X131610000Y-108475000D02*
X131610000Y-107115000D01*
X103450000Y-111950000D02*
X103500000Y-111900000D01*
D46*
X125500000Y-143775000D02*
X125525000Y-143750000D01*
X96050000Y-142015000D02*
X96205000Y-142015000D01*
X110250000Y-141350000D02*
X110300000Y-141400000D01*
D45*
X94325000Y-103900000D02*
X94325000Y-105950000D01*
D46*
X108875000Y-125050000D02*
X108875000Y-123425000D01*
X89550000Y-142015000D02*
X89395000Y-142015000D01*
D45*
X89900000Y-101525000D02*
X89900000Y-100100000D01*
X117640000Y-107940000D02*
X117600000Y-107900000D01*
X131610000Y-109900000D02*
X131610000Y-108475000D01*
D46*
X105200000Y-135275000D02*
X103975000Y-135275000D01*
D45*
X128055000Y-117145000D02*
X128100000Y-117100000D01*
D46*
X106775000Y-135275000D02*
X106800000Y-135250000D01*
D45*
X131610000Y-129190000D02*
X131600000Y-129200000D01*
D46*
X126550000Y-105600000D02*
X126550000Y-107075000D01*
D45*
X103275000Y-103550000D02*
X107600000Y-103550000D01*
X94275000Y-106000000D02*
X94275000Y-107750000D01*
D46*
X106800000Y-135250000D02*
X108400000Y-135250000D01*
X95100000Y-114825000D02*
X93450000Y-114825000D01*
X108875000Y-126700000D02*
X108875000Y-125050000D01*
D45*
X90300000Y-121300000D02*
X91100000Y-120500000D01*
D46*
X136250000Y-146825000D02*
X137225000Y-145850000D01*
X119100000Y-135250000D02*
X120325000Y-135250000D01*
X89395000Y-142015000D02*
X88480000Y-142930000D01*
D45*
X89800000Y-89000000D02*
X89700000Y-88900000D01*
X89900000Y-100100000D02*
X89800000Y-100000000D01*
X89800000Y-90400000D02*
X89800000Y-89000000D01*
%TO.N,Net-(D2-A)*%
X129950000Y-141800000D02*
X130050000Y-141900000D01*
D46*
X130050000Y-141900000D02*
X129050000Y-141900000D01*
D45*
X130312500Y-136875000D02*
X129950000Y-137237500D01*
X134000000Y-136875000D02*
X134125000Y-136750000D01*
D46*
X129050000Y-141900000D02*
X127675000Y-143275000D01*
D45*
X129950000Y-137237500D02*
X129950000Y-141800000D01*
X130312500Y-136875000D02*
X134000000Y-136875000D01*
D46*
%TO.N,Net-(D1-A)*%
X131575000Y-143725000D02*
X134200000Y-143725000D01*
X131575000Y-143725000D02*
X131575000Y-141925000D01*
X131575000Y-141925000D02*
X131600000Y-141900000D01*
%TO.N,Net-(J1-VSH_LV)*%
X117150000Y-137050000D02*
X117400000Y-136800000D01*
X116250000Y-138700000D02*
X117400000Y-137550000D01*
X117400000Y-137550000D02*
X117400000Y-136800000D01*
X116250000Y-140000000D02*
X116250000Y-138700000D01*
%TO.N,EPD_VGH*%
X125600000Y-146575000D02*
X125500000Y-146475000D01*
X127675000Y-146575000D02*
X125600000Y-146575000D01*
X113411396Y-146475000D02*
X108250000Y-141313604D01*
X108250000Y-141313604D02*
X108250000Y-140000000D01*
X125500000Y-146475000D02*
X113411396Y-146475000D01*
%TO.N,EPD_VGL*%
X131650000Y-148550000D02*
X124400000Y-148550000D01*
X131575000Y-148475000D02*
X131650000Y-148550000D01*
X124400000Y-148550000D02*
X122900000Y-147050000D01*
X131575000Y-147025000D02*
X131575000Y-148475000D01*
X107250000Y-140950000D02*
X107250000Y-140000000D01*
X122900000Y-147050000D02*
X113350000Y-147050000D01*
X113350000Y-147050000D02*
X107250000Y-140950000D01*
X136250000Y-148550000D02*
X131650000Y-148550000D01*
%TO.N,Net-(J1-VSL_LV)*%
X116750000Y-139050000D02*
X119000000Y-136800000D01*
X116750000Y-140000000D02*
X116750000Y-139050000D01*
X119100000Y-137025000D02*
X119100000Y-136800000D01*
X119000000Y-136800000D02*
X119100000Y-136800000D01*
%TO.N,Net-(J1-VDD)*%
X109750000Y-140000000D02*
X109750000Y-137050000D01*
X109750000Y-137050000D02*
X110000000Y-136800000D01*
%TO.N,Net-(J1-VSH)*%
X108750000Y-140000000D02*
X108750000Y-137150000D01*
X108750000Y-137150000D02*
X108400000Y-136800000D01*
%TO.N,Net-(J1-VSL)*%
X107750000Y-140000000D02*
X107750000Y-138950000D01*
X107750000Y-138950000D02*
X106800000Y-138000000D01*
X106800000Y-138000000D02*
X106800000Y-136800000D01*
%TO.N,Net-(J1-VCOM)*%
X106750000Y-140000000D02*
X106750000Y-139250000D01*
X105200000Y-137700000D02*
X105200000Y-136825000D01*
X106750000Y-139250000D02*
X105200000Y-137700000D01*
D45*
%TO.N,VBUS*%
X95250000Y-142015000D02*
X95250000Y-140650000D01*
X90300000Y-117900000D02*
X90300000Y-116125000D01*
X88800000Y-106050000D02*
X87700000Y-107150000D01*
X91600000Y-118000000D02*
X90400000Y-118000000D01*
X88950000Y-105900000D02*
X88800000Y-106050000D01*
X92650000Y-106075000D02*
X92725000Y-106000000D01*
X87100000Y-131000000D02*
X87200000Y-130900000D01*
X89700000Y-140200000D02*
X87100000Y-137600000D01*
X88950000Y-103800000D02*
X88950000Y-105900000D01*
X92725000Y-107750000D02*
X92675000Y-107800000D01*
X95600000Y-140300000D02*
X95800000Y-140300000D01*
X87700000Y-112025000D02*
X91050000Y-115375000D01*
X87700000Y-107150000D02*
X87700000Y-112025000D01*
X88800000Y-106050000D02*
X90475000Y-106050000D01*
X90475000Y-106050000D02*
X90500000Y-106075000D01*
X87100000Y-137600000D02*
X87100000Y-131000000D01*
X90500000Y-106075000D02*
X92650000Y-106075000D01*
X89700000Y-140200000D02*
X90350000Y-140850000D01*
X92725000Y-106000000D02*
X92725000Y-107750000D01*
X90400000Y-118000000D02*
X90300000Y-117900000D01*
X95250000Y-140650000D02*
X95600000Y-140300000D01*
X90350000Y-140850000D02*
X90350000Y-142015000D01*
X90300000Y-116125000D02*
X91050000Y-115375000D01*
%TO.N,VBAT*%
X87100000Y-112800000D02*
X87100000Y-106500000D01*
D46*
X93400000Y-119625000D02*
X89500000Y-119625000D01*
D45*
X88565000Y-95035000D02*
X87600000Y-96000000D01*
X87600000Y-100175000D02*
X88950000Y-101525000D01*
X89350000Y-115050000D02*
X87100000Y-112800000D01*
D46*
X89500000Y-119625000D02*
X89350000Y-119775000D01*
D45*
X87100000Y-106500000D02*
X87600000Y-106000000D01*
X89900000Y-95035000D02*
X88565000Y-95035000D01*
X87600000Y-96000000D02*
X87600000Y-100175000D01*
X89900000Y-92400000D02*
X89800000Y-92300000D01*
X89900000Y-95035000D02*
X89900000Y-92400000D01*
X87600000Y-106000000D02*
X87600000Y-100175000D01*
X89350000Y-119775000D02*
X89350000Y-115050000D01*
%TO.N,Net-(D4-K)*%
X89500000Y-127100000D02*
X88400000Y-126000000D01*
X88400000Y-126000000D02*
X88400000Y-122100000D01*
X87750000Y-115375000D02*
X87750000Y-117900000D01*
X87750000Y-117900000D02*
X88400000Y-117900000D01*
X91162500Y-127100000D02*
X89500000Y-127100000D01*
X87750000Y-121450000D02*
X88400000Y-122100000D01*
X87750000Y-117900000D02*
X87750000Y-121450000D01*
D46*
%TO.N,EPD_GDR*%
X121850000Y-136625000D02*
X125775000Y-136625000D01*
X117750000Y-139025000D02*
X118725000Y-138050000D01*
X126475000Y-135925000D02*
X128437500Y-135925000D01*
X120425000Y-138050000D02*
X121850000Y-136625000D01*
X118725000Y-138050000D02*
X120425000Y-138050000D01*
X117750000Y-140000000D02*
X117750000Y-139025000D01*
X125775000Y-136625000D02*
X126475000Y-135925000D01*
%TO.N,EPD_RESE*%
X117300000Y-141325000D02*
X119600000Y-141325000D01*
X128212500Y-138050000D02*
X128437500Y-137825000D01*
X117250000Y-140000000D02*
X117250000Y-141275000D01*
X122875000Y-138050000D02*
X126487500Y-138050000D01*
X117250000Y-141275000D02*
X117300000Y-141325000D01*
X126487500Y-138050000D02*
X128212500Y-138050000D01*
X119600000Y-141325000D02*
X122875000Y-138050000D01*
%TO.N,Net-(J1-BS)*%
X114750000Y-140000000D02*
X114750000Y-138500000D01*
X115650000Y-136900000D02*
X115700000Y-136850000D01*
X114750000Y-138500000D02*
X115800000Y-137450000D01*
X115800000Y-137450000D02*
X115800000Y-136850000D01*
%TO.N,EPD_BUSY*%
X116111396Y-129925000D02*
X129725000Y-129925000D01*
X114800000Y-137813604D02*
X114800000Y-131236396D01*
X114800000Y-131236396D02*
X116111396Y-129925000D01*
X129725000Y-129925000D02*
X130340000Y-129310000D01*
X114250000Y-138363604D02*
X114800000Y-137813604D01*
X130340000Y-129310000D02*
X130340000Y-127400000D01*
X114250000Y-140000000D02*
X114250000Y-138363604D01*
%TO.N,EPD_RESET*%
X115950000Y-129450000D02*
X128425000Y-129450000D01*
X113750000Y-140000000D02*
X113750000Y-138227208D01*
X114350000Y-137627208D02*
X114350000Y-131050000D01*
X114350000Y-131050000D02*
X115950000Y-129450000D01*
X128425000Y-129450000D02*
X129070000Y-128805000D01*
X113750000Y-138227208D02*
X114350000Y-137627208D01*
X129070000Y-128805000D02*
X129070000Y-127400000D01*
%TO.N,EPD_CS*%
X107636211Y-130146000D02*
X107353368Y-130146000D01*
X112750000Y-134484746D02*
X108715254Y-130450000D01*
X108715254Y-130450000D02*
X108476996Y-130450000D01*
X107665211Y-130175000D02*
X107636211Y-130146000D01*
X108201996Y-130175000D02*
X107665211Y-130175000D01*
X112750000Y-140000000D02*
X112750000Y-134484746D01*
X127800000Y-111600000D02*
X127800000Y-109900000D01*
X107353368Y-130146000D02*
X106025000Y-128817632D01*
X108476996Y-130450000D02*
X108201996Y-130175000D01*
X106025000Y-123132538D02*
X114587538Y-114570000D01*
X114587538Y-114570000D02*
X124830000Y-114570000D01*
X106025000Y-128817632D02*
X106025000Y-123132538D01*
X124830000Y-114570000D02*
X127800000Y-111600000D01*
%TO.N,SCLK*%
X122610000Y-113550000D02*
X125260000Y-110900000D01*
X114971142Y-113550000D02*
X122610000Y-113550000D01*
X105575000Y-122946142D02*
X114971142Y-113550000D01*
X105575000Y-129004028D02*
X105575000Y-122946142D01*
X108290600Y-130900000D02*
X108015600Y-130625000D01*
X125260000Y-110900000D02*
X125260000Y-109900000D01*
X112250000Y-140000000D02*
X112250000Y-134621142D01*
X107449815Y-130596000D02*
X107166972Y-130596000D01*
X108015600Y-130625000D02*
X107478815Y-130625000D01*
X108528858Y-130900000D02*
X108290600Y-130900000D01*
X107478815Y-130625000D02*
X107449815Y-130596000D01*
X107166972Y-130596000D02*
X105575000Y-129004028D01*
X112250000Y-134621142D02*
X108528858Y-130900000D01*
%TO.N,MOSI*%
X107263419Y-131046000D02*
X106980576Y-131046000D01*
X108104204Y-131350000D02*
X107829204Y-131075000D01*
X108342462Y-131350000D02*
X108104204Y-131350000D01*
X111750000Y-140000000D02*
X111750000Y-134757538D01*
X105125000Y-122759746D02*
X116586142Y-111298604D01*
X111750000Y-134757538D02*
X108342462Y-131350000D01*
X107829204Y-131075000D02*
X107292419Y-131075000D01*
X123591396Y-111298604D02*
X123990000Y-110900000D01*
X116586142Y-111298604D02*
X123591396Y-111298604D01*
X123990000Y-110900000D02*
X123990000Y-109900000D01*
X107292419Y-131075000D02*
X107263419Y-131046000D01*
X105125000Y-129190424D02*
X105125000Y-122759746D01*
X106980576Y-131046000D02*
X105125000Y-129190424D01*
%TO.N,Net-(J2-CC1)*%
X91550000Y-142015000D02*
X91550000Y-139775000D01*
X91550000Y-139775000D02*
X91100000Y-139325000D01*
%TO.N,USB_DP*%
X92550000Y-142015000D02*
X92550000Y-141050000D01*
X93400000Y-140700000D02*
X92500000Y-139800000D01*
X92500000Y-139800000D02*
X92500000Y-134588069D01*
X92550000Y-141050000D02*
X92900000Y-140700000D01*
X92500000Y-134588069D02*
X115100000Y-111988069D01*
X93550000Y-140850000D02*
X93550000Y-142015000D01*
X93400000Y-140700000D02*
X93550000Y-140850000D01*
X115100000Y-111988069D02*
X115100000Y-109900000D01*
X92900000Y-140700000D02*
X93400000Y-140700000D01*
%TO.N,USB_DM*%
X92050000Y-142015000D02*
X92050000Y-134401673D01*
X92050000Y-143050000D02*
X92050000Y-142015000D01*
X114650000Y-108500000D02*
X115970000Y-108500000D01*
X92300000Y-143300000D02*
X92050000Y-143050000D01*
X92800000Y-143300000D02*
X92300000Y-143300000D01*
X92050000Y-134401673D02*
X114325000Y-112126673D01*
X116370000Y-108900000D02*
X116370000Y-109900000D01*
X115970000Y-108500000D02*
X116370000Y-108900000D01*
X93050000Y-143050000D02*
X92800000Y-143300000D01*
X114325000Y-112126673D02*
X114325000Y-108825000D01*
X93050000Y-142015000D02*
X93050000Y-143050000D01*
X114325000Y-108825000D02*
X114650000Y-108500000D01*
%TO.N,Net-(J2-CC2)*%
X94550000Y-139375000D02*
X94600000Y-139325000D01*
X94550000Y-142015000D02*
X94550000Y-139375000D01*
%TO.N,Net-(U2-PROG)*%
X90850000Y-103800000D02*
X92575000Y-103800000D01*
X92575000Y-103800000D02*
X92675000Y-103900000D01*
%TO.N,Net-(U1-GPIO0{slash}ADC1_CH0{slash}XTAL_32K_P)*%
X122925000Y-105975000D02*
X123300000Y-105600000D01*
X122720000Y-109900000D02*
X122720000Y-107905000D01*
X122720000Y-107905000D02*
X122925000Y-107700000D01*
X122925000Y-107700000D02*
X122925000Y-105975000D01*
X123300000Y-105600000D02*
X125000000Y-105600000D01*
%TO.N,Net-(U1-GPIO1{slash}ADC1_CH1{slash}XTAL_32K_N)*%
X119100000Y-105600000D02*
X120800000Y-105600000D01*
X121275000Y-107700000D02*
X121275000Y-106075000D01*
X121450000Y-109900000D02*
X121450000Y-107875000D01*
X121450000Y-107875000D02*
X121275000Y-107700000D01*
X121275000Y-106075000D02*
X120800000Y-105600000D01*
%TO.N,Net-(U1-GPIO9)*%
X110550000Y-129650000D02*
X108850000Y-127950000D01*
X112800000Y-127400000D02*
X115100000Y-127400000D01*
X105275000Y-119775000D02*
X107600000Y-117450000D01*
X110550000Y-129650000D02*
X112800000Y-127400000D01*
X107625000Y-126725000D02*
X107625000Y-124125000D01*
X107600000Y-117450000D02*
X107600000Y-116450000D01*
X99650000Y-116450000D02*
X107600000Y-116450000D01*
X108850000Y-127950000D02*
X107625000Y-126725000D01*
D45*
%TO.N,+3V3*%
X130340000Y-111160000D02*
X126405000Y-115095000D01*
X130340000Y-109900000D02*
X130340000Y-111160000D01*
X108125000Y-131875000D02*
X105125000Y-131875000D01*
X104425000Y-131175000D02*
X104425000Y-129750000D01*
X113550000Y-133525000D02*
X113550000Y-135175000D01*
X96125000Y-125400000D02*
X97962500Y-127237500D01*
X103407371Y-128732371D02*
X99457371Y-128732371D01*
X115925000Y-133475000D02*
X134400000Y-133475000D01*
X93600000Y-125400000D02*
X96125000Y-125400000D01*
X134400000Y-133475000D02*
X137025000Y-136100000D01*
X114955000Y-115095000D02*
X106750000Y-123300000D01*
X111100000Y-138250000D02*
X111100000Y-134850000D01*
X113550000Y-132625000D02*
X113550000Y-133525000D01*
X108900000Y-129650000D02*
X107882673Y-129650000D01*
D46*
X130675000Y-106150000D02*
X130075000Y-106750000D01*
X110750000Y-140000000D02*
X110750000Y-138350000D01*
X110750000Y-138350000D02*
X110800000Y-138300000D01*
D45*
X93400000Y-125600000D02*
X93600000Y-125400000D01*
X105125000Y-131875000D02*
X104425000Y-131175000D01*
X136450000Y-139750000D02*
X134125000Y-139750000D01*
X130850000Y-139750000D02*
X134125000Y-139750000D01*
X130340000Y-107015000D02*
X130075000Y-106750000D01*
X115800000Y-133600000D02*
X115875000Y-133525000D01*
X126405000Y-115095000D02*
X114955000Y-115095000D01*
D46*
X111250000Y-138686396D02*
X111250000Y-140000000D01*
D45*
X106750000Y-128517327D02*
X107653673Y-129421000D01*
D46*
X110800000Y-138300000D02*
X110863604Y-138300000D01*
D45*
X109975000Y-130725000D02*
X111650000Y-130725000D01*
X91250000Y-125600000D02*
X93400000Y-125600000D01*
X130340000Y-109900000D02*
X130340000Y-107015000D01*
X111650000Y-130725000D02*
X113550000Y-132625000D01*
X137025000Y-136100000D02*
X137025000Y-139175000D01*
X104425000Y-129750000D02*
X104400000Y-129725000D01*
X107882673Y-129650000D02*
X107653673Y-129421000D01*
X115875000Y-133525000D02*
X115925000Y-133475000D01*
X110956802Y-138393198D02*
X111100000Y-138250000D01*
X104400000Y-129725000D02*
X103407371Y-128732371D01*
D46*
X110956802Y-138393198D02*
X111250000Y-138686396D01*
D45*
X108900000Y-129650000D02*
X109975000Y-130725000D01*
X111100000Y-134850000D02*
X108125000Y-131875000D01*
X106750000Y-123300000D02*
X106750000Y-128517327D01*
X115800000Y-135200000D02*
X115800000Y-133600000D01*
D46*
X110863604Y-138300000D02*
X110956802Y-138393198D01*
D45*
X137025000Y-139175000D02*
X136450000Y-139750000D01*
D46*
X130675000Y-102325000D02*
X130675000Y-106150000D01*
%TO.N,Net-(U1-EN{slash}CHIP_PU)*%
X107600000Y-108050000D02*
X110075000Y-108050000D01*
X99650000Y-108050000D02*
X107600000Y-108050000D01*
X126225000Y-101175000D02*
X127400000Y-102350000D01*
X116950000Y-101175000D02*
X126225000Y-101175000D01*
X129025000Y-102325000D02*
X127425000Y-102325000D01*
X129070000Y-102370000D02*
X129025000Y-102325000D01*
X127425000Y-102325000D02*
X127400000Y-102350000D01*
X129070000Y-109900000D02*
X129070000Y-102370000D01*
X110075000Y-108050000D02*
X116950000Y-101175000D01*
%TO.N,Net-(U1-MTDI{slash}GPIO5{slash}ADC1_CH5)*%
X93400000Y-116425000D02*
X95050000Y-116425000D01*
X128175000Y-104375000D02*
X127675000Y-103875000D01*
X126530000Y-109900000D02*
X126530000Y-108945000D01*
X93400000Y-117975000D02*
X93400000Y-116425000D01*
X98825000Y-109925000D02*
X97975000Y-110775000D01*
X127675000Y-103875000D02*
X115350000Y-103875000D01*
X109300000Y-109925000D02*
X98825000Y-109925000D01*
X95050000Y-116425000D02*
X95100000Y-116375000D01*
X115350000Y-103875000D02*
X109300000Y-109925000D01*
X126530000Y-108945000D02*
X128175000Y-107300000D01*
X97975000Y-113500000D02*
X95100000Y-116375000D01*
X97975000Y-110775000D02*
X97975000Y-113500000D01*
X128175000Y-107300000D02*
X128175000Y-104375000D01*
%TO.N,Net-(D5-K)*%
X93300000Y-112100000D02*
X90025000Y-112100000D01*
X94900000Y-102400000D02*
X95900000Y-103400000D01*
X90850000Y-101525000D02*
X91725000Y-102400000D01*
X95900000Y-109500000D02*
X93300000Y-112100000D01*
X91725000Y-102400000D02*
X94900000Y-102400000D01*
X95900000Y-103400000D02*
X95900000Y-109500000D01*
X90025000Y-112100000D02*
X88800000Y-110875000D01*
D45*
%TO.N,Net-(D5-A)*%
X88800000Y-107700000D02*
X88800000Y-109300000D01*
D46*
%TO.N,Net-(D6-K)*%
X89900000Y-103800000D02*
X89900000Y-104800000D01*
X91800000Y-110800000D02*
X90575000Y-110800000D01*
X90100000Y-105000000D02*
X91500000Y-105000000D01*
X89900000Y-104800000D02*
X90100000Y-105000000D01*
X90575000Y-110800000D02*
X90500000Y-110875000D01*
D45*
%TO.N,Net-(D6-A)*%
X90500000Y-107725000D02*
X90500000Y-109300000D01*
D46*
%TO.N,Net-(J1-DC)*%
X113250000Y-137125000D02*
X113550000Y-136825000D01*
X113250000Y-140000000D02*
X113250000Y-137125000D01*
X113600000Y-136875000D02*
X113550000Y-136825000D01*
%TO.N,Net-(U1-GPIO22)*%
X120100000Y-125050000D02*
X121450000Y-126400000D01*
X121450000Y-126400000D02*
X121450000Y-127400000D01*
X110525000Y-125050000D02*
X120100000Y-125050000D01*
%TO.N,Net-(U1-GPIO23)*%
X122720000Y-126400000D02*
X122720000Y-127400000D01*
X110525000Y-123425000D02*
X119745000Y-123425000D01*
X119745000Y-123425000D02*
X122720000Y-126400000D01*
%TO.N,Net-(U1-GPIO21)*%
X120180000Y-126400000D02*
X120180000Y-127400000D01*
X119455000Y-125675000D02*
X120180000Y-126400000D01*
X112525000Y-126700000D02*
X113550000Y-125675000D01*
X113550000Y-125675000D02*
X119455000Y-125675000D01*
X110525000Y-126700000D02*
X112525000Y-126700000D01*
%TD*%
M02*
