%TF.GenerationSoftware,KiCad,Pcbnew,7.0.10+dfsg-1*%
%TF.CreationDate,2024-02-28T21:18:20+08:00*%
%TF.ProjectId,eink_digit_clk,65696e6b-5f64-4696-9769-745f636c6b2e,rev?*%
%TF.SameCoordinates,Original*%
%TF.FileFunction,Copper,L2,Bot*%
%TF.FilePolarity,Positive*%
%FSLAX46Y46*%
G04 Gerber Fmt 4.6, Leading zero omitted, Abs format (unit mm)*
G04 Created by KiCad (PCBNEW 7.0.10+dfsg-1) date 2024-02-28 21:18:20*
%MOMM*%
%LPD*%
G01*
G04 APERTURE LIST*
%TA.AperFunction,ComponentPad*%
%ADD10O,1.000000X2.100000*%
%TD*%
%TA.AperFunction,ComponentPad*%
%ADD11O,1.000000X1.600000*%
%TD*%
%TA.AperFunction,ComponentPad*%
%ADD12R,1.700000X1.700000*%
%TD*%
%TA.AperFunction,ComponentPad*%
%ADD13O,1.700000X1.700000*%
%TD*%
%TA.AperFunction,ViaPad*%
%ADD14C,0.800000*%
%TD*%
%TA.AperFunction,Conductor*%
%ADD15C,0.400000*%
%TD*%
%TA.AperFunction,Conductor*%
%ADD16C,0.250000*%
%TD*%
G04 APERTURE END LIST*
D10*
%TO.P,J2,S1,SHIELD*%
%TO.N,GND*%
X88480000Y-142845000D03*
D11*
X88480000Y-147025000D03*
D10*
X97120000Y-142845000D03*
D11*
X97120000Y-147025000D03*
%TD*%
D12*
%TO.P,J3,1,Pin_1*%
%TO.N,GND*%
X89900000Y-97575000D03*
D13*
%TO.P,J3,2,Pin_2*%
%TO.N,VBAT*%
X89900000Y-95035000D03*
%TD*%
D14*
%TO.N,GND*%
X120400000Y-135175000D03*
X92700000Y-128600000D03*
X124575000Y-102025000D03*
X132000000Y-105000000D03*
X103500000Y-111900000D03*
X117600000Y-107900000D03*
X110300000Y-141400000D03*
X94400000Y-109100000D03*
X131600000Y-129200000D03*
X109550000Y-122125000D03*
X103250000Y-103575000D03*
X137225000Y-145850000D03*
X89700000Y-88900000D03*
X128100000Y-117100000D03*
X91100000Y-136400000D03*
X92300000Y-114200000D03*
X89800000Y-100000000D03*
X127725000Y-134325000D03*
X91100000Y-120500000D03*
X94900000Y-136600000D03*
X125525000Y-143750000D03*
X101375000Y-131175000D03*
X127650000Y-139650000D03*
X103950000Y-135250000D03*
X126475000Y-107150000D03*
%TO.N,VBUS*%
X87200000Y-130900000D03*
X95800000Y-140300000D03*
X89700000Y-140200000D03*
X91600000Y-118000000D03*
%TO.N,Net-(U1-GPIO9)*%
X105275000Y-119775000D03*
X107625000Y-124125000D03*
%TO.N,+3V3*%
X97962500Y-127237500D03*
X107653673Y-129421000D03*
X104400000Y-129725000D03*
X115875000Y-133525000D03*
X99457371Y-128732371D03*
X113550000Y-133525000D03*
%TO.N,Net-(D6-K)*%
X91800000Y-110800000D03*
X91500000Y-105000000D03*
%TD*%
D15*
%TO.N,VBUS*%
X89700000Y-118000000D02*
X91600000Y-118000000D01*
X87200000Y-130900000D02*
X87200000Y-120500000D01*
X95800000Y-140300000D02*
X89800000Y-140300000D01*
X89800000Y-140300000D02*
X89700000Y-140200000D01*
X87200000Y-120500000D02*
X89700000Y-118000000D01*
D16*
%TO.N,Net-(U1-GPIO9)*%
X107625000Y-124125000D02*
X107625000Y-122125000D01*
X107625000Y-122125000D02*
X105275000Y-119775000D01*
D15*
%TO.N,+3V3*%
X104400000Y-129725000D02*
X107349673Y-129725000D01*
X107349673Y-129725000D02*
X107653673Y-129421000D01*
X115875000Y-133525000D02*
X113550000Y-133525000D01*
X99457371Y-128732371D02*
X97962500Y-127237500D01*
D16*
%TO.N,Net-(D6-K)*%
X91500000Y-110500000D02*
X91800000Y-110800000D01*
X91500000Y-105000000D02*
X91500000Y-110500000D01*
%TD*%
%TA.AperFunction,Conductor*%
%TO.N,GND*%
G36*
X139442539Y-57020185D02*
G01*
X139488294Y-57072989D01*
X139499500Y-57124500D01*
X139499500Y-103376000D01*
X139479815Y-103443039D01*
X139427011Y-103488794D01*
X139375500Y-103500000D01*
X132500000Y-103500000D01*
X132500000Y-133000000D01*
X139375500Y-133000000D01*
X139442539Y-133019685D01*
X139488294Y-133072489D01*
X139499500Y-133124000D01*
X139499500Y-149875500D01*
X139479815Y-149942539D01*
X139427011Y-149988294D01*
X139375500Y-149999500D01*
X120124500Y-149999500D01*
X120057461Y-149979815D01*
X120011706Y-149927011D01*
X120000500Y-149875500D01*
X120000500Y-149324759D01*
X120000528Y-149324616D01*
X120000524Y-149324616D01*
X120000539Y-149300002D01*
X120000541Y-149300000D01*
X120000462Y-149299808D01*
X120000384Y-149299618D01*
X120000380Y-149299614D01*
X120000194Y-149299538D01*
X120000002Y-149299459D01*
X119975446Y-149299459D01*
X119975240Y-149299500D01*
X104924760Y-149299500D01*
X104924554Y-149299459D01*
X104899998Y-149299459D01*
X104899807Y-149299538D01*
X104899619Y-149299615D01*
X104899615Y-149299618D01*
X104899459Y-149299999D01*
X104899476Y-149324616D01*
X104899471Y-149324616D01*
X104899500Y-149324759D01*
X104899500Y-149875500D01*
X104879815Y-149942539D01*
X104827011Y-149988294D01*
X104775500Y-149999500D01*
X86624500Y-149999500D01*
X86557461Y-149979815D01*
X86511706Y-149927011D01*
X86500500Y-149875500D01*
X86500500Y-147375713D01*
X87480000Y-147375713D01*
X87495418Y-147527338D01*
X87556299Y-147721381D01*
X87556304Y-147721391D01*
X87655005Y-147899215D01*
X87655005Y-147899216D01*
X87787478Y-148053530D01*
X87787479Y-148053531D01*
X87948304Y-148178018D01*
X88130907Y-148267589D01*
X88230000Y-148293244D01*
X88230000Y-147491110D01*
X88254457Y-147530610D01*
X88343962Y-147598201D01*
X88451840Y-147628895D01*
X88563521Y-147618546D01*
X88663922Y-147568552D01*
X88730000Y-147496069D01*
X88730000Y-148298365D01*
X88731944Y-148298069D01*
X88731945Y-148298069D01*
X88922660Y-148227436D01*
X88922664Y-148227434D01*
X89095267Y-148119850D01*
X89242668Y-147979735D01*
X89242669Y-147979733D01*
X89358856Y-147812804D01*
X89439059Y-147625907D01*
X89480000Y-147426690D01*
X89480000Y-147375713D01*
X96120000Y-147375713D01*
X96135418Y-147527338D01*
X96196299Y-147721381D01*
X96196304Y-147721391D01*
X96295005Y-147899215D01*
X96295005Y-147899216D01*
X96427478Y-148053530D01*
X96427479Y-148053531D01*
X96588304Y-148178018D01*
X96770907Y-148267589D01*
X96870000Y-148293244D01*
X96870000Y-147491110D01*
X96894457Y-147530610D01*
X96983962Y-147598201D01*
X97091840Y-147628895D01*
X97203521Y-147618546D01*
X97303922Y-147568552D01*
X97370000Y-147496069D01*
X97370000Y-148298366D01*
X97371944Y-148298069D01*
X97371945Y-148298069D01*
X97562660Y-148227436D01*
X97562664Y-148227434D01*
X97735267Y-148119850D01*
X97882668Y-147979735D01*
X97882669Y-147979733D01*
X97998856Y-147812804D01*
X98079059Y-147625907D01*
X98120000Y-147426690D01*
X98120000Y-147275000D01*
X97420000Y-147275000D01*
X97420000Y-146775000D01*
X98120000Y-146775000D01*
X98120000Y-146674286D01*
X98104581Y-146522661D01*
X98043700Y-146328618D01*
X98043695Y-146328608D01*
X97944994Y-146150784D01*
X97944994Y-146150783D01*
X97812521Y-145996469D01*
X97812520Y-145996468D01*
X97651695Y-145871981D01*
X97469093Y-145782411D01*
X97370000Y-145756753D01*
X97370000Y-146558889D01*
X97345543Y-146519390D01*
X97256038Y-146451799D01*
X97148160Y-146421105D01*
X97036479Y-146431454D01*
X96936078Y-146481448D01*
X96870000Y-146553930D01*
X96870000Y-145751633D01*
X96868053Y-145751931D01*
X96868047Y-145751933D01*
X96677342Y-145822562D01*
X96677335Y-145822565D01*
X96504732Y-145930149D01*
X96357331Y-146070264D01*
X96357330Y-146070266D01*
X96241143Y-146237195D01*
X96160940Y-146424092D01*
X96120000Y-146623309D01*
X96120000Y-146775000D01*
X96820000Y-146775000D01*
X96820000Y-147275000D01*
X96120000Y-147275000D01*
X96120000Y-147375713D01*
X89480000Y-147375713D01*
X89480000Y-147275000D01*
X88780000Y-147275000D01*
X88780000Y-146775000D01*
X89480000Y-146775000D01*
X89480000Y-146674286D01*
X89464581Y-146522661D01*
X89403700Y-146328618D01*
X89403695Y-146328608D01*
X89304994Y-146150784D01*
X89304994Y-146150783D01*
X89172521Y-145996469D01*
X89172520Y-145996468D01*
X89011695Y-145871981D01*
X88829093Y-145782411D01*
X88730000Y-145756753D01*
X88730000Y-146558889D01*
X88705543Y-146519390D01*
X88616038Y-146451799D01*
X88508160Y-146421105D01*
X88396479Y-146431454D01*
X88296078Y-146481448D01*
X88230000Y-146553930D01*
X88230000Y-145751633D01*
X88228053Y-145751931D01*
X88228047Y-145751933D01*
X88037342Y-145822562D01*
X88037335Y-145822565D01*
X87864732Y-145930149D01*
X87717331Y-146070264D01*
X87717330Y-146070266D01*
X87601143Y-146237195D01*
X87520940Y-146424092D01*
X87480000Y-146623309D01*
X87480000Y-146775000D01*
X88180000Y-146775000D01*
X88180000Y-147275000D01*
X87480000Y-147275000D01*
X87480000Y-147375713D01*
X86500500Y-147375713D01*
X86500500Y-143445713D01*
X87480000Y-143445713D01*
X87495418Y-143597338D01*
X87556299Y-143791381D01*
X87556304Y-143791391D01*
X87655005Y-143969215D01*
X87655005Y-143969216D01*
X87787478Y-144123530D01*
X87787479Y-144123531D01*
X87948304Y-144248018D01*
X88130907Y-144337589D01*
X88230000Y-144363244D01*
X88230000Y-143561110D01*
X88254457Y-143600610D01*
X88343962Y-143668201D01*
X88451840Y-143698895D01*
X88563521Y-143688546D01*
X88663922Y-143638552D01*
X88730000Y-143566069D01*
X88730000Y-144368365D01*
X88731944Y-144368069D01*
X88731945Y-144368069D01*
X88922660Y-144297436D01*
X88922664Y-144297434D01*
X89095267Y-144189850D01*
X89242668Y-144049735D01*
X89242669Y-144049733D01*
X89358854Y-143882806D01*
X89360604Y-143878729D01*
X89405125Y-143824881D01*
X89471691Y-143803650D01*
X89539168Y-143821778D01*
X89550046Y-143829241D01*
X89617749Y-143881191D01*
X89617752Y-143881193D01*
X89649686Y-143894420D01*
X89758720Y-143939584D01*
X89815370Y-143947042D01*
X89872019Y-143954500D01*
X89872020Y-143954500D01*
X89947981Y-143954500D01*
X89985746Y-143949528D01*
X90061280Y-143939584D01*
X90202250Y-143881192D01*
X90323304Y-143788304D01*
X90416192Y-143667250D01*
X90474584Y-143526280D01*
X90494500Y-143375001D01*
X95105500Y-143375001D01*
X95125415Y-143526278D01*
X95125416Y-143526280D01*
X95183806Y-143667247D01*
X95183807Y-143667249D01*
X95183808Y-143667250D01*
X95276696Y-143788304D01*
X95397750Y-143881192D01*
X95397751Y-143881192D01*
X95397752Y-143881193D01*
X95429686Y-143894420D01*
X95538720Y-143939584D01*
X95595370Y-143947042D01*
X95652019Y-143954500D01*
X95652020Y-143954500D01*
X95727981Y-143954500D01*
X95765746Y-143949528D01*
X95841280Y-143939584D01*
X95982250Y-143881192D01*
X96053220Y-143826734D01*
X96118385Y-143801541D01*
X96186830Y-143815579D01*
X96236821Y-143864392D01*
X96237123Y-143864933D01*
X96295005Y-143969215D01*
X96295005Y-143969216D01*
X96427478Y-144123530D01*
X96427479Y-144123531D01*
X96588304Y-144248018D01*
X96770907Y-144337589D01*
X96870000Y-144363244D01*
X96870000Y-143561110D01*
X96894457Y-143600610D01*
X96983962Y-143668201D01*
X97091840Y-143698895D01*
X97203521Y-143688546D01*
X97303922Y-143638552D01*
X97370000Y-143566069D01*
X97370000Y-144368366D01*
X97371944Y-144368069D01*
X97371945Y-144368069D01*
X97562660Y-144297436D01*
X97562664Y-144297434D01*
X97735267Y-144189850D01*
X97882668Y-144049735D01*
X97882669Y-144049733D01*
X97998856Y-143882804D01*
X98079059Y-143695907D01*
X98120000Y-143496690D01*
X98120000Y-143095000D01*
X97420000Y-143095000D01*
X97420000Y-142595000D01*
X98120000Y-142595000D01*
X98120000Y-142244286D01*
X98104581Y-142092661D01*
X98043700Y-141898618D01*
X98043695Y-141898608D01*
X97944994Y-141720784D01*
X97944994Y-141720783D01*
X97812521Y-141566469D01*
X97812520Y-141566468D01*
X97651695Y-141441981D01*
X97469093Y-141352411D01*
X97370000Y-141326753D01*
X97370000Y-142128889D01*
X97345543Y-142089390D01*
X97256038Y-142021799D01*
X97148160Y-141991105D01*
X97036479Y-142001454D01*
X96936078Y-142051448D01*
X96870000Y-142123930D01*
X96870000Y-141321633D01*
X96868053Y-141321931D01*
X96868047Y-141321933D01*
X96677342Y-141392562D01*
X96677335Y-141392565D01*
X96504732Y-141500149D01*
X96357331Y-141640264D01*
X96357330Y-141640266D01*
X96241143Y-141807195D01*
X96160940Y-141994092D01*
X96120000Y-142193309D01*
X96120000Y-142740286D01*
X96100315Y-142807325D01*
X96047511Y-142853080D01*
X95978353Y-142863024D01*
X95948548Y-142854847D01*
X95841283Y-142810417D01*
X95841278Y-142810415D01*
X95727981Y-142795500D01*
X95727980Y-142795500D01*
X95652020Y-142795500D01*
X95652019Y-142795500D01*
X95538721Y-142810415D01*
X95538719Y-142810416D01*
X95397752Y-142868806D01*
X95276696Y-142961696D01*
X95183806Y-143082752D01*
X95125416Y-143223719D01*
X95125415Y-143223721D01*
X95105500Y-143374998D01*
X95105500Y-143375001D01*
X90494500Y-143375001D01*
X90494500Y-143375000D01*
X90474584Y-143223720D01*
X90416192Y-143082750D01*
X90323304Y-142961696D01*
X90202250Y-142868808D01*
X90202249Y-142868807D01*
X90202247Y-142868806D01*
X90061280Y-142810416D01*
X90061278Y-142810415D01*
X89947981Y-142795500D01*
X89947980Y-142795500D01*
X89872020Y-142795500D01*
X89872019Y-142795500D01*
X89758721Y-142810415D01*
X89758716Y-142810417D01*
X89651452Y-142854847D01*
X89581983Y-142862316D01*
X89519504Y-142831040D01*
X89483852Y-142770951D01*
X89480000Y-142740286D01*
X89480000Y-142244286D01*
X89464581Y-142092661D01*
X89403700Y-141898618D01*
X89403695Y-141898608D01*
X89304994Y-141720784D01*
X89304994Y-141720783D01*
X89172521Y-141566469D01*
X89172520Y-141566468D01*
X89011695Y-141441981D01*
X88829093Y-141352411D01*
X88730000Y-141326753D01*
X88730000Y-142128889D01*
X88705543Y-142089390D01*
X88616038Y-142021799D01*
X88508160Y-141991105D01*
X88396479Y-142001454D01*
X88296078Y-142051448D01*
X88230000Y-142123930D01*
X88230000Y-141321633D01*
X88228053Y-141321931D01*
X88228047Y-141321933D01*
X88037342Y-141392562D01*
X88037335Y-141392565D01*
X87864732Y-141500149D01*
X87717331Y-141640264D01*
X87717330Y-141640266D01*
X87601143Y-141807195D01*
X87520940Y-141994092D01*
X87480000Y-142193309D01*
X87480000Y-142595000D01*
X88180000Y-142595000D01*
X88180000Y-143095000D01*
X87480000Y-143095000D01*
X87480000Y-143445713D01*
X86500500Y-143445713D01*
X86500500Y-140200000D01*
X88794540Y-140200000D01*
X88814326Y-140388256D01*
X88814327Y-140388259D01*
X88872818Y-140568277D01*
X88872821Y-140568284D01*
X88967467Y-140732216D01*
X89057506Y-140832214D01*
X89094129Y-140872888D01*
X89247265Y-140984148D01*
X89247270Y-140984151D01*
X89420192Y-141061142D01*
X89420197Y-141061144D01*
X89605354Y-141100500D01*
X89605355Y-141100500D01*
X89794644Y-141100500D01*
X89794646Y-141100500D01*
X89979803Y-141061144D01*
X90062820Y-141024182D01*
X90091931Y-141011221D01*
X90142367Y-141000500D01*
X95191844Y-141000500D01*
X95258883Y-141020185D01*
X95264729Y-141024182D01*
X95347265Y-141084148D01*
X95347270Y-141084151D01*
X95520192Y-141161142D01*
X95520197Y-141161144D01*
X95705354Y-141200500D01*
X95705355Y-141200500D01*
X95894644Y-141200500D01*
X95894646Y-141200500D01*
X96079803Y-141161144D01*
X96252730Y-141084151D01*
X96405871Y-140972888D01*
X96532533Y-140832216D01*
X96627179Y-140668284D01*
X96685674Y-140488256D01*
X96705460Y-140300000D01*
X96685674Y-140111744D01*
X96627179Y-139931716D01*
X96532533Y-139767784D01*
X96405871Y-139627112D01*
X96405870Y-139627111D01*
X96252734Y-139515851D01*
X96252729Y-139515848D01*
X96079807Y-139438857D01*
X96079802Y-139438855D01*
X95934001Y-139407865D01*
X95894646Y-139399500D01*
X95705354Y-139399500D01*
X95672897Y-139406398D01*
X95520197Y-139438855D01*
X95520192Y-139438857D01*
X95347270Y-139515848D01*
X95347265Y-139515851D01*
X95264729Y-139575818D01*
X95198923Y-139599298D01*
X95191844Y-139599500D01*
X90426258Y-139599500D01*
X90359219Y-139579815D01*
X90334109Y-139558473D01*
X90305871Y-139527112D01*
X90305864Y-139527106D01*
X90152734Y-139415851D01*
X90152729Y-139415848D01*
X89979807Y-139338857D01*
X89979802Y-139338855D01*
X89834001Y-139307865D01*
X89794646Y-139299500D01*
X89605354Y-139299500D01*
X89572897Y-139306398D01*
X89420197Y-139338855D01*
X89420192Y-139338857D01*
X89247270Y-139415848D01*
X89247265Y-139415851D01*
X89094129Y-139527111D01*
X88967466Y-139667785D01*
X88872821Y-139831715D01*
X88872818Y-139831722D01*
X88814327Y-140011740D01*
X88814326Y-140011744D01*
X88794540Y-140200000D01*
X86500500Y-140200000D01*
X86500500Y-133525000D01*
X112644540Y-133525000D01*
X112664326Y-133713256D01*
X112664327Y-133713259D01*
X112722818Y-133893277D01*
X112722821Y-133893284D01*
X112817467Y-134057216D01*
X112944129Y-134197888D01*
X113097265Y-134309148D01*
X113097270Y-134309151D01*
X113270192Y-134386142D01*
X113270197Y-134386144D01*
X113455354Y-134425500D01*
X113455355Y-134425500D01*
X113644644Y-134425500D01*
X113644646Y-134425500D01*
X113829803Y-134386144D01*
X114002730Y-134309151D01*
X114018320Y-134297823D01*
X114085271Y-134249182D01*
X114151077Y-134225702D01*
X114158156Y-134225500D01*
X115266844Y-134225500D01*
X115333883Y-134245185D01*
X115339729Y-134249182D01*
X115422265Y-134309148D01*
X115422270Y-134309151D01*
X115595192Y-134386142D01*
X115595197Y-134386144D01*
X115780354Y-134425500D01*
X115780355Y-134425500D01*
X115969644Y-134425500D01*
X115969646Y-134425500D01*
X116154803Y-134386144D01*
X116327730Y-134309151D01*
X116480871Y-134197888D01*
X116607533Y-134057216D01*
X116702179Y-133893284D01*
X116760674Y-133713256D01*
X116780460Y-133525000D01*
X116760674Y-133336744D01*
X116702179Y-133156716D01*
X116607533Y-132992784D01*
X116480871Y-132852112D01*
X116480870Y-132852111D01*
X116327734Y-132740851D01*
X116327729Y-132740848D01*
X116154807Y-132663857D01*
X116154802Y-132663855D01*
X116009001Y-132632865D01*
X115969646Y-132624500D01*
X115780354Y-132624500D01*
X115747897Y-132631398D01*
X115595197Y-132663855D01*
X115595192Y-132663857D01*
X115422270Y-132740848D01*
X115422265Y-132740851D01*
X115339729Y-132800818D01*
X115273923Y-132824298D01*
X115266844Y-132824500D01*
X114158156Y-132824500D01*
X114091117Y-132804815D01*
X114085271Y-132800818D01*
X114002734Y-132740851D01*
X114002729Y-132740848D01*
X113829807Y-132663857D01*
X113829802Y-132663855D01*
X113684001Y-132632865D01*
X113644646Y-132624500D01*
X113455354Y-132624500D01*
X113422897Y-132631398D01*
X113270197Y-132663855D01*
X113270192Y-132663857D01*
X113097270Y-132740848D01*
X113097265Y-132740851D01*
X112944129Y-132852111D01*
X112817466Y-132992785D01*
X112722821Y-133156715D01*
X112722818Y-133156722D01*
X112664327Y-133336740D01*
X112664326Y-133336744D01*
X112644540Y-133525000D01*
X86500500Y-133525000D01*
X86500500Y-131748226D01*
X86520185Y-131681187D01*
X86572989Y-131635432D01*
X86642147Y-131625488D01*
X86697385Y-131647908D01*
X86747265Y-131684148D01*
X86747270Y-131684151D01*
X86920192Y-131761142D01*
X86920197Y-131761144D01*
X87105354Y-131800500D01*
X87105355Y-131800500D01*
X87294644Y-131800500D01*
X87294646Y-131800500D01*
X87479803Y-131761144D01*
X87652730Y-131684151D01*
X87805871Y-131572888D01*
X87932533Y-131432216D01*
X88027179Y-131268284D01*
X88085674Y-131088256D01*
X88105460Y-130900000D01*
X88085674Y-130711744D01*
X88027179Y-130531716D01*
X87951434Y-130400522D01*
X87932535Y-130367787D01*
X87932531Y-130367782D01*
X87932344Y-130367574D01*
X87932273Y-130367427D01*
X87928714Y-130362528D01*
X87929610Y-130361876D01*
X87902119Y-130304580D01*
X87900500Y-130284608D01*
X87900500Y-129725000D01*
X103494540Y-129725000D01*
X103514326Y-129913256D01*
X103514327Y-129913259D01*
X103572818Y-130093277D01*
X103572821Y-130093284D01*
X103667467Y-130257216D01*
X103794129Y-130397888D01*
X103947265Y-130509148D01*
X103947270Y-130509151D01*
X104120192Y-130586142D01*
X104120197Y-130586144D01*
X104305354Y-130625500D01*
X104305355Y-130625500D01*
X104494644Y-130625500D01*
X104494646Y-130625500D01*
X104679803Y-130586144D01*
X104852730Y-130509151D01*
X104868320Y-130497823D01*
X104935271Y-130449182D01*
X105001077Y-130425702D01*
X105008156Y-130425500D01*
X107324752Y-130425500D01*
X107332239Y-130425725D01*
X107392279Y-130429358D01*
X107451455Y-130418513D01*
X107458858Y-130417387D01*
X107462594Y-130416933D01*
X107518545Y-130410140D01*
X107528008Y-130406550D01*
X107549634Y-130400522D01*
X107550566Y-130400351D01*
X107559605Y-130398695D01*
X107614481Y-130373996D01*
X107621351Y-130371150D01*
X107677603Y-130349818D01*
X107685939Y-130344062D01*
X107705508Y-130333027D01*
X107707769Y-130332010D01*
X107745666Y-130321779D01*
X107748316Y-130321500D01*
X107748319Y-130321500D01*
X107933476Y-130282144D01*
X108106403Y-130205151D01*
X108259544Y-130093888D01*
X108386206Y-129953216D01*
X108480852Y-129789284D01*
X108539347Y-129609256D01*
X108559133Y-129421000D01*
X108539347Y-129232744D01*
X108480852Y-129052716D01*
X108386206Y-128888784D01*
X108259544Y-128748112D01*
X108259543Y-128748111D01*
X108106407Y-128636851D01*
X108106402Y-128636848D01*
X107933480Y-128559857D01*
X107933475Y-128559855D01*
X107787674Y-128528865D01*
X107748319Y-128520500D01*
X107559027Y-128520500D01*
X107526570Y-128527398D01*
X107373870Y-128559855D01*
X107373865Y-128559857D01*
X107200943Y-128636848D01*
X107200938Y-128636851D01*
X107047802Y-128748111D01*
X106921139Y-128888785D01*
X106878580Y-128962500D01*
X106828013Y-129010715D01*
X106771193Y-129024500D01*
X105008156Y-129024500D01*
X104941117Y-129004815D01*
X104935271Y-129000818D01*
X104852734Y-128940851D01*
X104852729Y-128940848D01*
X104679807Y-128863857D01*
X104679802Y-128863855D01*
X104509103Y-128827573D01*
X104494646Y-128824500D01*
X104305354Y-128824500D01*
X104290897Y-128827573D01*
X104120197Y-128863855D01*
X104120192Y-128863857D01*
X103947270Y-128940848D01*
X103947265Y-128940851D01*
X103794129Y-129052111D01*
X103667466Y-129192785D01*
X103572821Y-129356715D01*
X103572818Y-129356722D01*
X103514327Y-129536740D01*
X103514326Y-129536744D01*
X103494540Y-129725000D01*
X87900500Y-129725000D01*
X87900500Y-127237500D01*
X97057040Y-127237500D01*
X97076826Y-127425756D01*
X97076827Y-127425759D01*
X97135318Y-127605777D01*
X97135321Y-127605784D01*
X97229967Y-127769716D01*
X97261831Y-127805104D01*
X97356629Y-127910388D01*
X97509765Y-128021648D01*
X97509770Y-128021651D01*
X97682691Y-128098642D01*
X97682693Y-128098642D01*
X97682697Y-128098644D01*
X97837630Y-128131575D01*
X97899107Y-128164766D01*
X97899526Y-128165183D01*
X98530866Y-128796523D01*
X98564351Y-128857846D01*
X98566505Y-128871240D01*
X98571696Y-128920620D01*
X98571698Y-128920631D01*
X98630189Y-129100648D01*
X98630192Y-129100655D01*
X98724838Y-129264587D01*
X98807791Y-129356715D01*
X98851500Y-129405259D01*
X99004636Y-129516519D01*
X99004641Y-129516522D01*
X99177563Y-129593513D01*
X99177568Y-129593515D01*
X99362725Y-129632871D01*
X99362726Y-129632871D01*
X99552015Y-129632871D01*
X99552017Y-129632871D01*
X99737174Y-129593515D01*
X99910101Y-129516522D01*
X100063242Y-129405259D01*
X100189904Y-129264587D01*
X100284550Y-129100655D01*
X100343045Y-128920627D01*
X100362831Y-128732371D01*
X100343045Y-128544115D01*
X100284550Y-128364087D01*
X100189904Y-128200155D01*
X100063242Y-128059483D01*
X100011171Y-128021651D01*
X99910105Y-127948222D01*
X99910100Y-127948219D01*
X99737178Y-127871228D01*
X99737173Y-127871226D01*
X99600861Y-127842253D01*
X99582243Y-127838295D01*
X99520762Y-127805104D01*
X99520344Y-127804687D01*
X98889003Y-127173346D01*
X98855518Y-127112023D01*
X98853365Y-127098643D01*
X98848174Y-127049244D01*
X98789679Y-126869216D01*
X98695033Y-126705284D01*
X98568371Y-126564612D01*
X98568370Y-126564611D01*
X98415234Y-126453351D01*
X98415229Y-126453348D01*
X98242307Y-126376357D01*
X98242302Y-126376355D01*
X98096501Y-126345365D01*
X98057146Y-126337000D01*
X97867854Y-126337000D01*
X97835397Y-126343898D01*
X97682697Y-126376355D01*
X97682692Y-126376357D01*
X97509770Y-126453348D01*
X97509765Y-126453351D01*
X97356629Y-126564611D01*
X97229966Y-126705285D01*
X97135321Y-126869215D01*
X97135318Y-126869222D01*
X97076827Y-127049240D01*
X97076826Y-127049244D01*
X97057040Y-127237500D01*
X87900500Y-127237500D01*
X87900500Y-120841519D01*
X87920185Y-120774480D01*
X87936819Y-120753838D01*
X88915657Y-119775000D01*
X104369540Y-119775000D01*
X104389326Y-119963256D01*
X104389327Y-119963259D01*
X104447818Y-120143277D01*
X104447821Y-120143284D01*
X104542467Y-120307216D01*
X104658732Y-120436341D01*
X104669129Y-120447888D01*
X104822265Y-120559148D01*
X104822270Y-120559151D01*
X104995192Y-120636142D01*
X104995197Y-120636144D01*
X105180354Y-120675500D01*
X105239548Y-120675500D01*
X105306587Y-120695185D01*
X105327229Y-120711819D01*
X106963181Y-122347771D01*
X106996666Y-122409094D01*
X106999500Y-122435452D01*
X106999500Y-123426312D01*
X106979815Y-123493351D01*
X106967650Y-123509284D01*
X106892466Y-123592784D01*
X106797821Y-123756715D01*
X106797818Y-123756722D01*
X106739327Y-123936740D01*
X106739326Y-123936744D01*
X106719540Y-124125000D01*
X106739326Y-124313256D01*
X106739327Y-124313259D01*
X106797818Y-124493277D01*
X106797821Y-124493284D01*
X106892467Y-124657216D01*
X107019129Y-124797888D01*
X107172265Y-124909148D01*
X107172270Y-124909151D01*
X107345192Y-124986142D01*
X107345197Y-124986144D01*
X107530354Y-125025500D01*
X107530355Y-125025500D01*
X107719644Y-125025500D01*
X107719646Y-125025500D01*
X107904803Y-124986144D01*
X108077730Y-124909151D01*
X108230871Y-124797888D01*
X108357533Y-124657216D01*
X108452179Y-124493284D01*
X108510674Y-124313256D01*
X108530460Y-124125000D01*
X108510674Y-123936744D01*
X108452179Y-123756716D01*
X108357533Y-123592784D01*
X108282350Y-123509284D01*
X108252120Y-123446292D01*
X108250500Y-123426312D01*
X108250500Y-122207742D01*
X108252224Y-122192122D01*
X108251939Y-122192096D01*
X108252671Y-122184340D01*
X108252673Y-122184333D01*
X108250561Y-122117126D01*
X108250500Y-122113231D01*
X108250500Y-122085654D01*
X108250500Y-122085650D01*
X108249996Y-122081665D01*
X108249080Y-122070021D01*
X108247709Y-122026373D01*
X108242122Y-122007144D01*
X108238174Y-121988084D01*
X108235663Y-121968204D01*
X108219588Y-121927604D01*
X108215804Y-121916552D01*
X108203618Y-121874609D01*
X108203616Y-121874606D01*
X108193423Y-121857371D01*
X108184861Y-121839894D01*
X108177487Y-121821269D01*
X108151816Y-121785937D01*
X108145405Y-121776177D01*
X108123170Y-121738580D01*
X108123168Y-121738578D01*
X108123165Y-121738574D01*
X108109006Y-121724415D01*
X108096368Y-121709619D01*
X108084594Y-121693413D01*
X108050940Y-121665572D01*
X108042299Y-121657709D01*
X106213960Y-119829369D01*
X106180475Y-119768046D01*
X106178323Y-119754668D01*
X106160674Y-119586744D01*
X106102179Y-119406716D01*
X106007533Y-119242784D01*
X105880871Y-119102112D01*
X105880870Y-119102111D01*
X105727734Y-118990851D01*
X105727729Y-118990848D01*
X105554807Y-118913857D01*
X105554802Y-118913855D01*
X105409001Y-118882865D01*
X105369646Y-118874500D01*
X105180354Y-118874500D01*
X105147897Y-118881398D01*
X104995197Y-118913855D01*
X104995192Y-118913857D01*
X104822270Y-118990848D01*
X104822265Y-118990851D01*
X104669129Y-119102111D01*
X104542466Y-119242785D01*
X104447821Y-119406715D01*
X104447818Y-119406722D01*
X104389327Y-119586740D01*
X104389326Y-119586744D01*
X104369540Y-119775000D01*
X88915657Y-119775000D01*
X89953838Y-118736819D01*
X90015161Y-118703334D01*
X90041519Y-118700500D01*
X90991844Y-118700500D01*
X91058883Y-118720185D01*
X91064729Y-118724182D01*
X91147265Y-118784148D01*
X91147270Y-118784151D01*
X91320192Y-118861142D01*
X91320197Y-118861144D01*
X91505354Y-118900500D01*
X91505355Y-118900500D01*
X91694644Y-118900500D01*
X91694646Y-118900500D01*
X91879803Y-118861144D01*
X92052730Y-118784151D01*
X92205871Y-118672888D01*
X92332533Y-118532216D01*
X92427179Y-118368284D01*
X92485674Y-118188256D01*
X92505460Y-118000000D01*
X92485674Y-117811744D01*
X92427179Y-117631716D01*
X92332533Y-117467784D01*
X92205871Y-117327112D01*
X92204762Y-117326306D01*
X92052734Y-117215851D01*
X92052729Y-117215848D01*
X91879807Y-117138857D01*
X91879802Y-117138855D01*
X91734001Y-117107865D01*
X91694646Y-117099500D01*
X91505354Y-117099500D01*
X91472897Y-117106398D01*
X91320197Y-117138855D01*
X91320192Y-117138857D01*
X91147270Y-117215848D01*
X91147265Y-117215851D01*
X91064729Y-117275818D01*
X90998923Y-117299298D01*
X90991844Y-117299500D01*
X89724921Y-117299500D01*
X89717433Y-117299274D01*
X89657396Y-117295642D01*
X89657388Y-117295642D01*
X89598227Y-117306483D01*
X89590827Y-117307610D01*
X89531128Y-117314860D01*
X89531121Y-117314861D01*
X89521647Y-117318454D01*
X89500049Y-117324475D01*
X89490068Y-117326305D01*
X89490063Y-117326306D01*
X89435212Y-117350992D01*
X89428296Y-117353857D01*
X89372070Y-117375181D01*
X89372066Y-117375184D01*
X89363723Y-117380942D01*
X89344188Y-117391960D01*
X89334948Y-117396119D01*
X89334938Y-117396124D01*
X89287597Y-117433213D01*
X89281569Y-117437649D01*
X89232068Y-117471819D01*
X89192183Y-117516838D01*
X89187051Y-117522290D01*
X86722290Y-119987051D01*
X86716842Y-119992180D01*
X86706733Y-120001137D01*
X86643502Y-120030862D01*
X86574238Y-120021684D01*
X86520932Y-119976515D01*
X86500508Y-119909697D01*
X86500500Y-119908327D01*
X86500500Y-105000000D01*
X90594540Y-105000000D01*
X90614326Y-105188256D01*
X90614327Y-105188259D01*
X90672818Y-105368277D01*
X90672821Y-105368284D01*
X90767467Y-105532216D01*
X90810772Y-105580310D01*
X90842650Y-105615715D01*
X90872880Y-105678706D01*
X90874500Y-105698687D01*
X90874500Y-110417255D01*
X90872775Y-110432872D01*
X90873061Y-110432899D01*
X90872326Y-110440665D01*
X90874439Y-110507872D01*
X90874500Y-110511767D01*
X90874500Y-110539357D01*
X90875003Y-110543335D01*
X90875918Y-110554967D01*
X90877290Y-110598626D01*
X90882879Y-110617862D01*
X90886824Y-110636914D01*
X90889334Y-110656784D01*
X90889336Y-110656793D01*
X90894130Y-110668901D01*
X90902158Y-110727505D01*
X90894540Y-110799998D01*
X90894540Y-110800000D01*
X90914326Y-110988256D01*
X90914327Y-110988259D01*
X90972818Y-111168277D01*
X90972821Y-111168284D01*
X91067467Y-111332216D01*
X91194129Y-111472888D01*
X91347265Y-111584148D01*
X91347270Y-111584151D01*
X91520192Y-111661142D01*
X91520197Y-111661144D01*
X91705354Y-111700500D01*
X91705355Y-111700500D01*
X91894644Y-111700500D01*
X91894646Y-111700500D01*
X92079803Y-111661144D01*
X92252730Y-111584151D01*
X92405871Y-111472888D01*
X92532533Y-111332216D01*
X92627179Y-111168284D01*
X92685674Y-110988256D01*
X92705460Y-110800000D01*
X92685674Y-110611744D01*
X92627179Y-110431716D01*
X92532533Y-110267784D01*
X92405871Y-110127112D01*
X92405870Y-110127111D01*
X92252732Y-110015849D01*
X92199063Y-109991954D01*
X92145827Y-109946703D01*
X92125506Y-109879854D01*
X92125500Y-109878675D01*
X92125500Y-105698687D01*
X92145185Y-105631648D01*
X92157350Y-105615715D01*
X92175891Y-105595122D01*
X92232533Y-105532216D01*
X92327179Y-105368284D01*
X92385674Y-105188256D01*
X92405460Y-105000000D01*
X92385674Y-104811744D01*
X92327179Y-104631716D01*
X92232533Y-104467784D01*
X92105871Y-104327112D01*
X92105870Y-104327111D01*
X91952734Y-104215851D01*
X91952729Y-104215848D01*
X91779807Y-104138857D01*
X91779802Y-104138855D01*
X91634001Y-104107865D01*
X91594646Y-104099500D01*
X91405354Y-104099500D01*
X91372897Y-104106398D01*
X91220197Y-104138855D01*
X91220192Y-104138857D01*
X91047270Y-104215848D01*
X91047265Y-104215851D01*
X90894129Y-104327111D01*
X90767466Y-104467785D01*
X90672821Y-104631715D01*
X90672818Y-104631722D01*
X90614327Y-104811740D01*
X90614326Y-104811744D01*
X90594540Y-105000000D01*
X86500500Y-105000000D01*
X86500500Y-99975889D01*
X91999416Y-99975889D01*
X91999459Y-100000000D01*
X91999500Y-100000099D01*
X91999617Y-100000383D01*
X91999618Y-100000384D01*
X91999808Y-100000462D01*
X92000000Y-100000541D01*
X92000002Y-100000539D01*
X92024616Y-100000524D01*
X92024616Y-100000528D01*
X92024760Y-100000500D01*
X133975240Y-100000500D01*
X133975383Y-100000528D01*
X133975384Y-100000524D01*
X133999997Y-100000539D01*
X134000000Y-100000541D01*
X134000383Y-100000383D01*
X134000500Y-100000099D01*
X134000541Y-100000000D01*
X134000540Y-99999997D01*
X134000583Y-99975889D01*
X134000500Y-99975467D01*
X134000500Y-59024759D01*
X134000528Y-59024616D01*
X134000524Y-59024616D01*
X134000539Y-59000002D01*
X134000541Y-59000000D01*
X134000462Y-58999808D01*
X134000384Y-58999618D01*
X134000380Y-58999614D01*
X134000194Y-58999538D01*
X134000002Y-58999459D01*
X133975446Y-58999459D01*
X133975240Y-58999500D01*
X92024760Y-58999500D01*
X92024554Y-58999459D01*
X91999998Y-58999459D01*
X91999807Y-58999538D01*
X91999619Y-58999615D01*
X91999615Y-58999618D01*
X91999459Y-58999999D01*
X91999476Y-59024616D01*
X91999471Y-59024616D01*
X91999500Y-59024759D01*
X91999500Y-99975467D01*
X91999416Y-99975889D01*
X86500500Y-99975889D01*
X86500500Y-95035000D01*
X88544341Y-95035000D01*
X88564936Y-95270403D01*
X88564938Y-95270413D01*
X88626094Y-95498655D01*
X88626096Y-95498659D01*
X88626097Y-95498663D01*
X88725965Y-95712830D01*
X88725967Y-95712834D01*
X88834281Y-95867521D01*
X88861501Y-95906396D01*
X88861506Y-95906402D01*
X88983818Y-96028714D01*
X89017303Y-96090037D01*
X89012319Y-96159729D01*
X88970447Y-96215662D01*
X88939471Y-96232577D01*
X88807912Y-96281646D01*
X88807906Y-96281649D01*
X88692812Y-96367809D01*
X88692809Y-96367812D01*
X88606649Y-96482906D01*
X88606645Y-96482913D01*
X88556403Y-96617620D01*
X88556401Y-96617627D01*
X88550000Y-96677155D01*
X88550000Y-97325000D01*
X89466314Y-97325000D01*
X89440507Y-97365156D01*
X89400000Y-97503111D01*
X89400000Y-97646889D01*
X89440507Y-97784844D01*
X89466314Y-97825000D01*
X88550000Y-97825000D01*
X88550000Y-98472844D01*
X88556401Y-98532372D01*
X88556403Y-98532379D01*
X88606645Y-98667086D01*
X88606649Y-98667093D01*
X88692809Y-98782187D01*
X88692812Y-98782190D01*
X88807906Y-98868350D01*
X88807913Y-98868354D01*
X88942620Y-98918596D01*
X88942627Y-98918598D01*
X89002155Y-98924999D01*
X89002172Y-98925000D01*
X89650000Y-98925000D01*
X89650000Y-98010501D01*
X89757685Y-98059680D01*
X89864237Y-98075000D01*
X89935763Y-98075000D01*
X90042315Y-98059680D01*
X90150000Y-98010501D01*
X90150000Y-98925000D01*
X90797828Y-98925000D01*
X90797844Y-98924999D01*
X90857372Y-98918598D01*
X90857379Y-98918596D01*
X90992086Y-98868354D01*
X90992093Y-98868350D01*
X91107187Y-98782190D01*
X91107190Y-98782187D01*
X91193350Y-98667093D01*
X91193354Y-98667086D01*
X91243596Y-98532379D01*
X91243598Y-98532372D01*
X91249999Y-98472844D01*
X91250000Y-98472827D01*
X91250000Y-97825000D01*
X90333686Y-97825000D01*
X90359493Y-97784844D01*
X90400000Y-97646889D01*
X90400000Y-97503111D01*
X90359493Y-97365156D01*
X90333686Y-97325000D01*
X91250000Y-97325000D01*
X91250000Y-96677172D01*
X91249999Y-96677155D01*
X91243598Y-96617627D01*
X91243596Y-96617620D01*
X91193354Y-96482913D01*
X91193350Y-96482906D01*
X91107190Y-96367812D01*
X91107187Y-96367809D01*
X90992093Y-96281649D01*
X90992088Y-96281646D01*
X90860528Y-96232577D01*
X90804595Y-96190705D01*
X90780178Y-96125241D01*
X90795030Y-96056968D01*
X90816175Y-96028720D01*
X90938495Y-95906401D01*
X91074035Y-95712830D01*
X91173903Y-95498663D01*
X91235063Y-95270408D01*
X91255659Y-95035000D01*
X91235063Y-94799592D01*
X91173903Y-94571337D01*
X91074035Y-94357171D01*
X90938495Y-94163599D01*
X90938494Y-94163597D01*
X90771402Y-93996506D01*
X90771395Y-93996501D01*
X90577834Y-93860967D01*
X90577830Y-93860965D01*
X90577828Y-93860964D01*
X90363663Y-93761097D01*
X90363659Y-93761096D01*
X90363655Y-93761094D01*
X90135413Y-93699938D01*
X90135403Y-93699936D01*
X89900001Y-93679341D01*
X89899999Y-93679341D01*
X89664596Y-93699936D01*
X89664586Y-93699938D01*
X89436344Y-93761094D01*
X89436335Y-93761098D01*
X89222171Y-93860964D01*
X89222169Y-93860965D01*
X89028597Y-93996505D01*
X88861505Y-94163597D01*
X88725965Y-94357169D01*
X88725964Y-94357171D01*
X88626098Y-94571335D01*
X88626094Y-94571344D01*
X88564938Y-94799586D01*
X88564936Y-94799596D01*
X88544341Y-95034999D01*
X88544341Y-95035000D01*
X86500500Y-95035000D01*
X86500500Y-57124500D01*
X86520185Y-57057461D01*
X86572989Y-57011706D01*
X86624500Y-57000500D01*
X139375500Y-57000500D01*
X139442539Y-57020185D01*
G37*
%TD.AperFunction*%
%TD*%
M02*
