%TF.GenerationSoftware,KiCad,Pcbnew,7.0.10+dfsg-1*%
%TF.CreationDate,2024-02-28T21:18:20+08:00*%
%TF.ProjectId,eink_digit_clk,65696e6b-5f64-4696-9769-745f636c6b2e,rev?*%
%TF.SameCoordinates,Original*%
%TF.FileFunction,Legend,Bot*%
%TF.FilePolarity,Positive*%
%FSLAX46Y46*%
G04 Gerber Fmt 4.6, Leading zero omitted, Abs format (unit mm)*
G04 Created by KiCad (PCBNEW 7.0.10+dfsg-1) date 2024-02-28 21:18:20*
%MOMM*%
%LPD*%
G01*
G04 APERTURE LIST*
%ADD10C,0.150000*%
G04 APERTURE END LIST*
D10*
X117091792Y-141649819D02*
X117425125Y-141173628D01*
X117663220Y-141649819D02*
X117663220Y-140649819D01*
X117663220Y-140649819D02*
X117282268Y-140649819D01*
X117282268Y-140649819D02*
X117187030Y-140697438D01*
X117187030Y-140697438D02*
X117139411Y-140745057D01*
X117139411Y-140745057D02*
X117091792Y-140840295D01*
X117091792Y-140840295D02*
X117091792Y-140983152D01*
X117091792Y-140983152D02*
X117139411Y-141078390D01*
X117139411Y-141078390D02*
X117187030Y-141126009D01*
X117187030Y-141126009D02*
X117282268Y-141173628D01*
X117282268Y-141173628D02*
X117663220Y-141173628D01*
X116663220Y-141126009D02*
X116329887Y-141126009D01*
X116187030Y-141649819D02*
X116663220Y-141649819D01*
X116663220Y-141649819D02*
X116663220Y-140649819D01*
X116663220Y-140649819D02*
X116187030Y-140649819D01*
X115282268Y-141649819D02*
X115758458Y-141649819D01*
X115758458Y-141649819D02*
X115758458Y-140649819D01*
X114996553Y-141364104D02*
X114520363Y-141364104D01*
X115091791Y-141649819D02*
X114758458Y-140649819D01*
X114758458Y-140649819D02*
X114425125Y-141649819D01*
X114187029Y-140649819D02*
X113520363Y-141649819D01*
X113520363Y-140649819D02*
X114187029Y-141649819D01*
X113139410Y-141126009D02*
X112806077Y-141126009D01*
X112663220Y-141649819D02*
X113139410Y-141649819D01*
X113139410Y-141649819D02*
X113139410Y-140649819D01*
X113139410Y-140649819D02*
X112663220Y-140649819D01*
X112234648Y-141649819D02*
X112234648Y-140649819D01*
X112234648Y-140649819D02*
X111663220Y-141649819D01*
X111663220Y-141649819D02*
X111663220Y-140649819D01*
X110425124Y-140649819D02*
X110425124Y-141459342D01*
X110425124Y-141459342D02*
X110377505Y-141554580D01*
X110377505Y-141554580D02*
X110329886Y-141602200D01*
X110329886Y-141602200D02*
X110234648Y-141649819D01*
X110234648Y-141649819D02*
X110044172Y-141649819D01*
X110044172Y-141649819D02*
X109948934Y-141602200D01*
X109948934Y-141602200D02*
X109901315Y-141554580D01*
X109901315Y-141554580D02*
X109853696Y-141459342D01*
X109853696Y-141459342D02*
X109853696Y-140649819D01*
X109377505Y-141649819D02*
X109377505Y-140649819D01*
X109377505Y-140649819D02*
X108806077Y-141649819D01*
X108806077Y-141649819D02*
X108806077Y-140649819D01*
X108329886Y-141649819D02*
X108329886Y-140649819D01*
X108329886Y-140649819D02*
X108091791Y-140649819D01*
X108091791Y-140649819D02*
X107948934Y-140697438D01*
X107948934Y-140697438D02*
X107853696Y-140792676D01*
X107853696Y-140792676D02*
X107806077Y-140887914D01*
X107806077Y-140887914D02*
X107758458Y-141078390D01*
X107758458Y-141078390D02*
X107758458Y-141221247D01*
X107758458Y-141221247D02*
X107806077Y-141411723D01*
X107806077Y-141411723D02*
X107853696Y-141506961D01*
X107853696Y-141506961D02*
X107948934Y-141602200D01*
X107948934Y-141602200D02*
X108091791Y-141649819D01*
X108091791Y-141649819D02*
X108329886Y-141649819D01*
X117758458Y-142259819D02*
X117520363Y-143259819D01*
X117520363Y-143259819D02*
X117329887Y-142545533D01*
X117329887Y-142545533D02*
X117139411Y-143259819D01*
X117139411Y-143259819D02*
X116901316Y-142259819D01*
X116567982Y-142974104D02*
X116091792Y-142974104D01*
X116663220Y-143259819D02*
X116329887Y-142259819D01*
X116329887Y-142259819D02*
X115996554Y-143259819D01*
X115806077Y-142259819D02*
X115234649Y-142259819D01*
X115520363Y-143259819D02*
X115520363Y-142259819D01*
X114329887Y-143164580D02*
X114377506Y-143212200D01*
X114377506Y-143212200D02*
X114520363Y-143259819D01*
X114520363Y-143259819D02*
X114615601Y-143259819D01*
X114615601Y-143259819D02*
X114758458Y-143212200D01*
X114758458Y-143212200D02*
X114853696Y-143116961D01*
X114853696Y-143116961D02*
X114901315Y-143021723D01*
X114901315Y-143021723D02*
X114948934Y-142831247D01*
X114948934Y-142831247D02*
X114948934Y-142688390D01*
X114948934Y-142688390D02*
X114901315Y-142497914D01*
X114901315Y-142497914D02*
X114853696Y-142402676D01*
X114853696Y-142402676D02*
X114758458Y-142307438D01*
X114758458Y-142307438D02*
X114615601Y-142259819D01*
X114615601Y-142259819D02*
X114520363Y-142259819D01*
X114520363Y-142259819D02*
X114377506Y-142307438D01*
X114377506Y-142307438D02*
X114329887Y-142355057D01*
X113901315Y-143259819D02*
X113901315Y-142259819D01*
X113901315Y-142736009D02*
X113329887Y-142736009D01*
X113329887Y-143259819D02*
X113329887Y-142259819D01*
X112853696Y-142736009D02*
X112520363Y-142736009D01*
X112377506Y-143259819D02*
X112853696Y-143259819D01*
X112853696Y-143259819D02*
X112853696Y-142259819D01*
X112853696Y-142259819D02*
X112377506Y-142259819D01*
X111948934Y-143259819D02*
X111948934Y-142259819D01*
X111948934Y-142259819D02*
X111377506Y-143259819D01*
X111377506Y-143259819D02*
X111377506Y-142259819D01*
X110139410Y-143259819D02*
X110139410Y-142259819D01*
X110139410Y-142259819D02*
X109901315Y-142259819D01*
X109901315Y-142259819D02*
X109758458Y-142307438D01*
X109758458Y-142307438D02*
X109663220Y-142402676D01*
X109663220Y-142402676D02*
X109615601Y-142497914D01*
X109615601Y-142497914D02*
X109567982Y-142688390D01*
X109567982Y-142688390D02*
X109567982Y-142831247D01*
X109567982Y-142831247D02*
X109615601Y-143021723D01*
X109615601Y-143021723D02*
X109663220Y-143116961D01*
X109663220Y-143116961D02*
X109758458Y-143212200D01*
X109758458Y-143212200D02*
X109901315Y-143259819D01*
X109901315Y-143259819D02*
X110139410Y-143259819D01*
X109187029Y-142974104D02*
X108710839Y-142974104D01*
X109282267Y-143259819D02*
X108948934Y-142259819D01*
X108948934Y-142259819D02*
X108615601Y-143259819D01*
X108329886Y-143212200D02*
X108187029Y-143259819D01*
X108187029Y-143259819D02*
X107948934Y-143259819D01*
X107948934Y-143259819D02*
X107853696Y-143212200D01*
X107853696Y-143212200D02*
X107806077Y-143164580D01*
X107806077Y-143164580D02*
X107758458Y-143069342D01*
X107758458Y-143069342D02*
X107758458Y-142974104D01*
X107758458Y-142974104D02*
X107806077Y-142878866D01*
X107806077Y-142878866D02*
X107853696Y-142831247D01*
X107853696Y-142831247D02*
X107948934Y-142783628D01*
X107948934Y-142783628D02*
X108139410Y-142736009D01*
X108139410Y-142736009D02*
X108234648Y-142688390D01*
X108234648Y-142688390D02*
X108282267Y-142640771D01*
X108282267Y-142640771D02*
X108329886Y-142545533D01*
X108329886Y-142545533D02*
X108329886Y-142450295D01*
X108329886Y-142450295D02*
X108282267Y-142355057D01*
X108282267Y-142355057D02*
X108234648Y-142307438D01*
X108234648Y-142307438D02*
X108139410Y-142259819D01*
X108139410Y-142259819D02*
X107901315Y-142259819D01*
X107901315Y-142259819D02*
X107758458Y-142307438D01*
X117329887Y-144346009D02*
X117187030Y-144393628D01*
X117187030Y-144393628D02*
X117139411Y-144441247D01*
X117139411Y-144441247D02*
X117091792Y-144536485D01*
X117091792Y-144536485D02*
X117091792Y-144679342D01*
X117091792Y-144679342D02*
X117139411Y-144774580D01*
X117139411Y-144774580D02*
X117187030Y-144822200D01*
X117187030Y-144822200D02*
X117282268Y-144869819D01*
X117282268Y-144869819D02*
X117663220Y-144869819D01*
X117663220Y-144869819D02*
X117663220Y-143869819D01*
X117663220Y-143869819D02*
X117329887Y-143869819D01*
X117329887Y-143869819D02*
X117234649Y-143917438D01*
X117234649Y-143917438D02*
X117187030Y-143965057D01*
X117187030Y-143965057D02*
X117139411Y-144060295D01*
X117139411Y-144060295D02*
X117139411Y-144155533D01*
X117139411Y-144155533D02*
X117187030Y-144250771D01*
X117187030Y-144250771D02*
X117234649Y-144298390D01*
X117234649Y-144298390D02*
X117329887Y-144346009D01*
X117329887Y-144346009D02*
X117663220Y-144346009D01*
X116187030Y-144869819D02*
X116663220Y-144869819D01*
X116663220Y-144869819D02*
X116663220Y-143869819D01*
X115853696Y-144869819D02*
X115853696Y-143869819D01*
X115377506Y-144869819D02*
X115377506Y-143869819D01*
X115377506Y-143869819D02*
X114806078Y-144869819D01*
X114806078Y-144869819D02*
X114806078Y-143869819D01*
X114329887Y-144869819D02*
X114329887Y-143869819D01*
X113758459Y-144869819D02*
X114187030Y-144298390D01*
X113758459Y-143869819D02*
X114329887Y-144441247D01*
X113329887Y-144346009D02*
X112996554Y-144346009D01*
X112853697Y-144869819D02*
X113329887Y-144869819D01*
X113329887Y-144869819D02*
X113329887Y-143869819D01*
X113329887Y-143869819D02*
X112853697Y-143869819D01*
X112425125Y-144869819D02*
X112425125Y-143869819D01*
X112425125Y-143869819D02*
X111853697Y-144869819D01*
X111853697Y-144869819D02*
X111853697Y-143869819D01*
X110901316Y-144869819D02*
X111377506Y-144869819D01*
X111377506Y-144869819D02*
X111377506Y-143869819D01*
X110567982Y-144869819D02*
X110567982Y-143869819D01*
X109520364Y-144774580D02*
X109567983Y-144822200D01*
X109567983Y-144822200D02*
X109710840Y-144869819D01*
X109710840Y-144869819D02*
X109806078Y-144869819D01*
X109806078Y-144869819D02*
X109948935Y-144822200D01*
X109948935Y-144822200D02*
X110044173Y-144726961D01*
X110044173Y-144726961D02*
X110091792Y-144631723D01*
X110091792Y-144631723D02*
X110139411Y-144441247D01*
X110139411Y-144441247D02*
X110139411Y-144298390D01*
X110139411Y-144298390D02*
X110091792Y-144107914D01*
X110091792Y-144107914D02*
X110044173Y-144012676D01*
X110044173Y-144012676D02*
X109948935Y-143917438D01*
X109948935Y-143917438D02*
X109806078Y-143869819D01*
X109806078Y-143869819D02*
X109710840Y-143869819D01*
X109710840Y-143869819D02*
X109567983Y-143917438D01*
X109567983Y-143917438D02*
X109520364Y-143965057D01*
X109091792Y-144869819D02*
X109091792Y-143869819D01*
X109091792Y-144346009D02*
X108520364Y-144346009D01*
X108520364Y-144869819D02*
X108520364Y-143869819D01*
X108187030Y-143869819D02*
X107615602Y-143869819D01*
X107901316Y-144869819D02*
X107901316Y-143869819D01*
X107282268Y-144346009D02*
X106948935Y-144346009D01*
X106806078Y-144869819D02*
X107282268Y-144869819D01*
X107282268Y-144869819D02*
X107282268Y-143869819D01*
X107282268Y-143869819D02*
X106806078Y-143869819D01*
X106377506Y-144869819D02*
X106377506Y-143869819D01*
X106377506Y-143869819D02*
X105806078Y-144869819D01*
X105806078Y-144869819D02*
X105806078Y-143869819D01*
M02*
