  0
SECTION
  2
HEADER
  9
$ANGBASE
  50
0.0
  9
$ANGDIR
  70
1
  9
$MEASUREMENT
  70
0
  0
ENDSEC
  0
SECTION
  2
TABLES
  0
TABLE
  2
LTYPE
  70
4
  0
LTYPE
  5
40F
  2
CONTINUOUS
  70
0
  3
Solid line
  72
65
  73
0
  40
0.0
  0
LTYPE
  5
410
  2
DASHDOT
 70
0
  3
Dash Dot ____ _ ____ _
 72
65
 73
4
 40
2.0
 49
1.25
 49
-0.25
 49
0.25
 49
-0.25
  0
LTYPE
  5
411
  2
DASHED
 70
0
  3
Dashed __ __ __ __ __
 72
65
 73
2
 40
0.75
 49
0.5
 49
-0.25
  0
LTYPE
  5
43B
  2
DOTTED
 70
0
  3
Dotted .  .  .  .
 72
65
 73
2
 40
0.2
 49
0.0
 49
-0.2
  0
ENDTAB
  0
TABLE
  2
STYLE
  70
4
  0
STYLE
  2
KICAD
  70
0
  40
0
  41
1
  42
1
  50
0
  71
0
  3
isocp.shx
  0
STYLE
  2
KICADB
  70
0
  40
0
  41
1
  42
1
  50
0
  71
0
  3
isocp.shx
  0
STYLE
  2
KICADI
  70
0
  40
0
  41
1
  42
1
  50
15
  71
0
  3
isocp.shx
  0
STYLE
  2
KICADBI
  70
0
  40
0
  41
1
  42
1
  50
15
  71
0
  3
isocp.shx
  0
ENDTAB
  0
TABLE
  2
LAYER
  70
1
  0
LAYER
  2
BLACK
  70
0
  62
7
  6
CONTINUOUS
  0
ENDTAB
  0
ENDSEC
  0
SECTION
  2
ENTITIES
0
LINE
8
BLACK
6
CONTINUOUS
10
4.1299212598425195
20
-5.9055118110236222
11
4.1299212598425195
21
-5.877952755905512
0
LINE
8
BLACK
6
CONTINUOUS
10
3.622047244094488
20
-3.9370078740157481
11
3.622047244094488
21
-2.3228346456692912
0
LINE
8
BLACK
6
CONTINUOUS
10
5.2755905511811019
20
-2.3228346456692912
11
5.2755905511811019
21
-3.9370078740157481
0
LINE
8
BLACK
6
CONTINUOUS
10
4.7244094488188972
20
-5.9055118110236222
11
5.4921259842519685
21
-5.9055118110236222
0
LINE
8
BLACK
6
CONTINUOUS
10
4.1299212598425195
20
-5.9055118110236222
11
3.4055118110236218
21
-5.9055118110236222
0
LINE
8
BLACK
6
CONTINUOUS
10
3.4055118110236218
20
-5.9055118110236222
11
3.4055118110236218
21
-2.2440944881889764
0
LINE
8
BLACK
6
CONTINUOUS
10
5.2755905511811019
20
-3.9370078740157481
11
3.622047244094488
21
-3.9370078740157481
0
LINE
8
BLACK
6
CONTINUOUS
10
4.7244094488188972
20
-5.877952755905512
11
4.7244094488188972
21
-5.9055118110236222
0
LINE
8
BLACK
6
CONTINUOUS
10
5.4921259842519685
20
-2.2440944881889764
11
5.4921259842519685
21
-5.9055118110236222
0
LINE
8
BLACK
6
CONTINUOUS
10
3.4055118110236218
20
-2.2440944881889764
11
5.4921259842519685
21
-2.2440944881889764
0
LINE
8
BLACK
6
CONTINUOUS
10
3.622047244094488
20
-2.3228346456692912
11
5.2755905511811019
21
-2.3228346456692912
0
LINE
8
BLACK
6
CONTINUOUS
10
4.1299212598425195
20
-5.877952755905512
11
4.7244094488188972
21
-5.877952755905512
0
LINE
8
BLACK
6
CONTINUOUS
10
3.5269685039370078
20
-5.6318897637795278
11
3.5525590551181101
21
-5.6574803149606296
0
LINE
8
BLACK
6
CONTINUOUS
10
3.5525590551181101
20
-5.6318897637795278
11
3.5269685039370078
21
-5.6574803149606296
0
LINE
8
BLACK
6
CONTINUOUS
10
3.7545275590551181
20
-5.6318897637795278
11
3.7801181102362205
21
-5.6574803149606296
0
LINE
8
BLACK
6
CONTINUOUS
10
3.7801181102362205
20
-5.6318897637795278
11
3.7545275590551181
21
-5.6574803149606296
0
LINE
8
BLACK
6
CONTINUOUS
10
3.506211338582677
20
-6.0301117322834648
11
3.506211338582677
21
-5.951371574803149
0
LINE
8
BLACK
6
CONTINUOUS
10
3.506211338582677
20
-5.951371574803149
11
3.5249589763779525
21
-5.951371574803149
0
LINE
8
BLACK
6
CONTINUOUS
10
3.5249589763779525
20
-5.951371574803149
11
3.5362075984251966
21
-5.9551211023622042
0
LINE
8
BLACK
6
CONTINUOUS
10
3.5362075984251966
20
-5.9551211023622042
11
3.5437066535433068
21
-5.9626201574803153
0
LINE
8
BLACK
6
CONTINUOUS
10
3.5437066535433068
20
-5.9626201574803153
11
3.5474561811023619
21
-5.9701192125984255
0
LINE
8
BLACK
6
CONTINUOUS
10
3.5474561811023619
20
-5.9701192125984255
11
3.551205708661417
21
-5.9851173228346459
0
LINE
8
BLACK
6
CONTINUOUS
10
3.551205708661417
20
-5.9851173228346459
11
3.551205708661417
21
-5.99636594488189
0
LINE
8
BLACK
6
CONTINUOUS
10
3.551205708661417
20
-5.99636594488189
11
3.5474561811023619
21
-6.0113640551181104
0
LINE
8
BLACK
6
CONTINUOUS
10
3.5474561811023619
20
-6.0113640551181104
11
3.5437066535433068
21
-6.0188631102362207
0
LINE
8
BLACK
6
CONTINUOUS
10
3.5437066535433068
20
-6.0188631102362207
11
3.5362075984251966
21
-6.0263622047244096
0
LINE
8
BLACK
6
CONTINUOUS
10
3.5362075984251966
20
-6.0263622047244096
11
3.5249589763779525
21
-6.0301117322834648
0
LINE
8
BLACK
6
CONTINUOUS
10
3.5249589763779525
20
-6.0301117322834648
11
3.506211338582677
21
-6.0301117322834648
0
LINE
8
BLACK
6
CONTINUOUS
10
3.5849514960629922
20
-6.0301117322834648
11
3.5849514960629922
21
-5.9776182677165357
0
LINE
8
BLACK
6
CONTINUOUS
10
3.5849514960629922
20
-5.9926164173228349
11
3.5887010236220473
21
-5.9851173228346459
0
LINE
8
BLACK
6
CONTINUOUS
10
3.5887010236220473
20
-5.9851173228346459
11
3.5924505511811025
21
-5.9813677952755908
0
LINE
8
BLACK
6
CONTINUOUS
10
3.5924505511811025
20
-5.9813677952755908
11
3.5999496062992127
21
-5.9776182677165357
0
LINE
8
BLACK
6
CONTINUOUS
10
3.5999496062992127
20
-5.9776182677165357
11
3.6074487007874017
21
-5.9776182677165357
0
LINE
8
BLACK
6
CONTINUOUS
10
3.6336953937007874
20
-6.0301117322834648
11
3.6336953937007874
21
-5.9776182677165357
0
LINE
8
BLACK
6
CONTINUOUS
10
3.6336953937007874
20
-5.951371574803149
11
3.6299458661417323
21
-5.9551211023622042
0
LINE
8
BLACK
6
CONTINUOUS
10
3.6299458661417323
20
-5.9551211023622042
11
3.6336953937007874
21
-5.9588706299212593
0
LINE
8
BLACK
6
CONTINUOUS
10
3.6336953937007874
20
-5.9588706299212593
11
3.6374449212598425
21
-5.9551211023622042
0
LINE
8
BLACK
6
CONTINUOUS
10
3.6374449212598425
20
-5.9551211023622042
11
3.6336953937007874
21
-5.951371574803149
0
LINE
8
BLACK
6
CONTINUOUS
10
3.6336953937007874
20
-5.951371574803149
11
3.6336953937007874
21
-5.9588706299212593
0
LINE
8
BLACK
6
CONTINUOUS
10
3.6824392913385826
20
-6.0301117322834648
11
3.6749402362204724
21
-6.0263622047244096
0
LINE
8
BLACK
6
CONTINUOUS
10
3.6749402362204724
20
-6.0263622047244096
11
3.6711907086614173
21
-6.0188631102362207
0
LINE
8
BLACK
6
CONTINUOUS
10
3.6711907086614173
20
-6.0188631102362207
11
3.6711907086614173
21
-5.951371574803149
0
LINE
8
BLACK
6
CONTINUOUS
10
3.7236841338582676
20
-6.0301117322834648
11
3.7161850787401574
21
-6.0263622047244096
0
LINE
8
BLACK
6
CONTINUOUS
10
3.7161850787401574
20
-6.0263622047244096
11
3.7124355511811022
21
-6.0188631102362207
0
LINE
8
BLACK
6
CONTINUOUS
10
3.7124355511811022
20
-6.0188631102362207
11
3.7124355511811022
21
-5.951371574803149
0
LINE
8
BLACK
6
CONTINUOUS
10
3.8136729133858265
20
-6.0301117322834648
11
3.8136729133858265
21
-5.951371574803149
0
LINE
8
BLACK
6
CONTINUOUS
10
3.8136729133858265
20
-5.951371574803149
11
3.8399196456692914
21
-6.0076145275590553
0
LINE
8
BLACK
6
CONTINUOUS
10
3.8399196456692914
20
-6.0076145275590553
11
3.8661663385826772
21
-5.951371574803149
0
LINE
8
BLACK
6
CONTINUOUS
10
3.8661663385826772
20
-5.951371574803149
11
3.8661663385826772
21
-6.0301117322834648
0
LINE
8
BLACK
6
CONTINUOUS
10
3.9374074409448818
20
-6.0301117322834648
11
3.9374074409448818
21
-5.9888668897637798
0
LINE
8
BLACK
6
CONTINUOUS
10
3.9374074409448818
20
-5.9888668897637798
11
3.9336579133858267
21
-5.9813677952755908
0
LINE
8
BLACK
6
CONTINUOUS
10
3.9336579133858267
20
-5.9813677952755908
11
3.9261588582677165
21
-5.9776182677165357
0
LINE
8
BLACK
6
CONTINUOUS
10
3.9261588582677165
20
-5.9776182677165357
11
3.9111607086614173
21
-5.9776182677165357
0
LINE
8
BLACK
6
CONTINUOUS
10
3.9111607086614173
20
-5.9776182677165357
11
3.9036616535433071
21
-5.9813677952755908
0
LINE
8
BLACK
6
CONTINUOUS
10
3.9374074409448818
20
-6.0263622047244096
11
3.9299083858267716
21
-6.0301117322834648
0
LINE
8
BLACK
6
CONTINUOUS
10
3.9299083858267716
20
-6.0301117322834648
11
3.9111607086614173
21
-6.0301117322834648
0
LINE
8
BLACK
6
CONTINUOUS
10
3.9111607086614173
20
-6.0301117322834648
11
3.9036616535433071
21
-6.0263622047244096
0
LINE
8
BLACK
6
CONTINUOUS
10
3.9036616535433071
20
-6.0263622047244096
11
3.899912125984252
21
-6.0188631102362207
0
LINE
8
BLACK
6
CONTINUOUS
10
3.899912125984252
20
-6.0188631102362207
11
3.899912125984252
21
-6.0113640551181104
0
LINE
8
BLACK
6
CONTINUOUS
10
3.899912125984252
20
-6.0113640551181104
11
3.9036616535433071
21
-6.0038650000000002
0
LINE
8
BLACK
6
CONTINUOUS
10
3.9036616535433071
20
-6.0038650000000002
11
3.9111607086614173
21
-6.0001154724409451
0
LINE
8
BLACK
6
CONTINUOUS
10
3.9111607086614173
20
-6.0001154724409451
11
3.9299083858267716
21
-6.0001154724409451
0
LINE
8
BLACK
6
CONTINUOUS
10
3.9299083858267716
20
-6.0001154724409451
11
3.9374074409448818
21
-5.99636594488189
0
LINE
8
BLACK
6
CONTINUOUS
10
3.9749027559055117
20
-5.9776182677165357
11
3.9749027559055117
21
-6.0563584251968505
0
LINE
8
BLACK
6
CONTINUOUS
10
3.9749027559055117
20
-5.9813677952755908
11
3.9824018110236219
21
-5.9776182677165357
0
LINE
8
BLACK
6
CONTINUOUS
10
3.9824018110236219
20
-5.9776182677165357
11
3.9973999606299211
21
-5.9776182677165357
0
LINE
8
BLACK
6
CONTINUOUS
10
3.9973999606299211
20
-5.9776182677165357
11
4.0048990157480313
21
-5.9813677952755908
0
LINE
8
BLACK
6
CONTINUOUS
10
4.0048990157480313
20
-5.9813677952755908
11
4.0086485433070864
21
-5.9851173228346459
0
LINE
8
BLACK
6
CONTINUOUS
10
4.0086485433070864
20
-5.9851173228346459
11
4.0123980708661415
21
-5.9926164173228349
0
LINE
8
BLACK
6
CONTINUOUS
10
4.0123980708661415
20
-5.9926164173228349
11
4.0123980708661415
21
-6.0151135826771656
0
LINE
8
BLACK
6
CONTINUOUS
10
4.0123980708661415
20
-6.0151135826771656
11
4.0086485433070864
21
-6.0226126377952758
0
LINE
8
BLACK
6
CONTINUOUS
10
4.0086485433070864
20
-6.0226126377952758
11
4.0048990157480313
21
-6.0263622047244096
0
LINE
8
BLACK
6
CONTINUOUS
10
4.0048990157480313
20
-6.0263622047244096
11
3.9973999606299211
21
-6.0301117322834648
0
LINE
8
BLACK
6
CONTINUOUS
10
3.9973999606299211
20
-6.0301117322834648
11
3.9824018110236219
21
-6.0301117322834648
0
LINE
8
BLACK
6
CONTINUOUS
10
3.9824018110236219
20
-6.0301117322834648
11
3.9749027559055117
21
-6.0263622047244096
0
LINE
8
BLACK
6
CONTINUOUS
10
4.0461438582677163
20
-6.0226126377952758
11
4.0498933858267714
21
-6.0263622047244096
0
LINE
8
BLACK
6
CONTINUOUS
10
4.0498933858267714
20
-6.0263622047244096
11
4.0461438582677163
21
-6.0301117322834648
0
LINE
8
BLACK
6
CONTINUOUS
10
4.0461438582677163
20
-6.0301117322834648
11
4.0423943307086612
21
-6.0263622047244096
0
LINE
8
BLACK
6
CONTINUOUS
10
4.0423943307086612
20
-6.0263622047244096
11
4.0461438582677163
21
-6.0226126377952758
0
LINE
8
BLACK
6
CONTINUOUS
10
4.0461438582677163
20
-6.0226126377952758
11
4.0461438582677163
21
-6.0301117322834648
0
LINE
8
BLACK
6
CONTINUOUS
10
4.0461438582677163
20
-5.9813677952755908
11
4.0498933858267714
21
-5.9851173228346459
0
LINE
8
BLACK
6
CONTINUOUS
10
4.0498933858267714
20
-5.9851173228346459
11
4.0461438582677163
21
-5.9888668897637798
0
LINE
8
BLACK
6
CONTINUOUS
10
4.0461438582677163
20
-5.9888668897637798
11
4.0423943307086612
21
-5.9851173228346459
0
LINE
8
BLACK
6
CONTINUOUS
10
4.0423943307086612
20
-5.9851173228346459
11
4.0461438582677163
21
-5.9813677952755908
0
LINE
8
BLACK
6
CONTINUOUS
10
4.0461438582677163
20
-5.9813677952755908
11
4.0461438582677163
21
-5.9888668897637798
0
LINE
8
BLACK
6
CONTINUOUS
10
3.3779527559055116
20
-6.1466535433070861
11
3.4035433070866139
21
-6.1722440944881889
0
LINE
8
BLACK
6
CONTINUOUS
10
3.4035433070866139
20
-6.1466535433070861
11
3.3779527559055116
21
-6.1722440944881889
0
LINE
8
BLACK
6
CONTINUOUS
10
3.5212094488188974
20
-6.1167259055118111
11
3.5287085433070864
21
-6.1167259055118111
0
LINE
8
BLACK
6
CONTINUOUS
10
3.5287085433070864
20
-6.1167259055118111
11
3.5362075984251966
21
-6.1204754330708662
0
LINE
8
BLACK
6
CONTINUOUS
10
3.5362075984251966
20
-6.1204754330708662
11
3.5399571259842517
21
-6.1242249606299213
0
LINE
8
BLACK
6
CONTINUOUS
10
3.5399571259842517
20
-6.1242249606299213
11
3.5437066535433068
21
-6.1317240157480315
0
LINE
8
BLACK
6
CONTINUOUS
10
3.5437066535433068
20
-6.1317240157480315
11
3.5474561811023619
21
-6.1467221259842519
0
LINE
8
BLACK
6
CONTINUOUS
10
3.5474561811023619
20
-6.1467221259842519
11
3.5474561811023619
21
-6.1654698031496062
0
LINE
8
BLACK
6
CONTINUOUS
10
3.5474561811023619
20
-6.1654698031496062
11
3.5437066535433068
21
-6.1804679133858267
0
LINE
8
BLACK
6
CONTINUOUS
10
3.5437066535433068
20
-6.1804679133858267
11
3.5399571259842517
21
-6.1879669685039369
0
LINE
8
BLACK
6
CONTINUOUS
10
3.5399571259842517
20
-6.1879669685039369
11
3.5362075984251966
21
-6.1917165354330708
0
LINE
8
BLACK
6
CONTINUOUS
10
3.5362075984251966
20
-6.1917165354330708
11
3.5287085433070864
21
-6.1954660629921259
0
LINE
8
BLACK
6
CONTINUOUS
10
3.5287085433070864
20
-6.1954660629921259
11
3.5212094488188974
21
-6.1954660629921259
0
LINE
8
BLACK
6
CONTINUOUS
10
3.5212094488188974
20
-6.1954660629921259
11
3.5137103937007872
21
-6.1917165354330708
0
LINE
8
BLACK
6
CONTINUOUS
10
3.5137103937007872
20
-6.1917165354330708
11
3.5099608661417321
21
-6.1879669685039369
0
LINE
8
BLACK
6
CONTINUOUS
10
3.5099608661417321
20
-6.1879669685039369
11
3.506211338582677
21
-6.1804679133858267
0
LINE
8
BLACK
6
CONTINUOUS
10
3.506211338582677
20
-6.1804679133858267
11
3.5024618110236219
21
-6.1654698031496062
0
LINE
8
BLACK
6
CONTINUOUS
10
3.5024618110236219
20
-6.1654698031496062
11
3.5024618110236219
21
-6.1467221259842519
0
LINE
8
BLACK
6
CONTINUOUS
10
3.5024618110236219
20
-6.1467221259842519
11
3.506211338582677
21
-6.1317240157480315
0
LINE
8
BLACK
6
CONTINUOUS
10
3.506211338582677
20
-6.1317240157480315
11
3.5099608661417321
21
-6.1242249606299213
0
LINE
8
BLACK
6
CONTINUOUS
10
3.5099608661417321
20
-6.1242249606299213
11
3.5137103937007872
21
-6.1204754330708662
0
LINE
8
BLACK
6
CONTINUOUS
10
3.5137103937007872
20
-6.1204754330708662
11
3.5212094488188974
21
-6.1167259055118111
0
LINE
8
BLACK
6
CONTINUOUS
10
3.5812019685039371
20
-6.1879669685039369
11
3.5849514960629922
21
-6.1917165354330708
0
LINE
8
BLACK
6
CONTINUOUS
10
3.5849514960629922
20
-6.1917165354330708
11
3.5812019685039371
21
-6.1954660629921259
0
LINE
8
BLACK
6
CONTINUOUS
10
3.5812019685039371
20
-6.1954660629921259
11
3.577452440944882
21
-6.1917165354330708
0
LINE
8
BLACK
6
CONTINUOUS
10
3.577452440944882
20
-6.1917165354330708
11
3.5812019685039371
21
-6.1879669685039369
0
LINE
8
BLACK
6
CONTINUOUS
10
3.5812019685039371
20
-6.1879669685039369
11
3.5812019685039371
21
-6.1954660629921259
0
LINE
8
BLACK
6
CONTINUOUS
10
3.6524430708661417
20
-6.1167259055118111
11
3.6374449212598425
21
-6.1167259055118111
0
LINE
8
BLACK
6
CONTINUOUS
10
3.6374449212598425
20
-6.1167259055118111
11
3.6299458661417323
21
-6.1204754330708662
0
LINE
8
BLACK
6
CONTINUOUS
10
3.6299458661417323
20
-6.1204754330708662
11
3.6261963385826772
21
-6.1242249606299213
0
LINE
8
BLACK
6
CONTINUOUS
10
3.6261963385826772
20
-6.1242249606299213
11
3.618697283464567
21
-6.1354735433070866
0
LINE
8
BLACK
6
CONTINUOUS
10
3.618697283464567
20
-6.1354735433070866
11
3.6149477559055119
21
-6.150471653543307
0
LINE
8
BLACK
6
CONTINUOUS
10
3.6149477559055119
20
-6.150471653543307
11
3.6149477559055119
21
-6.1804679133858267
0
LINE
8
BLACK
6
CONTINUOUS
10
3.6149477559055119
20
-6.1804679133858267
11
3.618697283464567
21
-6.1879669685039369
0
LINE
8
BLACK
6
CONTINUOUS
10
3.618697283464567
20
-6.1879669685039369
11
3.6224468110236221
21
-6.1917165354330708
0
LINE
8
BLACK
6
CONTINUOUS
10
3.6224468110236221
20
-6.1917165354330708
11
3.6299458661417323
21
-6.1954660629921259
0
LINE
8
BLACK
6
CONTINUOUS
10
3.6299458661417323
20
-6.1954660629921259
11
3.6449440157480315
21
-6.1954660629921259
0
LINE
8
BLACK
6
CONTINUOUS
10
3.6449440157480315
20
-6.1954660629921259
11
3.6524430708661417
21
-6.1917165354330708
0
LINE
8
BLACK
6
CONTINUOUS
10
3.6524430708661417
20
-6.1917165354330708
11
3.6561925984251968
21
-6.1879669685039369
0
LINE
8
BLACK
6
CONTINUOUS
10
3.6561925984251968
20
-6.1879669685039369
11
3.6599421259842519
21
-6.1804679133858267
0
LINE
8
BLACK
6
CONTINUOUS
10
3.6599421259842519
20
-6.1804679133858267
11
3.6599421259842519
21
-6.1617202755905511
0
LINE
8
BLACK
6
CONTINUOUS
10
3.6599421259842519
20
-6.1617202755905511
11
3.6561925984251968
21
-6.1542212204724409
0
LINE
8
BLACK
6
CONTINUOUS
10
3.6561925984251968
20
-6.1542212204724409
11
3.6524430708661417
21
-6.150471653543307
0
LINE
8
BLACK
6
CONTINUOUS
10
3.6524430708661417
20
-6.150471653543307
11
3.6449440157480315
21
-6.1467221259842519
0
LINE
8
BLACK
6
CONTINUOUS
10
3.6449440157480315
20
-6.1467221259842519
11
3.6299458661417323
21
-6.1467221259842519
0
LINE
8
BLACK
6
CONTINUOUS
10
3.6299458661417323
20
-6.1467221259842519
11
3.6224468110236221
21
-6.150471653543307
0
LINE
8
BLACK
6
CONTINUOUS
10
3.6224468110236221
20
-6.150471653543307
11
3.618697283464567
21
-6.1542212204724409
0
LINE
8
BLACK
6
CONTINUOUS
10
3.618697283464567
20
-6.1542212204724409
11
3.6149477559055119
21
-6.1617202755905511
0
LINE
8
BLACK
6
CONTINUOUS
10
3.7311832283464565
20
-6.1167259055118111
11
3.6936879133858267
21
-6.1167259055118111
0
LINE
8
BLACK
6
CONTINUOUS
10
3.6936879133858267
20
-6.1167259055118111
11
3.6899383858267716
21
-6.1542212204724409
0
LINE
8
BLACK
6
CONTINUOUS
10
3.6899383858267716
20
-6.1542212204724409
11
3.6936879133858267
21
-6.150471653543307
0
LINE
8
BLACK
6
CONTINUOUS
10
3.6936879133858267
20
-6.150471653543307
11
3.7011869685039369
21
-6.1467221259842519
0
LINE
8
BLACK
6
CONTINUOUS
10
3.7011869685039369
20
-6.1467221259842519
11
3.7199346456692912
21
-6.1467221259842519
0
LINE
8
BLACK
6
CONTINUOUS
10
3.7199346456692912
20
-6.1467221259842519
11
3.7274337007874014
21
-6.150471653543307
0
LINE
8
BLACK
6
CONTINUOUS
10
3.7274337007874014
20
-6.150471653543307
11
3.7311832283464565
21
-6.1542212204724409
0
LINE
8
BLACK
6
CONTINUOUS
10
3.7311832283464565
20
-6.1542212204724409
11
3.7349327559055117
21
-6.1617202755905511
0
LINE
8
BLACK
6
CONTINUOUS
10
3.7349327559055117
20
-6.1617202755905511
11
3.7349327559055117
21
-6.1804679133858267
0
LINE
8
BLACK
6
CONTINUOUS
10
3.7349327559055117
20
-6.1804679133858267
11
3.7311832283464565
21
-6.1879669685039369
0
LINE
8
BLACK
6
CONTINUOUS
10
3.7311832283464565
20
-6.1879669685039369
11
3.7274337007874014
21
-6.1917165354330708
0
LINE
8
BLACK
6
CONTINUOUS
10
3.7274337007874014
20
-6.1917165354330708
11
3.7199346456692912
21
-6.1954660629921259
0
LINE
8
BLACK
6
CONTINUOUS
10
3.7199346456692912
20
-6.1954660629921259
11
3.7011869685039369
21
-6.1954660629921259
0
LINE
8
BLACK
6
CONTINUOUS
10
3.7011869685039369
20
-6.1954660629921259
11
3.6936879133858267
21
-6.1917165354330708
0
LINE
8
BLACK
6
CONTINUOUS
10
3.6936879133858267
20
-6.1917165354330708
11
3.6899383858267716
21
-6.1879669685039369
0
LINE
8
BLACK
6
CONTINUOUS
10
3.7836766535433068
20
-6.1167259055118111
11
3.7911757480314958
21
-6.1167259055118111
0
LINE
8
BLACK
6
CONTINUOUS
10
3.7911757480314958
20
-6.1167259055118111
11
3.798674803149606
21
-6.1204754330708662
0
LINE
8
BLACK
6
CONTINUOUS
10
3.798674803149606
20
-6.1204754330708662
11
3.8024243307086611
21
-6.1242249606299213
0
LINE
8
BLACK
6
CONTINUOUS
10
3.8024243307086611
20
-6.1242249606299213
11
3.8061738582677163
21
-6.1317240157480315
0
LINE
8
BLACK
6
CONTINUOUS
10
3.8061738582677163
20
-6.1317240157480315
11
3.8099233858267714
21
-6.1467221259842519
0
LINE
8
BLACK
6
CONTINUOUS
10
3.8099233858267714
20
-6.1467221259842519
11
3.8099233858267714
21
-6.1654698031496062
0
LINE
8
BLACK
6
CONTINUOUS
10
3.8099233858267714
20
-6.1654698031496062
11
3.8061738582677163
21
-6.1804679133858267
0
LINE
8
BLACK
6
CONTINUOUS
10
3.8061738582677163
20
-6.1804679133858267
11
3.8024243307086611
21
-6.1879669685039369
0
LINE
8
BLACK
6
CONTINUOUS
10
3.8024243307086611
20
-6.1879669685039369
11
3.798674803149606
21
-6.1917165354330708
0
LINE
8
BLACK
6
CONTINUOUS
10
3.798674803149606
20
-6.1917165354330708
11
3.7911757480314958
21
-6.1954660629921259
0
LINE
8
BLACK
6
CONTINUOUS
10
3.7911757480314958
20
-6.1954660629921259
11
3.7836766535433068
21
-6.1954660629921259
0
LINE
8
BLACK
6
CONTINUOUS
10
3.7836766535433068
20
-6.1954660629921259
11
3.7761775984251966
21
-6.1917165354330708
0
LINE
8
BLACK
6
CONTINUOUS
10
3.7761775984251966
20
-6.1917165354330708
11
3.7724280708661415
21
-6.1879669685039369
0
LINE
8
BLACK
6
CONTINUOUS
10
3.7724280708661415
20
-6.1879669685039369
11
3.7686785433070864
21
-6.1804679133858267
0
LINE
8
BLACK
6
CONTINUOUS
10
3.7686785433070864
20
-6.1804679133858267
11
3.7649290157480313
21
-6.1654698031496062
0
LINE
8
BLACK
6
CONTINUOUS
10
3.7649290157480313
20
-6.1654698031496062
11
3.7649290157480313
21
-6.1467221259842519
0
LINE
8
BLACK
6
CONTINUOUS
10
3.7649290157480313
20
-6.1467221259842519
11
3.7686785433070864
21
-6.1317240157480315
0
LINE
8
BLACK
6
CONTINUOUS
10
3.7686785433070864
20
-6.1317240157480315
11
3.7724280708661415
21
-6.1242249606299213
0
LINE
8
BLACK
6
CONTINUOUS
10
3.7724280708661415
20
-6.1242249606299213
11
3.7761775984251966
21
-6.1204754330708662
0
LINE
8
BLACK
6
CONTINUOUS
10
3.7761775984251966
20
-6.1204754330708662
11
3.7836766535433068
21
-6.1167259055118111
0
LINE
8
BLACK
6
CONTINUOUS
10
3.8436691732283466
20
-6.1954660629921259
11
3.8436691732283466
21
-6.1429725984251968
0
LINE
8
BLACK
6
CONTINUOUS
10
3.8436691732283466
20
-6.150471653543307
11
3.8474187007874017
21
-6.1467221259842519
0
LINE
8
BLACK
6
CONTINUOUS
10
3.8474187007874017
20
-6.1467221259842519
11
3.8549177559055119
21
-6.1429725984251968
0
LINE
8
BLACK
6
CONTINUOUS
10
3.8549177559055119
20
-6.1429725984251968
11
3.866166377952756
21
-6.1429725984251968
0
LINE
8
BLACK
6
CONTINUOUS
10
3.866166377952756
20
-6.1429725984251968
11
3.8736654330708662
21
-6.1467221259842519
0
LINE
8
BLACK
6
CONTINUOUS
10
3.8736654330708662
20
-6.1467221259842519
11
3.8774149606299213
21
-6.1542212204724409
0
LINE
8
BLACK
6
CONTINUOUS
10
3.8774149606299213
20
-6.1542212204724409
11
3.8774149606299213
21
-6.1954660629921259
0
LINE
8
BLACK
6
CONTINUOUS
10
3.8774149606299213
20
-6.1542212204724409
11
3.8811644881889764
21
-6.1467221259842519
0
LINE
8
BLACK
6
CONTINUOUS
10
3.8811644881889764
20
-6.1467221259842519
11
3.8886635433070866
21
-6.1429725984251968
0
LINE
8
BLACK
6
CONTINUOUS
10
3.8886635433070866
20
-6.1429725984251968
11
3.899912125984252
21
-6.1429725984251968
0
LINE
8
BLACK
6
CONTINUOUS
10
3.899912125984252
20
-6.1429725984251968
11
3.9074112204724409
21
-6.1467221259842519
0
LINE
8
BLACK
6
CONTINUOUS
10
3.9074112204724409
20
-6.1467221259842519
11
3.911160748031496
21
-6.1542212204724409
0
LINE
8
BLACK
6
CONTINUOUS
10
3.911160748031496
20
-6.1542212204724409
11
3.911160748031496
21
-6.1954660629921259
0
LINE
8
BLACK
6
CONTINUOUS
10
3.9486560629921259
20
-6.1954660629921259
11
3.9486560629921259
21
-6.1429725984251968
0
LINE
8
BLACK
6
CONTINUOUS
10
3.9486560629921259
20
-6.150471653543307
11
3.952405590551181
21
-6.1467221259842519
0
LINE
8
BLACK
6
CONTINUOUS
10
3.952405590551181
20
-6.1467221259842519
11
3.9599046456692912
21
-6.1429725984251968
0
LINE
8
BLACK
6
CONTINUOUS
10
3.9599046456692912
20
-6.1429725984251968
11
3.9711532677165353
21
-6.1429725984251968
0
LINE
8
BLACK
6
CONTINUOUS
10
3.9711532677165353
20
-6.1429725984251968
11
3.9786523228346455
21
-6.1467221259842519
0
LINE
8
BLACK
6
CONTINUOUS
10
3.9786523228346455
20
-6.1467221259842519
11
3.9824018503937006
21
-6.1542212204724409
0
LINE
8
BLACK
6
CONTINUOUS
10
3.9824018503937006
20
-6.1542212204724409
11
3.9824018503937006
21
-6.1954660629921259
0
LINE
8
BLACK
6
CONTINUOUS
10
3.9824018503937006
20
-6.1542212204724409
11
3.9861513779527558
21
-6.1467221259842519
0
LINE
8
BLACK
6
CONTINUOUS
10
3.9861513779527558
20
-6.1467221259842519
11
3.993650433070866
21
-6.1429725984251968
0
LINE
8
BLACK
6
CONTINUOUS
10
3.993650433070866
20
-6.1429725984251968
11
4.0048990157480313
21
-6.1429725984251968
0
LINE
8
BLACK
6
CONTINUOUS
10
4.0048990157480313
20
-6.1429725984251968
11
4.0123981102362203
21
-6.1467221259842519
0
LINE
8
BLACK
6
CONTINUOUS
10
4.0123981102362203
20
-6.1467221259842519
11
4.0161476377952754
21
-6.1542212204724409
0
LINE
8
BLACK
6
CONTINUOUS
10
4.0161476377952754
20
-6.1542212204724409
11
4.0161476377952754
21
-6.1954660629921259
0
LINE
8
BLACK
6
CONTINUOUS
10
4.1698784251968499
20
-6.1129763779527559
11
4.1023868897637792
21
-6.2142137007874014
0
LINE
8
BLACK
6
CONTINUOUS
10
4.271115787401575
20
-6.1167259055118111
11
4.278614881889764
21
-6.1167259055118111
0
LINE
8
BLACK
6
CONTINUOUS
10
4.278614881889764
20
-6.1167259055118111
11
4.2861139370078742
21
-6.1204754330708662
0
LINE
8
BLACK
6
CONTINUOUS
10
4.2861139370078742
20
-6.1204754330708662
11
4.2898634645669294
21
-6.1242249606299213
0
LINE
8
BLACK
6
CONTINUOUS
10
4.2898634645669294
20
-6.1242249606299213
11
4.2936129921259845
21
-6.1317240157480315
0
LINE
8
BLACK
6
CONTINUOUS
10
4.2936129921259845
20
-6.1317240157480315
11
4.2973625196850396
21
-6.1467221259842519
0
LINE
8
BLACK
6
CONTINUOUS
10
4.2973625196850396
20
-6.1467221259842519
11
4.2973625196850396
21
-6.1654698031496062
0
LINE
8
BLACK
6
CONTINUOUS
10
4.2973625196850396
20
-6.1654698031496062
11
4.2936129921259845
21
-6.1804679133858267
0
LINE
8
BLACK
6
CONTINUOUS
10
4.2936129921259845
20
-6.1804679133858267
11
4.2898634645669294
21
-6.1879669685039369
0
LINE
8
BLACK
6
CONTINUOUS
10
4.2898634645669294
20
-6.1879669685039369
11
4.2861139370078742
21
-6.1917165354330708
0
LINE
8
BLACK
6
CONTINUOUS
10
4.2861139370078742
20
-6.1917165354330708
11
4.278614881889764
21
-6.1954660629921259
0
LINE
8
BLACK
6
CONTINUOUS
10
4.278614881889764
20
-6.1954660629921259
11
4.271115787401575
21
-6.1954660629921259
0
LINE
8
BLACK
6
CONTINUOUS
10
4.271115787401575
20
-6.1954660629921259
11
4.2636167322834648
21
-6.1917165354330708
0
LINE
8
BLACK
6
CONTINUOUS
10
4.2636167322834648
20
-6.1917165354330708
11
4.2598672047244097
21
-6.1879669685039369
0
LINE
8
BLACK
6
CONTINUOUS
10
4.2598672047244097
20
-6.1879669685039369
11
4.2561176771653546
21
-6.1804679133858267
0
LINE
8
BLACK
6
CONTINUOUS
10
4.2561176771653546
20
-6.1804679133858267
11
4.2523681496062995
21
-6.1654698031496062
0
LINE
8
BLACK
6
CONTINUOUS
10
4.2523681496062995
20
-6.1654698031496062
11
4.2523681496062995
21
-6.1467221259842519
0
LINE
8
BLACK
6
CONTINUOUS
10
4.2523681496062995
20
-6.1467221259842519
11
4.2561176771653546
21
-6.1317240157480315
0
LINE
8
BLACK
6
CONTINUOUS
10
4.2561176771653546
20
-6.1317240157480315
11
4.2598672047244097
21
-6.1242249606299213
0
LINE
8
BLACK
6
CONTINUOUS
10
4.2598672047244097
20
-6.1242249606299213
11
4.2636167322834648
21
-6.1204754330708662
0
LINE
8
BLACK
6
CONTINUOUS
10
4.2636167322834648
20
-6.1204754330708662
11
4.271115787401575
21
-6.1167259055118111
0
LINE
8
BLACK
6
CONTINUOUS
10
4.3311083070866143
20
-6.1879669685039369
11
4.3348578346456694
21
-6.1917165354330708
0
LINE
8
BLACK
6
CONTINUOUS
10
4.3348578346456694
20
-6.1917165354330708
11
4.3311083070866143
21
-6.1954660629921259
0
LINE
8
BLACK
6
CONTINUOUS
10
4.3311083070866143
20
-6.1954660629921259
11
4.3273587795275592
21
-6.1917165354330708
0
LINE
8
BLACK
6
CONTINUOUS
10
4.3273587795275592
20
-6.1917165354330708
11
4.3311083070866143
21
-6.1879669685039369
0
LINE
8
BLACK
6
CONTINUOUS
10
4.3311083070866143
20
-6.1879669685039369
11
4.3311083070866143
21
-6.1954660629921259
0
LINE
8
BLACK
6
CONTINUOUS
10
4.3836017322834646
20
-6.1167259055118111
11
4.3911008267716536
21
-6.1167259055118111
0
LINE
8
BLACK
6
CONTINUOUS
10
4.3911008267716536
20
-6.1167259055118111
11
4.3985998818897638
21
-6.1204754330708662
0
LINE
8
BLACK
6
CONTINUOUS
10
4.3985998818897638
20
-6.1204754330708662
11
4.4023494094488189
21
-6.1242249606299213
0
LINE
8
BLACK
6
CONTINUOUS
10
4.4023494094488189
20
-6.1242249606299213
11
4.406098937007874
21
-6.1317240157480315
0
LINE
8
BLACK
6
CONTINUOUS
10
4.406098937007874
20
-6.1317240157480315
11
4.4098484645669291
21
-6.1467221259842519
0
LINE
8
BLACK
6
CONTINUOUS
10
4.4098484645669291
20
-6.1467221259842519
11
4.4098484645669291
21
-6.1654698031496062
0
LINE
8
BLACK
6
CONTINUOUS
10
4.4098484645669291
20
-6.1654698031496062
11
4.406098937007874
21
-6.1804679133858267
0
LINE
8
BLACK
6
CONTINUOUS
10
4.406098937007874
20
-6.1804679133858267
11
4.4023494094488189
21
-6.1879669685039369
0
LINE
8
BLACK
6
CONTINUOUS
10
4.4023494094488189
20
-6.1879669685039369
11
4.3985998818897638
21
-6.1917165354330708
0
LINE
8
BLACK
6
CONTINUOUS
10
4.3985998818897638
20
-6.1917165354330708
11
4.3911008267716536
21
-6.1954660629921259
0
LINE
8
BLACK
6
CONTINUOUS
10
4.3911008267716536
20
-6.1954660629921259
11
4.3836017322834646
21
-6.1954660629921259
0
LINE
8
BLACK
6
CONTINUOUS
10
4.3836017322834646
20
-6.1954660629921259
11
4.3761026771653544
21
-6.1917165354330708
0
LINE
8
BLACK
6
CONTINUOUS
10
4.3761026771653544
20
-6.1917165354330708
11
4.3723531496062993
21
-6.1879669685039369
0
LINE
8
BLACK
6
CONTINUOUS
10
4.3723531496062993
20
-6.1879669685039369
11
4.3686036220472442
21
-6.1804679133858267
0
LINE
8
BLACK
6
CONTINUOUS
10
4.3686036220472442
20
-6.1804679133858267
11
4.3648540944881891
21
-6.1654698031496062
0
LINE
8
BLACK
6
CONTINUOUS
10
4.3648540944881891
20
-6.1654698031496062
11
4.3648540944881891
21
-6.1467221259842519
0
LINE
8
BLACK
6
CONTINUOUS
10
4.3648540944881891
20
-6.1467221259842519
11
4.3686036220472442
21
-6.1317240157480315
0
LINE
8
BLACK
6
CONTINUOUS
10
4.3686036220472442
20
-6.1317240157480315
11
4.3723531496062993
21
-6.1242249606299213
0
LINE
8
BLACK
6
CONTINUOUS
10
4.3723531496062993
20
-6.1242249606299213
11
4.3761026771653544
21
-6.1204754330708662
0
LINE
8
BLACK
6
CONTINUOUS
10
4.3761026771653544
20
-6.1204754330708662
11
4.3836017322834646
21
-6.1167259055118111
0
LINE
8
BLACK
6
CONTINUOUS
10
4.4398447244094488
20
-6.1242249606299213
11
4.4435942519685039
21
-6.1204754330708662
0
LINE
8
BLACK
6
CONTINUOUS
10
4.4435942519685039
20
-6.1204754330708662
11
4.4510933070866141
21
-6.1167259055118111
0
LINE
8
BLACK
6
CONTINUOUS
10
4.4510933070866141
20
-6.1167259055118111
11
4.4698409842519684
21
-6.1167259055118111
0
LINE
8
BLACK
6
CONTINUOUS
10
4.4698409842519684
20
-6.1167259055118111
11
4.4773400393700786
21
-6.1204754330708662
0
LINE
8
BLACK
6
CONTINUOUS
10
4.4773400393700786
20
-6.1204754330708662
11
4.4810895669291337
21
-6.1242249606299213
0
LINE
8
BLACK
6
CONTINUOUS
10
4.4810895669291337
20
-6.1242249606299213
11
4.4848390944881888
21
-6.1317240157480315
0
LINE
8
BLACK
6
CONTINUOUS
10
4.4848390944881888
20
-6.1317240157480315
11
4.4848390944881888
21
-6.1392230708661417
0
LINE
8
BLACK
6
CONTINUOUS
10
4.4848390944881888
20
-6.1392230708661417
11
4.4810895669291337
21
-6.150471653543307
0
LINE
8
BLACK
6
CONTINUOUS
10
4.4810895669291337
20
-6.150471653543307
11
4.4360951968503937
21
-6.1954660629921259
0
LINE
8
BLACK
6
CONTINUOUS
10
4.4360951968503937
20
-6.1954660629921259
11
4.4848390944881888
21
-6.1954660629921259
0
LINE
8
BLACK
6
CONTINUOUS
10
4.5560801968503934
20
-6.1167259055118111
11
4.5185848818897636
21
-6.1167259055118111
0
LINE
8
BLACK
6
CONTINUOUS
10
4.5185848818897636
20
-6.1167259055118111
11
4.5148353543307085
21
-6.1542212204724409
0
LINE
8
BLACK
6
CONTINUOUS
10
4.5148353543307085
20
-6.1542212204724409
11
4.5185848818897636
21
-6.150471653543307
0
LINE
8
BLACK
6
CONTINUOUS
10
4.5185848818897636
20
-6.150471653543307
11
4.5260839370078738
21
-6.1467221259842519
0
LINE
8
BLACK
6
CONTINUOUS
10
4.5260839370078738
20
-6.1467221259842519
11
4.5448316141732281
21
-6.1467221259842519
0
LINE
8
BLACK
6
CONTINUOUS
10
4.5448316141732281
20
-6.1467221259842519
11
4.5523306692913383
21
-6.150471653543307
0
LINE
8
BLACK
6
CONTINUOUS
10
4.5523306692913383
20
-6.150471653543307
11
4.5560801968503934
21
-6.1542212204724409
0
LINE
8
BLACK
6
CONTINUOUS
10
4.5560801968503934
20
-6.1542212204724409
11
4.5598297244094486
21
-6.1617202755905511
0
LINE
8
BLACK
6
CONTINUOUS
10
4.5598297244094486
20
-6.1617202755905511
11
4.5598297244094486
21
-6.1804679133858267
0
LINE
8
BLACK
6
CONTINUOUS
10
4.5598297244094486
20
-6.1804679133858267
11
4.5560801968503934
21
-6.1879669685039369
0
LINE
8
BLACK
6
CONTINUOUS
10
4.5560801968503934
20
-6.1879669685039369
11
4.5523306692913383
21
-6.1917165354330708
0
LINE
8
BLACK
6
CONTINUOUS
10
4.5523306692913383
20
-6.1917165354330708
11
4.5448316141732281
21
-6.1954660629921259
0
LINE
8
BLACK
6
CONTINUOUS
10
4.5448316141732281
20
-6.1954660629921259
11
4.5260839370078738
21
-6.1954660629921259
0
LINE
8
BLACK
6
CONTINUOUS
10
4.5260839370078738
20
-6.1954660629921259
11
4.5185848818897636
21
-6.1917165354330708
0
LINE
8
BLACK
6
CONTINUOUS
10
4.5185848818897636
20
-6.1917165354330708
11
4.5148353543307085
21
-6.1879669685039369
0
LINE
8
BLACK
6
CONTINUOUS
10
4.627321299212598
20
-6.1167259055118111
11
4.6123231496062989
21
-6.1167259055118111
0
LINE
8
BLACK
6
CONTINUOUS
10
4.6123231496062989
20
-6.1167259055118111
11
4.6048240944881886
21
-6.1204754330708662
0
LINE
8
BLACK
6
CONTINUOUS
10
4.6048240944881886
20
-6.1204754330708662
11
4.6010745669291335
21
-6.1242249606299213
0
LINE
8
BLACK
6
CONTINUOUS
10
4.6010745669291335
20
-6.1242249606299213
11
4.5935755118110233
21
-6.1354735433070866
0
LINE
8
BLACK
6
CONTINUOUS
10
4.5935755118110233
20
-6.1354735433070866
11
4.5898259842519682
21
-6.150471653543307
0
LINE
8
BLACK
6
CONTINUOUS
10
4.5898259842519682
20
-6.150471653543307
11
4.5898259842519682
21
-6.1804679133858267
0
LINE
8
BLACK
6
CONTINUOUS
10
4.5898259842519682
20
-6.1804679133858267
11
4.5935755118110233
21
-6.1879669685039369
0
LINE
8
BLACK
6
CONTINUOUS
10
4.5935755118110233
20
-6.1879669685039369
11
4.5973250393700784
21
-6.1917165354330708
0
LINE
8
BLACK
6
CONTINUOUS
10
4.5973250393700784
20
-6.1917165354330708
11
4.6048240944881886
21
-6.1954660629921259
0
LINE
8
BLACK
6
CONTINUOUS
10
4.6048240944881886
20
-6.1954660629921259
11
4.6198222440944878
21
-6.1954660629921259
0
LINE
8
BLACK
6
CONTINUOUS
10
4.6198222440944878
20
-6.1954660629921259
11
4.627321299212598
21
-6.1917165354330708
0
LINE
8
BLACK
6
CONTINUOUS
10
4.627321299212598
20
-6.1917165354330708
11
4.6310708267716532
21
-6.1879669685039369
0
LINE
8
BLACK
6
CONTINUOUS
10
4.6310708267716532
20
-6.1879669685039369
11
4.6348203543307083
21
-6.1804679133858267
0
LINE
8
BLACK
6
CONTINUOUS
10
4.6348203543307083
20
-6.1804679133858267
11
4.6348203543307083
21
-6.1617202755905511
0
LINE
8
BLACK
6
CONTINUOUS
10
4.6348203543307083
20
-6.1617202755905511
11
4.6310708267716532
21
-6.1542212204724409
0
LINE
8
BLACK
6
CONTINUOUS
10
4.6310708267716532
20
-6.1542212204724409
11
4.627321299212598
21
-6.150471653543307
0
LINE
8
BLACK
6
CONTINUOUS
10
4.627321299212598
20
-6.150471653543307
11
4.6198222440944878
21
-6.1467221259842519
0
LINE
8
BLACK
6
CONTINUOUS
10
4.6198222440944878
20
-6.1467221259842519
11
4.6048240944881886
21
-6.1467221259842519
0
LINE
8
BLACK
6
CONTINUOUS
10
4.6048240944881886
20
-6.1467221259842519
11
4.5973250393700784
21
-6.150471653543307
0
LINE
8
BLACK
6
CONTINUOUS
10
4.5973250393700784
20
-6.150471653543307
11
4.5935755118110233
21
-6.1542212204724409
0
LINE
8
BLACK
6
CONTINUOUS
10
4.5935755118110233
20
-6.1542212204724409
11
4.5898259842519682
21
-6.1617202755905511
0
LINE
8
BLACK
6
CONTINUOUS
10
4.6648166141732279
20
-6.1167259055118111
11
4.6648166141732279
21
-6.1317240157480315
0
LINE
8
BLACK
6
CONTINUOUS
10
4.6948128740157475
20
-6.1167259055118111
11
4.6948128740157475
21
-6.1317240157480315
0
LINE
8
BLACK
6
CONTINUOUS
10
4.8110483858267719
20
-6.2254622834645668
11
4.807298818897638
21
-6.2217127559055116
0
LINE
8
BLACK
6
CONTINUOUS
10
4.807298818897638
20
-6.2217127559055116
11
4.7997997637795278
21
-6.2104641732283463
0
LINE
8
BLACK
6
CONTINUOUS
10
4.7997997637795278
20
-6.2104641732283463
11
4.7960502362204727
21
-6.2029651181102361
0
LINE
8
BLACK
6
CONTINUOUS
10
4.7960502362204727
20
-6.2029651181102361
11
4.7923007086614176
21
-6.1917165354330708
0
LINE
8
BLACK
6
CONTINUOUS
10
4.7923007086614176
20
-6.1917165354330708
11
4.7885511811023624
21
-6.1729688582677165
0
LINE
8
BLACK
6
CONTINUOUS
10
4.7885511811023624
20
-6.1729688582677165
11
4.7885511811023624
21
-6.157970748031496
0
LINE
8
BLACK
6
CONTINUOUS
10
4.7885511811023624
20
-6.157970748031496
11
4.7923007086614176
21
-6.1392230708661417
0
LINE
8
BLACK
6
CONTINUOUS
10
4.7923007086614176
20
-6.1392230708661417
11
4.7960502362204727
21
-6.1279744881889764
0
LINE
8
BLACK
6
CONTINUOUS
10
4.7960502362204727
20
-6.1279744881889764
11
4.7997997637795278
21
-6.1204754330708662
0
LINE
8
BLACK
6
CONTINUOUS
10
4.7997997637795278
20
-6.1204754330708662
11
4.807298818897638
21
-6.1092268110236221
0
LINE
8
BLACK
6
CONTINUOUS
10
4.807298818897638
20
-6.1092268110236221
11
4.8110483858267719
21
-6.105477283464567
0
LINE
8
BLACK
6
CONTINUOUS
10
4.8372950787401576
20
-6.1242249606299213
11
4.8410446062992127
21
-6.1204754330708662
0
LINE
8
BLACK
6
CONTINUOUS
10
4.8410446062992127
20
-6.1204754330708662
11
4.848543661417323
21
-6.1167259055118111
0
LINE
8
BLACK
6
CONTINUOUS
10
4.848543661417323
20
-6.1167259055118111
11
4.8672913385826773
21
-6.1167259055118111
0
LINE
8
BLACK
6
CONTINUOUS
10
4.8672913385826773
20
-6.1167259055118111
11
4.8747903937007875
21
-6.1204754330708662
0
LINE
8
BLACK
6
CONTINUOUS
10
4.8747903937007875
20
-6.1204754330708662
11
4.8785399212598426
21
-6.1242249606299213
0
LINE
8
BLACK
6
CONTINUOUS
10
4.8785399212598426
20
-6.1242249606299213
11
4.8822894488188977
21
-6.1317240157480315
0
LINE
8
BLACK
6
CONTINUOUS
10
4.8822894488188977
20
-6.1317240157480315
11
4.8822894488188977
21
-6.1392230708661417
0
LINE
8
BLACK
6
CONTINUOUS
10
4.8822894488188977
20
-6.1392230708661417
11
4.8785399212598426
21
-6.150471653543307
0
LINE
8
BLACK
6
CONTINUOUS
10
4.8785399212598426
20
-6.150471653543307
11
4.8335455511811025
21
-6.1954660629921259
0
LINE
8
BLACK
6
CONTINUOUS
10
4.8335455511811025
20
-6.1954660629921259
11
4.8822894488188977
21
-6.1954660629921259
0
LINE
8
BLACK
6
CONTINUOUS
10
4.9760277559055117
20
-6.1954660629921259
11
4.9760277559055117
21
-6.1167259055118111
0
LINE
8
BLACK
6
CONTINUOUS
10
5.0097735433070865
20
-6.1954660629921259
11
5.0097735433070865
21
-6.1542212204724409
0
LINE
8
BLACK
6
CONTINUOUS
10
5.0097735433070865
20
-6.1542212204724409
11
5.0060240157480314
21
-6.1467221259842519
0
LINE
8
BLACK
6
CONTINUOUS
10
5.0060240157480314
20
-6.1467221259842519
11
4.9985249606299211
21
-6.1429725984251968
0
LINE
8
BLACK
6
CONTINUOUS
10
4.9985249606299211
20
-6.1429725984251968
11
4.987276338582677
21
-6.1429725984251968
0
LINE
8
BLACK
6
CONTINUOUS
10
4.987276338582677
20
-6.1429725984251968
11
4.9797772834645668
21
-6.1467221259842519
0
LINE
8
BLACK
6
CONTINUOUS
10
4.9797772834645668
20
-6.1467221259842519
11
4.9760277559055117
21
-6.150471653543307
0
LINE
8
BLACK
6
CONTINUOUS
10
5.0585174409448816
20
-6.1954660629921259
11
5.0510183858267714
21
-6.1917165354330708
0
LINE
8
BLACK
6
CONTINUOUS
10
5.0510183858267714
20
-6.1917165354330708
11
5.0472688582677163
21
-6.1879669685039369
0
LINE
8
BLACK
6
CONTINUOUS
10
5.0472688582677163
20
-6.1879669685039369
11
5.0435193307086612
21
-6.1804679133858267
0
LINE
8
BLACK
6
CONTINUOUS
10
5.0435193307086612
20
-6.1804679133858267
11
5.0435193307086612
21
-6.157970748031496
0
LINE
8
BLACK
6
CONTINUOUS
10
5.0435193307086612
20
-6.157970748031496
11
5.0472688582677163
21
-6.150471653543307
0
LINE
8
BLACK
6
CONTINUOUS
10
5.0472688582677163
20
-6.150471653543307
11
5.0510183858267714
21
-6.1467221259842519
0
LINE
8
BLACK
6
CONTINUOUS
10
5.0510183858267714
20
-6.1467221259842519
11
5.0585174409448816
21
-6.1429725984251968
0
LINE
8
BLACK
6
CONTINUOUS
10
5.0585174409448816
20
-6.1429725984251968
11
5.0697660629921257
21
-6.1429725984251968
0
LINE
8
BLACK
6
CONTINUOUS
10
5.0697660629921257
20
-6.1429725984251968
11
5.077265118110236
21
-6.1467221259842519
0
LINE
8
BLACK
6
CONTINUOUS
10
5.077265118110236
20
-6.1467221259842519
11
5.0810146456692911
21
-6.150471653543307
0
LINE
8
BLACK
6
CONTINUOUS
10
5.0810146456692911
20
-6.150471653543307
11
5.0847641732283462
21
-6.157970748031496
0
LINE
8
BLACK
6
CONTINUOUS
10
5.0847641732283462
20
-6.157970748031496
11
5.0847641732283462
21
-6.1804679133858267
0
LINE
8
BLACK
6
CONTINUOUS
10
5.0847641732283462
20
-6.1804679133858267
11
5.0810146456692911
21
-6.1879669685039369
0
LINE
8
BLACK
6
CONTINUOUS
10
5.0810146456692911
20
-6.1879669685039369
11
5.077265118110236
21
-6.1917165354330708
0
LINE
8
BLACK
6
CONTINUOUS
10
5.077265118110236
20
-6.1917165354330708
11
5.0697660629921257
21
-6.1954660629921259
0
LINE
8
BLACK
6
CONTINUOUS
10
5.0697660629921257
20
-6.1954660629921259
11
5.0585174409448816
21
-6.1954660629921259
0
LINE
8
BLACK
6
CONTINUOUS
10
5.1297585433070862
20
-6.1954660629921259
11
5.122259488188976
21
-6.1917165354330708
0
LINE
8
BLACK
6
CONTINUOUS
10
5.122259488188976
20
-6.1917165354330708
11
5.1185099606299209
21
-6.1842174409448818
0
LINE
8
BLACK
6
CONTINUOUS
10
5.1185099606299209
20
-6.1842174409448818
11
5.1185099606299209
21
-6.1167259055118111
0
LINE
8
BLACK
6
CONTINUOUS
10
5.1897510629921255
20
-6.1917165354330708
11
5.1822520078740153
21
-6.1954660629921259
0
LINE
8
BLACK
6
CONTINUOUS
10
5.1822520078740153
20
-6.1954660629921259
11
5.1672538582677161
21
-6.1954660629921259
0
LINE
8
BLACK
6
CONTINUOUS
10
5.1672538582677161
20
-6.1954660629921259
11
5.1597548031496059
21
-6.1917165354330708
0
LINE
8
BLACK
6
CONTINUOUS
10
5.1597548031496059
20
-6.1917165354330708
11
5.1560052755905508
21
-6.1842174409448818
0
LINE
8
BLACK
6
CONTINUOUS
10
5.1560052755905508
20
-6.1842174409448818
11
5.1560052755905508
21
-6.1542212204724409
0
LINE
8
BLACK
6
CONTINUOUS
10
5.1560052755905508
20
-6.1542212204724409
11
5.1597548031496059
21
-6.1467221259842519
0
LINE
8
BLACK
6
CONTINUOUS
10
5.1597548031496059
20
-6.1467221259842519
11
5.1672538582677161
21
-6.1429725984251968
0
LINE
8
BLACK
6
CONTINUOUS
10
5.1672538582677161
20
-6.1429725984251968
11
5.1822520078740153
21
-6.1429725984251968
0
LINE
8
BLACK
6
CONTINUOUS
10
5.1822520078740153
20
-6.1429725984251968
11
5.1897510629921255
21
-6.1467221259842519
0
LINE
8
BLACK
6
CONTINUOUS
10
5.1897510629921255
20
-6.1467221259842519
11
5.1935005905511806
21
-6.1542212204724409
0
LINE
8
BLACK
6
CONTINUOUS
10
5.1935005905511806
20
-6.1542212204724409
11
5.1935005905511806
21
-6.1617202755905511
0
LINE
8
BLACK
6
CONTINUOUS
10
5.1935005905511806
20
-6.1617202755905511
11
5.1560052755905508
21
-6.1692193307086614
0
LINE
8
BLACK
6
CONTINUOUS
10
5.2234968503937003
20
-6.1917165354330708
11
5.2309959055118105
21
-6.1954660629921259
0
LINE
8
BLACK
6
CONTINUOUS
10
5.2309959055118105
20
-6.1954660629921259
11
5.2459940157480318
21
-6.1954660629921259
0
LINE
8
BLACK
6
CONTINUOUS
10
5.2459940157480318
20
-6.1954660629921259
11
5.2534931102362208
21
-6.1917165354330708
0
LINE
8
BLACK
6
CONTINUOUS
10
5.2534931102362208
20
-6.1917165354330708
11
5.2572426377952759
21
-6.1842174409448818
0
LINE
8
BLACK
6
CONTINUOUS
10
5.2572426377952759
20
-6.1842174409448818
11
5.2572426377952759
21
-6.1804679133858267
0
LINE
8
BLACK
6
CONTINUOUS
10
5.2572426377952759
20
-6.1804679133858267
11
5.2534931102362208
21
-6.1729688582677165
0
LINE
8
BLACK
6
CONTINUOUS
10
5.2534931102362208
20
-6.1729688582677165
11
5.2459940157480318
21
-6.1692193307086614
0
LINE
8
BLACK
6
CONTINUOUS
10
5.2459940157480318
20
-6.1692193307086614
11
5.2347454330708656
21
-6.1692193307086614
0
LINE
8
BLACK
6
CONTINUOUS
10
5.2347454330708656
20
-6.1692193307086614
11
5.2272463779527554
21
-6.1654698031496062
0
LINE
8
BLACK
6
CONTINUOUS
10
5.2272463779527554
20
-6.1654698031496062
11
5.2234968503937003
21
-6.157970748031496
0
LINE
8
BLACK
6
CONTINUOUS
10
5.2234968503937003
20
-6.157970748031496
11
5.2234968503937003
21
-6.1542212204724409
0
LINE
8
BLACK
6
CONTINUOUS
10
5.2234968503937003
20
-6.1542212204724409
11
5.2272463779527554
21
-6.1467221259842519
0
LINE
8
BLACK
6
CONTINUOUS
10
5.2272463779527554
20
-6.1467221259842519
11
5.2347454330708656
21
-6.1429725984251968
0
LINE
8
BLACK
6
CONTINUOUS
10
5.2347454330708656
20
-6.1429725984251968
11
5.2459940157480318
21
-6.1429725984251968
0
LINE
8
BLACK
6
CONTINUOUS
10
5.2459940157480318
20
-6.1429725984251968
11
5.2534931102362208
21
-6.1467221259842519
0
LINE
8
BLACK
6
CONTINUOUS
10
5.2834893700787404
20
-6.2254622834645668
11
5.2872388976377955
21
-6.2217127559055116
0
LINE
8
BLACK
6
CONTINUOUS
10
5.2872388976377955
20
-6.2217127559055116
11
5.2947379527559058
21
-6.2104641732283463
0
LINE
8
BLACK
6
CONTINUOUS
10
5.2947379527559058
20
-6.2104641732283463
11
5.2984874803149609
21
-6.2029651181102361
0
LINE
8
BLACK
6
CONTINUOUS
10
5.2984874803149609
20
-6.2029651181102361
11
5.302237007874016
21
-6.1917165354330708
0
LINE
8
BLACK
6
CONTINUOUS
10
5.302237007874016
20
-6.1917165354330708
11
5.3059865354330711
21
-6.1729688582677165
0
LINE
8
BLACK
6
CONTINUOUS
10
5.3059865354330711
20
-6.1729688582677165
11
5.3059865354330711
21
-6.157970748031496
0
LINE
8
BLACK
6
CONTINUOUS
10
5.3059865354330711
20
-6.157970748031496
11
5.302237007874016
21
-6.1392230708661417
0
LINE
8
BLACK
6
CONTINUOUS
10
5.302237007874016
20
-6.1392230708661417
11
5.2984874803149609
21
-6.1279744881889764
0
LINE
8
BLACK
6
CONTINUOUS
10
5.2984874803149609
20
-6.1279744881889764
11
5.2947379527559058
21
-6.1204754330708662
0
LINE
8
BLACK
6
CONTINUOUS
10
5.2947379527559058
20
-6.1204754330708662
11
5.2872388976377955
21
-6.1092268110236221
0
LINE
8
BLACK
6
CONTINUOUS
10
5.2872388976377955
20
-6.1092268110236221
11
5.2834893700787404
21
-6.105477283464567
0
LINE
8
BLACK
6
CONTINUOUS
10
5.4259715748031496
20
-6.2254622834645668
11
5.4222220078740158
21
-6.2217127559055116
0
LINE
8
BLACK
6
CONTINUOUS
10
5.4222220078740158
20
-6.2217127559055116
11
5.4147229527559055
21
-6.2104641732283463
0
LINE
8
BLACK
6
CONTINUOUS
10
5.4147229527559055
20
-6.2104641732283463
11
5.4109734251968504
21
-6.2029651181102361
0
LINE
8
BLACK
6
CONTINUOUS
10
5.4109734251968504
20
-6.2029651181102361
11
5.4072238976377953
21
-6.1917165354330708
0
LINE
8
BLACK
6
CONTINUOUS
10
5.4072238976377953
20
-6.1917165354330708
11
5.4034743700787402
21
-6.1729688582677165
0
LINE
8
BLACK
6
CONTINUOUS
10
5.4034743700787402
20
-6.1729688582677165
11
5.4034743700787402
21
-6.157970748031496
0
LINE
8
BLACK
6
CONTINUOUS
10
5.4034743700787402
20
-6.157970748031496
11
5.4072238976377953
21
-6.1392230708661417
0
LINE
8
BLACK
6
CONTINUOUS
10
5.4072238976377953
20
-6.1392230708661417
11
5.4109734251968504
21
-6.1279744881889764
0
LINE
8
BLACK
6
CONTINUOUS
10
5.4109734251968504
20
-6.1279744881889764
11
5.4147229527559055
21
-6.1204754330708662
0
LINE
8
BLACK
6
CONTINUOUS
10
5.4147229527559055
20
-6.1204754330708662
11
5.4222220078740158
21
-6.1092268110236221
0
LINE
8
BLACK
6
CONTINUOUS
10
5.4222220078740158
20
-6.1092268110236221
11
5.4259715748031496
21
-6.105477283464567
0
LINE
8
BLACK
6
CONTINUOUS
10
5.4559677952755905
20
-6.1429725984251968
11
5.4559677952755905
21
-6.1954660629921259
0
LINE
8
BLACK
6
CONTINUOUS
10
5.4559677952755905
20
-6.150471653543307
11
5.4597173228346456
21
-6.1467221259842519
0
LINE
8
BLACK
6
CONTINUOUS
10
5.4597173228346456
20
-6.1467221259842519
11
5.4672163779527558
21
-6.1429725984251968
0
LINE
8
BLACK
6
CONTINUOUS
10
5.4672163779527558
20
-6.1429725984251968
11
5.4784649999999999
21
-6.1429725984251968
0
LINE
8
BLACK
6
CONTINUOUS
10
5.4784649999999999
20
-6.1429725984251968
11
5.4859640551181101
21
-6.1467221259842519
0
LINE
8
BLACK
6
CONTINUOUS
10
5.4859640551181101
20
-6.1467221259842519
11
5.4897135826771652
21
-6.1542212204724409
0
LINE
8
BLACK
6
CONTINUOUS
10
5.4897135826771652
20
-6.1542212204724409
11
5.4897135826771652
21
-6.1954660629921259
0
LINE
8
BLACK
6
CONTINUOUS
10
5.5384574803149604
20
-6.1954660629921259
11
5.5309584251968502
21
-6.1917165354330708
0
LINE
8
BLACK
6
CONTINUOUS
10
5.5309584251968502
20
-6.1917165354330708
11
5.5272088976377951
21
-6.1879669685039369
0
LINE
8
BLACK
6
CONTINUOUS
10
5.5272088976377951
20
-6.1879669685039369
11
5.52345937007874
21
-6.1804679133858267
0
LINE
8
BLACK
6
CONTINUOUS
10
5.52345937007874
20
-6.1804679133858267
11
5.52345937007874
21
-6.157970748031496
0
LINE
8
BLACK
6
CONTINUOUS
10
5.52345937007874
20
-6.157970748031496
11
5.5272088976377951
21
-6.150471653543307
0
LINE
8
BLACK
6
CONTINUOUS
10
5.5272088976377951
20
-6.150471653543307
11
5.5309584251968502
21
-6.1467221259842519
0
LINE
8
BLACK
6
CONTINUOUS
10
5.5309584251968502
20
-6.1467221259842519
11
5.5384574803149604
21
-6.1429725984251968
0
LINE
8
BLACK
6
CONTINUOUS
10
5.5384574803149604
20
-6.1429725984251968
11
5.5497061023622045
21
-6.1429725984251968
0
LINE
8
BLACK
6
CONTINUOUS
10
5.5497061023622045
20
-6.1429725984251968
11
5.5572051574803147
21
-6.1467221259842519
0
LINE
8
BLACK
6
CONTINUOUS
10
5.5572051574803147
20
-6.1467221259842519
11
5.5609546850393698
21
-6.150471653543307
0
LINE
8
BLACK
6
CONTINUOUS
10
5.5609546850393698
20
-6.150471653543307
11
5.564704212598425
21
-6.157970748031496
0
LINE
8
BLACK
6
CONTINUOUS
10
5.564704212598425
20
-6.157970748031496
11
5.564704212598425
21
-6.1804679133858267
0
LINE
8
BLACK
6
CONTINUOUS
10
5.564704212598425
20
-6.1804679133858267
11
5.5609546850393698
21
-6.1879669685039369
0
LINE
8
BLACK
6
CONTINUOUS
10
5.5609546850393698
20
-6.1879669685039369
11
5.5572051574803147
21
-6.1917165354330708
0
LINE
8
BLACK
6
CONTINUOUS
10
5.5572051574803147
20
-6.1917165354330708
11
5.5497061023622045
21
-6.1954660629921259
0
LINE
8
BLACK
6
CONTINUOUS
10
5.5497061023622045
20
-6.1954660629921259
11
5.5384574803149604
21
-6.1954660629921259
0
LINE
8
BLACK
6
CONTINUOUS
10
5.5872014173228344
20
-6.1429725984251968
11
5.6171976377952753
21
-6.1429725984251968
0
LINE
8
BLACK
6
CONTINUOUS
10
5.5984499999999997
20
-6.1167259055118111
11
5.5984499999999997
21
-6.1842174409448818
0
LINE
8
BLACK
6
CONTINUOUS
10
5.5984499999999997
20
-6.1842174409448818
11
5.6021995275590548
21
-6.1917165354330708
0
LINE
8
BLACK
6
CONTINUOUS
10
5.6021995275590548
20
-6.1917165354330708
11
5.609698582677165
21
-6.1954660629921259
0
LINE
8
BLACK
6
CONTINUOUS
10
5.609698582677165
20
-6.1954660629921259
11
5.6171976377952753
21
-6.1954660629921259
0
LINE
8
BLACK
6
CONTINUOUS
10
5.703436889763779
20
-6.1429725984251968
11
5.703436889763779
21
-6.2217127559055116
0
LINE
8
BLACK
6
CONTINUOUS
10
5.703436889763779
20
-6.1467221259842519
11
5.7109359448818893
21
-6.1429725984251968
0
LINE
8
BLACK
6
CONTINUOUS
10
5.7109359448818893
20
-6.1429725984251968
11
5.7259340944881885
21
-6.1429725984251968
0
LINE
8
BLACK
6
CONTINUOUS
10
5.7259340944881885
20
-6.1429725984251968
11
5.7334331496062987
21
-6.1467221259842519
0
LINE
8
BLACK
6
CONTINUOUS
10
5.7334331496062987
20
-6.1467221259842519
11
5.7371826771653538
21
-6.150471653543307
0
LINE
8
BLACK
6
CONTINUOUS
10
5.7371826771653538
20
-6.150471653543307
11
5.7409322047244089
21
-6.157970748031496
0
LINE
8
BLACK
6
CONTINUOUS
10
5.7409322047244089
20
-6.157970748031496
11
5.7409322047244089
21
-6.1804679133858267
0
LINE
8
BLACK
6
CONTINUOUS
10
5.7409322047244089
20
-6.1804679133858267
11
5.7371826771653538
21
-6.1879669685039369
0
LINE
8
BLACK
6
CONTINUOUS
10
5.7371826771653538
20
-6.1879669685039369
11
5.7334331496062987
21
-6.1917165354330708
0
LINE
8
BLACK
6
CONTINUOUS
10
5.7334331496062987
20
-6.1917165354330708
11
5.7259340944881885
21
-6.1954660629921259
0
LINE
8
BLACK
6
CONTINUOUS
10
5.7259340944881885
20
-6.1954660629921259
11
5.7109359448818893
21
-6.1954660629921259
0
LINE
8
BLACK
6
CONTINUOUS
10
5.7109359448818893
20
-6.1954660629921259
11
5.703436889763779
21
-6.1917165354330708
0
LINE
8
BLACK
6
CONTINUOUS
10
5.7859265748031499
20
-6.1954660629921259
11
5.7784275196850396
21
-6.1917165354330708
0
LINE
8
BLACK
6
CONTINUOUS
10
5.7784275196850396
20
-6.1917165354330708
11
5.7746779921259845
21
-6.1842174409448818
0
LINE
8
BLACK
6
CONTINUOUS
10
5.7746779921259845
20
-6.1842174409448818
11
5.7746779921259845
21
-6.1167259055118111
0
LINE
8
BLACK
6
CONTINUOUS
10
5.8496686220472442
20
-6.1954660629921259
11
5.8496686220472442
21
-6.1542212204724409
0
LINE
8
BLACK
6
CONTINUOUS
10
5.8496686220472442
20
-6.1542212204724409
11
5.8459190944881891
21
-6.1467221259842519
0
LINE
8
BLACK
6
CONTINUOUS
10
5.8459190944881891
20
-6.1467221259842519
11
5.8384200393700789
21
-6.1429725984251968
0
LINE
8
BLACK
6
CONTINUOUS
10
5.8384200393700789
20
-6.1429725984251968
11
5.8234218897637797
21
-6.1429725984251968
0
LINE
8
BLACK
6
CONTINUOUS
10
5.8234218897637797
20
-6.1429725984251968
11
5.8159228346456695
21
-6.1467221259842519
0
LINE
8
BLACK
6
CONTINUOUS
10
5.8496686220472442
20
-6.1917165354330708
11
5.842169566929134
21
-6.1954660629921259
0
LINE
8
BLACK
6
CONTINUOUS
10
5.842169566929134
20
-6.1954660629921259
11
5.8234218897637797
21
-6.1954660629921259
0
LINE
8
BLACK
6
CONTINUOUS
10
5.8234218897637797
20
-6.1954660629921259
11
5.8159228346456695
21
-6.1917165354330708
0
LINE
8
BLACK
6
CONTINUOUS
10
5.8159228346456695
20
-6.1917165354330708
11
5.8121733070866144
21
-6.1842174409448818
0
LINE
8
BLACK
6
CONTINUOUS
10
5.8121733070866144
20
-6.1842174409448818
11
5.8121733070866144
21
-6.1767183858267716
0
LINE
8
BLACK
6
CONTINUOUS
10
5.8121733070866144
20
-6.1767183858267716
11
5.8159228346456695
21
-6.1692193307086614
0
LINE
8
BLACK
6
CONTINUOUS
10
5.8159228346456695
20
-6.1692193307086614
11
5.8234218897637797
21
-6.1654698031496062
0
LINE
8
BLACK
6
CONTINUOUS
10
5.8234218897637797
20
-6.1654698031496062
11
5.842169566929134
21
-6.1654698031496062
0
LINE
8
BLACK
6
CONTINUOUS
10
5.842169566929134
20
-6.1654698031496062
11
5.8496686220472442
21
-6.1617202755905511
0
LINE
8
BLACK
6
CONTINUOUS
10
5.8759153543307088
20
-6.1429725984251968
11
5.9059115748031497
21
-6.1429725984251968
0
LINE
8
BLACK
6
CONTINUOUS
10
5.8871639370078741
20
-6.1167259055118111
11
5.8871639370078741
21
-6.1842174409448818
0
LINE
8
BLACK
6
CONTINUOUS
10
5.8871639370078741
20
-6.1842174409448818
11
5.8909134645669292
21
-6.1917165354330708
0
LINE
8
BLACK
6
CONTINUOUS
10
5.8909134645669292
20
-6.1917165354330708
11
5.8984125196850394
21
-6.1954660629921259
0
LINE
8
BLACK
6
CONTINUOUS
10
5.8984125196850394
20
-6.1954660629921259
11
5.9059115748031497
21
-6.1954660629921259
0
LINE
8
BLACK
6
CONTINUOUS
10
5.9621545669291338
20
-6.1917165354330708
11
5.9546555118110236
21
-6.1954660629921259
0
LINE
8
BLACK
6
CONTINUOUS
10
5.9546555118110236
20
-6.1954660629921259
11
5.9396573622047244
21
-6.1954660629921259
0
LINE
8
BLACK
6
CONTINUOUS
10
5.9396573622047244
20
-6.1954660629921259
11
5.9321583070866142
21
-6.1917165354330708
0
LINE
8
BLACK
6
CONTINUOUS
10
5.9321583070866142
20
-6.1917165354330708
11
5.9284087795275591
21
-6.1842174409448818
0
LINE
8
BLACK
6
CONTINUOUS
10
5.9284087795275591
20
-6.1842174409448818
11
5.9284087795275591
21
-6.1542212204724409
0
LINE
8
BLACK
6
CONTINUOUS
10
5.9284087795275591
20
-6.1542212204724409
11
5.9321583070866142
21
-6.1467221259842519
0
LINE
8
BLACK
6
CONTINUOUS
10
5.9321583070866142
20
-6.1467221259842519
11
5.9396573622047244
21
-6.1429725984251968
0
LINE
8
BLACK
6
CONTINUOUS
10
5.9396573622047244
20
-6.1429725984251968
11
5.9546555118110236
21
-6.1429725984251968
0
LINE
8
BLACK
6
CONTINUOUS
10
5.9546555118110236
20
-6.1429725984251968
11
5.9621545669291338
21
-6.1467221259842519
0
LINE
8
BLACK
6
CONTINUOUS
10
5.9621545669291338
20
-6.1467221259842519
11
5.9659040944881889
21
-6.1542212204724409
0
LINE
8
BLACK
6
CONTINUOUS
10
5.9659040944881889
20
-6.1542212204724409
11
5.9659040944881889
21
-6.1617202755905511
0
LINE
8
BLACK
6
CONTINUOUS
10
5.9659040944881889
20
-6.1617202755905511
11
5.9284087795275591
21
-6.1692193307086614
0
LINE
8
BLACK
6
CONTINUOUS
10
6.0333956692913384
20
-6.1954660629921259
11
6.0333956692913384
21
-6.1167259055118111
0
LINE
8
BLACK
6
CONTINUOUS
10
6.0333956692913384
20
-6.1917165354330708
11
6.0258966141732282
21
-6.1954660629921259
0
LINE
8
BLACK
6
CONTINUOUS
10
6.0258966141732282
20
-6.1954660629921259
11
6.010898464566929
21
-6.1954660629921259
0
LINE
8
BLACK
6
CONTINUOUS
10
6.010898464566929
20
-6.1954660629921259
11
6.0033994094488188
21
-6.1917165354330708
0
LINE
8
BLACK
6
CONTINUOUS
10
6.0033994094488188
20
-6.1917165354330708
11
5.9996498818897637
21
-6.1879669685039369
0
LINE
8
BLACK
6
CONTINUOUS
10
5.9996498818897637
20
-6.1879669685039369
11
5.9959003543307086
21
-6.1804679133858267
0
LINE
8
BLACK
6
CONTINUOUS
10
5.9959003543307086
20
-6.1804679133858267
11
5.9959003543307086
21
-6.157970748031496
0
LINE
8
BLACK
6
CONTINUOUS
10
5.9959003543307086
20
-6.157970748031496
11
5.9996498818897637
21
-6.150471653543307
0
LINE
8
BLACK
6
CONTINUOUS
10
5.9996498818897637
20
-6.150471653543307
11
6.0033994094488188
21
-6.1467221259842519
0
LINE
8
BLACK
6
CONTINUOUS
10
6.0033994094488188
20
-6.1467221259842519
11
6.010898464566929
21
-6.1429725984251968
0
LINE
8
BLACK
6
CONTINUOUS
10
6.010898464566929
20
-6.1429725984251968
11
6.0258966141732282
21
-6.1429725984251968
0
LINE
8
BLACK
6
CONTINUOUS
10
6.0258966141732282
20
-6.1429725984251968
11
6.0333956692913384
21
-6.1467221259842519
0
LINE
8
BLACK
6
CONTINUOUS
10
6.063391929133858
20
-6.2254622834645668
11
6.0671414566929132
21
-6.2217127559055116
0
LINE
8
BLACK
6
CONTINUOUS
10
6.0671414566929132
20
-6.2217127559055116
11
6.0746405118110234
21
-6.2104641732283463
0
LINE
8
BLACK
6
CONTINUOUS
10
6.0746405118110234
20
-6.2104641732283463
11
6.0783900393700785
21
-6.2029651181102361
0
LINE
8
BLACK
6
CONTINUOUS
10
6.0783900393700785
20
-6.2029651181102361
11
6.0821395669291336
21
-6.1917165354330708
0
LINE
8
BLACK
6
CONTINUOUS
10
6.0821395669291336
20
-6.1917165354330708
11
6.0858890944881887
21
-6.1729688582677165
0
LINE
8
BLACK
6
CONTINUOUS
10
6.0858890944881887
20
-6.1729688582677165
11
6.0858890944881887
21
-6.157970748031496
0
LINE
8
BLACK
6
CONTINUOUS
10
6.0858890944881887
20
-6.157970748031496
11
6.0821395669291336
21
-6.1392230708661417
0
LINE
8
BLACK
6
CONTINUOUS
10
6.0821395669291336
20
-6.1392230708661417
11
6.0783900393700785
21
-6.1279744881889764
0
LINE
8
BLACK
6
CONTINUOUS
10
6.0783900393700785
20
-6.1279744881889764
11
6.0746405118110234
21
-6.1204754330708662
0
LINE
8
BLACK
6
CONTINUOUS
10
6.0746405118110234
20
-6.1204754330708662
11
6.0671414566929132
21
-6.1092268110236221
0
LINE
8
BLACK
6
CONTINUOUS
10
6.0671414566929132
20
-6.1092268110236221
11
6.063391929133858
21
-6.105477283464567
  0
ENDSEC
  0
EOF
