  0
SECTION
  2
HEADER
  9
$ANGBASE
  50
0.0
  9
$ANGDIR
  70
1
  9
$MEASUREMENT
  70
0
  0
ENDSEC
  0
SECTION
  2
TABLES
  0
TABLE
  2
LTYPE
  70
4
  0
LTYPE
  5
40F
  2
CONTINUOUS
  70
0
  3
Solid line
  72
65
  73
0
  40
0.0
  0
LTYPE
  5
410
  2
DASHDOT
 70
0
  3
Dash Dot ____ _ ____ _
 72
65
 73
4
 40
2.0
 49
1.25
 49
-0.25
 49
0.25
 49
-0.25
  0
LTYPE
  5
411
  2
DASHED
 70
0
  3
Dashed __ __ __ __ __
 72
65
 73
2
 40
0.75
 49
0.5
 49
-0.25
  0
LTYPE
  5
43B
  2
DOTTED
 70
0
  3
Dotted .  .  .  .
 72
65
 73
2
 40
0.2
 49
0.0
 49
-0.2
  0
ENDTAB
  0
TABLE
  2
STYLE
  70
4
  0
STYLE
  2
KICAD
  70
0
  40
0
  41
1
  42
1
  50
0
  71
0
  3
isocp.shx
  0
STYLE
  2
KICADB
  70
0
  40
0
  41
1
  42
1
  50
0
  71
0
  3
isocp.shx
  0
STYLE
  2
KICADI
  70
0
  40
0
  41
1
  42
1
  50
15
  71
0
  3
isocp.shx
  0
STYLE
  2
KICADBI
  70
0
  40
0
  41
1
  42
1
  50
15
  71
0
  3
isocp.shx
  0
ENDTAB
  0
TABLE
  2
LAYER
  70
1
  0
LAYER
  2
BLACK
  70
0
  62
7
  6
CONTINUOUS
  0
ENDTAB
  0
ENDSEC
  0
SECTION
  2
ENTITIES
0
LINE
8
BLACK
6
CONTINUOUS
10
4.1299212598425195
20
-5.9055118110236222
11
4.1299212598425195
21
-5.877952755905512
0
LINE
8
BLACK
6
CONTINUOUS
10
3.622047244094488
20
-3.9370078740157481
11
3.622047244094488
21
-2.3228346456692912
0
LINE
8
BLACK
6
CONTINUOUS
10
5.2755905511811019
20
-2.3228346456692912
11
5.2755905511811019
21
-3.9370078740157481
0
LINE
8
BLACK
6
CONTINUOUS
10
4.7244094488188972
20
-5.9055118110236222
11
5.4921259842519685
21
-5.9055118110236222
0
LINE
8
BLACK
6
CONTINUOUS
10
4.1299212598425195
20
-5.9055118110236222
11
3.4055118110236218
21
-5.9055118110236222
0
LINE
8
BLACK
6
CONTINUOUS
10
3.4055118110236218
20
-5.9055118110236222
11
3.4055118110236218
21
-2.2440944881889764
0
LINE
8
BLACK
6
CONTINUOUS
10
5.2755905511811019
20
-3.9370078740157481
11
3.622047244094488
21
-3.9370078740157481
0
LINE
8
BLACK
6
CONTINUOUS
10
4.7244094488188972
20
-5.877952755905512
11
4.7244094488188972
21
-5.9055118110236222
0
LINE
8
BLACK
6
CONTINUOUS
10
5.4921259842519685
20
-2.2440944881889764
11
5.4921259842519685
21
-5.9055118110236222
0
LINE
8
BLACK
6
CONTINUOUS
10
3.4055118110236218
20
-2.2440944881889764
11
5.4921259842519685
21
-2.2440944881889764
0
LINE
8
BLACK
6
CONTINUOUS
10
3.622047244094488
20
-2.3228346456692912
11
5.2755905511811019
21
-2.3228346456692912
0
LINE
8
BLACK
6
CONTINUOUS
10
4.1299212598425195
20
-5.877952755905512
11
4.7244094488188972
21
-5.877952755905512
0
LINE
8
BLACK
6
CONTINUOUS
10
3.4251968503937009
20
-5.1456692913385824
11
3.4409448818897639
21
-5.1614173228346454
0
LINE
8
BLACK
6
CONTINUOUS
10
3.4409448818897639
20
-5.1456692913385824
11
3.4251968503937009
21
-5.1614173228346454
0
LINE
8
BLACK
6
CONTINUOUS
10
3.5236220472440944
20
-3.4921259842519685
11
3.5393700787401574
21
-3.5078740157480315
0
LINE
8
BLACK
6
CONTINUOUS
10
3.5393700787401574
20
-3.4921259842519685
11
3.5236220472440944
21
-3.5078740157480315
0
LINE
8
BLACK
6
CONTINUOUS
10
3.5236220472440944
20
-5.5118110236220472
11
3.5393700787401574
21
-5.5275590551181102
0
LINE
8
BLACK
6
CONTINUOUS
10
3.5393700787401574
20
-5.5118110236220472
11
3.5236220472440944
21
-5.5275590551181102
0
LINE
8
BLACK
6
CONTINUOUS
10
3.5275590551181102
20
-3.9291338582677167
11
3.5433070866141732
21
-3.9448818897637796
0
LINE
8
BLACK
6
CONTINUOUS
10
3.5433070866141732
20
-3.9291338582677167
11
3.5275590551181102
21
-3.9448818897637796
0
LINE
8
BLACK
6
CONTINUOUS
10
3.5787401574803148
20
-4.7362204724409445
11
3.5944881889763778
21
-4.7519685039370074
0
LINE
8
BLACK
6
CONTINUOUS
10
3.5944881889763778
20
-4.7362204724409445
11
3.5787401574803148
21
-4.7519685039370074
0
LINE
8
BLACK
6
CONTINUOUS
10
3.5787401574803148
20
-5.3622047244094491
11
3.5944881889763778
21
-5.377952755905512
0
LINE
8
BLACK
6
CONTINUOUS
10
3.5944881889763778
20
-5.3622047244094491
11
3.5787401574803148
21
-5.377952755905512
0
LINE
8
BLACK
6
CONTINUOUS
10
3.5944881889763778
20
-4.1259842519685037
11
3.6102362204724407
21
-4.1417322834645667
0
LINE
8
BLACK
6
CONTINUOUS
10
3.6102362204724407
20
-4.1259842519685037
11
3.5944881889763778
21
-4.1417322834645667
0
LINE
8
BLACK
6
CONTINUOUS
10
3.5984251968503935
20
-4.6377952755905509
11
3.6141732283464565
21
-4.6535433070866139
0
LINE
8
BLACK
6
CONTINUOUS
10
3.6141732283464565
20
-4.6377952755905509
11
3.5984251968503935
21
-4.6535433070866139
0
LINE
8
BLACK
6
CONTINUOUS
10
3.606299212598425
20
-4.3543307086614176
11
3.622047244094488
21
-4.3700787401574805
0
LINE
8
BLACK
6
CONTINUOUS
10
3.622047244094488
20
-4.3543307086614176
11
3.606299212598425
21
-4.3700787401574805
0
LINE
8
BLACK
6
CONTINUOUS
10
3.6259842519685037
20
-4.4881889763779528
11
3.6417322834645667
21
-4.5039370078740157
0
LINE
8
BLACK
6
CONTINUOUS
10
3.6417322834645667
20
-4.4881889763779528
11
3.6259842519685037
21
-4.5039370078740157
0
LINE
8
BLACK
6
CONTINUOUS
10
3.6417322834645667
20
-5.0551181102362204
11
3.6574803149606296
21
-5.0708661417322833
0
LINE
8
BLACK
6
CONTINUOUS
10
3.6574803149606296
20
-5.0551181102362204
11
3.6417322834645667
21
-5.0708661417322833
0
LINE
8
BLACK
6
CONTINUOUS
10
3.7086614173228347
20
-4.2874015748031491
11
3.7244094488188977
21
-4.3031496062992121
0
LINE
8
BLACK
6
CONTINUOUS
10
3.7244094488188977
20
-4.2874015748031491
11
3.7086614173228347
21
-4.3031496062992121
0
LINE
8
BLACK
6
CONTINUOUS
10
3.7283464566929134
20
-5.3700787401574805
11
3.7440944881889764
21
-5.3858267716535435
0
LINE
8
BLACK
6
CONTINUOUS
10
3.7440944881889764
20
-5.3700787401574805
11
3.7283464566929134
21
-5.3858267716535435
0
LINE
8
BLACK
6
CONTINUOUS
10
3.7637795275590551
20
-5.515748031496063
11
3.7795275590551181
21
-5.5314960629921259
0
LINE
8
BLACK
6
CONTINUOUS
10
3.7795275590551181
20
-5.515748031496063
11
3.7637795275590551
21
-5.5314960629921259
0
LINE
8
BLACK
6
CONTINUOUS
10
3.8489173228346454
20
-5.0014763779527556
11
3.8646653543307088
21
-5.0172244094488185
0
LINE
8
BLACK
6
CONTINUOUS
10
3.8646653543307088
20
-5.0014763779527556
11
3.8489173228346454
21
-5.0172244094488185
0
LINE
8
BLACK
6
CONTINUOUS
10
3.9077705118110235
20
-5.0603295669291342
11
3.9235185433070865
21
-5.0760775984251971
0
LINE
8
BLACK
6
CONTINUOUS
10
3.9235185433070865
20
-5.0603295669291342
11
3.9077705118110235
21
-5.0760775984251971
0
LINE
8
BLACK
6
CONTINUOUS
10
3.9832677165354329
20
-5.1564960629921259
11
3.9990157480314958
21
-5.1722440944881889
0
LINE
8
BLACK
6
CONTINUOUS
10
3.9990157480314958
20
-5.1564960629921259
11
3.9832677165354329
21
-5.1722440944881889
0
LINE
8
BLACK
6
CONTINUOUS
10
4.0570866141732287
20
-4.0698818897637796
11
4.0728346456692917
21
-4.0856299212598426
0
LINE
8
BLACK
6
CONTINUOUS
10
4.0728346456692917
20
-4.0698818897637796
11
4.0570866141732287
21
-4.0856299212598426
0
LINE
8
BLACK
6
CONTINUOUS
10
4.0669291338582676
20
-4.3976377952755907
11
4.0826771653543306
21
-4.4133858267716537
0
LINE
8
BLACK
6
CONTINUOUS
10
4.0826771653543306
20
-4.3976377952755907
11
4.0669291338582676
21
-4.4133858267716537
0
LINE
8
BLACK
6
CONTINUOUS
10
4.0846456692913389
20
-5.3169291338582676
11
4.1003937007874018
21
-5.3326771653543306
0
LINE
8
BLACK
6
CONTINUOUS
10
4.1003937007874018
20
-5.3169291338582676
11
4.0846456692913389
21
-5.3326771653543306
0
LINE
8
BLACK
6
CONTINUOUS
10
4.1023622047244093
20
-5.0994094488188972
11
4.1181102362204722
21
-5.1151574803149602
0
LINE
8
BLACK
6
CONTINUOUS
10
4.1181102362204722
20
-5.0994094488188972
11
4.1023622047244093
21
-5.1151574803149602
0
LINE
8
BLACK
6
CONTINUOUS
10
4.1368110236220472
20
-4.7076771653543306
11
4.1525590551181102
21
-4.7234251968503935
0
LINE
8
BLACK
6
CONTINUOUS
10
4.1525590551181102
20
-4.7076771653543306
11
4.1368110236220472
21
-4.7234251968503935
0
LINE
8
BLACK
6
CONTINUOUS
10
4.2293307086614176
20
-4.8789370078740157
11
4.2450787401574805
21
-4.8946850393700787
0
LINE
8
BLACK
6
CONTINUOUS
10
4.2450787401574805
20
-4.8789370078740157
11
4.2293307086614176
21
-4.8946850393700787
0
LINE
8
BLACK
6
CONTINUOUS
10
4.2304595669291336
20
-5.08744094488189
11
4.2462075984251966
21
-5.103188976377953
0
LINE
8
BLACK
6
CONTINUOUS
10
4.2462075984251966
20
-5.08744094488189
11
4.2304595669291336
21
-5.103188976377953
0
LINE
8
BLACK
6
CONTINUOUS
10
4.3051181102362204
20
-4.8001968503937009
11
4.3208661417322833
21
-4.8159448818897639
0
LINE
8
BLACK
6
CONTINUOUS
10
4.3208661417322833
20
-4.8001968503937009
11
4.3051181102362204
21
-4.8159448818897639
0
LINE
8
BLACK
6
CONTINUOUS
10
4.3346456692913389
20
-5.5590551181102361
11
4.3503937007874018
21
-5.5748031496062991
0
LINE
8
BLACK
6
CONTINUOUS
10
4.3503937007874018
20
-5.5590551181102361
11
4.3346456692913389
21
-5.5748031496062991
0
LINE
8
BLACK
6
CONTINUOUS
10
4.46259842519685
20
-5.2490157480314963
11
4.478346456692913
21
-5.2647637795275593
0
LINE
8
BLACK
6
CONTINUOUS
10
4.478346456692913
20
-5.2490157480314963
11
4.46259842519685
21
-5.2647637795275593
0
LINE
8
BLACK
6
CONTINUOUS
10
4.5541338582677167
20
-5.2490157480314963
11
4.5698818897637796
21
-5.2647637795275593
0
LINE
8
BLACK
6
CONTINUOUS
10
4.5698818897637796
20
-5.2490157480314963
11
4.5541338582677167
21
-5.2647637795275593
0
LINE
8
BLACK
6
CONTINUOUS
10
4.622047244094488
20
-4.2401574803149602
11
4.6377952755905509
21
-4.2559055118110232
0
LINE
8
BLACK
6
CONTINUOUS
10
4.6377952755905509
20
-4.2401574803149602
11
4.622047244094488
21
-4.2559055118110232
0
LINE
8
BLACK
6
CONTINUOUS
10
4.7322834645669287
20
-5.3139763779527556
11
4.7480314960629917
21
-5.3297244094488185
0
LINE
8
BLACK
6
CONTINUOUS
10
4.7480314960629917
20
-5.3139763779527556
11
4.7322834645669287
21
-5.3297244094488185
0
LINE
8
BLACK
6
CONTINUOUS
10
4.8966535433070861
20
-4.0088582677165352
11
4.9124015748031491
21
-4.0246062992125982
0
LINE
8
BLACK
6
CONTINUOUS
10
4.9124015748031491
20
-4.0088582677165352
11
4.8966535433070861
21
-4.0246062992125982
0
LINE
8
BLACK
6
CONTINUOUS
10
4.9340551181102361
20
-5.6515748031496065
11
4.9498031496062991
21
-5.6673228346456694
0
LINE
8
BLACK
6
CONTINUOUS
10
4.9498031496062991
20
-5.6515748031496065
11
4.9340551181102361
21
-5.6673228346456694
0
LINE
8
BLACK
6
CONTINUOUS
10
4.9714566929133861
20
-4.2106299212598426
11
4.9872047244094491
21
-4.2263779527559056
0
LINE
8
BLACK
6
CONTINUOUS
10
4.9872047244094491
20
-4.2106299212598426
11
4.9714566929133861
21
-4.2263779527559056
0
LINE
8
BLACK
6
CONTINUOUS
10
5.0177165354330704
20
-5.4901574803149602
11
5.0334645669291334
21
-5.5059055118110232
0
LINE
8
BLACK
6
CONTINUOUS
10
5.0334645669291334
20
-5.4901574803149602
11
5.0177165354330704
21
-5.5059055118110232
0
LINE
8
BLACK
6
CONTINUOUS
10
5.0206692913385824
20
-5.2805118110236222
11
5.0364173228346454
21
-5.2962598425196852
0
LINE
8
BLACK
6
CONTINUOUS
10
5.0364173228346454
20
-5.2805118110236222
11
5.0206692913385824
21
-5.2962598425196852
0
LINE
8
BLACK
6
CONTINUOUS
10
5.0354330708661417
20
-4.6023622047244093
11
5.0511811023622046
21
-4.6181102362204722
0
LINE
8
BLACK
6
CONTINUOUS
10
5.0511811023622046
20
-4.6023622047244093
11
5.0354330708661417
21
-4.6181102362204722
0
LINE
8
BLACK
6
CONTINUOUS
10
5.1732283464566926
20
-5.0787401574803148
11
5.1889763779527556
21
-5.0944881889763778
0
LINE
8
BLACK
6
CONTINUOUS
10
5.1889763779527556
20
-5.0787401574803148
11
5.1732283464566926
21
-5.0944881889763778
0
LINE
8
BLACK
6
CONTINUOUS
10
5.1889763779527556
20
-4.1259842519685037
11
5.2047244094488185
21
-4.1417322834645667
0
LINE
8
BLACK
6
CONTINUOUS
10
5.2047244094488185
20
-4.1259842519685037
11
5.1889763779527556
21
-4.1417322834645667
0
LINE
8
BLACK
6
CONTINUOUS
10
5.3946850393700787
20
-5.734251968503937
11
5.4104330708661417
21
-5.75
0
LINE
8
BLACK
6
CONTINUOUS
10
5.4104330708661417
20
-5.734251968503937
11
5.3946850393700787
21
-5.75
0
CIRCLE
8
BLACK
10
3.483464566929134
20
-5.6238188976377952
40
0.0118110236220472
0
LINE
8
BLACK
6
CONTINUOUS
10
3.4716535433070868
20
-5.6021653543307082
11
3.4716535433070868
21
-5.6454724409448813
0
ARC
8
BLACK
10
3.483464566929134
20
-5.6454724409448813
40
0.0118110236220472
50
180.00000000
51
360.00000000
0
LINE
8
BLACK
6
CONTINUOUS
10
3.4952755905511812
20
-5.6454724409448813
11
3.4952755905511812
21
-5.6021653543307082
0
ARC
8
BLACK
10
3.483464566929134
20
-5.6021653543307082
40
0.0118110236220472
50
0.00000000
51
180.00000000
0
CIRCLE
8
BLACK
10
3.483464566929134
20
-5.7883858267716537
40
0.0118110236220472
0
LINE
8
BLACK
6
CONTINUOUS
10
3.4716535433070868
20
-5.7765748031496065
11
3.4716535433070868
21
-5.8001968503937009
0
ARC
8
BLACK
10
3.483464566929134
20
-5.8001968503937009
40
0.0118110236220472
50
180.00000000
51
360.00000000
0
LINE
8
BLACK
6
CONTINUOUS
10
3.4952755905511812
20
-5.8001968503937009
11
3.4952755905511812
21
-5.7765748031496065
0
ARC
8
BLACK
10
3.483464566929134
20
-5.7765748031496065
40
0.0118110236220472
50
0.00000000
51
180.00000000
0
CIRCLE
8
BLACK
10
3.8236220472440943
20
-5.6238188976377952
40
0.0118110236220472
0
LINE
8
BLACK
6
CONTINUOUS
10
3.811811023622047
20
-5.6021653543307082
11
3.811811023622047
21
-5.6454724409448813
0
ARC
8
BLACK
10
3.8236220472440943
20
-5.6454724409448813
40
0.0118110236220472
50
180.00000000
51
360.00000000
0
LINE
8
BLACK
6
CONTINUOUS
10
3.8354330708661415
20
-5.6454724409448813
11
3.8354330708661415
21
-5.6021653543307082
0
ARC
8
BLACK
10
3.8236220472440943
20
-5.6021653543307082
40
0.0118110236220472
50
0.00000000
51
180.00000000
0
CIRCLE
8
BLACK
10
3.8236220472440943
20
-5.7883858267716537
40
0.0118110236220472
0
LINE
8
BLACK
6
CONTINUOUS
10
3.811811023622047
20
-5.7765748031496065
11
3.811811023622047
21
-5.8001968503937009
0
ARC
8
BLACK
10
3.8236220472440943
20
-5.8001968503937009
40
0.0118110236220472
50
180.00000000
51
360.00000000
0
LINE
8
BLACK
6
CONTINUOUS
10
3.8354330708661415
20
-5.8001968503937009
11
3.8354330708661415
21
-5.7765748031496065
0
ARC
8
BLACK
10
3.8236220472440943
20
-5.7765748031496065
40
0.0118110236220472
50
0.00000000
51
180.00000000
0
LINE
8
BLACK
6
CONTINUOUS
10
3.5393700787401574
20
-3.7218503937007874
11
3.5393700787401574
21
-3.7612204724409448
0
LINE
8
BLACK
6
CONTINUOUS
10
3.5196850393700787
20
-3.7415354330708661
11
3.5590551181102361
21
-3.7415354330708661
0
LINE
8
BLACK
6
CONTINUOUS
10
3.5393700787401574
20
-3.8218503937007875
11
3.5393700787401574
21
-3.8612204724409449
0
LINE
8
BLACK
6
CONTINUOUS
10
3.5196850393700787
20
-3.8415354330708662
11
3.5590551181102361
21
-3.8415354330708662
0
LINE
8
BLACK
6
CONTINUOUS
10
3.506211338582677
20
-6.0301117322834648
11
3.506211338582677
21
-5.951371574803149
0
LINE
8
BLACK
6
CONTINUOUS
10
3.506211338582677
20
-5.951371574803149
11
3.5249589763779525
21
-5.951371574803149
0
LINE
8
BLACK
6
CONTINUOUS
10
3.5249589763779525
20
-5.951371574803149
11
3.5362075984251966
21
-5.9551211023622042
0
LINE
8
BLACK
6
CONTINUOUS
10
3.5362075984251966
20
-5.9551211023622042
11
3.5437066535433068
21
-5.9626201574803153
0
LINE
8
BLACK
6
CONTINUOUS
10
3.5437066535433068
20
-5.9626201574803153
11
3.5474561811023619
21
-5.9701192125984255
0
LINE
8
BLACK
6
CONTINUOUS
10
3.5474561811023619
20
-5.9701192125984255
11
3.551205708661417
21
-5.9851173228346459
0
LINE
8
BLACK
6
CONTINUOUS
10
3.551205708661417
20
-5.9851173228346459
11
3.551205708661417
21
-5.99636594488189
0
LINE
8
BLACK
6
CONTINUOUS
10
3.551205708661417
20
-5.99636594488189
11
3.5474561811023619
21
-6.0113640551181104
0
LINE
8
BLACK
6
CONTINUOUS
10
3.5474561811023619
20
-6.0113640551181104
11
3.5437066535433068
21
-6.0188631102362207
0
LINE
8
BLACK
6
CONTINUOUS
10
3.5437066535433068
20
-6.0188631102362207
11
3.5362075984251966
21
-6.0263622047244096
0
LINE
8
BLACK
6
CONTINUOUS
10
3.5362075984251966
20
-6.0263622047244096
11
3.5249589763779525
21
-6.0301117322834648
0
LINE
8
BLACK
6
CONTINUOUS
10
3.5249589763779525
20
-6.0301117322834648
11
3.506211338582677
21
-6.0301117322834648
0
LINE
8
BLACK
6
CONTINUOUS
10
3.5849514960629922
20
-6.0301117322834648
11
3.5849514960629922
21
-5.9776182677165357
0
LINE
8
BLACK
6
CONTINUOUS
10
3.5849514960629922
20
-5.9926164173228349
11
3.5887010236220473
21
-5.9851173228346459
0
LINE
8
BLACK
6
CONTINUOUS
10
3.5887010236220473
20
-5.9851173228346459
11
3.5924505511811025
21
-5.9813677952755908
0
LINE
8
BLACK
6
CONTINUOUS
10
3.5924505511811025
20
-5.9813677952755908
11
3.5999496062992127
21
-5.9776182677165357
0
LINE
8
BLACK
6
CONTINUOUS
10
3.5999496062992127
20
-5.9776182677165357
11
3.6074487007874017
21
-5.9776182677165357
0
LINE
8
BLACK
6
CONTINUOUS
10
3.6336953937007874
20
-6.0301117322834648
11
3.6336953937007874
21
-5.9776182677165357
0
LINE
8
BLACK
6
CONTINUOUS
10
3.6336953937007874
20
-5.951371574803149
11
3.6299458661417323
21
-5.9551211023622042
0
LINE
8
BLACK
6
CONTINUOUS
10
3.6299458661417323
20
-5.9551211023622042
11
3.6336953937007874
21
-5.9588706299212593
0
LINE
8
BLACK
6
CONTINUOUS
10
3.6336953937007874
20
-5.9588706299212593
11
3.6374449212598425
21
-5.9551211023622042
0
LINE
8
BLACK
6
CONTINUOUS
10
3.6374449212598425
20
-5.9551211023622042
11
3.6336953937007874
21
-5.951371574803149
0
LINE
8
BLACK
6
CONTINUOUS
10
3.6336953937007874
20
-5.951371574803149
11
3.6336953937007874
21
-5.9588706299212593
0
LINE
8
BLACK
6
CONTINUOUS
10
3.6824392913385826
20
-6.0301117322834648
11
3.6749402362204724
21
-6.0263622047244096
0
LINE
8
BLACK
6
CONTINUOUS
10
3.6749402362204724
20
-6.0263622047244096
11
3.6711907086614173
21
-6.0188631102362207
0
LINE
8
BLACK
6
CONTINUOUS
10
3.6711907086614173
20
-6.0188631102362207
11
3.6711907086614173
21
-5.951371574803149
0
LINE
8
BLACK
6
CONTINUOUS
10
3.7236841338582676
20
-6.0301117322834648
11
3.7161850787401574
21
-6.0263622047244096
0
LINE
8
BLACK
6
CONTINUOUS
10
3.7161850787401574
20
-6.0263622047244096
11
3.7124355511811022
21
-6.0188631102362207
0
LINE
8
BLACK
6
CONTINUOUS
10
3.7124355511811022
20
-6.0188631102362207
11
3.7124355511811022
21
-5.951371574803149
0
LINE
8
BLACK
6
CONTINUOUS
10
3.8136729133858265
20
-6.0301117322834648
11
3.8136729133858265
21
-5.951371574803149
0
LINE
8
BLACK
6
CONTINUOUS
10
3.8136729133858265
20
-5.951371574803149
11
3.8399196456692914
21
-6.0076145275590553
0
LINE
8
BLACK
6
CONTINUOUS
10
3.8399196456692914
20
-6.0076145275590553
11
3.8661663385826772
21
-5.951371574803149
0
LINE
8
BLACK
6
CONTINUOUS
10
3.8661663385826772
20
-5.951371574803149
11
3.8661663385826772
21
-6.0301117322834648
0
LINE
8
BLACK
6
CONTINUOUS
10
3.9374074409448818
20
-6.0301117322834648
11
3.9374074409448818
21
-5.9888668897637798
0
LINE
8
BLACK
6
CONTINUOUS
10
3.9374074409448818
20
-5.9888668897637798
11
3.9336579133858267
21
-5.9813677952755908
0
LINE
8
BLACK
6
CONTINUOUS
10
3.9336579133858267
20
-5.9813677952755908
11
3.9261588582677165
21
-5.9776182677165357
0
LINE
8
BLACK
6
CONTINUOUS
10
3.9261588582677165
20
-5.9776182677165357
11
3.9111607086614173
21
-5.9776182677165357
0
LINE
8
BLACK
6
CONTINUOUS
10
3.9111607086614173
20
-5.9776182677165357
11
3.9036616535433071
21
-5.9813677952755908
0
LINE
8
BLACK
6
CONTINUOUS
10
3.9374074409448818
20
-6.0263622047244096
11
3.9299083858267716
21
-6.0301117322834648
0
LINE
8
BLACK
6
CONTINUOUS
10
3.9299083858267716
20
-6.0301117322834648
11
3.9111607086614173
21
-6.0301117322834648
0
LINE
8
BLACK
6
CONTINUOUS
10
3.9111607086614173
20
-6.0301117322834648
11
3.9036616535433071
21
-6.0263622047244096
0
LINE
8
BLACK
6
CONTINUOUS
10
3.9036616535433071
20
-6.0263622047244096
11
3.899912125984252
21
-6.0188631102362207
0
LINE
8
BLACK
6
CONTINUOUS
10
3.899912125984252
20
-6.0188631102362207
11
3.899912125984252
21
-6.0113640551181104
0
LINE
8
BLACK
6
CONTINUOUS
10
3.899912125984252
20
-6.0113640551181104
11
3.9036616535433071
21
-6.0038650000000002
0
LINE
8
BLACK
6
CONTINUOUS
10
3.9036616535433071
20
-6.0038650000000002
11
3.9111607086614173
21
-6.0001154724409451
0
LINE
8
BLACK
6
CONTINUOUS
10
3.9111607086614173
20
-6.0001154724409451
11
3.9299083858267716
21
-6.0001154724409451
0
LINE
8
BLACK
6
CONTINUOUS
10
3.9299083858267716
20
-6.0001154724409451
11
3.9374074409448818
21
-5.99636594488189
0
LINE
8
BLACK
6
CONTINUOUS
10
3.9749027559055117
20
-5.9776182677165357
11
3.9749027559055117
21
-6.0563584251968505
0
LINE
8
BLACK
6
CONTINUOUS
10
3.9749027559055117
20
-5.9813677952755908
11
3.9824018110236219
21
-5.9776182677165357
0
LINE
8
BLACK
6
CONTINUOUS
10
3.9824018110236219
20
-5.9776182677165357
11
3.9973999606299211
21
-5.9776182677165357
0
LINE
8
BLACK
6
CONTINUOUS
10
3.9973999606299211
20
-5.9776182677165357
11
4.0048990157480313
21
-5.9813677952755908
0
LINE
8
BLACK
6
CONTINUOUS
10
4.0048990157480313
20
-5.9813677952755908
11
4.0086485433070864
21
-5.9851173228346459
0
LINE
8
BLACK
6
CONTINUOUS
10
4.0086485433070864
20
-5.9851173228346459
11
4.0123980708661415
21
-5.9926164173228349
0
LINE
8
BLACK
6
CONTINUOUS
10
4.0123980708661415
20
-5.9926164173228349
11
4.0123980708661415
21
-6.0151135826771656
0
LINE
8
BLACK
6
CONTINUOUS
10
4.0123980708661415
20
-6.0151135826771656
11
4.0086485433070864
21
-6.0226126377952758
0
LINE
8
BLACK
6
CONTINUOUS
10
4.0086485433070864
20
-6.0226126377952758
11
4.0048990157480313
21
-6.0263622047244096
0
LINE
8
BLACK
6
CONTINUOUS
10
4.0048990157480313
20
-6.0263622047244096
11
3.9973999606299211
21
-6.0301117322834648
0
LINE
8
BLACK
6
CONTINUOUS
10
3.9973999606299211
20
-6.0301117322834648
11
3.9824018110236219
21
-6.0301117322834648
0
LINE
8
BLACK
6
CONTINUOUS
10
3.9824018110236219
20
-6.0301117322834648
11
3.9749027559055117
21
-6.0263622047244096
0
LINE
8
BLACK
6
CONTINUOUS
10
4.0461438582677163
20
-6.0226126377952758
11
4.0498933858267714
21
-6.0263622047244096
0
LINE
8
BLACK
6
CONTINUOUS
10
4.0498933858267714
20
-6.0263622047244096
11
4.0461438582677163
21
-6.0301117322834648
0
LINE
8
BLACK
6
CONTINUOUS
10
4.0461438582677163
20
-6.0301117322834648
11
4.0423943307086612
21
-6.0263622047244096
0
LINE
8
BLACK
6
CONTINUOUS
10
4.0423943307086612
20
-6.0263622047244096
11
4.0461438582677163
21
-6.0226126377952758
0
LINE
8
BLACK
6
CONTINUOUS
10
4.0461438582677163
20
-6.0226126377952758
11
4.0461438582677163
21
-6.0301117322834648
0
LINE
8
BLACK
6
CONTINUOUS
10
4.0461438582677163
20
-5.9813677952755908
11
4.0498933858267714
21
-5.9851173228346459
0
LINE
8
BLACK
6
CONTINUOUS
10
4.0498933858267714
20
-5.9851173228346459
11
4.0461438582677163
21
-5.9888668897637798
0
LINE
8
BLACK
6
CONTINUOUS
10
4.0461438582677163
20
-5.9888668897637798
11
4.0423943307086612
21
-5.9851173228346459
0
LINE
8
BLACK
6
CONTINUOUS
10
4.0423943307086612
20
-5.9851173228346459
11
4.0461438582677163
21
-5.9813677952755908
0
LINE
8
BLACK
6
CONTINUOUS
10
4.0461438582677163
20
-5.9813677952755908
11
4.0461438582677163
21
-5.9888668897637798
0
LINE
8
BLACK
6
CONTINUOUS
10
3.3877952755905509
20
-6.1515748031496065
11
3.4035433070866139
21
-6.1673228346456694
0
LINE
8
BLACK
6
CONTINUOUS
10
3.4035433070866139
20
-6.1515748031496065
11
3.3877952755905509
21
-6.1673228346456694
0
LINE
8
BLACK
6
CONTINUOUS
10
3.5212094488188974
20
-6.1167259055118111
11
3.5287085433070864
21
-6.1167259055118111
0
LINE
8
BLACK
6
CONTINUOUS
10
3.5287085433070864
20
-6.1167259055118111
11
3.5362075984251966
21
-6.1204754330708662
0
LINE
8
BLACK
6
CONTINUOUS
10
3.5362075984251966
20
-6.1204754330708662
11
3.5399571259842517
21
-6.1242249606299213
0
LINE
8
BLACK
6
CONTINUOUS
10
3.5399571259842517
20
-6.1242249606299213
11
3.5437066535433068
21
-6.1317240157480315
0
LINE
8
BLACK
6
CONTINUOUS
10
3.5437066535433068
20
-6.1317240157480315
11
3.5474561811023619
21
-6.1467221259842519
0
LINE
8
BLACK
6
CONTINUOUS
10
3.5474561811023619
20
-6.1467221259842519
11
3.5474561811023619
21
-6.1654698031496062
0
LINE
8
BLACK
6
CONTINUOUS
10
3.5474561811023619
20
-6.1654698031496062
11
3.5437066535433068
21
-6.1804679133858267
0
LINE
8
BLACK
6
CONTINUOUS
10
3.5437066535433068
20
-6.1804679133858267
11
3.5399571259842517
21
-6.1879669685039369
0
LINE
8
BLACK
6
CONTINUOUS
10
3.5399571259842517
20
-6.1879669685039369
11
3.5362075984251966
21
-6.1917165354330708
0
LINE
8
BLACK
6
CONTINUOUS
10
3.5362075984251966
20
-6.1917165354330708
11
3.5287085433070864
21
-6.1954660629921259
0
LINE
8
BLACK
6
CONTINUOUS
10
3.5287085433070864
20
-6.1954660629921259
11
3.5212094488188974
21
-6.1954660629921259
0
LINE
8
BLACK
6
CONTINUOUS
10
3.5212094488188974
20
-6.1954660629921259
11
3.5137103937007872
21
-6.1917165354330708
0
LINE
8
BLACK
6
CONTINUOUS
10
3.5137103937007872
20
-6.1917165354330708
11
3.5099608661417321
21
-6.1879669685039369
0
LINE
8
BLACK
6
CONTINUOUS
10
3.5099608661417321
20
-6.1879669685039369
11
3.506211338582677
21
-6.1804679133858267
0
LINE
8
BLACK
6
CONTINUOUS
10
3.506211338582677
20
-6.1804679133858267
11
3.5024618110236219
21
-6.1654698031496062
0
LINE
8
BLACK
6
CONTINUOUS
10
3.5024618110236219
20
-6.1654698031496062
11
3.5024618110236219
21
-6.1467221259842519
0
LINE
8
BLACK
6
CONTINUOUS
10
3.5024618110236219
20
-6.1467221259842519
11
3.506211338582677
21
-6.1317240157480315
0
LINE
8
BLACK
6
CONTINUOUS
10
3.506211338582677
20
-6.1317240157480315
11
3.5099608661417321
21
-6.1242249606299213
0
LINE
8
BLACK
6
CONTINUOUS
10
3.5099608661417321
20
-6.1242249606299213
11
3.5137103937007872
21
-6.1204754330708662
0
LINE
8
BLACK
6
CONTINUOUS
10
3.5137103937007872
20
-6.1204754330708662
11
3.5212094488188974
21
-6.1167259055118111
0
LINE
8
BLACK
6
CONTINUOUS
10
3.5812019685039371
20
-6.1879669685039369
11
3.5849514960629922
21
-6.1917165354330708
0
LINE
8
BLACK
6
CONTINUOUS
10
3.5849514960629922
20
-6.1917165354330708
11
3.5812019685039371
21
-6.1954660629921259
0
LINE
8
BLACK
6
CONTINUOUS
10
3.5812019685039371
20
-6.1954660629921259
11
3.577452440944882
21
-6.1917165354330708
0
LINE
8
BLACK
6
CONTINUOUS
10
3.577452440944882
20
-6.1917165354330708
11
3.5812019685039371
21
-6.1879669685039369
0
LINE
8
BLACK
6
CONTINUOUS
10
3.5812019685039371
20
-6.1879669685039369
11
3.5812019685039371
21
-6.1954660629921259
0
LINE
8
BLACK
6
CONTINUOUS
10
3.6524430708661417
20
-6.1429725984251968
11
3.6524430708661417
21
-6.1954660629921259
0
LINE
8
BLACK
6
CONTINUOUS
10
3.6336953937007874
20
-6.1129763779527559
11
3.6149477559055119
21
-6.1692193307086614
0
LINE
8
BLACK
6
CONTINUOUS
10
3.6149477559055119
20
-6.1692193307086614
11
3.6636916535433071
21
-6.1692193307086614
0
LINE
8
BLACK
6
CONTINUOUS
10
3.7086860236220471
20
-6.1167259055118111
11
3.7161851181102361
21
-6.1167259055118111
0
LINE
8
BLACK
6
CONTINUOUS
10
3.7161851181102361
20
-6.1167259055118111
11
3.7236841732283463
21
-6.1204754330708662
0
LINE
8
BLACK
6
CONTINUOUS
10
3.7236841732283463
20
-6.1204754330708662
11
3.7274337007874014
21
-6.1242249606299213
0
LINE
8
BLACK
6
CONTINUOUS
10
3.7274337007874014
20
-6.1242249606299213
11
3.7311832283464565
21
-6.1317240157480315
0
LINE
8
BLACK
6
CONTINUOUS
10
3.7311832283464565
20
-6.1317240157480315
11
3.7349327559055117
21
-6.1467221259842519
0
LINE
8
BLACK
6
CONTINUOUS
10
3.7349327559055117
20
-6.1467221259842519
11
3.7349327559055117
21
-6.1654698031496062
0
LINE
8
BLACK
6
CONTINUOUS
10
3.7349327559055117
20
-6.1654698031496062
11
3.7311832283464565
21
-6.1804679133858267
0
LINE
8
BLACK
6
CONTINUOUS
10
3.7311832283464565
20
-6.1804679133858267
11
3.7274337007874014
21
-6.1879669685039369
0
LINE
8
BLACK
6
CONTINUOUS
10
3.7274337007874014
20
-6.1879669685039369
11
3.7236841732283463
21
-6.1917165354330708
0
LINE
8
BLACK
6
CONTINUOUS
10
3.7236841732283463
20
-6.1917165354330708
11
3.7161851181102361
21
-6.1954660629921259
0
LINE
8
BLACK
6
CONTINUOUS
10
3.7161851181102361
20
-6.1954660629921259
11
3.7086860236220471
21
-6.1954660629921259
0
LINE
8
BLACK
6
CONTINUOUS
10
3.7086860236220471
20
-6.1954660629921259
11
3.7011869685039369
21
-6.1917165354330708
0
LINE
8
BLACK
6
CONTINUOUS
10
3.7011869685039369
20
-6.1917165354330708
11
3.6974374409448818
21
-6.1879669685039369
0
LINE
8
BLACK
6
CONTINUOUS
10
3.6974374409448818
20
-6.1879669685039369
11
3.6936879133858267
21
-6.1804679133858267
0
LINE
8
BLACK
6
CONTINUOUS
10
3.6936879133858267
20
-6.1804679133858267
11
3.6899383858267716
21
-6.1654698031496062
0
LINE
8
BLACK
6
CONTINUOUS
10
3.6899383858267716
20
-6.1654698031496062
11
3.6899383858267716
21
-6.1467221259842519
0
LINE
8
BLACK
6
CONTINUOUS
10
3.6899383858267716
20
-6.1467221259842519
11
3.6936879133858267
21
-6.1317240157480315
0
LINE
8
BLACK
6
CONTINUOUS
10
3.6936879133858267
20
-6.1317240157480315
11
3.6974374409448818
21
-6.1242249606299213
0
LINE
8
BLACK
6
CONTINUOUS
10
3.6974374409448818
20
-6.1242249606299213
11
3.7011869685039369
21
-6.1204754330708662
0
LINE
8
BLACK
6
CONTINUOUS
10
3.7011869685039369
20
-6.1204754330708662
11
3.7086860236220471
21
-6.1167259055118111
0
LINE
8
BLACK
6
CONTINUOUS
10
3.7836766535433068
20
-6.1167259055118111
11
3.7911757480314958
21
-6.1167259055118111
0
LINE
8
BLACK
6
CONTINUOUS
10
3.7911757480314958
20
-6.1167259055118111
11
3.798674803149606
21
-6.1204754330708662
0
LINE
8
BLACK
6
CONTINUOUS
10
3.798674803149606
20
-6.1204754330708662
11
3.8024243307086611
21
-6.1242249606299213
0
LINE
8
BLACK
6
CONTINUOUS
10
3.8024243307086611
20
-6.1242249606299213
11
3.8061738582677163
21
-6.1317240157480315
0
LINE
8
BLACK
6
CONTINUOUS
10
3.8061738582677163
20
-6.1317240157480315
11
3.8099233858267714
21
-6.1467221259842519
0
LINE
8
BLACK
6
CONTINUOUS
10
3.8099233858267714
20
-6.1467221259842519
11
3.8099233858267714
21
-6.1654698031496062
0
LINE
8
BLACK
6
CONTINUOUS
10
3.8099233858267714
20
-6.1654698031496062
11
3.8061738582677163
21
-6.1804679133858267
0
LINE
8
BLACK
6
CONTINUOUS
10
3.8061738582677163
20
-6.1804679133858267
11
3.8024243307086611
21
-6.1879669685039369
0
LINE
8
BLACK
6
CONTINUOUS
10
3.8024243307086611
20
-6.1879669685039369
11
3.798674803149606
21
-6.1917165354330708
0
LINE
8
BLACK
6
CONTINUOUS
10
3.798674803149606
20
-6.1917165354330708
11
3.7911757480314958
21
-6.1954660629921259
0
LINE
8
BLACK
6
CONTINUOUS
10
3.7911757480314958
20
-6.1954660629921259
11
3.7836766535433068
21
-6.1954660629921259
0
LINE
8
BLACK
6
CONTINUOUS
10
3.7836766535433068
20
-6.1954660629921259
11
3.7761775984251966
21
-6.1917165354330708
0
LINE
8
BLACK
6
CONTINUOUS
10
3.7761775984251966
20
-6.1917165354330708
11
3.7724280708661415
21
-6.1879669685039369
0
LINE
8
BLACK
6
CONTINUOUS
10
3.7724280708661415
20
-6.1879669685039369
11
3.7686785433070864
21
-6.1804679133858267
0
LINE
8
BLACK
6
CONTINUOUS
10
3.7686785433070864
20
-6.1804679133858267
11
3.7649290157480313
21
-6.1654698031496062
0
LINE
8
BLACK
6
CONTINUOUS
10
3.7649290157480313
20
-6.1654698031496062
11
3.7649290157480313
21
-6.1467221259842519
0
LINE
8
BLACK
6
CONTINUOUS
10
3.7649290157480313
20
-6.1467221259842519
11
3.7686785433070864
21
-6.1317240157480315
0
LINE
8
BLACK
6
CONTINUOUS
10
3.7686785433070864
20
-6.1317240157480315
11
3.7724280708661415
21
-6.1242249606299213
0
LINE
8
BLACK
6
CONTINUOUS
10
3.7724280708661415
20
-6.1242249606299213
11
3.7761775984251966
21
-6.1204754330708662
0
LINE
8
BLACK
6
CONTINUOUS
10
3.7761775984251966
20
-6.1204754330708662
11
3.7836766535433068
21
-6.1167259055118111
0
LINE
8
BLACK
6
CONTINUOUS
10
3.8436691732283466
20
-6.1954660629921259
11
3.8436691732283466
21
-6.1429725984251968
0
LINE
8
BLACK
6
CONTINUOUS
10
3.8436691732283466
20
-6.150471653543307
11
3.8474187007874017
21
-6.1467221259842519
0
LINE
8
BLACK
6
CONTINUOUS
10
3.8474187007874017
20
-6.1467221259842519
11
3.8549177559055119
21
-6.1429725984251968
0
LINE
8
BLACK
6
CONTINUOUS
10
3.8549177559055119
20
-6.1429725984251968
11
3.866166377952756
21
-6.1429725984251968
0
LINE
8
BLACK
6
CONTINUOUS
10
3.866166377952756
20
-6.1429725984251968
11
3.8736654330708662
21
-6.1467221259842519
0
LINE
8
BLACK
6
CONTINUOUS
10
3.8736654330708662
20
-6.1467221259842519
11
3.8774149606299213
21
-6.1542212204724409
0
LINE
8
BLACK
6
CONTINUOUS
10
3.8774149606299213
20
-6.1542212204724409
11
3.8774149606299213
21
-6.1954660629921259
0
LINE
8
BLACK
6
CONTINUOUS
10
3.8774149606299213
20
-6.1542212204724409
11
3.8811644881889764
21
-6.1467221259842519
0
LINE
8
BLACK
6
CONTINUOUS
10
3.8811644881889764
20
-6.1467221259842519
11
3.8886635433070866
21
-6.1429725984251968
0
LINE
8
BLACK
6
CONTINUOUS
10
3.8886635433070866
20
-6.1429725984251968
11
3.899912125984252
21
-6.1429725984251968
0
LINE
8
BLACK
6
CONTINUOUS
10
3.899912125984252
20
-6.1429725984251968
11
3.9074112204724409
21
-6.1467221259842519
0
LINE
8
BLACK
6
CONTINUOUS
10
3.9074112204724409
20
-6.1467221259842519
11
3.911160748031496
21
-6.1542212204724409
0
LINE
8
BLACK
6
CONTINUOUS
10
3.911160748031496
20
-6.1542212204724409
11
3.911160748031496
21
-6.1954660629921259
0
LINE
8
BLACK
6
CONTINUOUS
10
3.9486560629921259
20
-6.1954660629921259
11
3.9486560629921259
21
-6.1429725984251968
0
LINE
8
BLACK
6
CONTINUOUS
10
3.9486560629921259
20
-6.150471653543307
11
3.952405590551181
21
-6.1467221259842519
0
LINE
8
BLACK
6
CONTINUOUS
10
3.952405590551181
20
-6.1467221259842519
11
3.9599046456692912
21
-6.1429725984251968
0
LINE
8
BLACK
6
CONTINUOUS
10
3.9599046456692912
20
-6.1429725984251968
11
3.9711532677165353
21
-6.1429725984251968
0
LINE
8
BLACK
6
CONTINUOUS
10
3.9711532677165353
20
-6.1429725984251968
11
3.9786523228346455
21
-6.1467221259842519
0
LINE
8
BLACK
6
CONTINUOUS
10
3.9786523228346455
20
-6.1467221259842519
11
3.9824018503937006
21
-6.1542212204724409
0
LINE
8
BLACK
6
CONTINUOUS
10
3.9824018503937006
20
-6.1542212204724409
11
3.9824018503937006
21
-6.1954660629921259
0
LINE
8
BLACK
6
CONTINUOUS
10
3.9824018503937006
20
-6.1542212204724409
11
3.9861513779527558
21
-6.1467221259842519
0
LINE
8
BLACK
6
CONTINUOUS
10
3.9861513779527558
20
-6.1467221259842519
11
3.993650433070866
21
-6.1429725984251968
0
LINE
8
BLACK
6
CONTINUOUS
10
3.993650433070866
20
-6.1429725984251968
11
4.0048990157480313
21
-6.1429725984251968
0
LINE
8
BLACK
6
CONTINUOUS
10
4.0048990157480313
20
-6.1429725984251968
11
4.0123981102362203
21
-6.1467221259842519
0
LINE
8
BLACK
6
CONTINUOUS
10
4.0123981102362203
20
-6.1467221259842519
11
4.0161476377952754
21
-6.1542212204724409
0
LINE
8
BLACK
6
CONTINUOUS
10
4.0161476377952754
20
-6.1542212204724409
11
4.0161476377952754
21
-6.1954660629921259
0
LINE
8
BLACK
6
CONTINUOUS
10
4.1698784251968499
20
-6.1129763779527559
11
4.1023868897637792
21
-6.2142137007874014
0
LINE
8
BLACK
6
CONTINUOUS
10
4.271115787401575
20
-6.1167259055118111
11
4.278614881889764
21
-6.1167259055118111
0
LINE
8
BLACK
6
CONTINUOUS
10
4.278614881889764
20
-6.1167259055118111
11
4.2861139370078742
21
-6.1204754330708662
0
LINE
8
BLACK
6
CONTINUOUS
10
4.2861139370078742
20
-6.1204754330708662
11
4.2898634645669294
21
-6.1242249606299213
0
LINE
8
BLACK
6
CONTINUOUS
10
4.2898634645669294
20
-6.1242249606299213
11
4.2936129921259845
21
-6.1317240157480315
0
LINE
8
BLACK
6
CONTINUOUS
10
4.2936129921259845
20
-6.1317240157480315
11
4.2973625196850396
21
-6.1467221259842519
0
LINE
8
BLACK
6
CONTINUOUS
10
4.2973625196850396
20
-6.1467221259842519
11
4.2973625196850396
21
-6.1654698031496062
0
LINE
8
BLACK
6
CONTINUOUS
10
4.2973625196850396
20
-6.1654698031496062
11
4.2936129921259845
21
-6.1804679133858267
0
LINE
8
BLACK
6
CONTINUOUS
10
4.2936129921259845
20
-6.1804679133858267
11
4.2898634645669294
21
-6.1879669685039369
0
LINE
8
BLACK
6
CONTINUOUS
10
4.2898634645669294
20
-6.1879669685039369
11
4.2861139370078742
21
-6.1917165354330708
0
LINE
8
BLACK
6
CONTINUOUS
10
4.2861139370078742
20
-6.1917165354330708
11
4.278614881889764
21
-6.1954660629921259
0
LINE
8
BLACK
6
CONTINUOUS
10
4.278614881889764
20
-6.1954660629921259
11
4.271115787401575
21
-6.1954660629921259
0
LINE
8
BLACK
6
CONTINUOUS
10
4.271115787401575
20
-6.1954660629921259
11
4.2636167322834648
21
-6.1917165354330708
0
LINE
8
BLACK
6
CONTINUOUS
10
4.2636167322834648
20
-6.1917165354330708
11
4.2598672047244097
21
-6.1879669685039369
0
LINE
8
BLACK
6
CONTINUOUS
10
4.2598672047244097
20
-6.1879669685039369
11
4.2561176771653546
21
-6.1804679133858267
0
LINE
8
BLACK
6
CONTINUOUS
10
4.2561176771653546
20
-6.1804679133858267
11
4.2523681496062995
21
-6.1654698031496062
0
LINE
8
BLACK
6
CONTINUOUS
10
4.2523681496062995
20
-6.1654698031496062
11
4.2523681496062995
21
-6.1467221259842519
0
LINE
8
BLACK
6
CONTINUOUS
10
4.2523681496062995
20
-6.1467221259842519
11
4.2561176771653546
21
-6.1317240157480315
0
LINE
8
BLACK
6
CONTINUOUS
10
4.2561176771653546
20
-6.1317240157480315
11
4.2598672047244097
21
-6.1242249606299213
0
LINE
8
BLACK
6
CONTINUOUS
10
4.2598672047244097
20
-6.1242249606299213
11
4.2636167322834648
21
-6.1204754330708662
0
LINE
8
BLACK
6
CONTINUOUS
10
4.2636167322834648
20
-6.1204754330708662
11
4.271115787401575
21
-6.1167259055118111
0
LINE
8
BLACK
6
CONTINUOUS
10
4.3311083070866143
20
-6.1879669685039369
11
4.3348578346456694
21
-6.1917165354330708
0
LINE
8
BLACK
6
CONTINUOUS
10
4.3348578346456694
20
-6.1917165354330708
11
4.3311083070866143
21
-6.1954660629921259
0
LINE
8
BLACK
6
CONTINUOUS
10
4.3311083070866143
20
-6.1954660629921259
11
4.3273587795275592
21
-6.1917165354330708
0
LINE
8
BLACK
6
CONTINUOUS
10
4.3273587795275592
20
-6.1917165354330708
11
4.3311083070866143
21
-6.1879669685039369
0
LINE
8
BLACK
6
CONTINUOUS
10
4.3311083070866143
20
-6.1879669685039369
11
4.3311083070866143
21
-6.1954660629921259
0
LINE
8
BLACK
6
CONTINUOUS
10
4.3836017322834646
20
-6.1167259055118111
11
4.3911008267716536
21
-6.1167259055118111
0
LINE
8
BLACK
6
CONTINUOUS
10
4.3911008267716536
20
-6.1167259055118111
11
4.3985998818897638
21
-6.1204754330708662
0
LINE
8
BLACK
6
CONTINUOUS
10
4.3985998818897638
20
-6.1204754330708662
11
4.4023494094488189
21
-6.1242249606299213
0
LINE
8
BLACK
6
CONTINUOUS
10
4.4023494094488189
20
-6.1242249606299213
11
4.406098937007874
21
-6.1317240157480315
0
LINE
8
BLACK
6
CONTINUOUS
10
4.406098937007874
20
-6.1317240157480315
11
4.4098484645669291
21
-6.1467221259842519
0
LINE
8
BLACK
6
CONTINUOUS
10
4.4098484645669291
20
-6.1467221259842519
11
4.4098484645669291
21
-6.1654698031496062
0
LINE
8
BLACK
6
CONTINUOUS
10
4.4098484645669291
20
-6.1654698031496062
11
4.406098937007874
21
-6.1804679133858267
0
LINE
8
BLACK
6
CONTINUOUS
10
4.406098937007874
20
-6.1804679133858267
11
4.4023494094488189
21
-6.1879669685039369
0
LINE
8
BLACK
6
CONTINUOUS
10
4.4023494094488189
20
-6.1879669685039369
11
4.3985998818897638
21
-6.1917165354330708
0
LINE
8
BLACK
6
CONTINUOUS
10
4.3985998818897638
20
-6.1917165354330708
11
4.3911008267716536
21
-6.1954660629921259
0
LINE
8
BLACK
6
CONTINUOUS
10
4.3911008267716536
20
-6.1954660629921259
11
4.3836017322834646
21
-6.1954660629921259
0
LINE
8
BLACK
6
CONTINUOUS
10
4.3836017322834646
20
-6.1954660629921259
11
4.3761026771653544
21
-6.1917165354330708
0
LINE
8
BLACK
6
CONTINUOUS
10
4.3761026771653544
20
-6.1917165354330708
11
4.3723531496062993
21
-6.1879669685039369
0
LINE
8
BLACK
6
CONTINUOUS
10
4.3723531496062993
20
-6.1879669685039369
11
4.3686036220472442
21
-6.1804679133858267
0
LINE
8
BLACK
6
CONTINUOUS
10
4.3686036220472442
20
-6.1804679133858267
11
4.3648540944881891
21
-6.1654698031496062
0
LINE
8
BLACK
6
CONTINUOUS
10
4.3648540944881891
20
-6.1654698031496062
11
4.3648540944881891
21
-6.1467221259842519
0
LINE
8
BLACK
6
CONTINUOUS
10
4.3648540944881891
20
-6.1467221259842519
11
4.3686036220472442
21
-6.1317240157480315
0
LINE
8
BLACK
6
CONTINUOUS
10
4.3686036220472442
20
-6.1317240157480315
11
4.3723531496062993
21
-6.1242249606299213
0
LINE
8
BLACK
6
CONTINUOUS
10
4.3723531496062993
20
-6.1242249606299213
11
4.3761026771653544
21
-6.1204754330708662
0
LINE
8
BLACK
6
CONTINUOUS
10
4.3761026771653544
20
-6.1204754330708662
11
4.3836017322834646
21
-6.1167259055118111
0
LINE
8
BLACK
6
CONTINUOUS
10
4.4848390944881888
20
-6.1954660629921259
11
4.4398447244094488
21
-6.1954660629921259
0
LINE
8
BLACK
6
CONTINUOUS
10
4.4623418897637794
20
-6.1954660629921259
11
4.4623418897637794
21
-6.1167259055118111
0
LINE
8
BLACK
6
CONTINUOUS
10
4.4623418897637794
20
-6.1167259055118111
11
4.4548428346456692
21
-6.1279744881889764
0
LINE
8
BLACK
6
CONTINUOUS
10
4.4548428346456692
20
-6.1279744881889764
11
4.447343779527559
21
-6.1354735433070866
0
LINE
8
BLACK
6
CONTINUOUS
10
4.447343779527559
20
-6.1354735433070866
11
4.4398447244094488
21
-6.1392230708661417
0
LINE
8
BLACK
6
CONTINUOUS
10
4.5560801968503934
20
-6.1167259055118111
11
4.5185848818897636
21
-6.1167259055118111
0
LINE
8
BLACK
6
CONTINUOUS
10
4.5185848818897636
20
-6.1167259055118111
11
4.5148353543307085
21
-6.1542212204724409
0
LINE
8
BLACK
6
CONTINUOUS
10
4.5148353543307085
20
-6.1542212204724409
11
4.5185848818897636
21
-6.150471653543307
0
LINE
8
BLACK
6
CONTINUOUS
10
4.5185848818897636
20
-6.150471653543307
11
4.5260839370078738
21
-6.1467221259842519
0
LINE
8
BLACK
6
CONTINUOUS
10
4.5260839370078738
20
-6.1467221259842519
11
4.5448316141732281
21
-6.1467221259842519
0
LINE
8
BLACK
6
CONTINUOUS
10
4.5448316141732281
20
-6.1467221259842519
11
4.5523306692913383
21
-6.150471653543307
0
LINE
8
BLACK
6
CONTINUOUS
10
4.5523306692913383
20
-6.150471653543307
11
4.5560801968503934
21
-6.1542212204724409
0
LINE
8
BLACK
6
CONTINUOUS
10
4.5560801968503934
20
-6.1542212204724409
11
4.5598297244094486
21
-6.1617202755905511
0
LINE
8
BLACK
6
CONTINUOUS
10
4.5598297244094486
20
-6.1617202755905511
11
4.5598297244094486
21
-6.1804679133858267
0
LINE
8
BLACK
6
CONTINUOUS
10
4.5598297244094486
20
-6.1804679133858267
11
4.5560801968503934
21
-6.1879669685039369
0
LINE
8
BLACK
6
CONTINUOUS
10
4.5560801968503934
20
-6.1879669685039369
11
4.5523306692913383
21
-6.1917165354330708
0
LINE
8
BLACK
6
CONTINUOUS
10
4.5523306692913383
20
-6.1917165354330708
11
4.5448316141732281
21
-6.1954660629921259
0
LINE
8
BLACK
6
CONTINUOUS
10
4.5448316141732281
20
-6.1954660629921259
11
4.5260839370078738
21
-6.1954660629921259
0
LINE
8
BLACK
6
CONTINUOUS
10
4.5260839370078738
20
-6.1954660629921259
11
4.5185848818897636
21
-6.1917165354330708
0
LINE
8
BLACK
6
CONTINUOUS
10
4.5185848818897636
20
-6.1917165354330708
11
4.5148353543307085
21
-6.1879669685039369
0
LINE
8
BLACK
6
CONTINUOUS
10
4.5860764566929131
20
-6.1167259055118111
11
4.6385698818897634
21
-6.1167259055118111
0
LINE
8
BLACK
6
CONTINUOUS
10
4.6385698818897634
20
-6.1167259055118111
11
4.6048240944881886
21
-6.1954660629921259
0
LINE
8
BLACK
6
CONTINUOUS
10
4.6648166141732279
20
-6.1167259055118111
11
4.6648166141732279
21
-6.1317240157480315
0
LINE
8
BLACK
6
CONTINUOUS
10
4.6948128740157475
20
-6.1167259055118111
11
4.6948128740157475
21
-6.1317240157480315
0
LINE
8
BLACK
6
CONTINUOUS
10
4.8110483858267719
20
-6.2254622834645668
11
4.807298818897638
21
-6.2217127559055116
0
LINE
8
BLACK
6
CONTINUOUS
10
4.807298818897638
20
-6.2217127559055116
11
4.7997997637795278
21
-6.2104641732283463
0
LINE
8
BLACK
6
CONTINUOUS
10
4.7997997637795278
20
-6.2104641732283463
11
4.7960502362204727
21
-6.2029651181102361
0
LINE
8
BLACK
6
CONTINUOUS
10
4.7960502362204727
20
-6.2029651181102361
11
4.7923007086614176
21
-6.1917165354330708
0
LINE
8
BLACK
6
CONTINUOUS
10
4.7923007086614176
20
-6.1917165354330708
11
4.7885511811023624
21
-6.1729688582677165
0
LINE
8
BLACK
6
CONTINUOUS
10
4.7885511811023624
20
-6.1729688582677165
11
4.7885511811023624
21
-6.157970748031496
0
LINE
8
BLACK
6
CONTINUOUS
10
4.7885511811023624
20
-6.157970748031496
11
4.7923007086614176
21
-6.1392230708661417
0
LINE
8
BLACK
6
CONTINUOUS
10
4.7923007086614176
20
-6.1392230708661417
11
4.7960502362204727
21
-6.1279744881889764
0
LINE
8
BLACK
6
CONTINUOUS
10
4.7960502362204727
20
-6.1279744881889764
11
4.7997997637795278
21
-6.1204754330708662
0
LINE
8
BLACK
6
CONTINUOUS
10
4.7997997637795278
20
-6.1204754330708662
11
4.807298818897638
21
-6.1092268110236221
0
LINE
8
BLACK
6
CONTINUOUS
10
4.807298818897638
20
-6.1092268110236221
11
4.8110483858267719
21
-6.105477283464567
0
LINE
8
BLACK
6
CONTINUOUS
10
4.8335455511811025
20
-6.1167259055118111
11
4.8822894488188977
21
-6.1167259055118111
0
LINE
8
BLACK
6
CONTINUOUS
10
4.8822894488188977
20
-6.1167259055118111
11
4.8560427165354332
21
-6.1467221259842519
0
LINE
8
BLACK
6
CONTINUOUS
10
4.8560427165354332
20
-6.1467221259842519
11
4.8672913385826773
21
-6.1467221259842519
0
LINE
8
BLACK
6
CONTINUOUS
10
4.8672913385826773
20
-6.1467221259842519
11
4.8747903937007875
21
-6.150471653543307
0
LINE
8
BLACK
6
CONTINUOUS
10
4.8747903937007875
20
-6.150471653543307
11
4.8785399212598426
21
-6.1542212204724409
0
LINE
8
BLACK
6
CONTINUOUS
10
4.8785399212598426
20
-6.1542212204724409
11
4.8822894488188977
21
-6.1617202755905511
0
LINE
8
BLACK
6
CONTINUOUS
10
4.8822894488188977
20
-6.1617202755905511
11
4.8822894488188977
21
-6.1804679133858267
0
LINE
8
BLACK
6
CONTINUOUS
10
4.8822894488188977
20
-6.1804679133858267
11
4.8785399212598426
21
-6.1879669685039369
0
LINE
8
BLACK
6
CONTINUOUS
10
4.8785399212598426
20
-6.1879669685039369
11
4.8747903937007875
21
-6.1917165354330708
0
LINE
8
BLACK
6
CONTINUOUS
10
4.8747903937007875
20
-6.1917165354330708
11
4.8672913385826773
21
-6.1954660629921259
0
LINE
8
BLACK
6
CONTINUOUS
10
4.8672913385826773
20
-6.1954660629921259
11
4.8447941338582678
21
-6.1954660629921259
0
LINE
8
BLACK
6
CONTINUOUS
10
4.8447941338582678
20
-6.1954660629921259
11
4.8372950787401576
21
-6.1917165354330708
0
LINE
8
BLACK
6
CONTINUOUS
10
4.8372950787401576
20
-6.1917165354330708
11
4.8335455511811025
21
-6.1879669685039369
0
LINE
8
BLACK
6
CONTINUOUS
10
4.9197847637795276
20
-6.1954660629921259
11
4.934782874015748
21
-6.1954660629921259
0
LINE
8
BLACK
6
CONTINUOUS
10
4.934782874015748
20
-6.1954660629921259
11
4.942281968503937
21
-6.1917165354330708
0
LINE
8
BLACK
6
CONTINUOUS
10
4.942281968503937
20
-6.1917165354330708
11
4.9460314960629921
21
-6.1879669685039369
0
LINE
8
BLACK
6
CONTINUOUS
10
4.9460314960629921
20
-6.1879669685039369
11
4.9535305511811023
21
-6.1767183858267716
0
LINE
8
BLACK
6
CONTINUOUS
10
4.9535305511811023
20
-6.1767183858267716
11
4.9572800787401574
21
-6.1617202755905511
0
LINE
8
BLACK
6
CONTINUOUS
10
4.9572800787401574
20
-6.1617202755905511
11
4.9572800787401574
21
-6.1317240157480315
0
LINE
8
BLACK
6
CONTINUOUS
10
4.9572800787401574
20
-6.1317240157480315
11
4.9535305511811023
21
-6.1242249606299213
0
LINE
8
BLACK
6
CONTINUOUS
10
4.9535305511811023
20
-6.1242249606299213
11
4.9497810236220472
21
-6.1204754330708662
0
LINE
8
BLACK
6
CONTINUOUS
10
4.9497810236220472
20
-6.1204754330708662
11
4.942281968503937
21
-6.1167259055118111
0
LINE
8
BLACK
6
CONTINUOUS
10
4.942281968503937
20
-6.1167259055118111
11
4.9272838188976378
21
-6.1167259055118111
0
LINE
8
BLACK
6
CONTINUOUS
10
4.9272838188976378
20
-6.1167259055118111
11
4.9197847637795276
21
-6.1204754330708662
0
LINE
8
BLACK
6
CONTINUOUS
10
4.9197847637795276
20
-6.1204754330708662
11
4.9160352362204724
21
-6.1242249606299213
0
LINE
8
BLACK
6
CONTINUOUS
10
4.9160352362204724
20
-6.1242249606299213
11
4.9122857086614173
21
-6.1317240157480315
0
LINE
8
BLACK
6
CONTINUOUS
10
4.9122857086614173
20
-6.1317240157480315
11
4.9122857086614173
21
-6.150471653543307
0
LINE
8
BLACK
6
CONTINUOUS
10
4.9122857086614173
20
-6.150471653543307
11
4.9160352362204724
21
-6.157970748031496
0
LINE
8
BLACK
6
CONTINUOUS
10
4.9160352362204724
20
-6.157970748031496
11
4.9197847637795276
21
-6.1617202755905511
0
LINE
8
BLACK
6
CONTINUOUS
10
4.9197847637795276
20
-6.1617202755905511
11
4.9272838188976378
21
-6.1654698031496062
0
LINE
8
BLACK
6
CONTINUOUS
10
4.9272838188976378
20
-6.1654698031496062
11
4.942281968503937
21
-6.1654698031496062
0
LINE
8
BLACK
6
CONTINUOUS
10
4.942281968503937
20
-6.1654698031496062
11
4.9497810236220472
21
-6.1617202755905511
0
LINE
8
BLACK
6
CONTINUOUS
10
4.9497810236220472
20
-6.1617202755905511
11
4.9535305511811023
21
-6.157970748031496
0
LINE
8
BLACK
6
CONTINUOUS
10
4.9535305511811023
20
-6.157970748031496
11
4.9572800787401574
21
-6.150471653543307
0
LINE
8
BLACK
6
CONTINUOUS
10
5.0510183858267714
20
-6.1954660629921259
11
5.0510183858267714
21
-6.1167259055118111
0
LINE
8
BLACK
6
CONTINUOUS
10
5.0847641732283462
20
-6.1954660629921259
11
5.0847641732283462
21
-6.1542212204724409
0
LINE
8
BLACK
6
CONTINUOUS
10
5.0847641732283462
20
-6.1542212204724409
11
5.0810146456692911
21
-6.1467221259842519
0
LINE
8
BLACK
6
CONTINUOUS
10
5.0810146456692911
20
-6.1467221259842519
11
5.0735155905511808
21
-6.1429725984251968
0
LINE
8
BLACK
6
CONTINUOUS
10
5.0735155905511808
20
-6.1429725984251968
11
5.0622669685039368
21
-6.1429725984251968
0
LINE
8
BLACK
6
CONTINUOUS
10
5.0622669685039368
20
-6.1429725984251968
11
5.0547679133858265
21
-6.1467221259842519
0
LINE
8
BLACK
6
CONTINUOUS
10
5.0547679133858265
20
-6.1467221259842519
11
5.0510183858267714
21
-6.150471653543307
0
LINE
8
BLACK
6
CONTINUOUS
10
5.1335080708661414
20
-6.1954660629921259
11
5.1260090157480311
21
-6.1917165354330708
0
LINE
8
BLACK
6
CONTINUOUS
10
5.1260090157480311
20
-6.1917165354330708
11
5.122259488188976
21
-6.1879669685039369
0
LINE
8
BLACK
6
CONTINUOUS
10
5.122259488188976
20
-6.1879669685039369
11
5.1185099606299209
21
-6.1804679133858267
0
LINE
8
BLACK
6
CONTINUOUS
10
5.1185099606299209
20
-6.1804679133858267
11
5.1185099606299209
21
-6.157970748031496
0
LINE
8
BLACK
6
CONTINUOUS
10
5.1185099606299209
20
-6.157970748031496
11
5.122259488188976
21
-6.150471653543307
0
LINE
8
BLACK
6
CONTINUOUS
10
5.122259488188976
20
-6.150471653543307
11
5.1260090157480311
21
-6.1467221259842519
0
LINE
8
BLACK
6
CONTINUOUS
10
5.1260090157480311
20
-6.1467221259842519
11
5.1335080708661414
21
-6.1429725984251968
0
LINE
8
BLACK
6
CONTINUOUS
10
5.1335080708661414
20
-6.1429725984251968
11
5.1447566929133854
21
-6.1429725984251968
0
LINE
8
BLACK
6
CONTINUOUS
10
5.1447566929133854
20
-6.1429725984251968
11
5.1522557480314957
21
-6.1467221259842519
0
LINE
8
BLACK
6
CONTINUOUS
10
5.1522557480314957
20
-6.1467221259842519
11
5.1560052755905508
21
-6.150471653543307
0
LINE
8
BLACK
6
CONTINUOUS
10
5.1560052755905508
20
-6.150471653543307
11
5.1597548031496059
21
-6.157970748031496
0
LINE
8
BLACK
6
CONTINUOUS
10
5.1597548031496059
20
-6.157970748031496
11
5.1597548031496059
21
-6.1804679133858267
0
LINE
8
BLACK
6
CONTINUOUS
10
5.1597548031496059
20
-6.1804679133858267
11
5.1560052755905508
21
-6.1879669685039369
0
LINE
8
BLACK
6
CONTINUOUS
10
5.1560052755905508
20
-6.1879669685039369
11
5.1522557480314957
21
-6.1917165354330708
0
LINE
8
BLACK
6
CONTINUOUS
10
5.1522557480314957
20
-6.1917165354330708
11
5.1447566929133854
21
-6.1954660629921259
0
LINE
8
BLACK
6
CONTINUOUS
10
5.1447566929133854
20
-6.1954660629921259
11
5.1335080708661414
21
-6.1954660629921259
0
LINE
8
BLACK
6
CONTINUOUS
10
5.204749173228346
20
-6.1954660629921259
11
5.1972501181102357
21
-6.1917165354330708
0
LINE
8
BLACK
6
CONTINUOUS
10
5.1972501181102357
20
-6.1917165354330708
11
5.1935005905511806
21
-6.1842174409448818
0
LINE
8
BLACK
6
CONTINUOUS
10
5.1935005905511806
20
-6.1842174409448818
11
5.1935005905511806
21
-6.1167259055118111
0
LINE
8
BLACK
6
CONTINUOUS
10
5.2647416929133861
20
-6.1917165354330708
11
5.2572426377952759
21
-6.1954660629921259
0
LINE
8
BLACK
6
CONTINUOUS
10
5.2572426377952759
20
-6.1954660629921259
11
5.2422444881889758
21
-6.1954660629921259
0
LINE
8
BLACK
6
CONTINUOUS
10
5.2422444881889758
20
-6.1954660629921259
11
5.2347454330708656
21
-6.1917165354330708
0
LINE
8
BLACK
6
CONTINUOUS
10
5.2347454330708656
20
-6.1917165354330708
11
5.2309959055118105
21
-6.1842174409448818
0
LINE
8
BLACK
6
CONTINUOUS
10
5.2309959055118105
20
-6.1842174409448818
11
5.2309959055118105
21
-6.1542212204724409
0
LINE
8
BLACK
6
CONTINUOUS
10
5.2309959055118105
20
-6.1542212204724409
11
5.2347454330708656
21
-6.1467221259842519
0
LINE
8
BLACK
6
CONTINUOUS
10
5.2347454330708656
20
-6.1467221259842519
11
5.2422444881889758
21
-6.1429725984251968
0
LINE
8
BLACK
6
CONTINUOUS
10
5.2422444881889758
20
-6.1429725984251968
11
5.2572426377952759
21
-6.1429725984251968
0
LINE
8
BLACK
6
CONTINUOUS
10
5.2572426377952759
20
-6.1429725984251968
11
5.2647416929133861
21
-6.1467221259842519
0
LINE
8
BLACK
6
CONTINUOUS
10
5.2647416929133861
20
-6.1467221259842519
11
5.2684912204724412
21
-6.1542212204724409
0
LINE
8
BLACK
6
CONTINUOUS
10
5.2684912204724412
20
-6.1542212204724409
11
5.2684912204724412
21
-6.1617202755905511
0
LINE
8
BLACK
6
CONTINUOUS
10
5.2684912204724412
20
-6.1617202755905511
11
5.2309959055118105
21
-6.1692193307086614
0
LINE
8
BLACK
6
CONTINUOUS
10
5.2984874803149609
20
-6.1917165354330708
11
5.3059865354330711
21
-6.1954660629921259
0
LINE
8
BLACK
6
CONTINUOUS
10
5.3059865354330711
20
-6.1954660629921259
11
5.3209846456692915
21
-6.1954660629921259
0
LINE
8
BLACK
6
CONTINUOUS
10
5.3209846456692915
20
-6.1954660629921259
11
5.3284837401574805
21
-6.1917165354330708
0
LINE
8
BLACK
6
CONTINUOUS
10
5.3284837401574805
20
-6.1917165354330708
11
5.3322332677165356
21
-6.1842174409448818
0
LINE
8
BLACK
6
CONTINUOUS
10
5.3322332677165356
20
-6.1842174409448818
11
5.3322332677165356
21
-6.1804679133858267
0
LINE
8
BLACK
6
CONTINUOUS
10
5.3322332677165356
20
-6.1804679133858267
11
5.3284837401574805
21
-6.1729688582677165
0
LINE
8
BLACK
6
CONTINUOUS
10
5.3284837401574805
20
-6.1729688582677165
11
5.3209846456692915
21
-6.1692193307086614
0
LINE
8
BLACK
6
CONTINUOUS
10
5.3209846456692915
20
-6.1692193307086614
11
5.3097360629921262
21
-6.1692193307086614
0
LINE
8
BLACK
6
CONTINUOUS
10
5.3097360629921262
20
-6.1692193307086614
11
5.302237007874016
21
-6.1654698031496062
0
LINE
8
BLACK
6
CONTINUOUS
10
5.302237007874016
20
-6.1654698031496062
11
5.2984874803149609
21
-6.157970748031496
0
LINE
8
BLACK
6
CONTINUOUS
10
5.2984874803149609
20
-6.157970748031496
11
5.2984874803149609
21
-6.1542212204724409
0
LINE
8
BLACK
6
CONTINUOUS
10
5.2984874803149609
20
-6.1542212204724409
11
5.302237007874016
21
-6.1467221259842519
0
LINE
8
BLACK
6
CONTINUOUS
10
5.302237007874016
20
-6.1467221259842519
11
5.3097360629921262
21
-6.1429725984251968
0
LINE
8
BLACK
6
CONTINUOUS
10
5.3097360629921262
20
-6.1429725984251968
11
5.3209846456692915
21
-6.1429725984251968
0
LINE
8
BLACK
6
CONTINUOUS
10
5.3209846456692915
20
-6.1429725984251968
11
5.3284837401574805
21
-6.1467221259842519
0
LINE
8
BLACK
6
CONTINUOUS
10
5.3584800000000001
20
-6.2254622834645668
11
5.3622295275590552
21
-6.2217127559055116
0
LINE
8
BLACK
6
CONTINUOUS
10
5.3622295275590552
20
-6.2217127559055116
11
5.3697285826771655
21
-6.2104641732283463
0
LINE
8
BLACK
6
CONTINUOUS
10
5.3697285826771655
20
-6.2104641732283463
11
5.3734781102362206
21
-6.2029651181102361
0
LINE
8
BLACK
6
CONTINUOUS
10
5.3734781102362206
20
-6.2029651181102361
11
5.3772276377952757
21
-6.1917165354330708
0
LINE
8
BLACK
6
CONTINUOUS
10
5.3772276377952757
20
-6.1917165354330708
11
5.3809771653543308
21
-6.1729688582677165
0
LINE
8
BLACK
6
CONTINUOUS
10
5.3809771653543308
20
-6.1729688582677165
11
5.3809771653543308
21
-6.157970748031496
0
LINE
8
BLACK
6
CONTINUOUS
10
5.3809771653543308
20
-6.157970748031496
11
5.3772276377952757
21
-6.1392230708661417
0
LINE
8
BLACK
6
CONTINUOUS
10
5.3772276377952757
20
-6.1392230708661417
11
5.3734781102362206
21
-6.1279744881889764
0
LINE
8
BLACK
6
CONTINUOUS
10
5.3734781102362206
20
-6.1279744881889764
11
5.3697285826771655
21
-6.1204754330708662
0
LINE
8
BLACK
6
CONTINUOUS
10
5.3697285826771655
20
-6.1204754330708662
11
5.3622295275590552
21
-6.1092268110236221
0
LINE
8
BLACK
6
CONTINUOUS
10
5.3622295275590552
20
-6.1092268110236221
11
5.3584800000000001
21
-6.105477283464567
0
CIRCLE
8
BLACK
10
3.3917322834645667
20
-6.2633858267716533
40
0.0118110236220472
0
LINE
8
BLACK
6
CONTINUOUS
10
3.5212094488188974
20
-6.2206629133858264
11
3.5287085433070864
21
-6.2206629133858264
0
LINE
8
BLACK
6
CONTINUOUS
10
3.5287085433070864
20
-6.2206629133858264
11
3.5362075984251966
21
-6.2244124409448816
0
LINE
8
BLACK
6
CONTINUOUS
10
3.5362075984251966
20
-6.2244124409448816
11
3.5399571259842517
21
-6.2281619685039367
0
LINE
8
BLACK
6
CONTINUOUS
10
3.5399571259842517
20
-6.2281619685039367
11
3.5437066535433068
21
-6.2356610236220469
0
LINE
8
BLACK
6
CONTINUOUS
10
3.5437066535433068
20
-6.2356610236220469
11
3.5474561811023619
21
-6.2506591338582673
0
LINE
8
BLACK
6
CONTINUOUS
10
3.5474561811023619
20
-6.2506591338582673
11
3.5474561811023619
21
-6.2694068110236216
0
LINE
8
BLACK
6
CONTINUOUS
10
3.5474561811023619
20
-6.2694068110236216
11
3.5437066535433068
21
-6.2844049212598421
0
LINE
8
BLACK
6
CONTINUOUS
10
3.5437066535433068
20
-6.2844049212598421
11
3.5399571259842517
21
-6.2919039763779523
0
LINE
8
BLACK
6
CONTINUOUS
10
3.5399571259842517
20
-6.2919039763779523
11
3.5362075984251966
21
-6.2956535433070862
0
LINE
8
BLACK
6
CONTINUOUS
10
3.5362075984251966
20
-6.2956535433070862
11
3.5287085433070864
21
-6.2994030708661413
0
LINE
8
BLACK
6
CONTINUOUS
10
3.5287085433070864
20
-6.2994030708661413
11
3.5212094488188974
21
-6.2994030708661413
0
LINE
8
BLACK
6
CONTINUOUS
10
3.5212094488188974
20
-6.2994030708661413
11
3.5137103937007872
21
-6.2956535433070862
0
LINE
8
BLACK
6
CONTINUOUS
10
3.5137103937007872
20
-6.2956535433070862
11
3.5099608661417321
21
-6.2919039763779523
0
LINE
8
BLACK
6
CONTINUOUS
10
3.5099608661417321
20
-6.2919039763779523
11
3.506211338582677
21
-6.2844049212598421
0
LINE
8
BLACK
6
CONTINUOUS
10
3.506211338582677
20
-6.2844049212598421
11
3.5024618110236219
21
-6.2694068110236216
0
LINE
8
BLACK
6
CONTINUOUS
10
3.5024618110236219
20
-6.2694068110236216
11
3.5024618110236219
21
-6.2506591338582673
0
LINE
8
BLACK
6
CONTINUOUS
10
3.5024618110236219
20
-6.2506591338582673
11
3.506211338582677
21
-6.2356610236220469
0
LINE
8
BLACK
6
CONTINUOUS
10
3.506211338582677
20
-6.2356610236220469
11
3.5099608661417321
21
-6.2281619685039367
0
LINE
8
BLACK
6
CONTINUOUS
10
3.5099608661417321
20
-6.2281619685039367
11
3.5137103937007872
21
-6.2244124409448816
0
LINE
8
BLACK
6
CONTINUOUS
10
3.5137103937007872
20
-6.2244124409448816
11
3.5212094488188974
21
-6.2206629133858264
0
LINE
8
BLACK
6
CONTINUOUS
10
3.5812019685039371
20
-6.2919039763779523
11
3.5849514960629922
21
-6.2956535433070862
0
LINE
8
BLACK
6
CONTINUOUS
10
3.5849514960629922
20
-6.2956535433070862
11
3.5812019685039371
21
-6.2994030708661413
0
LINE
8
BLACK
6
CONTINUOUS
10
3.5812019685039371
20
-6.2994030708661413
11
3.577452440944882
21
-6.2956535433070862
0
LINE
8
BLACK
6
CONTINUOUS
10
3.577452440944882
20
-6.2956535433070862
11
3.5812019685039371
21
-6.2919039763779523
0
LINE
8
BLACK
6
CONTINUOUS
10
3.5812019685039371
20
-6.2919039763779523
11
3.5812019685039371
21
-6.2994030708661413
0
LINE
8
BLACK
6
CONTINUOUS
10
3.6524430708661417
20
-6.2206629133858264
11
3.6374449212598425
21
-6.2206629133858264
0
LINE
8
BLACK
6
CONTINUOUS
10
3.6374449212598425
20
-6.2206629133858264
11
3.6299458661417323
21
-6.2244124409448816
0
LINE
8
BLACK
6
CONTINUOUS
10
3.6299458661417323
20
-6.2244124409448816
11
3.6261963385826772
21
-6.2281619685039367
0
LINE
8
BLACK
6
CONTINUOUS
10
3.6261963385826772
20
-6.2281619685039367
11
3.618697283464567
21
-6.239410551181102
0
LINE
8
BLACK
6
CONTINUOUS
10
3.618697283464567
20
-6.239410551181102
11
3.6149477559055119
21
-6.2544086614173224
0
LINE
8
BLACK
6
CONTINUOUS
10
3.6149477559055119
20
-6.2544086614173224
11
3.6149477559055119
21
-6.2844049212598421
0
LINE
8
BLACK
6
CONTINUOUS
10
3.6149477559055119
20
-6.2844049212598421
11
3.618697283464567
21
-6.2919039763779523
0
LINE
8
BLACK
6
CONTINUOUS
10
3.618697283464567
20
-6.2919039763779523
11
3.6224468110236221
21
-6.2956535433070862
0
LINE
8
BLACK
6
CONTINUOUS
10
3.6224468110236221
20
-6.2956535433070862
11
3.6299458661417323
21
-6.2994030708661413
0
LINE
8
BLACK
6
CONTINUOUS
10
3.6299458661417323
20
-6.2994030708661413
11
3.6449440157480315
21
-6.2994030708661413
0
LINE
8
BLACK
6
CONTINUOUS
10
3.6449440157480315
20
-6.2994030708661413
11
3.6524430708661417
21
-6.2956535433070862
0
LINE
8
BLACK
6
CONTINUOUS
10
3.6524430708661417
20
-6.2956535433070862
11
3.6561925984251968
21
-6.2919039763779523
0
LINE
8
BLACK
6
CONTINUOUS
10
3.6561925984251968
20
-6.2919039763779523
11
3.6599421259842519
21
-6.2844049212598421
0
LINE
8
BLACK
6
CONTINUOUS
10
3.6599421259842519
20
-6.2844049212598421
11
3.6599421259842519
21
-6.2656572834645665
0
LINE
8
BLACK
6
CONTINUOUS
10
3.6599421259842519
20
-6.2656572834645665
11
3.6561925984251968
21
-6.2581582283464563
0
LINE
8
BLACK
6
CONTINUOUS
10
3.6561925984251968
20
-6.2581582283464563
11
3.6524430708661417
21
-6.2544086614173224
0
LINE
8
BLACK
6
CONTINUOUS
10
3.6524430708661417
20
-6.2544086614173224
11
3.6449440157480315
21
-6.2506591338582673
0
LINE
8
BLACK
6
CONTINUOUS
10
3.6449440157480315
20
-6.2506591338582673
11
3.6299458661417323
21
-6.2506591338582673
0
LINE
8
BLACK
6
CONTINUOUS
10
3.6299458661417323
20
-6.2506591338582673
11
3.6224468110236221
21
-6.2544086614173224
0
LINE
8
BLACK
6
CONTINUOUS
10
3.6224468110236221
20
-6.2544086614173224
11
3.618697283464567
21
-6.2581582283464563
0
LINE
8
BLACK
6
CONTINUOUS
10
3.618697283464567
20
-6.2581582283464563
11
3.6149477559055119
21
-6.2656572834645665
0
LINE
8
BLACK
6
CONTINUOUS
10
3.7086860236220471
20
-6.2206629133858264
11
3.7161851181102361
21
-6.2206629133858264
0
LINE
8
BLACK
6
CONTINUOUS
10
3.7161851181102361
20
-6.2206629133858264
11
3.7236841732283463
21
-6.2244124409448816
0
LINE
8
BLACK
6
CONTINUOUS
10
3.7236841732283463
20
-6.2244124409448816
11
3.7274337007874014
21
-6.2281619685039367
0
LINE
8
BLACK
6
CONTINUOUS
10
3.7274337007874014
20
-6.2281619685039367
11
3.7311832283464565
21
-6.2356610236220469
0
LINE
8
BLACK
6
CONTINUOUS
10
3.7311832283464565
20
-6.2356610236220469
11
3.7349327559055117
21
-6.2506591338582673
0
LINE
8
BLACK
6
CONTINUOUS
10
3.7349327559055117
20
-6.2506591338582673
11
3.7349327559055117
21
-6.2694068110236216
0
LINE
8
BLACK
6
CONTINUOUS
10
3.7349327559055117
20
-6.2694068110236216
11
3.7311832283464565
21
-6.2844049212598421
0
LINE
8
BLACK
6
CONTINUOUS
10
3.7311832283464565
20
-6.2844049212598421
11
3.7274337007874014
21
-6.2919039763779523
0
LINE
8
BLACK
6
CONTINUOUS
10
3.7274337007874014
20
-6.2919039763779523
11
3.7236841732283463
21
-6.2956535433070862
0
LINE
8
BLACK
6
CONTINUOUS
10
3.7236841732283463
20
-6.2956535433070862
11
3.7161851181102361
21
-6.2994030708661413
0
LINE
8
BLACK
6
CONTINUOUS
10
3.7161851181102361
20
-6.2994030708661413
11
3.7086860236220471
21
-6.2994030708661413
0
LINE
8
BLACK
6
CONTINUOUS
10
3.7086860236220471
20
-6.2994030708661413
11
3.7011869685039369
21
-6.2956535433070862
0
LINE
8
BLACK
6
CONTINUOUS
10
3.7011869685039369
20
-6.2956535433070862
11
3.6974374409448818
21
-6.2919039763779523
0
LINE
8
BLACK
6
CONTINUOUS
10
3.6974374409448818
20
-6.2919039763779523
11
3.6936879133858267
21
-6.2844049212598421
0
LINE
8
BLACK
6
CONTINUOUS
10
3.6936879133858267
20
-6.2844049212598421
11
3.6899383858267716
21
-6.2694068110236216
0
LINE
8
BLACK
6
CONTINUOUS
10
3.6899383858267716
20
-6.2694068110236216
11
3.6899383858267716
21
-6.2506591338582673
0
LINE
8
BLACK
6
CONTINUOUS
10
3.6899383858267716
20
-6.2506591338582673
11
3.6936879133858267
21
-6.2356610236220469
0
LINE
8
BLACK
6
CONTINUOUS
10
3.6936879133858267
20
-6.2356610236220469
11
3.6974374409448818
21
-6.2281619685039367
0
LINE
8
BLACK
6
CONTINUOUS
10
3.6974374409448818
20
-6.2281619685039367
11
3.7011869685039369
21
-6.2244124409448816
0
LINE
8
BLACK
6
CONTINUOUS
10
3.7011869685039369
20
-6.2244124409448816
11
3.7086860236220471
21
-6.2206629133858264
0
LINE
8
BLACK
6
CONTINUOUS
10
3.7836766535433068
20
-6.2206629133858264
11
3.7911757480314958
21
-6.2206629133858264
0
LINE
8
BLACK
6
CONTINUOUS
10
3.7911757480314958
20
-6.2206629133858264
11
3.798674803149606
21
-6.2244124409448816
0
LINE
8
BLACK
6
CONTINUOUS
10
3.798674803149606
20
-6.2244124409448816
11
3.8024243307086611
21
-6.2281619685039367
0
LINE
8
BLACK
6
CONTINUOUS
10
3.8024243307086611
20
-6.2281619685039367
11
3.8061738582677163
21
-6.2356610236220469
0
LINE
8
BLACK
6
CONTINUOUS
10
3.8061738582677163
20
-6.2356610236220469
11
3.8099233858267714
21
-6.2506591338582673
0
LINE
8
BLACK
6
CONTINUOUS
10
3.8099233858267714
20
-6.2506591338582673
11
3.8099233858267714
21
-6.2694068110236216
0
LINE
8
BLACK
6
CONTINUOUS
10
3.8099233858267714
20
-6.2694068110236216
11
3.8061738582677163
21
-6.2844049212598421
0
LINE
8
BLACK
6
CONTINUOUS
10
3.8061738582677163
20
-6.2844049212598421
11
3.8024243307086611
21
-6.2919039763779523
0
LINE
8
BLACK
6
CONTINUOUS
10
3.8024243307086611
20
-6.2919039763779523
11
3.798674803149606
21
-6.2956535433070862
0
LINE
8
BLACK
6
CONTINUOUS
10
3.798674803149606
20
-6.2956535433070862
11
3.7911757480314958
21
-6.2994030708661413
0
LINE
8
BLACK
6
CONTINUOUS
10
3.7911757480314958
20
-6.2994030708661413
11
3.7836766535433068
21
-6.2994030708661413
0
LINE
8
BLACK
6
CONTINUOUS
10
3.7836766535433068
20
-6.2994030708661413
11
3.7761775984251966
21
-6.2956535433070862
0
LINE
8
BLACK
6
CONTINUOUS
10
3.7761775984251966
20
-6.2956535433070862
11
3.7724280708661415
21
-6.2919039763779523
0
LINE
8
BLACK
6
CONTINUOUS
10
3.7724280708661415
20
-6.2919039763779523
11
3.7686785433070864
21
-6.2844049212598421
0
LINE
8
BLACK
6
CONTINUOUS
10
3.7686785433070864
20
-6.2844049212598421
11
3.7649290157480313
21
-6.2694068110236216
0
LINE
8
BLACK
6
CONTINUOUS
10
3.7649290157480313
20
-6.2694068110236216
11
3.7649290157480313
21
-6.2506591338582673
0
LINE
8
BLACK
6
CONTINUOUS
10
3.7649290157480313
20
-6.2506591338582673
11
3.7686785433070864
21
-6.2356610236220469
0
LINE
8
BLACK
6
CONTINUOUS
10
3.7686785433070864
20
-6.2356610236220469
11
3.7724280708661415
21
-6.2281619685039367
0
LINE
8
BLACK
6
CONTINUOUS
10
3.7724280708661415
20
-6.2281619685039367
11
3.7761775984251966
21
-6.2244124409448816
0
LINE
8
BLACK
6
CONTINUOUS
10
3.7761775984251966
20
-6.2244124409448816
11
3.7836766535433068
21
-6.2206629133858264
0
LINE
8
BLACK
6
CONTINUOUS
10
3.8436691732283466
20
-6.2994030708661413
11
3.8436691732283466
21
-6.2469096062992122
0
LINE
8
BLACK
6
CONTINUOUS
10
3.8436691732283466
20
-6.2544086614173224
11
3.8474187007874017
21
-6.2506591338582673
0
LINE
8
BLACK
6
CONTINUOUS
10
3.8474187007874017
20
-6.2506591338582673
11
3.8549177559055119
21
-6.2469096062992122
0
LINE
8
BLACK
6
CONTINUOUS
10
3.8549177559055119
20
-6.2469096062992122
11
3.866166377952756
21
-6.2469096062992122
0
LINE
8
BLACK
6
CONTINUOUS
10
3.866166377952756
20
-6.2469096062992122
11
3.8736654330708662
21
-6.2506591338582673
0
LINE
8
BLACK
6
CONTINUOUS
10
3.8736654330708662
20
-6.2506591338582673
11
3.8774149606299213
21
-6.2581582283464563
0
LINE
8
BLACK
6
CONTINUOUS
10
3.8774149606299213
20
-6.2581582283464563
11
3.8774149606299213
21
-6.2994030708661413
0
LINE
8
BLACK
6
CONTINUOUS
10
3.8774149606299213
20
-6.2581582283464563
11
3.8811644881889764
21
-6.2506591338582673
0
LINE
8
BLACK
6
CONTINUOUS
10
3.8811644881889764
20
-6.2506591338582673
11
3.8886635433070866
21
-6.2469096062992122
0
LINE
8
BLACK
6
CONTINUOUS
10
3.8886635433070866
20
-6.2469096062992122
11
3.899912125984252
21
-6.2469096062992122
0
LINE
8
BLACK
6
CONTINUOUS
10
3.899912125984252
20
-6.2469096062992122
11
3.9074112204724409
21
-6.2506591338582673
0
LINE
8
BLACK
6
CONTINUOUS
10
3.9074112204724409
20
-6.2506591338582673
11
3.911160748031496
21
-6.2581582283464563
0
LINE
8
BLACK
6
CONTINUOUS
10
3.911160748031496
20
-6.2581582283464563
11
3.911160748031496
21
-6.2994030708661413
0
LINE
8
BLACK
6
CONTINUOUS
10
3.9486560629921259
20
-6.2994030708661413
11
3.9486560629921259
21
-6.2469096062992122
0
LINE
8
BLACK
6
CONTINUOUS
10
3.9486560629921259
20
-6.2544086614173224
11
3.952405590551181
21
-6.2506591338582673
0
LINE
8
BLACK
6
CONTINUOUS
10
3.952405590551181
20
-6.2506591338582673
11
3.9599046456692912
21
-6.2469096062992122
0
LINE
8
BLACK
6
CONTINUOUS
10
3.9599046456692912
20
-6.2469096062992122
11
3.9711532677165353
21
-6.2469096062992122
0
LINE
8
BLACK
6
CONTINUOUS
10
3.9711532677165353
20
-6.2469096062992122
11
3.9786523228346455
21
-6.2506591338582673
0
LINE
8
BLACK
6
CONTINUOUS
10
3.9786523228346455
20
-6.2506591338582673
11
3.9824018503937006
21
-6.2581582283464563
0
LINE
8
BLACK
6
CONTINUOUS
10
3.9824018503937006
20
-6.2581582283464563
11
3.9824018503937006
21
-6.2994030708661413
0
LINE
8
BLACK
6
CONTINUOUS
10
3.9824018503937006
20
-6.2581582283464563
11
3.9861513779527558
21
-6.2506591338582673
0
LINE
8
BLACK
6
CONTINUOUS
10
3.9861513779527558
20
-6.2506591338582673
11
3.993650433070866
21
-6.2469096062992122
0
LINE
8
BLACK
6
CONTINUOUS
10
3.993650433070866
20
-6.2469096062992122
11
4.0048990157480313
21
-6.2469096062992122
0
LINE
8
BLACK
6
CONTINUOUS
10
4.0048990157480313
20
-6.2469096062992122
11
4.0123981102362203
21
-6.2506591338582673
0
LINE
8
BLACK
6
CONTINUOUS
10
4.0123981102362203
20
-6.2506591338582673
11
4.0161476377952754
21
-6.2581582283464563
0
LINE
8
BLACK
6
CONTINUOUS
10
4.0161476377952754
20
-6.2581582283464563
11
4.0161476377952754
21
-6.2994030708661413
0
LINE
8
BLACK
6
CONTINUOUS
10
4.1698784251968499
20
-6.2169133858267713
11
4.1023868897637792
21
-6.3181507086614168
0
LINE
8
BLACK
6
CONTINUOUS
10
4.271115787401575
20
-6.2206629133858264
11
4.278614881889764
21
-6.2206629133858264
0
LINE
8
BLACK
6
CONTINUOUS
10
4.278614881889764
20
-6.2206629133858264
11
4.2861139370078742
21
-6.2244124409448816
0
LINE
8
BLACK
6
CONTINUOUS
10
4.2861139370078742
20
-6.2244124409448816
11
4.2898634645669294
21
-6.2281619685039367
0
LINE
8
BLACK
6
CONTINUOUS
10
4.2898634645669294
20
-6.2281619685039367
11
4.2936129921259845
21
-6.2356610236220469
0
LINE
8
BLACK
6
CONTINUOUS
10
4.2936129921259845
20
-6.2356610236220469
11
4.2973625196850396
21
-6.2506591338582673
0
LINE
8
BLACK
6
CONTINUOUS
10
4.2973625196850396
20
-6.2506591338582673
11
4.2973625196850396
21
-6.2694068110236216
0
LINE
8
BLACK
6
CONTINUOUS
10
4.2973625196850396
20
-6.2694068110236216
11
4.2936129921259845
21
-6.2844049212598421
0
LINE
8
BLACK
6
CONTINUOUS
10
4.2936129921259845
20
-6.2844049212598421
11
4.2898634645669294
21
-6.2919039763779523
0
LINE
8
BLACK
6
CONTINUOUS
10
4.2898634645669294
20
-6.2919039763779523
11
4.2861139370078742
21
-6.2956535433070862
0
LINE
8
BLACK
6
CONTINUOUS
10
4.2861139370078742
20
-6.2956535433070862
11
4.278614881889764
21
-6.2994030708661413
0
LINE
8
BLACK
6
CONTINUOUS
10
4.278614881889764
20
-6.2994030708661413
11
4.271115787401575
21
-6.2994030708661413
0
LINE
8
BLACK
6
CONTINUOUS
10
4.271115787401575
20
-6.2994030708661413
11
4.2636167322834648
21
-6.2956535433070862
0
LINE
8
BLACK
6
CONTINUOUS
10
4.2636167322834648
20
-6.2956535433070862
11
4.2598672047244097
21
-6.2919039763779523
0
LINE
8
BLACK
6
CONTINUOUS
10
4.2598672047244097
20
-6.2919039763779523
11
4.2561176771653546
21
-6.2844049212598421
0
LINE
8
BLACK
6
CONTINUOUS
10
4.2561176771653546
20
-6.2844049212598421
11
4.2523681496062995
21
-6.2694068110236216
0
LINE
8
BLACK
6
CONTINUOUS
10
4.2523681496062995
20
-6.2694068110236216
11
4.2523681496062995
21
-6.2506591338582673
0
LINE
8
BLACK
6
CONTINUOUS
10
4.2523681496062995
20
-6.2506591338582673
11
4.2561176771653546
21
-6.2356610236220469
0
LINE
8
BLACK
6
CONTINUOUS
10
4.2561176771653546
20
-6.2356610236220469
11
4.2598672047244097
21
-6.2281619685039367
0
LINE
8
BLACK
6
CONTINUOUS
10
4.2598672047244097
20
-6.2281619685039367
11
4.2636167322834648
21
-6.2244124409448816
0
LINE
8
BLACK
6
CONTINUOUS
10
4.2636167322834648
20
-6.2244124409448816
11
4.271115787401575
21
-6.2206629133858264
0
LINE
8
BLACK
6
CONTINUOUS
10
4.3311083070866143
20
-6.2919039763779523
11
4.3348578346456694
21
-6.2956535433070862
0
LINE
8
BLACK
6
CONTINUOUS
10
4.3348578346456694
20
-6.2956535433070862
11
4.3311083070866143
21
-6.2994030708661413
0
LINE
8
BLACK
6
CONTINUOUS
10
4.3311083070866143
20
-6.2994030708661413
11
4.3273587795275592
21
-6.2956535433070862
0
LINE
8
BLACK
6
CONTINUOUS
10
4.3273587795275592
20
-6.2956535433070862
11
4.3311083070866143
21
-6.2919039763779523
0
LINE
8
BLACK
6
CONTINUOUS
10
4.3311083070866143
20
-6.2919039763779523
11
4.3311083070866143
21
-6.2994030708661413
0
LINE
8
BLACK
6
CONTINUOUS
10
4.3836017322834646
20
-6.2206629133858264
11
4.3911008267716536
21
-6.2206629133858264
0
LINE
8
BLACK
6
CONTINUOUS
10
4.3911008267716536
20
-6.2206629133858264
11
4.3985998818897638
21
-6.2244124409448816
0
LINE
8
BLACK
6
CONTINUOUS
10
4.3985998818897638
20
-6.2244124409448816
11
4.4023494094488189
21
-6.2281619685039367
0
LINE
8
BLACK
6
CONTINUOUS
10
4.4023494094488189
20
-6.2281619685039367
11
4.406098937007874
21
-6.2356610236220469
0
LINE
8
BLACK
6
CONTINUOUS
10
4.406098937007874
20
-6.2356610236220469
11
4.4098484645669291
21
-6.2506591338582673
0
LINE
8
BLACK
6
CONTINUOUS
10
4.4098484645669291
20
-6.2506591338582673
11
4.4098484645669291
21
-6.2694068110236216
0
LINE
8
BLACK
6
CONTINUOUS
10
4.4098484645669291
20
-6.2694068110236216
11
4.406098937007874
21
-6.2844049212598421
0
LINE
8
BLACK
6
CONTINUOUS
10
4.406098937007874
20
-6.2844049212598421
11
4.4023494094488189
21
-6.2919039763779523
0
LINE
8
BLACK
6
CONTINUOUS
10
4.4023494094488189
20
-6.2919039763779523
11
4.3985998818897638
21
-6.2956535433070862
0
LINE
8
BLACK
6
CONTINUOUS
10
4.3985998818897638
20
-6.2956535433070862
11
4.3911008267716536
21
-6.2994030708661413
0
LINE
8
BLACK
6
CONTINUOUS
10
4.3911008267716536
20
-6.2994030708661413
11
4.3836017322834646
21
-6.2994030708661413
0
LINE
8
BLACK
6
CONTINUOUS
10
4.3836017322834646
20
-6.2994030708661413
11
4.3761026771653544
21
-6.2956535433070862
0
LINE
8
BLACK
6
CONTINUOUS
10
4.3761026771653544
20
-6.2956535433070862
11
4.3723531496062993
21
-6.2919039763779523
0
LINE
8
BLACK
6
CONTINUOUS
10
4.3723531496062993
20
-6.2919039763779523
11
4.3686036220472442
21
-6.2844049212598421
0
LINE
8
BLACK
6
CONTINUOUS
10
4.3686036220472442
20
-6.2844049212598421
11
4.3648540944881891
21
-6.2694068110236216
0
LINE
8
BLACK
6
CONTINUOUS
10
4.3648540944881891
20
-6.2694068110236216
11
4.3648540944881891
21
-6.2506591338582673
0
LINE
8
BLACK
6
CONTINUOUS
10
4.3648540944881891
20
-6.2506591338582673
11
4.3686036220472442
21
-6.2356610236220469
0
LINE
8
BLACK
6
CONTINUOUS
10
4.3686036220472442
20
-6.2356610236220469
11
4.3723531496062993
21
-6.2281619685039367
0
LINE
8
BLACK
6
CONTINUOUS
10
4.3723531496062993
20
-6.2281619685039367
11
4.3761026771653544
21
-6.2244124409448816
0
LINE
8
BLACK
6
CONTINUOUS
10
4.3761026771653544
20
-6.2244124409448816
11
4.3836017322834646
21
-6.2206629133858264
0
LINE
8
BLACK
6
CONTINUOUS
10
4.4398447244094488
20
-6.2281619685039367
11
4.4435942519685039
21
-6.2244124409448816
0
LINE
8
BLACK
6
CONTINUOUS
10
4.4435942519685039
20
-6.2244124409448816
11
4.4510933070866141
21
-6.2206629133858264
0
LINE
8
BLACK
6
CONTINUOUS
10
4.4510933070866141
20
-6.2206629133858264
11
4.4698409842519684
21
-6.2206629133858264
0
LINE
8
BLACK
6
CONTINUOUS
10
4.4698409842519684
20
-6.2206629133858264
11
4.4773400393700786
21
-6.2244124409448816
0
LINE
8
BLACK
6
CONTINUOUS
10
4.4773400393700786
20
-6.2244124409448816
11
4.4810895669291337
21
-6.2281619685039367
0
LINE
8
BLACK
6
CONTINUOUS
10
4.4810895669291337
20
-6.2281619685039367
11
4.4848390944881888
21
-6.2356610236220469
0
LINE
8
BLACK
6
CONTINUOUS
10
4.4848390944881888
20
-6.2356610236220469
11
4.4848390944881888
21
-6.2431600787401571
0
LINE
8
BLACK
6
CONTINUOUS
10
4.4848390944881888
20
-6.2431600787401571
11
4.4810895669291337
21
-6.2544086614173224
0
LINE
8
BLACK
6
CONTINUOUS
10
4.4810895669291337
20
-6.2544086614173224
11
4.4360951968503937
21
-6.2994030708661413
0
LINE
8
BLACK
6
CONTINUOUS
10
4.4360951968503937
20
-6.2994030708661413
11
4.4848390944881888
21
-6.2994030708661413
0
LINE
8
BLACK
6
CONTINUOUS
10
4.5110858267716534
20
-6.2206629133858264
11
4.5598297244094486
21
-6.2206629133858264
0
LINE
8
BLACK
6
CONTINUOUS
10
4.5598297244094486
20
-6.2206629133858264
11
4.533582992125984
21
-6.2506591338582673
0
LINE
8
BLACK
6
CONTINUOUS
10
4.533582992125984
20
-6.2506591338582673
11
4.5448316141732281
21
-6.2506591338582673
0
LINE
8
BLACK
6
CONTINUOUS
10
4.5448316141732281
20
-6.2506591338582673
11
4.5523306692913383
21
-6.2544086614173224
0
LINE
8
BLACK
6
CONTINUOUS
10
4.5523306692913383
20
-6.2544086614173224
11
4.5560801968503934
21
-6.2581582283464563
0
LINE
8
BLACK
6
CONTINUOUS
10
4.5560801968503934
20
-6.2581582283464563
11
4.5598297244094486
21
-6.2656572834645665
0
LINE
8
BLACK
6
CONTINUOUS
10
4.5598297244094486
20
-6.2656572834645665
11
4.5598297244094486
21
-6.2844049212598421
0
LINE
8
BLACK
6
CONTINUOUS
10
4.5598297244094486
20
-6.2844049212598421
11
4.5560801968503934
21
-6.2919039763779523
0
LINE
8
BLACK
6
CONTINUOUS
10
4.5560801968503934
20
-6.2919039763779523
11
4.5523306692913383
21
-6.2956535433070862
0
LINE
8
BLACK
6
CONTINUOUS
10
4.5523306692913383
20
-6.2956535433070862
11
4.5448316141732281
21
-6.2994030708661413
0
LINE
8
BLACK
6
CONTINUOUS
10
4.5448316141732281
20
-6.2994030708661413
11
4.5223344094488187
21
-6.2994030708661413
0
LINE
8
BLACK
6
CONTINUOUS
10
4.5223344094488187
20
-6.2994030708661413
11
4.5148353543307085
21
-6.2956535433070862
0
LINE
8
BLACK
6
CONTINUOUS
10
4.5148353543307085
20
-6.2956535433070862
11
4.5110858267716534
21
-6.2919039763779523
0
LINE
8
BLACK
6
CONTINUOUS
10
4.627321299212598
20
-6.2206629133858264
11
4.6123231496062989
21
-6.2206629133858264
0
LINE
8
BLACK
6
CONTINUOUS
10
4.6123231496062989
20
-6.2206629133858264
11
4.6048240944881886
21
-6.2244124409448816
0
LINE
8
BLACK
6
CONTINUOUS
10
4.6048240944881886
20
-6.2244124409448816
11
4.6010745669291335
21
-6.2281619685039367
0
LINE
8
BLACK
6
CONTINUOUS
10
4.6010745669291335
20
-6.2281619685039367
11
4.5935755118110233
21
-6.239410551181102
0
LINE
8
BLACK
6
CONTINUOUS
10
4.5935755118110233
20
-6.239410551181102
11
4.5898259842519682
21
-6.2544086614173224
0
LINE
8
BLACK
6
CONTINUOUS
10
4.5898259842519682
20
-6.2544086614173224
11
4.5898259842519682
21
-6.2844049212598421
0
LINE
8
BLACK
6
CONTINUOUS
10
4.5898259842519682
20
-6.2844049212598421
11
4.5935755118110233
21
-6.2919039763779523
0
LINE
8
BLACK
6
CONTINUOUS
10
4.5935755118110233
20
-6.2919039763779523
11
4.5973250393700784
21
-6.2956535433070862
0
LINE
8
BLACK
6
CONTINUOUS
10
4.5973250393700784
20
-6.2956535433070862
11
4.6048240944881886
21
-6.2994030708661413
0
LINE
8
BLACK
6
CONTINUOUS
10
4.6048240944881886
20
-6.2994030708661413
11
4.6198222440944878
21
-6.2994030708661413
0
LINE
8
BLACK
6
CONTINUOUS
10
4.6198222440944878
20
-6.2994030708661413
11
4.627321299212598
21
-6.2956535433070862
0
LINE
8
BLACK
6
CONTINUOUS
10
4.627321299212598
20
-6.2956535433070862
11
4.6310708267716532
21
-6.2919039763779523
0
LINE
8
BLACK
6
CONTINUOUS
10
4.6310708267716532
20
-6.2919039763779523
11
4.6348203543307083
21
-6.2844049212598421
0
LINE
8
BLACK
6
CONTINUOUS
10
4.6348203543307083
20
-6.2844049212598421
11
4.6348203543307083
21
-6.2656572834645665
0
LINE
8
BLACK
6
CONTINUOUS
10
4.6348203543307083
20
-6.2656572834645665
11
4.6310708267716532
21
-6.2581582283464563
0
LINE
8
BLACK
6
CONTINUOUS
10
4.6310708267716532
20
-6.2581582283464563
11
4.627321299212598
21
-6.2544086614173224
0
LINE
8
BLACK
6
CONTINUOUS
10
4.627321299212598
20
-6.2544086614173224
11
4.6198222440944878
21
-6.2506591338582673
0
LINE
8
BLACK
6
CONTINUOUS
10
4.6198222440944878
20
-6.2506591338582673
11
4.6048240944881886
21
-6.2506591338582673
0
LINE
8
BLACK
6
CONTINUOUS
10
4.6048240944881886
20
-6.2506591338582673
11
4.5973250393700784
21
-6.2544086614173224
0
LINE
8
BLACK
6
CONTINUOUS
10
4.5973250393700784
20
-6.2544086614173224
11
4.5935755118110233
21
-6.2581582283464563
0
LINE
8
BLACK
6
CONTINUOUS
10
4.5935755118110233
20
-6.2581582283464563
11
4.5898259842519682
21
-6.2656572834645665
0
LINE
8
BLACK
6
CONTINUOUS
10
4.6648166141732279
20
-6.2206629133858264
11
4.6648166141732279
21
-6.2356610236220469
0
LINE
8
BLACK
6
CONTINUOUS
10
4.6948128740157475
20
-6.2206629133858264
11
4.6948128740157475
21
-6.2356610236220469
0
LINE
8
BLACK
6
CONTINUOUS
10
4.8110483858267719
20
-6.3293992913385821
11
4.807298818897638
21
-6.325649763779527
0
LINE
8
BLACK
6
CONTINUOUS
10
4.807298818897638
20
-6.325649763779527
11
4.7997997637795278
21
-6.3144011811023617
0
LINE
8
BLACK
6
CONTINUOUS
10
4.7997997637795278
20
-6.3144011811023617
11
4.7960502362204727
21
-6.3069021259842515
0
LINE
8
BLACK
6
CONTINUOUS
10
4.7960502362204727
20
-6.3069021259842515
11
4.7923007086614176
21
-6.2956535433070862
0
LINE
8
BLACK
6
CONTINUOUS
10
4.7923007086614176
20
-6.2956535433070862
11
4.7885511811023624
21
-6.2769058661417318
0
LINE
8
BLACK
6
CONTINUOUS
10
4.7885511811023624
20
-6.2769058661417318
11
4.7885511811023624
21
-6.2619077559055114
0
LINE
8
BLACK
6
CONTINUOUS
10
4.7885511811023624
20
-6.2619077559055114
11
4.7923007086614176
21
-6.2431600787401571
0
LINE
8
BLACK
6
CONTINUOUS
10
4.7923007086614176
20
-6.2431600787401571
11
4.7960502362204727
21
-6.2319114960629918
0
LINE
8
BLACK
6
CONTINUOUS
10
4.7960502362204727
20
-6.2319114960629918
11
4.7997997637795278
21
-6.2244124409448816
0
LINE
8
BLACK
6
CONTINUOUS
10
4.7997997637795278
20
-6.2244124409448816
11
4.807298818897638
21
-6.2131638188976375
0
LINE
8
BLACK
6
CONTINUOUS
10
4.807298818897638
20
-6.2131638188976375
11
4.8110483858267719
21
-6.2094142913385824
0
LINE
8
BLACK
6
CONTINUOUS
10
4.8560427165354332
20
-6.2206629133858264
11
4.8635418110236222
21
-6.2206629133858264
0
LINE
8
BLACK
6
CONTINUOUS
10
4.8635418110236222
20
-6.2206629133858264
11
4.8710408661417324
21
-6.2244124409448816
0
LINE
8
BLACK
6
CONTINUOUS
10
4.8710408661417324
20
-6.2244124409448816
11
4.8747903937007875
21
-6.2281619685039367
0
LINE
8
BLACK
6
CONTINUOUS
10
4.8747903937007875
20
-6.2281619685039367
11
4.8785399212598426
21
-6.2356610236220469
0
LINE
8
BLACK
6
CONTINUOUS
10
4.8785399212598426
20
-6.2356610236220469
11
4.8822894488188977
21
-6.2506591338582673
0
LINE
8
BLACK
6
CONTINUOUS
10
4.8822894488188977
20
-6.2506591338582673
11
4.8822894488188977
21
-6.2694068110236216
0
LINE
8
BLACK
6
CONTINUOUS
10
4.8822894488188977
20
-6.2694068110236216
11
4.8785399212598426
21
-6.2844049212598421
0
LINE
8
BLACK
6
CONTINUOUS
10
4.8785399212598426
20
-6.2844049212598421
11
4.8747903937007875
21
-6.2919039763779523
0
LINE
8
BLACK
6
CONTINUOUS
10
4.8747903937007875
20
-6.2919039763779523
11
4.8710408661417324
21
-6.2956535433070862
0
LINE
8
BLACK
6
CONTINUOUS
10
4.8710408661417324
20
-6.2956535433070862
11
4.8635418110236222
21
-6.2994030708661413
0
LINE
8
BLACK
6
CONTINUOUS
10
4.8635418110236222
20
-6.2994030708661413
11
4.8560427165354332
21
-6.2994030708661413
0
LINE
8
BLACK
6
CONTINUOUS
10
4.8560427165354332
20
-6.2994030708661413
11
4.848543661417323
21
-6.2956535433070862
0
LINE
8
BLACK
6
CONTINUOUS
10
4.848543661417323
20
-6.2956535433070862
11
4.8447941338582678
21
-6.2919039763779523
0
LINE
8
BLACK
6
CONTINUOUS
10
4.8447941338582678
20
-6.2919039763779523
11
4.8410446062992127
21
-6.2844049212598421
0
LINE
8
BLACK
6
CONTINUOUS
10
4.8410446062992127
20
-6.2844049212598421
11
4.8372950787401576
21
-6.2694068110236216
0
LINE
8
BLACK
6
CONTINUOUS
10
4.8372950787401576
20
-6.2694068110236216
11
4.8372950787401576
21
-6.2506591338582673
0
LINE
8
BLACK
6
CONTINUOUS
10
4.8372950787401576
20
-6.2506591338582673
11
4.8410446062992127
21
-6.2356610236220469
0
LINE
8
BLACK
6
CONTINUOUS
10
4.8410446062992127
20
-6.2356610236220469
11
4.8447941338582678
21
-6.2281619685039367
0
LINE
8
BLACK
6
CONTINUOUS
10
4.8447941338582678
20
-6.2281619685039367
11
4.848543661417323
21
-6.2244124409448816
0
LINE
8
BLACK
6
CONTINUOUS
10
4.848543661417323
20
-6.2244124409448816
11
4.8560427165354332
21
-6.2206629133858264
0
LINE
8
BLACK
6
CONTINUOUS
10
4.9760277559055117
20
-6.2994030708661413
11
4.9760277559055117
21
-6.2206629133858264
0
LINE
8
BLACK
6
CONTINUOUS
10
5.0097735433070865
20
-6.2994030708661413
11
5.0097735433070865
21
-6.2581582283464563
0
LINE
8
BLACK
6
CONTINUOUS
10
5.0097735433070865
20
-6.2581582283464563
11
5.0060240157480314
21
-6.2506591338582673
0
LINE
8
BLACK
6
CONTINUOUS
10
5.0060240157480314
20
-6.2506591338582673
11
4.9985249606299211
21
-6.2469096062992122
0
LINE
8
BLACK
6
CONTINUOUS
10
4.9985249606299211
20
-6.2469096062992122
11
4.987276338582677
21
-6.2469096062992122
0
LINE
8
BLACK
6
CONTINUOUS
10
4.987276338582677
20
-6.2469096062992122
11
4.9797772834645668
21
-6.2506591338582673
0
LINE
8
BLACK
6
CONTINUOUS
10
4.9797772834645668
20
-6.2506591338582673
11
4.9760277559055117
21
-6.2544086614173224
0
LINE
8
BLACK
6
CONTINUOUS
10
5.0585174409448816
20
-6.2994030708661413
11
5.0510183858267714
21
-6.2956535433070862
0
LINE
8
BLACK
6
CONTINUOUS
10
5.0510183858267714
20
-6.2956535433070862
11
5.0472688582677163
21
-6.2919039763779523
0
LINE
8
BLACK
6
CONTINUOUS
10
5.0472688582677163
20
-6.2919039763779523
11
5.0435193307086612
21
-6.2844049212598421
0
LINE
8
BLACK
6
CONTINUOUS
10
5.0435193307086612
20
-6.2844049212598421
11
5.0435193307086612
21
-6.2619077559055114
0
LINE
8
BLACK
6
CONTINUOUS
10
5.0435193307086612
20
-6.2619077559055114
11
5.0472688582677163
21
-6.2544086614173224
0
LINE
8
BLACK
6
CONTINUOUS
10
5.0472688582677163
20
-6.2544086614173224
11
5.0510183858267714
21
-6.2506591338582673
0
LINE
8
BLACK
6
CONTINUOUS
10
5.0510183858267714
20
-6.2506591338582673
11
5.0585174409448816
21
-6.2469096062992122
0
LINE
8
BLACK
6
CONTINUOUS
10
5.0585174409448816
20
-6.2469096062992122
11
5.0697660629921257
21
-6.2469096062992122
0
LINE
8
BLACK
6
CONTINUOUS
10
5.0697660629921257
20
-6.2469096062992122
11
5.077265118110236
21
-6.2506591338582673
0
LINE
8
BLACK
6
CONTINUOUS
10
5.077265118110236
20
-6.2506591338582673
11
5.0810146456692911
21
-6.2544086614173224
0
LINE
8
BLACK
6
CONTINUOUS
10
5.0810146456692911
20
-6.2544086614173224
11
5.0847641732283462
21
-6.2619077559055114
0
LINE
8
BLACK
6
CONTINUOUS
10
5.0847641732283462
20
-6.2619077559055114
11
5.0847641732283462
21
-6.2844049212598421
0
LINE
8
BLACK
6
CONTINUOUS
10
5.0847641732283462
20
-6.2844049212598421
11
5.0810146456692911
21
-6.2919039763779523
0
LINE
8
BLACK
6
CONTINUOUS
10
5.0810146456692911
20
-6.2919039763779523
11
5.077265118110236
21
-6.2956535433070862
0
LINE
8
BLACK
6
CONTINUOUS
10
5.077265118110236
20
-6.2956535433070862
11
5.0697660629921257
21
-6.2994030708661413
0
LINE
8
BLACK
6
CONTINUOUS
10
5.0697660629921257
20
-6.2994030708661413
11
5.0585174409448816
21
-6.2994030708661413
0
LINE
8
BLACK
6
CONTINUOUS
10
5.1297585433070862
20
-6.2994030708661413
11
5.122259488188976
21
-6.2956535433070862
0
LINE
8
BLACK
6
CONTINUOUS
10
5.122259488188976
20
-6.2956535433070862
11
5.1185099606299209
21
-6.2881544488188972
0
LINE
8
BLACK
6
CONTINUOUS
10
5.1185099606299209
20
-6.2881544488188972
11
5.1185099606299209
21
-6.2206629133858264
0
LINE
8
BLACK
6
CONTINUOUS
10
5.1897510629921255
20
-6.2956535433070862
11
5.1822520078740153
21
-6.2994030708661413
0
LINE
8
BLACK
6
CONTINUOUS
10
5.1822520078740153
20
-6.2994030708661413
11
5.1672538582677161
21
-6.2994030708661413
0
LINE
8
BLACK
6
CONTINUOUS
10
5.1672538582677161
20
-6.2994030708661413
11
5.1597548031496059
21
-6.2956535433070862
0
LINE
8
BLACK
6
CONTINUOUS
10
5.1597548031496059
20
-6.2956535433070862
11
5.1560052755905508
21
-6.2881544488188972
0
LINE
8
BLACK
6
CONTINUOUS
10
5.1560052755905508
20
-6.2881544488188972
11
5.1560052755905508
21
-6.2581582283464563
0
LINE
8
BLACK
6
CONTINUOUS
10
5.1560052755905508
20
-6.2581582283464563
11
5.1597548031496059
21
-6.2506591338582673
0
LINE
8
BLACK
6
CONTINUOUS
10
5.1597548031496059
20
-6.2506591338582673
11
5.1672538582677161
21
-6.2469096062992122
0
LINE
8
BLACK
6
CONTINUOUS
10
5.1672538582677161
20
-6.2469096062992122
11
5.1822520078740153
21
-6.2469096062992122
0
LINE
8
BLACK
6
CONTINUOUS
10
5.1822520078740153
20
-6.2469096062992122
11
5.1897510629921255
21
-6.2506591338582673
0
LINE
8
BLACK
6
CONTINUOUS
10
5.1897510629921255
20
-6.2506591338582673
11
5.1935005905511806
21
-6.2581582283464563
0
LINE
8
BLACK
6
CONTINUOUS
10
5.1935005905511806
20
-6.2581582283464563
11
5.1935005905511806
21
-6.2656572834645665
0
LINE
8
BLACK
6
CONTINUOUS
10
5.1935005905511806
20
-6.2656572834645665
11
5.1560052755905508
21
-6.2731563385826767
0
LINE
8
BLACK
6
CONTINUOUS
10
5.2234968503937003
20
-6.2956535433070862
11
5.2309959055118105
21
-6.2994030708661413
0
LINE
8
BLACK
6
CONTINUOUS
10
5.2309959055118105
20
-6.2994030708661413
11
5.2459940157480318
21
-6.2994030708661413
0
LINE
8
BLACK
6
CONTINUOUS
10
5.2459940157480318
20
-6.2994030708661413
11
5.2534931102362208
21
-6.2956535433070862
0
LINE
8
BLACK
6
CONTINUOUS
10
5.2534931102362208
20
-6.2956535433070862
11
5.2572426377952759
21
-6.2881544488188972
0
LINE
8
BLACK
6
CONTINUOUS
10
5.2572426377952759
20
-6.2881544488188972
11
5.2572426377952759
21
-6.2844049212598421
0
LINE
8
BLACK
6
CONTINUOUS
10
5.2572426377952759
20
-6.2844049212598421
11
5.2534931102362208
21
-6.2769058661417318
0
LINE
8
BLACK
6
CONTINUOUS
10
5.2534931102362208
20
-6.2769058661417318
11
5.2459940157480318
21
-6.2731563385826767
0
LINE
8
BLACK
6
CONTINUOUS
10
5.2459940157480318
20
-6.2731563385826767
11
5.2347454330708656
21
-6.2731563385826767
0
LINE
8
BLACK
6
CONTINUOUS
10
5.2347454330708656
20
-6.2731563385826767
11
5.2272463779527554
21
-6.2694068110236216
0
LINE
8
BLACK
6
CONTINUOUS
10
5.2272463779527554
20
-6.2694068110236216
11
5.2234968503937003
21
-6.2619077559055114
0
LINE
8
BLACK
6
CONTINUOUS
10
5.2234968503937003
20
-6.2619077559055114
11
5.2234968503937003
21
-6.2581582283464563
0
LINE
8
BLACK
6
CONTINUOUS
10
5.2234968503937003
20
-6.2581582283464563
11
5.2272463779527554
21
-6.2506591338582673
0
LINE
8
BLACK
6
CONTINUOUS
10
5.2272463779527554
20
-6.2506591338582673
11
5.2347454330708656
21
-6.2469096062992122
0
LINE
8
BLACK
6
CONTINUOUS
10
5.2347454330708656
20
-6.2469096062992122
11
5.2459940157480318
21
-6.2469096062992122
0
LINE
8
BLACK
6
CONTINUOUS
10
5.2459940157480318
20
-6.2469096062992122
11
5.2534931102362208
21
-6.2506591338582673
0
LINE
8
BLACK
6
CONTINUOUS
10
5.3509809448818899
20
-6.2694068110236216
11
5.4109734645669292
21
-6.2694068110236216
0
LINE
8
BLACK
6
CONTINUOUS
10
5.3809772047244095
20
-6.2994030708661413
11
5.3809772047244095
21
-6.239410551181102
0
LINE
8
BLACK
6
CONTINUOUS
10
5.5422070472440943
20
-6.2469096062992122
11
5.5422070472440943
21
-6.2994030708661413
0
LINE
8
BLACK
6
CONTINUOUS
10
5.52345937007874
20
-6.2169133858267713
11
5.5047117322834644
21
-6.2731563385826767
0
LINE
8
BLACK
6
CONTINUOUS
10
5.5047117322834644
20
-6.2731563385826767
11
5.5534556299212596
21
-6.2731563385826767
0
LINE
8
BLACK
6
CONTINUOUS
10
5.6396948818897634
20
-6.2956535433070862
11
5.6471939370078736
21
-6.2994030708661413
0
LINE
8
BLACK
6
CONTINUOUS
10
5.6471939370078736
20
-6.2994030708661413
11
5.6621920472440941
21
-6.2994030708661413
0
LINE
8
BLACK
6
CONTINUOUS
10
5.6621920472440941
20
-6.2994030708661413
11
5.6696911417322831
21
-6.2956535433070862
0
LINE
8
BLACK
6
CONTINUOUS
10
5.6696911417322831
20
-6.2956535433070862
11
5.6734406692913382
21
-6.2881544488188972
0
LINE
8
BLACK
6
CONTINUOUS
10
5.6734406692913382
20
-6.2881544488188972
11
5.6734406692913382
21
-6.2844049212598421
0
LINE
8
BLACK
6
CONTINUOUS
10
5.6734406692913382
20
-6.2844049212598421
11
5.6696911417322831
21
-6.2769058661417318
0
LINE
8
BLACK
6
CONTINUOUS
10
5.6696911417322831
20
-6.2769058661417318
11
5.6621920472440941
21
-6.2731563385826767
0
LINE
8
BLACK
6
CONTINUOUS
10
5.6621920472440941
20
-6.2731563385826767
11
5.6509434645669288
21
-6.2731563385826767
0
LINE
8
BLACK
6
CONTINUOUS
10
5.6509434645669288
20
-6.2731563385826767
11
5.6434444094488185
21
-6.2694068110236216
0
LINE
8
BLACK
6
CONTINUOUS
10
5.6434444094488185
20
-6.2694068110236216
11
5.6396948818897634
21
-6.2619077559055114
0
LINE
8
BLACK
6
CONTINUOUS
10
5.6396948818897634
20
-6.2619077559055114
11
5.6396948818897634
21
-6.2581582283464563
0
LINE
8
BLACK
6
CONTINUOUS
10
5.6396948818897634
20
-6.2581582283464563
11
5.6434444094488185
21
-6.2506591338582673
0
LINE
8
BLACK
6
CONTINUOUS
10
5.6434444094488185
20
-6.2506591338582673
11
5.6509434645669288
21
-6.2469096062992122
0
LINE
8
BLACK
6
CONTINUOUS
10
5.6509434645669288
20
-6.2469096062992122
11
5.6621920472440941
21
-6.2469096062992122
0
LINE
8
BLACK
6
CONTINUOUS
10
5.6621920472440941
20
-6.2469096062992122
11
5.6696911417322831
21
-6.2506591338582673
0
LINE
8
BLACK
6
CONTINUOUS
10
5.7184350393700782
20
-6.2994030708661413
11
5.710935984251968
21
-6.2956535433070862
0
LINE
8
BLACK
6
CONTINUOUS
10
5.710935984251968
20
-6.2956535433070862
11
5.7071864566929129
21
-6.2881544488188972
0
LINE
8
BLACK
6
CONTINUOUS
10
5.7071864566929129
20
-6.2881544488188972
11
5.7071864566929129
21
-6.2206629133858264
0
LINE
8
BLACK
6
CONTINUOUS
10
5.7596798818897632
20
-6.2994030708661413
11
5.752180826771653
21
-6.2956535433070862
0
LINE
8
BLACK
6
CONTINUOUS
10
5.752180826771653
20
-6.2956535433070862
11
5.7484312992125979
21
-6.2919039763779523
0
LINE
8
BLACK
6
CONTINUOUS
10
5.7484312992125979
20
-6.2919039763779523
11
5.7446817716535428
21
-6.2844049212598421
0
LINE
8
BLACK
6
CONTINUOUS
10
5.7446817716535428
20
-6.2844049212598421
11
5.7446817716535428
21
-6.2619077559055114
0
LINE
8
BLACK
6
CONTINUOUS
10
5.7446817716535428
20
-6.2619077559055114
11
5.7484312992125979
21
-6.2544086614173224
0
LINE
8
BLACK
6
CONTINUOUS
10
5.7484312992125979
20
-6.2544086614173224
11
5.752180826771653
21
-6.2506591338582673
0
LINE
8
BLACK
6
CONTINUOUS
10
5.752180826771653
20
-6.2506591338582673
11
5.7596798818897632
21
-6.2469096062992122
0
LINE
8
BLACK
6
CONTINUOUS
10
5.7596798818897632
20
-6.2469096062992122
11
5.7709285039370082
21
-6.2469096062992122
0
LINE
8
BLACK
6
CONTINUOUS
10
5.7709285039370082
20
-6.2469096062992122
11
5.7784275590551184
21
-6.2506591338582673
0
LINE
8
BLACK
6
CONTINUOUS
10
5.7784275590551184
20
-6.2506591338582673
11
5.7821770866141735
21
-6.2544086614173224
0
LINE
8
BLACK
6
CONTINUOUS
10
5.7821770866141735
20
-6.2544086614173224
11
5.7859266141732286
21
-6.2619077559055114
0
LINE
8
BLACK
6
CONTINUOUS
10
5.7859266141732286
20
-6.2619077559055114
11
5.7859266141732286
21
-6.2844049212598421
0
LINE
8
BLACK
6
CONTINUOUS
10
5.7859266141732286
20
-6.2844049212598421
11
5.7821770866141735
21
-6.2919039763779523
0
LINE
8
BLACK
6
CONTINUOUS
10
5.7821770866141735
20
-6.2919039763779523
11
5.7784275590551184
21
-6.2956535433070862
0
LINE
8
BLACK
6
CONTINUOUS
10
5.7784275590551184
20
-6.2956535433070862
11
5.7709285039370082
21
-6.2994030708661413
0
LINE
8
BLACK
6
CONTINUOUS
10
5.7709285039370082
20
-6.2994030708661413
11
5.7596798818897632
21
-6.2994030708661413
0
LINE
8
BLACK
6
CONTINUOUS
10
5.808423818897638
20
-6.2469096062992122
11
5.8384200393700789
21
-6.2469096062992122
0
LINE
8
BLACK
6
CONTINUOUS
10
5.8196724015748034
20
-6.2206629133858264
11
5.8196724015748034
21
-6.2881544488188972
0
LINE
8
BLACK
6
CONTINUOUS
10
5.8196724015748034
20
-6.2881544488188972
11
5.8234219291338585
21
-6.2956535433070862
0
LINE
8
BLACK
6
CONTINUOUS
10
5.8234219291338585
20
-6.2956535433070862
11
5.8309209842519687
21
-6.2994030708661413
0
LINE
8
BLACK
6
CONTINUOUS
10
5.8309209842519687
20
-6.2994030708661413
11
5.8384200393700789
21
-6.2994030708661413
0
LINE
8
BLACK
6
CONTINUOUS
10
5.8609172440944883
20
-6.2956535433070862
11
5.8684162992125986
21
-6.2994030708661413
0
LINE
8
BLACK
6
CONTINUOUS
10
5.8684162992125986
20
-6.2994030708661413
11
5.883414409448819
21
-6.2994030708661413
0
LINE
8
BLACK
6
CONTINUOUS
10
5.883414409448819
20
-6.2994030708661413
11
5.890913503937008
21
-6.2956535433070862
0
LINE
8
BLACK
6
CONTINUOUS
10
5.890913503937008
20
-6.2956535433070862
11
5.8946630314960631
21
-6.2881544488188972
0
LINE
8
BLACK
6
CONTINUOUS
10
5.8946630314960631
20
-6.2881544488188972
11
5.8946630314960631
21
-6.2844049212598421
0
LINE
8
BLACK
6
CONTINUOUS
10
5.8946630314960631
20
-6.2844049212598421
11
5.890913503937008
21
-6.2769058661417318
0
LINE
8
BLACK
6
CONTINUOUS
10
5.890913503937008
20
-6.2769058661417318
11
5.883414409448819
21
-6.2731563385826767
0
LINE
8
BLACK
6
CONTINUOUS
10
5.883414409448819
20
-6.2731563385826767
11
5.8721658267716537
21
-6.2731563385826767
0
LINE
8
BLACK
6
CONTINUOUS
10
5.8721658267716537
20
-6.2731563385826767
11
5.8646667716535434
21
-6.2694068110236216
0
LINE
8
BLACK
6
CONTINUOUS
10
5.8646667716535434
20
-6.2694068110236216
11
5.8609172440944883
21
-6.2619077559055114
0
LINE
8
BLACK
6
CONTINUOUS
10
5.8609172440944883
20
-6.2619077559055114
11
5.8609172440944883
21
-6.2581582283464563
0
LINE
8
BLACK
6
CONTINUOUS
10
5.8609172440944883
20
-6.2581582283464563
11
5.8646667716535434
21
-6.2506591338582673
0
LINE
8
BLACK
6
CONTINUOUS
10
5.8646667716535434
20
-6.2506591338582673
11
5.8721658267716537
21
-6.2469096062992122
0
LINE
8
BLACK
6
CONTINUOUS
10
5.8721658267716537
20
-6.2469096062992122
11
5.883414409448819
21
-6.2469096062992122
0
LINE
8
BLACK
6
CONTINUOUS
10
5.883414409448819
20
-6.2469096062992122
11
5.890913503937008
21
-6.2506591338582673
0
LINE
8
BLACK
6
CONTINUOUS
10
5.9209097637795276
20
-6.3293992913385821
11
5.9246592913385827
21
-6.325649763779527
0
LINE
8
BLACK
6
CONTINUOUS
10
5.9246592913385827
20
-6.325649763779527
11
5.9321583464566929
21
-6.3144011811023617
0
LINE
8
BLACK
6
CONTINUOUS
10
5.9321583464566929
20
-6.3144011811023617
11
5.935907874015748
21
-6.3069021259842515
0
LINE
8
BLACK
6
CONTINUOUS
10
5.935907874015748
20
-6.3069021259842515
11
5.9396574015748032
21
-6.2956535433070862
0
LINE
8
BLACK
6
CONTINUOUS
10
5.9396574015748032
20
-6.2956535433070862
11
5.9434069291338583
21
-6.2769058661417318
0
LINE
8
BLACK
6
CONTINUOUS
10
5.9434069291338583
20
-6.2769058661417318
11
5.9434069291338583
21
-6.2619077559055114
0
LINE
8
BLACK
6
CONTINUOUS
10
5.9434069291338583
20
-6.2619077559055114
11
5.9396574015748032
21
-6.2431600787401571
0
LINE
8
BLACK
6
CONTINUOUS
10
5.9396574015748032
20
-6.2431600787401571
11
5.935907874015748
21
-6.2319114960629918
0
LINE
8
BLACK
6
CONTINUOUS
10
5.935907874015748
20
-6.2319114960629918
11
5.9321583464566929
21
-6.2244124409448816
0
LINE
8
BLACK
6
CONTINUOUS
10
5.9321583464566929
20
-6.2244124409448816
11
5.9246592913385827
21
-6.2131638188976375
0
LINE
8
BLACK
6
CONTINUOUS
10
5.9246592913385827
20
-6.2131638188976375
11
5.9209097637795276
21
-6.2094142913385824
0
LINE
8
BLACK
6
CONTINUOUS
10
3.3838582677165352
20
-6.34763779527559
11
3.3838582677165352
21
-6.3870078740157483
0
LINE
8
BLACK
6
CONTINUOUS
10
3.3641732283464565
20
-6.3673228346456687
11
3.4035433070866139
21
-6.3673228346456687
0
LINE
8
BLACK
6
CONTINUOUS
10
3.5474561811023619
20
-6.4033400787401575
11
3.5024618110236219
21
-6.4033400787401575
0
LINE
8
BLACK
6
CONTINUOUS
10
3.5249589763779525
20
-6.4033400787401575
11
3.5249589763779525
21
-6.3245999212598427
0
LINE
8
BLACK
6
CONTINUOUS
10
3.5249589763779525
20
-6.3245999212598427
11
3.5174599212598423
21
-6.335848503937008
0
LINE
8
BLACK
6
CONTINUOUS
10
3.5174599212598423
20
-6.335848503937008
11
3.5099608661417321
21
-6.3433475590551183
0
LINE
8
BLACK
6
CONTINUOUS
10
3.5099608661417321
20
-6.3433475590551183
11
3.5024618110236219
21
-6.3470970866141734
0
LINE
8
BLACK
6
CONTINUOUS
10
3.5812019685039371
20
-6.3958409842519686
11
3.5849514960629922
21
-6.3995905511811024
0
LINE
8
BLACK
6
CONTINUOUS
10
3.5849514960629922
20
-6.3995905511811024
11
3.5812019685039371
21
-6.4033400787401575
0
LINE
8
BLACK
6
CONTINUOUS
10
3.5812019685039371
20
-6.4033400787401575
11
3.577452440944882
21
-6.3995905511811024
0
LINE
8
BLACK
6
CONTINUOUS
10
3.577452440944882
20
-6.3995905511811024
11
3.5812019685039371
21
-6.3958409842519686
0
LINE
8
BLACK
6
CONTINUOUS
10
3.5812019685039371
20
-6.3958409842519686
11
3.5812019685039371
21
-6.4033400787401575
0
LINE
8
BLACK
6
CONTINUOUS
10
3.6336953937007874
20
-6.3245999212598427
11
3.6411944881889764
21
-6.3245999212598427
0
LINE
8
BLACK
6
CONTINUOUS
10
3.6411944881889764
20
-6.3245999212598427
11
3.6486935433070866
21
-6.3283494488188978
0
LINE
8
BLACK
6
CONTINUOUS
10
3.6486935433070866
20
-6.3283494488188978
11
3.6524430708661417
21
-6.3320989763779529
0
LINE
8
BLACK
6
CONTINUOUS
10
3.6524430708661417
20
-6.3320989763779529
11
3.6561925984251968
21
-6.3395980314960632
0
LINE
8
BLACK
6
CONTINUOUS
10
3.6561925984251968
20
-6.3395980314960632
11
3.6599421259842519
21
-6.3545961417322836
0
LINE
8
BLACK
6
CONTINUOUS
10
3.6599421259842519
20
-6.3545961417322836
11
3.6599421259842519
21
-6.3733438188976379
0
LINE
8
BLACK
6
CONTINUOUS
10
3.6599421259842519
20
-6.3733438188976379
11
3.6561925984251968
21
-6.3883419291338583
0
LINE
8
BLACK
6
CONTINUOUS
10
3.6561925984251968
20
-6.3883419291338583
11
3.6524430708661417
21
-6.3958409842519686
0
LINE
8
BLACK
6
CONTINUOUS
10
3.6524430708661417
20
-6.3958409842519686
11
3.6486935433070866
21
-6.3995905511811024
0
LINE
8
BLACK
6
CONTINUOUS
10
3.6486935433070866
20
-6.3995905511811024
11
3.6411944881889764
21
-6.4033400787401575
0
LINE
8
BLACK
6
CONTINUOUS
10
3.6411944881889764
20
-6.4033400787401575
11
3.6336953937007874
21
-6.4033400787401575
0
LINE
8
BLACK
6
CONTINUOUS
10
3.6336953937007874
20
-6.4033400787401575
11
3.6261963385826772
21
-6.3995905511811024
0
LINE
8
BLACK
6
CONTINUOUS
10
3.6261963385826772
20
-6.3995905511811024
11
3.6224468110236221
21
-6.3958409842519686
0
LINE
8
BLACK
6
CONTINUOUS
10
3.6224468110236221
20
-6.3958409842519686
11
3.618697283464567
21
-6.3883419291338583
0
LINE
8
BLACK
6
CONTINUOUS
10
3.618697283464567
20
-6.3883419291338583
11
3.6149477559055119
21
-6.3733438188976379
0
LINE
8
BLACK
6
CONTINUOUS
10
3.6149477559055119
20
-6.3733438188976379
11
3.6149477559055119
21
-6.3545961417322836
0
LINE
8
BLACK
6
CONTINUOUS
10
3.6149477559055119
20
-6.3545961417322836
11
3.618697283464567
21
-6.3395980314960632
0
LINE
8
BLACK
6
CONTINUOUS
10
3.618697283464567
20
-6.3395980314960632
11
3.6224468110236221
21
-6.3320989763779529
0
LINE
8
BLACK
6
CONTINUOUS
10
3.6224468110236221
20
-6.3320989763779529
11
3.6261963385826772
21
-6.3283494488188978
0
LINE
8
BLACK
6
CONTINUOUS
10
3.6261963385826772
20
-6.3283494488188978
11
3.6336953937007874
21
-6.3245999212598427
0
LINE
8
BLACK
6
CONTINUOUS
10
3.7086860236220471
20
-6.3245999212598427
11
3.7161851181102361
21
-6.3245999212598427
0
LINE
8
BLACK
6
CONTINUOUS
10
3.7161851181102361
20
-6.3245999212598427
11
3.7236841732283463
21
-6.3283494488188978
0
LINE
8
BLACK
6
CONTINUOUS
10
3.7236841732283463
20
-6.3283494488188978
11
3.7274337007874014
21
-6.3320989763779529
0
LINE
8
BLACK
6
CONTINUOUS
10
3.7274337007874014
20
-6.3320989763779529
11
3.7311832283464565
21
-6.3395980314960632
0
LINE
8
BLACK
6
CONTINUOUS
10
3.7311832283464565
20
-6.3395980314960632
11
3.7349327559055117
21
-6.3545961417322836
0
LINE
8
BLACK
6
CONTINUOUS
10
3.7349327559055117
20
-6.3545961417322836
11
3.7349327559055117
21
-6.3733438188976379
0
LINE
8
BLACK
6
CONTINUOUS
10
3.7349327559055117
20
-6.3733438188976379
11
3.7311832283464565
21
-6.3883419291338583
0
LINE
8
BLACK
6
CONTINUOUS
10
3.7311832283464565
20
-6.3883419291338583
11
3.7274337007874014
21
-6.3958409842519686
0
LINE
8
BLACK
6
CONTINUOUS
10
3.7274337007874014
20
-6.3958409842519686
11
3.7236841732283463
21
-6.3995905511811024
0
LINE
8
BLACK
6
CONTINUOUS
10
3.7236841732283463
20
-6.3995905511811024
11
3.7161851181102361
21
-6.4033400787401575
0
LINE
8
BLACK
6
CONTINUOUS
10
3.7161851181102361
20
-6.4033400787401575
11
3.7086860236220471
21
-6.4033400787401575
0
LINE
8
BLACK
6
CONTINUOUS
10
3.7086860236220471
20
-6.4033400787401575
11
3.7011869685039369
21
-6.3995905511811024
0
LINE
8
BLACK
6
CONTINUOUS
10
3.7011869685039369
20
-6.3995905511811024
11
3.6974374409448818
21
-6.3958409842519686
0
LINE
8
BLACK
6
CONTINUOUS
10
3.6974374409448818
20
-6.3958409842519686
11
3.6936879133858267
21
-6.3883419291338583
0
LINE
8
BLACK
6
CONTINUOUS
10
3.6936879133858267
20
-6.3883419291338583
11
3.6899383858267716
21
-6.3733438188976379
0
LINE
8
BLACK
6
CONTINUOUS
10
3.6899383858267716
20
-6.3733438188976379
11
3.6899383858267716
21
-6.3545961417322836
0
LINE
8
BLACK
6
CONTINUOUS
10
3.6899383858267716
20
-6.3545961417322836
11
3.6936879133858267
21
-6.3395980314960632
0
LINE
8
BLACK
6
CONTINUOUS
10
3.6936879133858267
20
-6.3395980314960632
11
3.6974374409448818
21
-6.3320989763779529
0
LINE
8
BLACK
6
CONTINUOUS
10
3.6974374409448818
20
-6.3320989763779529
11
3.7011869685039369
21
-6.3283494488188978
0
LINE
8
BLACK
6
CONTINUOUS
10
3.7011869685039369
20
-6.3283494488188978
11
3.7086860236220471
21
-6.3245999212598427
0
LINE
8
BLACK
6
CONTINUOUS
10
3.7836766535433068
20
-6.3245999212598427
11
3.7911757480314958
21
-6.3245999212598427
0
LINE
8
BLACK
6
CONTINUOUS
10
3.7911757480314958
20
-6.3245999212598427
11
3.798674803149606
21
-6.3283494488188978
0
LINE
8
BLACK
6
CONTINUOUS
10
3.798674803149606
20
-6.3283494488188978
11
3.8024243307086611
21
-6.3320989763779529
0
LINE
8
BLACK
6
CONTINUOUS
10
3.8024243307086611
20
-6.3320989763779529
11
3.8061738582677163
21
-6.3395980314960632
0
LINE
8
BLACK
6
CONTINUOUS
10
3.8061738582677163
20
-6.3395980314960632
11
3.8099233858267714
21
-6.3545961417322836
0
LINE
8
BLACK
6
CONTINUOUS
10
3.8099233858267714
20
-6.3545961417322836
11
3.8099233858267714
21
-6.3733438188976379
0
LINE
8
BLACK
6
CONTINUOUS
10
3.8099233858267714
20
-6.3733438188976379
11
3.8061738582677163
21
-6.3883419291338583
0
LINE
8
BLACK
6
CONTINUOUS
10
3.8061738582677163
20
-6.3883419291338583
11
3.8024243307086611
21
-6.3958409842519686
0
LINE
8
BLACK
6
CONTINUOUS
10
3.8024243307086611
20
-6.3958409842519686
11
3.798674803149606
21
-6.3995905511811024
0
LINE
8
BLACK
6
CONTINUOUS
10
3.798674803149606
20
-6.3995905511811024
11
3.7911757480314958
21
-6.4033400787401575
0
LINE
8
BLACK
6
CONTINUOUS
10
3.7911757480314958
20
-6.4033400787401575
11
3.7836766535433068
21
-6.4033400787401575
0
LINE
8
BLACK
6
CONTINUOUS
10
3.7836766535433068
20
-6.4033400787401575
11
3.7761775984251966
21
-6.3995905511811024
0
LINE
8
BLACK
6
CONTINUOUS
10
3.7761775984251966
20
-6.3995905511811024
11
3.7724280708661415
21
-6.3958409842519686
0
LINE
8
BLACK
6
CONTINUOUS
10
3.7724280708661415
20
-6.3958409842519686
11
3.7686785433070864
21
-6.3883419291338583
0
LINE
8
BLACK
6
CONTINUOUS
10
3.7686785433070864
20
-6.3883419291338583
11
3.7649290157480313
21
-6.3733438188976379
0
LINE
8
BLACK
6
CONTINUOUS
10
3.7649290157480313
20
-6.3733438188976379
11
3.7649290157480313
21
-6.3545961417322836
0
LINE
8
BLACK
6
CONTINUOUS
10
3.7649290157480313
20
-6.3545961417322836
11
3.7686785433070864
21
-6.3395980314960632
0
LINE
8
BLACK
6
CONTINUOUS
10
3.7686785433070864
20
-6.3395980314960632
11
3.7724280708661415
21
-6.3320989763779529
0
LINE
8
BLACK
6
CONTINUOUS
10
3.7724280708661415
20
-6.3320989763779529
11
3.7761775984251966
21
-6.3283494488188978
0
LINE
8
BLACK
6
CONTINUOUS
10
3.7761775984251966
20
-6.3283494488188978
11
3.7836766535433068
21
-6.3245999212598427
0
LINE
8
BLACK
6
CONTINUOUS
10
3.8436691732283466
20
-6.4033400787401575
11
3.8436691732283466
21
-6.3508466141732285
0
LINE
8
BLACK
6
CONTINUOUS
10
3.8436691732283466
20
-6.3583456692913387
11
3.8474187007874017
21
-6.3545961417322836
0
LINE
8
BLACK
6
CONTINUOUS
10
3.8474187007874017
20
-6.3545961417322836
11
3.8549177559055119
21
-6.3508466141732285
0
LINE
8
BLACK
6
CONTINUOUS
10
3.8549177559055119
20
-6.3508466141732285
11
3.866166377952756
21
-6.3508466141732285
0
LINE
8
BLACK
6
CONTINUOUS
10
3.866166377952756
20
-6.3508466141732285
11
3.8736654330708662
21
-6.3545961417322836
0
LINE
8
BLACK
6
CONTINUOUS
10
3.8736654330708662
20
-6.3545961417322836
11
3.8774149606299213
21
-6.3620952362204726
0
LINE
8
BLACK
6
CONTINUOUS
10
3.8774149606299213
20
-6.3620952362204726
11
3.8774149606299213
21
-6.4033400787401575
0
LINE
8
BLACK
6
CONTINUOUS
10
3.8774149606299213
20
-6.3620952362204726
11
3.8811644881889764
21
-6.3545961417322836
0
LINE
8
BLACK
6
CONTINUOUS
10
3.8811644881889764
20
-6.3545961417322836
11
3.8886635433070866
21
-6.3508466141732285
0
LINE
8
BLACK
6
CONTINUOUS
10
3.8886635433070866
20
-6.3508466141732285
11
3.899912125984252
21
-6.3508466141732285
0
LINE
8
BLACK
6
CONTINUOUS
10
3.899912125984252
20
-6.3508466141732285
11
3.9074112204724409
21
-6.3545961417322836
0
LINE
8
BLACK
6
CONTINUOUS
10
3.9074112204724409
20
-6.3545961417322836
11
3.911160748031496
21
-6.3620952362204726
0
LINE
8
BLACK
6
CONTINUOUS
10
3.911160748031496
20
-6.3620952362204726
11
3.911160748031496
21
-6.4033400787401575
0
LINE
8
BLACK
6
CONTINUOUS
10
3.9486560629921259
20
-6.4033400787401575
11
3.9486560629921259
21
-6.3508466141732285
0
LINE
8
BLACK
6
CONTINUOUS
10
3.9486560629921259
20
-6.3583456692913387
11
3.952405590551181
21
-6.3545961417322836
0
LINE
8
BLACK
6
CONTINUOUS
10
3.952405590551181
20
-6.3545961417322836
11
3.9599046456692912
21
-6.3508466141732285
0
LINE
8
BLACK
6
CONTINUOUS
10
3.9599046456692912
20
-6.3508466141732285
11
3.9711532677165353
21
-6.3508466141732285
0
LINE
8
BLACK
6
CONTINUOUS
10
3.9711532677165353
20
-6.3508466141732285
11
3.9786523228346455
21
-6.3545961417322836
0
LINE
8
BLACK
6
CONTINUOUS
10
3.9786523228346455
20
-6.3545961417322836
11
3.9824018503937006
21
-6.3620952362204726
0
LINE
8
BLACK
6
CONTINUOUS
10
3.9824018503937006
20
-6.3620952362204726
11
3.9824018503937006
21
-6.4033400787401575
0
LINE
8
BLACK
6
CONTINUOUS
10
3.9824018503937006
20
-6.3620952362204726
11
3.9861513779527558
21
-6.3545961417322836
0
LINE
8
BLACK
6
CONTINUOUS
10
3.9861513779527558
20
-6.3545961417322836
11
3.993650433070866
21
-6.3508466141732285
0
LINE
8
BLACK
6
CONTINUOUS
10
3.993650433070866
20
-6.3508466141732285
11
4.0048990157480313
21
-6.3508466141732285
0
LINE
8
BLACK
6
CONTINUOUS
10
4.0048990157480313
20
-6.3508466141732285
11
4.0123981102362203
21
-6.3545961417322836
0
LINE
8
BLACK
6
CONTINUOUS
10
4.0123981102362203
20
-6.3545961417322836
11
4.0161476377952754
21
-6.3620952362204726
0
LINE
8
BLACK
6
CONTINUOUS
10
4.0161476377952754
20
-6.3620952362204726
11
4.0161476377952754
21
-6.4033400787401575
0
LINE
8
BLACK
6
CONTINUOUS
10
4.1698784251968499
20
-6.3208503937007876
11
4.1023868897637792
21
-6.4220877165354331
0
LINE
8
BLACK
6
CONTINUOUS
10
4.271115787401575
20
-6.3245999212598427
11
4.278614881889764
21
-6.3245999212598427
0
LINE
8
BLACK
6
CONTINUOUS
10
4.278614881889764
20
-6.3245999212598427
11
4.2861139370078742
21
-6.3283494488188978
0
LINE
8
BLACK
6
CONTINUOUS
10
4.2861139370078742
20
-6.3283494488188978
11
4.2898634645669294
21
-6.3320989763779529
0
LINE
8
BLACK
6
CONTINUOUS
10
4.2898634645669294
20
-6.3320989763779529
11
4.2936129921259845
21
-6.3395980314960632
0
LINE
8
BLACK
6
CONTINUOUS
10
4.2936129921259845
20
-6.3395980314960632
11
4.2973625196850396
21
-6.3545961417322836
0
LINE
8
BLACK
6
CONTINUOUS
10
4.2973625196850396
20
-6.3545961417322836
11
4.2973625196850396
21
-6.3733438188976379
0
LINE
8
BLACK
6
CONTINUOUS
10
4.2973625196850396
20
-6.3733438188976379
11
4.2936129921259845
21
-6.3883419291338583
0
LINE
8
BLACK
6
CONTINUOUS
10
4.2936129921259845
20
-6.3883419291338583
11
4.2898634645669294
21
-6.3958409842519686
0
LINE
8
BLACK
6
CONTINUOUS
10
4.2898634645669294
20
-6.3958409842519686
11
4.2861139370078742
21
-6.3995905511811024
0
LINE
8
BLACK
6
CONTINUOUS
10
4.2861139370078742
20
-6.3995905511811024
11
4.278614881889764
21
-6.4033400787401575
0
LINE
8
BLACK
6
CONTINUOUS
10
4.278614881889764
20
-6.4033400787401575
11
4.271115787401575
21
-6.4033400787401575
0
LINE
8
BLACK
6
CONTINUOUS
10
4.271115787401575
20
-6.4033400787401575
11
4.2636167322834648
21
-6.3995905511811024
0
LINE
8
BLACK
6
CONTINUOUS
10
4.2636167322834648
20
-6.3995905511811024
11
4.2598672047244097
21
-6.3958409842519686
0
LINE
8
BLACK
6
CONTINUOUS
10
4.2598672047244097
20
-6.3958409842519686
11
4.2561176771653546
21
-6.3883419291338583
0
LINE
8
BLACK
6
CONTINUOUS
10
4.2561176771653546
20
-6.3883419291338583
11
4.2523681496062995
21
-6.3733438188976379
0
LINE
8
BLACK
6
CONTINUOUS
10
4.2523681496062995
20
-6.3733438188976379
11
4.2523681496062995
21
-6.3545961417322836
0
LINE
8
BLACK
6
CONTINUOUS
10
4.2523681496062995
20
-6.3545961417322836
11
4.2561176771653546
21
-6.3395980314960632
0
LINE
8
BLACK
6
CONTINUOUS
10
4.2561176771653546
20
-6.3395980314960632
11
4.2598672047244097
21
-6.3320989763779529
0
LINE
8
BLACK
6
CONTINUOUS
10
4.2598672047244097
20
-6.3320989763779529
11
4.2636167322834648
21
-6.3283494488188978
0
LINE
8
BLACK
6
CONTINUOUS
10
4.2636167322834648
20
-6.3283494488188978
11
4.271115787401575
21
-6.3245999212598427
0
LINE
8
BLACK
6
CONTINUOUS
10
4.3311083070866143
20
-6.3958409842519686
11
4.3348578346456694
21
-6.3995905511811024
0
LINE
8
BLACK
6
CONTINUOUS
10
4.3348578346456694
20
-6.3995905511811024
11
4.3311083070866143
21
-6.4033400787401575
0
LINE
8
BLACK
6
CONTINUOUS
10
4.3311083070866143
20
-6.4033400787401575
11
4.3273587795275592
21
-6.3995905511811024
0
LINE
8
BLACK
6
CONTINUOUS
10
4.3273587795275592
20
-6.3995905511811024
11
4.3311083070866143
21
-6.3958409842519686
0
LINE
8
BLACK
6
CONTINUOUS
10
4.3311083070866143
20
-6.3958409842519686
11
4.3311083070866143
21
-6.4033400787401575
0
LINE
8
BLACK
6
CONTINUOUS
10
4.3836017322834646
20
-6.3245999212598427
11
4.3911008267716536
21
-6.3245999212598427
0
LINE
8
BLACK
6
CONTINUOUS
10
4.3911008267716536
20
-6.3245999212598427
11
4.3985998818897638
21
-6.3283494488188978
0
LINE
8
BLACK
6
CONTINUOUS
10
4.3985998818897638
20
-6.3283494488188978
11
4.4023494094488189
21
-6.3320989763779529
0
LINE
8
BLACK
6
CONTINUOUS
10
4.4023494094488189
20
-6.3320989763779529
11
4.406098937007874
21
-6.3395980314960632
0
LINE
8
BLACK
6
CONTINUOUS
10
4.406098937007874
20
-6.3395980314960632
11
4.4098484645669291
21
-6.3545961417322836
0
LINE
8
BLACK
6
CONTINUOUS
10
4.4098484645669291
20
-6.3545961417322836
11
4.4098484645669291
21
-6.3733438188976379
0
LINE
8
BLACK
6
CONTINUOUS
10
4.4098484645669291
20
-6.3733438188976379
11
4.406098937007874
21
-6.3883419291338583
0
LINE
8
BLACK
6
CONTINUOUS
10
4.406098937007874
20
-6.3883419291338583
11
4.4023494094488189
21
-6.3958409842519686
0
LINE
8
BLACK
6
CONTINUOUS
10
4.4023494094488189
20
-6.3958409842519686
11
4.3985998818897638
21
-6.3995905511811024
0
LINE
8
BLACK
6
CONTINUOUS
10
4.3985998818897638
20
-6.3995905511811024
11
4.3911008267716536
21
-6.4033400787401575
0
LINE
8
BLACK
6
CONTINUOUS
10
4.3911008267716536
20
-6.4033400787401575
11
4.3836017322834646
21
-6.4033400787401575
0
LINE
8
BLACK
6
CONTINUOUS
10
4.3836017322834646
20
-6.4033400787401575
11
4.3761026771653544
21
-6.3995905511811024
0
LINE
8
BLACK
6
CONTINUOUS
10
4.3761026771653544
20
-6.3995905511811024
11
4.3723531496062993
21
-6.3958409842519686
0
LINE
8
BLACK
6
CONTINUOUS
10
4.3723531496062993
20
-6.3958409842519686
11
4.3686036220472442
21
-6.3883419291338583
0
LINE
8
BLACK
6
CONTINUOUS
10
4.3686036220472442
20
-6.3883419291338583
11
4.3648540944881891
21
-6.3733438188976379
0
LINE
8
BLACK
6
CONTINUOUS
10
4.3648540944881891
20
-6.3733438188976379
11
4.3648540944881891
21
-6.3545961417322836
0
LINE
8
BLACK
6
CONTINUOUS
10
4.3648540944881891
20
-6.3545961417322836
11
4.3686036220472442
21
-6.3395980314960632
0
LINE
8
BLACK
6
CONTINUOUS
10
4.3686036220472442
20
-6.3395980314960632
11
4.3723531496062993
21
-6.3320989763779529
0
LINE
8
BLACK
6
CONTINUOUS
10
4.3723531496062993
20
-6.3320989763779529
11
4.3761026771653544
21
-6.3283494488188978
0
LINE
8
BLACK
6
CONTINUOUS
10
4.3761026771653544
20
-6.3283494488188978
11
4.3836017322834646
21
-6.3245999212598427
0
LINE
8
BLACK
6
CONTINUOUS
10
4.4360951968503937
20
-6.3245999212598427
11
4.4848390944881888
21
-6.3245999212598427
0
LINE
8
BLACK
6
CONTINUOUS
10
4.4848390944881888
20
-6.3245999212598427
11
4.4585923622047243
21
-6.3545961417322836
0
LINE
8
BLACK
6
CONTINUOUS
10
4.4585923622047243
20
-6.3545961417322836
11
4.4698409842519684
21
-6.3545961417322836
0
LINE
8
BLACK
6
CONTINUOUS
10
4.4698409842519684
20
-6.3545961417322836
11
4.4773400393700786
21
-6.3583456692913387
0
LINE
8
BLACK
6
CONTINUOUS
10
4.4773400393700786
20
-6.3583456692913387
11
4.4810895669291337
21
-6.3620952362204726
0
LINE
8
BLACK
6
CONTINUOUS
10
4.4810895669291337
20
-6.3620952362204726
11
4.4848390944881888
21
-6.3695942913385828
0
LINE
8
BLACK
6
CONTINUOUS
10
4.4848390944881888
20
-6.3695942913385828
11
4.4848390944881888
21
-6.3883419291338583
0
LINE
8
BLACK
6
CONTINUOUS
10
4.4848390944881888
20
-6.3883419291338583
11
4.4810895669291337
21
-6.3958409842519686
0
LINE
8
BLACK
6
CONTINUOUS
10
4.4810895669291337
20
-6.3958409842519686
11
4.4773400393700786
21
-6.3995905511811024
0
LINE
8
BLACK
6
CONTINUOUS
10
4.4773400393700786
20
-6.3995905511811024
11
4.4698409842519684
21
-6.4033400787401575
0
LINE
8
BLACK
6
CONTINUOUS
10
4.4698409842519684
20
-6.4033400787401575
11
4.447343779527559
21
-6.4033400787401575
0
LINE
8
BLACK
6
CONTINUOUS
10
4.447343779527559
20
-6.4033400787401575
11
4.4398447244094488
21
-6.3995905511811024
0
LINE
8
BLACK
6
CONTINUOUS
10
4.4398447244094488
20
-6.3995905511811024
11
4.4360951968503937
21
-6.3958409842519686
0
LINE
8
BLACK
6
CONTINUOUS
10
4.5223344094488187
20
-6.4033400787401575
11
4.5373325196850391
21
-6.4033400787401575
0
LINE
8
BLACK
6
CONTINUOUS
10
4.5373325196850391
20
-6.4033400787401575
11
4.5448316141732281
21
-6.3995905511811024
0
LINE
8
BLACK
6
CONTINUOUS
10
4.5448316141732281
20
-6.3995905511811024
11
4.5485811417322832
21
-6.3958409842519686
0
LINE
8
BLACK
6
CONTINUOUS
10
4.5485811417322832
20
-6.3958409842519686
11
4.5560801968503934
21
-6.3845924015748032
0
LINE
8
BLACK
6
CONTINUOUS
10
4.5560801968503934
20
-6.3845924015748032
11
4.5598297244094486
21
-6.3695942913385828
0
LINE
8
BLACK
6
CONTINUOUS
10
4.5598297244094486
20
-6.3695942913385828
11
4.5598297244094486
21
-6.3395980314960632
0
LINE
8
BLACK
6
CONTINUOUS
10
4.5598297244094486
20
-6.3395980314960632
11
4.5560801968503934
21
-6.3320989763779529
0
LINE
8
BLACK
6
CONTINUOUS
10
4.5560801968503934
20
-6.3320989763779529
11
4.5523306692913383
21
-6.3283494488188978
0
LINE
8
BLACK
6
CONTINUOUS
10
4.5523306692913383
20
-6.3283494488188978
11
4.5448316141732281
21
-6.3245999212598427
0
LINE
8
BLACK
6
CONTINUOUS
10
4.5448316141732281
20
-6.3245999212598427
11
4.5298334645669289
21
-6.3245999212598427
0
LINE
8
BLACK
6
CONTINUOUS
10
4.5298334645669289
20
-6.3245999212598427
11
4.5223344094488187
21
-6.3283494488188978
0
LINE
8
BLACK
6
CONTINUOUS
10
4.5223344094488187
20
-6.3283494488188978
11
4.5185848818897636
21
-6.3320989763779529
0
LINE
8
BLACK
6
CONTINUOUS
10
4.5185848818897636
20
-6.3320989763779529
11
4.5148353543307085
21
-6.3395980314960632
0
LINE
8
BLACK
6
CONTINUOUS
10
4.5148353543307085
20
-6.3395980314960632
11
4.5148353543307085
21
-6.3583456692913387
0
LINE
8
BLACK
6
CONTINUOUS
10
4.5148353543307085
20
-6.3583456692913387
11
4.5185848818897636
21
-6.3658447637795277
0
LINE
8
BLACK
6
CONTINUOUS
10
4.5185848818897636
20
-6.3658447637795277
11
4.5223344094488187
21
-6.3695942913385828
0
LINE
8
BLACK
6
CONTINUOUS
10
4.5223344094488187
20
-6.3695942913385828
11
4.5298334645669289
21
-6.3733438188976379
0
LINE
8
BLACK
6
CONTINUOUS
10
4.5298334645669289
20
-6.3733438188976379
11
4.5448316141732281
21
-6.3733438188976379
0
LINE
8
BLACK
6
CONTINUOUS
10
4.5448316141732281
20
-6.3733438188976379
11
4.5523306692913383
21
-6.3695942913385828
0
LINE
8
BLACK
6
CONTINUOUS
10
4.5523306692913383
20
-6.3695942913385828
11
4.5560801968503934
21
-6.3658447637795277
0
LINE
8
BLACK
6
CONTINUOUS
10
4.5560801968503934
20
-6.3658447637795277
11
4.5598297244094486
21
-6.3583456692913387
0
LINE
8
BLACK
6
CONTINUOUS
10
4.627321299212598
20
-6.3508466141732285
11
4.627321299212598
21
-6.4033400787401575
0
LINE
8
BLACK
6
CONTINUOUS
10
4.6085736220472437
20
-6.3208503937007876
11
4.5898259842519682
21
-6.377093346456693
0
LINE
8
BLACK
6
CONTINUOUS
10
4.5898259842519682
20
-6.377093346456693
11
4.6385698818897634
21
-6.377093346456693
0
LINE
8
BLACK
6
CONTINUOUS
10
4.6648166141732279
20
-6.3245999212598427
11
4.6648166141732279
21
-6.3395980314960632
0
LINE
8
BLACK
6
CONTINUOUS
10
4.6948128740157475
20
-6.3245999212598427
11
4.6948128740157475
21
-6.3395980314960632
0
LINE
8
BLACK
6
CONTINUOUS
10
4.8110483858267719
20
-6.4333362992125984
11
4.807298818897638
21
-6.4295867716535433
0
LINE
8
BLACK
6
CONTINUOUS
10
4.807298818897638
20
-6.4295867716535433
11
4.7997997637795278
21
-6.418338188976378
0
LINE
8
BLACK
6
CONTINUOUS
10
4.7997997637795278
20
-6.418338188976378
11
4.7960502362204727
21
-6.4108391338582678
0
LINE
8
BLACK
6
CONTINUOUS
10
4.7960502362204727
20
-6.4108391338582678
11
4.7923007086614176
21
-6.3995905511811024
0
LINE
8
BLACK
6
CONTINUOUS
10
4.7923007086614176
20
-6.3995905511811024
11
4.7885511811023624
21
-6.3808428740157481
0
LINE
8
BLACK
6
CONTINUOUS
10
4.7885511811023624
20
-6.3808428740157481
11
4.7885511811023624
21
-6.3658447637795277
0
LINE
8
BLACK
6
CONTINUOUS
10
4.7885511811023624
20
-6.3658447637795277
11
4.7923007086614176
21
-6.3470970866141734
0
LINE
8
BLACK
6
CONTINUOUS
10
4.7923007086614176
20
-6.3470970866141734
11
4.7960502362204727
21
-6.335848503937008
0
LINE
8
BLACK
6
CONTINUOUS
10
4.7960502362204727
20
-6.335848503937008
11
4.7997997637795278
21
-6.3283494488188978
0
LINE
8
BLACK
6
CONTINUOUS
10
4.7997997637795278
20
-6.3283494488188978
11
4.807298818897638
21
-6.3171008267716537
0
LINE
8
BLACK
6
CONTINUOUS
10
4.807298818897638
20
-6.3171008267716537
11
4.8110483858267719
21
-6.3133512992125986
0
LINE
8
BLACK
6
CONTINUOUS
10
4.8372950787401576
20
-6.3320989763779529
11
4.8410446062992127
21
-6.3283494488188978
0
LINE
8
BLACK
6
CONTINUOUS
10
4.8410446062992127
20
-6.3283494488188978
11
4.848543661417323
21
-6.3245999212598427
0
LINE
8
BLACK
6
CONTINUOUS
10
4.848543661417323
20
-6.3245999212598427
11
4.8672913385826773
21
-6.3245999212598427
0
LINE
8
BLACK
6
CONTINUOUS
10
4.8672913385826773
20
-6.3245999212598427
11
4.8747903937007875
21
-6.3283494488188978
0
LINE
8
BLACK
6
CONTINUOUS
10
4.8747903937007875
20
-6.3283494488188978
11
4.8785399212598426
21
-6.3320989763779529
0
LINE
8
BLACK
6
CONTINUOUS
10
4.8785399212598426
20
-6.3320989763779529
11
4.8822894488188977
21
-6.3395980314960632
0
LINE
8
BLACK
6
CONTINUOUS
10
4.8822894488188977
20
-6.3395980314960632
11
4.8822894488188977
21
-6.3470970866141734
0
LINE
8
BLACK
6
CONTINUOUS
10
4.8822894488188977
20
-6.3470970866141734
11
4.8785399212598426
21
-6.3583456692913387
0
LINE
8
BLACK
6
CONTINUOUS
10
4.8785399212598426
20
-6.3583456692913387
11
4.8335455511811025
21
-6.4033400787401575
0
LINE
8
BLACK
6
CONTINUOUS
10
4.8335455511811025
20
-6.4033400787401575
11
4.8822894488188977
21
-6.4033400787401575
0
LINE
8
BLACK
6
CONTINUOUS
10
4.9760277559055117
20
-6.4033400787401575
11
4.9760277559055117
21
-6.3245999212598427
0
LINE
8
BLACK
6
CONTINUOUS
10
5.0097735433070865
20
-6.4033400787401575
11
5.0097735433070865
21
-6.3620952362204726
0
LINE
8
BLACK
6
CONTINUOUS
10
5.0097735433070865
20
-6.3620952362204726
11
5.0060240157480314
21
-6.3545961417322836
0
LINE
8
BLACK
6
CONTINUOUS
10
5.0060240157480314
20
-6.3545961417322836
11
4.9985249606299211
21
-6.3508466141732285
0
LINE
8
BLACK
6
CONTINUOUS
10
4.9985249606299211
20
-6.3508466141732285
11
4.987276338582677
21
-6.3508466141732285
0
LINE
8
BLACK
6
CONTINUOUS
10
4.987276338582677
20
-6.3508466141732285
11
4.9797772834645668
21
-6.3545961417322836
0
LINE
8
BLACK
6
CONTINUOUS
10
4.9797772834645668
20
-6.3545961417322836
11
4.9760277559055117
21
-6.3583456692913387
0
LINE
8
BLACK
6
CONTINUOUS
10
5.0585174409448816
20
-6.4033400787401575
11
5.0510183858267714
21
-6.3995905511811024
0
LINE
8
BLACK
6
CONTINUOUS
10
5.0510183858267714
20
-6.3995905511811024
11
5.0472688582677163
21
-6.3958409842519686
0
LINE
8
BLACK
6
CONTINUOUS
10
5.0472688582677163
20
-6.3958409842519686
11
5.0435193307086612
21
-6.3883419291338583
0
LINE
8
BLACK
6
CONTINUOUS
10
5.0435193307086612
20
-6.3883419291338583
11
5.0435193307086612
21
-6.3658447637795277
0
LINE
8
BLACK
6
CONTINUOUS
10
5.0435193307086612
20
-6.3658447637795277
11
5.0472688582677163
21
-6.3583456692913387
0
LINE
8
BLACK
6
CONTINUOUS
10
5.0472688582677163
20
-6.3583456692913387
11
5.0510183858267714
21
-6.3545961417322836
0
LINE
8
BLACK
6
CONTINUOUS
10
5.0510183858267714
20
-6.3545961417322836
11
5.0585174409448816
21
-6.3508466141732285
0
LINE
8
BLACK
6
CONTINUOUS
10
5.0585174409448816
20
-6.3508466141732285
11
5.0697660629921257
21
-6.3508466141732285
0
LINE
8
BLACK
6
CONTINUOUS
10
5.0697660629921257
20
-6.3508466141732285
11
5.077265118110236
21
-6.3545961417322836
0
LINE
8
BLACK
6
CONTINUOUS
10
5.077265118110236
20
-6.3545961417322836
11
5.0810146456692911
21
-6.3583456692913387
0
LINE
8
BLACK
6
CONTINUOUS
10
5.0810146456692911
20
-6.3583456692913387
11
5.0847641732283462
21
-6.3658447637795277
0
LINE
8
BLACK
6
CONTINUOUS
10
5.0847641732283462
20
-6.3658447637795277
11
5.0847641732283462
21
-6.3883419291338583
0
LINE
8
BLACK
6
CONTINUOUS
10
5.0847641732283462
20
-6.3883419291338583
11
5.0810146456692911
21
-6.3958409842519686
0
LINE
8
BLACK
6
CONTINUOUS
10
5.0810146456692911
20
-6.3958409842519686
11
5.077265118110236
21
-6.3995905511811024
0
LINE
8
BLACK
6
CONTINUOUS
10
5.077265118110236
20
-6.3995905511811024
11
5.0697660629921257
21
-6.4033400787401575
0
LINE
8
BLACK
6
CONTINUOUS
10
5.0697660629921257
20
-6.4033400787401575
11
5.0585174409448816
21
-6.4033400787401575
0
LINE
8
BLACK
6
CONTINUOUS
10
5.1297585433070862
20
-6.4033400787401575
11
5.122259488188976
21
-6.3995905511811024
0
LINE
8
BLACK
6
CONTINUOUS
10
5.122259488188976
20
-6.3995905511811024
11
5.1185099606299209
21
-6.3920914566929135
0
LINE
8
BLACK
6
CONTINUOUS
10
5.1185099606299209
20
-6.3920914566929135
11
5.1185099606299209
21
-6.3245999212598427
0
LINE
8
BLACK
6
CONTINUOUS
10
5.1897510629921255
20
-6.3995905511811024
11
5.1822520078740153
21
-6.4033400787401575
0
LINE
8
BLACK
6
CONTINUOUS
10
5.1822520078740153
20
-6.4033400787401575
11
5.1672538582677161
21
-6.4033400787401575
0
LINE
8
BLACK
6
CONTINUOUS
10
5.1672538582677161
20
-6.4033400787401575
11
5.1597548031496059
21
-6.3995905511811024
0
LINE
8
BLACK
6
CONTINUOUS
10
5.1597548031496059
20
-6.3995905511811024
11
5.1560052755905508
21
-6.3920914566929135
0
LINE
8
BLACK
6
CONTINUOUS
10
5.1560052755905508
20
-6.3920914566929135
11
5.1560052755905508
21
-6.3620952362204726
0
LINE
8
BLACK
6
CONTINUOUS
10
5.1560052755905508
20
-6.3620952362204726
11
5.1597548031496059
21
-6.3545961417322836
0
LINE
8
BLACK
6
CONTINUOUS
10
5.1597548031496059
20
-6.3545961417322836
11
5.1672538582677161
21
-6.3508466141732285
0
LINE
8
BLACK
6
CONTINUOUS
10
5.1672538582677161
20
-6.3508466141732285
11
5.1822520078740153
21
-6.3508466141732285
0
LINE
8
BLACK
6
CONTINUOUS
10
5.1822520078740153
20
-6.3508466141732285
11
5.1897510629921255
21
-6.3545961417322836
0
LINE
8
BLACK
6
CONTINUOUS
10
5.1897510629921255
20
-6.3545961417322836
11
5.1935005905511806
21
-6.3620952362204726
0
LINE
8
BLACK
6
CONTINUOUS
10
5.1935005905511806
20
-6.3620952362204726
11
5.1935005905511806
21
-6.3695942913385828
0
LINE
8
BLACK
6
CONTINUOUS
10
5.1935005905511806
20
-6.3695942913385828
11
5.1560052755905508
21
-6.377093346456693
0
LINE
8
BLACK
6
CONTINUOUS
10
5.2234968503937003
20
-6.3995905511811024
11
5.2309959055118105
21
-6.4033400787401575
0
LINE
8
BLACK
6
CONTINUOUS
10
5.2309959055118105
20
-6.4033400787401575
11
5.2459940157480318
21
-6.4033400787401575
0
LINE
8
BLACK
6
CONTINUOUS
10
5.2459940157480318
20
-6.4033400787401575
11
5.2534931102362208
21
-6.3995905511811024
0
LINE
8
BLACK
6
CONTINUOUS
10
5.2534931102362208
20
-6.3995905511811024
11
5.2572426377952759
21
-6.3920914566929135
0
LINE
8
BLACK
6
CONTINUOUS
10
5.2572426377952759
20
-6.3920914566929135
11
5.2572426377952759
21
-6.3883419291338583
0
LINE
8
BLACK
6
CONTINUOUS
10
5.2572426377952759
20
-6.3883419291338583
11
5.2534931102362208
21
-6.3808428740157481
0
LINE
8
BLACK
6
CONTINUOUS
10
5.2534931102362208
20
-6.3808428740157481
11
5.2459940157480318
21
-6.377093346456693
0
LINE
8
BLACK
6
CONTINUOUS
10
5.2459940157480318
20
-6.377093346456693
11
5.2347454330708656
21
-6.377093346456693
0
LINE
8
BLACK
6
CONTINUOUS
10
5.2347454330708656
20
-6.377093346456693
11
5.2272463779527554
21
-6.3733438188976379
0
LINE
8
BLACK
6
CONTINUOUS
10
5.2272463779527554
20
-6.3733438188976379
11
5.2234968503937003
21
-6.3658447637795277
0
LINE
8
BLACK
6
CONTINUOUS
10
5.2234968503937003
20
-6.3658447637795277
11
5.2234968503937003
21
-6.3620952362204726
0
LINE
8
BLACK
6
CONTINUOUS
10
5.2234968503937003
20
-6.3620952362204726
11
5.2272463779527554
21
-6.3545961417322836
0
LINE
8
BLACK
6
CONTINUOUS
10
5.2272463779527554
20
-6.3545961417322836
11
5.2347454330708656
21
-6.3508466141732285
0
LINE
8
BLACK
6
CONTINUOUS
10
5.2347454330708656
20
-6.3508466141732285
11
5.2459940157480318
21
-6.3508466141732285
0
LINE
8
BLACK
6
CONTINUOUS
10
5.2459940157480318
20
-6.3508466141732285
11
5.2534931102362208
21
-6.3545961417322836
0
LINE
8
BLACK
6
CONTINUOUS
10
5.2834893700787404
20
-6.4333362992125984
11
5.2872388976377955
21
-6.4295867716535433
0
LINE
8
BLACK
6
CONTINUOUS
10
5.2872388976377955
20
-6.4295867716535433
11
5.2947379527559058
21
-6.418338188976378
0
LINE
8
BLACK
6
CONTINUOUS
10
5.2947379527559058
20
-6.418338188976378
11
5.2984874803149609
21
-6.4108391338582678
0
LINE
8
BLACK
6
CONTINUOUS
10
5.2984874803149609
20
-6.4108391338582678
11
5.302237007874016
21
-6.3995905511811024
0
LINE
8
BLACK
6
CONTINUOUS
10
5.302237007874016
20
-6.3995905511811024
11
5.3059865354330711
21
-6.3808428740157481
0
LINE
8
BLACK
6
CONTINUOUS
10
5.3059865354330711
20
-6.3808428740157481
11
5.3059865354330711
21
-6.3658447637795277
0
LINE
8
BLACK
6
CONTINUOUS
10
5.3059865354330711
20
-6.3658447637795277
11
5.302237007874016
21
-6.3470970866141734
0
LINE
8
BLACK
6
CONTINUOUS
10
5.302237007874016
20
-6.3470970866141734
11
5.2984874803149609
21
-6.335848503937008
0
LINE
8
BLACK
6
CONTINUOUS
10
5.2984874803149609
20
-6.335848503937008
11
5.2947379527559058
21
-6.3283494488188978
0
LINE
8
BLACK
6
CONTINUOUS
10
5.2947379527559058
20
-6.3283494488188978
11
5.2872388976377955
21
-6.3171008267716537
0
LINE
8
BLACK
6
CONTINUOUS
10
5.2872388976377955
20
-6.3171008267716537
11
5.2834893700787404
21
-6.3133512992125986
  0
ENDSEC
  0
EOF
