M48
; DRILL file {KiCad 7.0.10+dfsg-1} date Wed 28 Feb 2024 09:18:22 PM +08
; FORMAT={-:-/ absolute / inch / decimal}
; #@! TF.CreationDate,2024-02-28T21:18:22+08:00
; #@! TF.GenerationSoftware,Kicad,Pcbnew,7.0.10+dfsg-1
; #@! TF.FileFunction,Plated,1,2,PTH
FMAT,2
INCH
; #@! TA.AperFunction,Plated,PTH,ViaDrill
T1C0.0157
; #@! TA.AperFunction,Plated,PTH,ComponentDrill
T2C0.0236
; #@! TA.AperFunction,Plated,PTH,ComponentDrill
T3C0.0394
%
G90
G05
T1
X3.4331Y-5.1535
X3.5315Y-3.5
X3.5315Y-5.5197
X3.5354Y-3.937
X3.5866Y-4.7441
X3.5866Y-5.3701
X3.6024Y-4.1339
X3.6063Y-4.6457
X3.6142Y-4.3622
X3.6339Y-4.4961
X3.6496Y-5.063
X3.7165Y-4.2953
X3.7362Y-5.378
X3.7717Y-5.5236
X3.8568Y-5.0094
X3.9156Y-5.0682
X3.9911Y-5.1644
X4.065Y-4.0778
X4.0748Y-4.4055
X4.0925Y-5.3248
X4.1102Y-5.1073
X4.1447Y-4.7156
X4.2372Y-4.8868
X4.2383Y-5.0953
X4.313Y-4.8081
X4.3425Y-5.5669
X4.4705Y-5.2569
X4.562Y-5.2569
X4.6299Y-4.248
X4.7402Y-5.3219
X4.9045Y-4.0167
X4.9419Y-5.6594
X4.9793Y-4.2185
X5.0256Y-5.498
X5.0285Y-5.2884
X5.0433Y-4.6102
X5.1811Y-5.0866
X5.1969Y-4.1339
X5.4026Y-5.7421
T3
X3.5394Y-3.7415
X3.5394Y-3.8415
T2
G00X3.4835Y-5.6022
M15
G01X3.4835Y-5.6455
M16
G05
G00X3.4835Y-5.7766
M15
G01X3.4835Y-5.8002
M16
G05
G00X3.8236Y-5.6022
M15
G01X3.8236Y-5.6455
M16
G05
G00X3.8236Y-5.7766
M15
G01X3.8236Y-5.8002
M16
G05
M30
